<?xml version="1.0" encoding="utf-8"?>
<!-- Generated by IcoMoon.io -->
<!DOCTYPE svg PUBLIC "-//W3C//DTD SVG 1.1//EN" "http://www.w3.org/Graphics/SVG/1.1/DTD/svg11.dtd">
<svg version="1.1" xmlns="http://www.w3.org/2000/svg" xmlns:xlink="http://www.w3.org/1999/xlink" width="33" height="48" viewBox="0 0 33 48">
<g id="icomoon-ignore">
	<line stroke-width="1" x1="" y1="" x2="" y2="" stroke="#449FDB" opacity=""></line>
</g>
	<path d="M0.721 0l0-0h9.422l6.564 11.086 6.564-11.086h9.417c0.008 0.096-0.008 0.193-0.058 0.279l-11.159 18.85 10.984 18.55c0.086 0.148 0.085 0.33 0 0.479s-0.24 0.241-0.411 0.242h-8.422c-0.169-0.001-0.325-0.091-0.411-0.237l-6.506-10.986-6.506 10.986c-0.086 0.146-0.242 0.236-0.411 0.237h-8.417c-0.171-0.001-0.326-0.094-0.411-0.242s-0.086-0.331 0-0.479l10.986-18.55-11.164-18.85c-0.051-0.086-0.070-0.183-0.063-0.279z" fill="#000000"></path>
</svg>
