<?xml version="1.0" encoding="utf-8"?>
<!-- Generator: Adobe Illustrator 18.0.0, SVG Export Plug-In . SVG Version: 6.00 Build 0)  -->
<!DOCTYPE svg PUBLIC "-//W3C//DTD SVG 1.1//EN" "http://www.w3.org/Graphics/SVG/1.1/DTD/svg11.dtd">
<svg version="1.1" id="Layer_1" xmlns="http://www.w3.org/2000/svg" xmlns:xlink="http://www.w3.org/1999/xlink" x="0px" y="0px"
	 viewBox="0 0 48 48" enable-background="new 0 0 48 48" xml:space="preserve">
<g id="leaf">
	<path fill="#00ACEE" d="M39.6,7.2c-5.9,0-10.3,6.3-8.3,10.7C39.7,18,36.3,10.2,39.6,7.2z"/>
</g>
<path id="wing_tip" fill="#2BAF2B" d="M36.6,25.4c0.6,0.6-1.3,2.3-3,1.5c0.8,1.7-2.6,3.1-4.2,1.9c0.2,1.4-3.2,2.2-4.2,0.6
	c0.3,0.7,0.5,1.3,0.7,1.8c0,0,0,0,0,0c0.6,0.7,1.3,1.3,4.6,1.3c5,0,13.2-3.8,13.2-6.6c0-2.3-0.9-2.5-2.4-2.4c-1.5,0.2-9.3,1-11,0.7
	C31.2,24.4,35.7,25.2,36.6,25.4z"/>
<path id="eye" fill="#543729" d="M16.6,14.5c0,1.3,1,2.3,2.3,2.3c1.3,0,2.3-1,2.3-2.3c0-1.3-1-2.3-2.3-2.3
	C17.6,12.1,16.6,13.2,16.6,14.5z"/>
<ellipse id="pupil_highlight" fill="#FFFFFF" cx="18.9" cy="13.4" rx="1.4" ry="0.8"/>
<path id="beak" fill="#CECECE" d="M26.9,12.5c-1.8,1-1.7,4.4-0.9,6c1.5-0.6,3.6-1.7,4-1.9c0.3-0.2-0.2-1,1.1-1
	c1.8,0,3.4,0.6,3.8,0.8C34.6,15.8,31,12.5,26.9,12.5z"/>
<path id="outline" fill="#543729" d="M45.5,23.5c-2.3-2.2-13.8-3.6-17.4-4c0.2-0.4,0.3-0.8,0.4-1.3c0.5-0.2,1-0.4,1.6-0.6
	c0.1,0.2,0.4,1,0.6,1.3c7.3,0.2,7.7-5.4,8-7c0.3-1.5,0.3-3,2.8-5.6c-3.7-1.1-9.1,1.7-10.9,5.8c-0.7-0.3-1.3-0.4-2-0.6
	c-0.5-1.9-3-7.3-9.5-7.3c-4.2,0-8.5,1.7-11.7,4.8c-1.7,1.6-3.1,3.6-4,5.8c-1,2.4-1.5,5-1.5,7.8C1.7,32.5,8.3,41,12.1,41
	c1.6,0,3-1.2,3.4-2.3c0.3,0.8,1.1,3.1,1.4,3.7c0.4,0.9,2.3,1.6,3.2,0.7c1.1,0.6,3,1,4.1-0.6c2.1,0.4,3.9-0.8,3.9-2.3
	c1-0.1,1.5-1.5,1.3-2.6c-0.2-0.8-1.9-3.8-2.6-4.9c1.3,1.1,4.8,1.4,5.2,0c2.2,1.7,5.6,0.8,5.8-0.6c2.6,0.7,5.7-0.8,5.2-2.6
	C47.2,29.2,46.7,24.7,45.5,23.5z M34.4,16.1c-1.1-0.4-2.5-0.7-3.5-0.7c-1.4,0-2.3,0.8-3.6,0.8c-0.3,0-0.9,0-1.5-0.2
	c0.4,0.4,0.8,0.6,1.6,0.6c0.5,0,1.5-0.3,2.3-0.5c0,0.2,0,0.3,0.1,0.5c-1.5,0.4-3.1,1.3-3.6,1.6c-1-2.3-0.1-4.4,0.7-5.4
	C30.6,12.7,33.5,15.2,34.4,16.1z M36,15.9l-0.6-0.5c-0.6-0.5-1.2-1-1.8-1.5c0.9-1.8,2.1-3.8,3.5-5c-1.6,0.6-3.2,2.6-4.1,4.6
	c-0.5-0.3-1-0.6-1.4-0.8c1.3-2.8,4.3-5.1,7.7-5.3C37,9.5,37.9,13.5,36,15.9z M31.4,17.8c-0.2-0.5-0.5-1.4-0.5-1.9
	c0.4,0,1.2,0.1,1.3,0.2c0,0.2-0.1,0.8-0.1,0.8c0.1-0.1,0.3-0.6,0.4-0.8c0.8,0.2,1.8,0.4,2.5,0.7C34.3,17.2,33.1,17.7,31.4,17.8z
	 M26.4,11.5c-2.9,3-1.8,6.7-0.7,8.4c-1.5,2.5-4.5,4.2-7.9,5c3.9,0,6.1-1,7.5-2c0.8-0.6,1.3-1.2,1.5-1.6c5.7,0.4,14.8,2.2,15.7,2.8
	c0.4,0.2,0.7,0.8,0.8,1.3c-4.3-0.6-12.1-1.2-14.1-1.3c1.4,0.2,12,2.2,13.8,2.7c-0.6,0.9-1.8,1.5-3.7,1.1c1,1.4-1,3.1-3.8,2.2
	c0.6,1.4-1.9,2.6-4.7,1.2c0,1.4-3.5,1.5-4.9,0c0,0.2,0.2,0.5,0.3,0.7c-0.5,4-3.7,6.5-7.1,6.5c-8.3,0-15.5-6.7-15.5-15.6
	c0-9.4,7-16.5,15.4-16.5C23.8,6.3,26,10.1,26.4,11.5z"/>
</svg>
