<?xml version="1.0" encoding="utf-8"?>
<!-- Generator: Adobe Illustrator 18.0.0, SVG Export Plug-In . SVG Version: 6.00 Build 0)  -->
<!DOCTYPE svg PUBLIC "-//W3C//DTD SVG 1.1//EN" "http://www.w3.org/Graphics/SVG/1.1/DTD/svg11.dtd">
<svg version="1.1" id="Layer_1" xmlns="http://www.w3.org/2000/svg" xmlns:xlink="http://www.w3.org/1999/xlink" x="0px" y="0px"
	 viewBox="0 0 48 48" enable-background="new 0 0 48 48" xml:space="preserve">
<path fill="#E78724" d="M20.4,21.7c0,0-0.7,1.7-1.1,2.7c-0.4,1-2,1.5-2,1.5s0.8-0.9,0.8-3c0-0.9,1.2-1.3,1.2-1.3L20.4,21.7
	L20.4,21.7z"/>
<path fill="#E78724" d="M18.9,17.8c-1.1-1.5-2.8-2.2-4.2-2.3c-2.4-0.2-3.5,0.7-3.5,0.7s3.9,0.2,5,1.6c2.1,2.7,5.1,3,5.6,2.4
	c-0.6,0-1.2-0.3-1.8-0.9C19.6,18.9,19.3,18.3,18.9,17.8L18.9,17.8L18.9,17.8z"/>
<path fill="#E78724" d="M18,7.2c-1.8,0.9-4.3,2.2-4.3,2.2l1,0.5c-0.1,0.2-0.1,0.2-0.1,0.2l1,0.5c0,0,2.4,1.8,3.9,2.9
	c-0.5-1.5-2-3.9-2-3.9S17.1,8.4,18,7.2L18,7.2L18,7.2z"/>
<path fill="#FDC168" d="M10.2,5.1L10,4.9C9.3,5,10.2,5.1,10.2,5.1L10.2,5.1L10.2,5.1z"/>
<path fill="#C9C9C9" d="M18.3,20.5c0,0-1.1,0.5-2.3,0.1c-1.6-0.5-1.7-2.2-1.7-2.2s-1,2.9,1.8,3.5c2.2,0.4,3.5-0.8,3.5-0.8L18.3,20.5
	L18.3,20.5z"/>
<path fill="#463014" d="M19.1,5.8C19,3.3,21,1.3,21.8,1.2c0,0.4,0,2.1,0.7,2.6C22.6,2.5,23.3,1,26.1,0c-0.6,1.6-0.1,2.9,0.2,3.5
	c1.9-1.7,3.1-1.4,3.1-1.4s-1.3,2.3-0.8,3.7C24.8,5.5,19.1,6.2,19.1,5.8L19.1,5.8L19.1,5.8z"/>
<path fill="#463014" d="M11.1,9.6c-0.9-0.7-0.2-1.4-0.3-2.3c0-0.5-0.1-0.9-0.2-1.1C9.8,4.9,7.8,4.5,7.8,4.5L6.9,4.3l0.6-0.7
	c0.1-0.1,2.6-2.5,6.4-1.2c2.7,0.9,4.7,3.8,4.8,3.9l-1.4,0.6c0,0-1.6-2.8-3.9-3.5c-1.9-0.6-3.6,0-4.3,0.3c0.8,0.3,1.8,0.9,2.4,1.9
	c0.3,0.5,0.3,1,0.4,1.6C12,8,12,8.7,12.6,9.1L11.1,9.6L11.1,9.6z"/>
<path fill="#463014" d="M8.7,20.5c0,0,1.1-1.4,1.5-4.1c0.1-1.1-0.1-3.2-0.5-4c0.1,2-0.4,4-0.4,4S8.9,20.1,8.7,20.5L8.7,20.5
	L8.7,20.5z"/>
<path fill="#463014" d="M14.7,8.2c0,0-0.4-1.6-1.4-2.4c-1.4-1.1-3.2-0.5-3.2-0.5L9.9,4.5c0.1,0,2.1-0.7,3.9,0.6
	c1.8,1.3,2.1,2.5,2.1,2.6L14.7,8.2L14.7,8.2z"/>
<path fill="#463014" d="M12.3,19.5c0,0-0.6-0.9-0.5-1.8c0.1-0.5,0.3-0.9,0.7-1.1c0.7-0.3,1,0.5,1,0.5S12.5,17.3,12.3,19.5L12.3,19.5
	L12.3,19.5z"/>
<path fill="#463014" d="M18.8,20.8C18.8,20.8,18.9,20.9,18.8,20.8c0,0.1-1.8,1.5-3.7,0.1c-1-0.8-0.9-2.6-0.6-3.4
	c0.8,0.2,1.5,0.5,2.1,0.9c-0.7-0.6-1.4-1.1-1.4-1.1l-0.8-0.2l-1.6-0.6c0,0.1-0.6,2.9,1.1,4.7c0.7,0.8,4.3,2.7,5.9-0.5L18.8,20.8
	L18.8,20.8z"/>
<path fill="#463014" d="M18.6,21c1,1.6,3.7,0.7,3.6-1c0,0-1.8,1-3.3-0.8c-0.9-1-3.8-3.9-7.8-3C13.9,16.8,17.5,19.3,18.6,21L18.6,21
	L18.6,21z"/>
<path fill="#463014" d="M10.8,25.5c0.3,0.1,1.1,1.1,1.1,2.4c0,0.7-0.1,4.1-0.4,6.3c0.5,0.3,0.9,0.4,1.4,0.7c0.3-2.4,0.4-6,0.4-7.4
	c-0.1-1.6-1-2.7-1.8-3.2c-0.3-0.1-0.5-0.3-0.8-0.4c-1.4-0.8-2.8-1.5-2.8-2.9c0-1,0.4-1.4,0.8-1.7l0,0C9,19,9.4,18.8,9.6,18.4
	c0.5-1.2,0.6-4.1,0-4.9c-0.3-0.4-1.1-1.6-0.9-2.5c0.1-0.3,0.3-0.6,0.6-0.7c0.4-0.2,0.8-0.3,1.4-0.3c1.1,0,2.4,0.3,3.1,0.6
	c2.3,0.7,5.2,2.9,6,3.5c0,0,0,0,0,0l0.5,0.4L20,13.9c0,0-2.1-3.4-5.8-4.7c-0.7-0.2-2.1-0.6-3.5-0.6C9.9,8.6,9.2,8.8,8.7,9
	C8,9.4,7.6,9.9,7.4,10.6c-0.5,1.7,1,3.6,1.1,3.7c0.2,0.3,0.3,2.6-0.2,3.5c-0.1,0.1-0.2,0.3-0.4,0.4c-0.1,0-0.1,0.1-0.2,0.2
	c-0.6,0.4-1.4,1.1-1.4,2.6c0,2.1,2.1,3.2,3.8,4.1C10.3,25.2,10.6,25.3,10.8,25.5L10.8,25.5L10.8,25.5z"/>
<path fill="#463014" d="M11.1,9.6c-0.9-0.7-0.2-1.4-0.3-2.3c0-0.5-0.1-0.9-0.2-1.1C9.8,4.9,7.8,4.5,7.8,4.5L6.9,4.3l0.6-0.7
	c0.1-0.1,2.6-2.5,6.4-1.2c2.7,0.9,4.7,3.8,4.8,3.9l-1.4,0.6c0,0-1.6-2.8-3.9-3.5c-1.9-0.6-3.6,0-4.3,0.3c0.8,0.3,1.8,0.9,2.4,1.9
	c0.3,0.5,0.3,1,0.4,1.6C12,8,12,8.7,12.6,9.1L11.1,9.6L11.1,9.6z"/>
<path fill="#463014" d="M11.1,9.7L11.1,9.7c-0.7-0.6-0.6-1.1-0.5-1.7c0.1-0.2,0.1-0.5,0.1-0.8c0-0.4-0.1-0.8-0.2-1.1
	C9.7,5,7.8,4.6,7.8,4.6L6.6,4.4l0.8-0.9c0,0,1.6-1.6,4.3-1.6c0.7,0,1.5,0.1,2.3,0.4c2.8,0.9,4.8,4,4.8,4l0.1,0.1l-1.6,0.8L17.2,7
	c-0.2-0.3-1.7-2.8-3.8-3.5c-0.5-0.2-1.1-0.3-1.7-0.3c-1,0-1.9,0.3-2.3,0.5c0.7,0.3,1.6,0.9,2.2,1.8C11.9,6,12,6.6,12,7.2
	c0.1,0.7,0.1,1.4,0.6,1.8l0.2,0.2L11.1,9.7L11.1,9.7z"/>
<path fill="#463014" d="M14.7,8.2c0,0-0.4-1.6-1.4-2.4c-1.4-1.1-3.2-0.5-3.2-0.5L9.9,4.5c0.1,0,2.1-0.7,3.9,0.6
	c1.8,1.3,2.1,2.5,2.1,2.6L14.7,8.2L14.7,8.2z"/>
<path fill="#463014" d="M14.6,8.4l0-0.2c0,0-0.4-1.5-1.3-2.3c-0.5-0.4-1.2-0.7-2-0.7c-0.6,0-1,0.1-1.1,0.2l-0.1,0l-0.3-1l0.1,0
	c0.1,0,0.6-0.2,1.3-0.2c1,0,1.9,0.3,2.7,0.8C15.8,6.3,16,7.5,16,7.7l0,0.1L14.6,8.4L14.6,8.4z M11.3,5c0.8,0,1.5,0.2,2.1,0.7
	c0.9,0.7,1.3,1.9,1.4,2.3l0.9-0.4c-0.1-0.3-0.5-1.3-2-2.4c-0.7-0.5-1.6-0.8-2.5-0.8c-0.5,0-0.9,0.1-1.1,0.1l0.2,0.5
	C10.4,5,10.8,5,11.3,5L11.3,5L11.3,5z"/>
<path fill="#463014" d="M19.7,42.2L19.7,42.2c-0.4,0-0.8-0.1-1.1-0.4c-0.2-0.2-1-0.9-1.3-1.7c-0.1-0.3-0.1-0.6,0.1-0.7
	c0.1-0.1,0.4-0.3,0.9-0.3l0.4,0c0.4,0,1.2,0,1.8,0H21c0.4,0,0.7,0.1,0.8,0.2c0.2,0.2,0.1,0.5,0.1,0.6c-0.1,0.2-0.5,1.1-1.2,1.8
	C20.5,42.1,20.1,42.2,19.7,42.2L19.7,42.2L19.7,42.2z"/>
<path fill="#463014" d="M20.1,21.1L18.6,21c0,0,0.4,0.7,0.6,1.5c0.3,1-0.2,2.4-0.2,2.4S20.9,22.7,20.1,21.1L20.1,21.1L20.1,21.1z"/>
<path fill="#463014" d="M18.3,46.1c-5.2-0.4-7-5.3-7-6.3l0.9,0.4l0,0l0.7,0.4c0,0.4,1.1,3.8,5.5,4.2L18.3,46.1L18.3,46.1z"/>
<path fill="#463014" d="M16.8,36.6c0-0.4,0.1-0.8,0.3-1.3c0,0,0-0.1,0-0.1c-1.3,0-2.9-0.1-4.2-0.7C11.4,34,9.6,32,9.3,29.7
	c0,0-2.7,2.1-1.9,6.6c0.8,4.2,4.3,5.6,8.3,5.9c0,0-0.5-1-0.3-1.5c-2.3,0.2-4.9-0.7-6.1-2.8C8.2,36,8.5,32.8,9,32.3
	C10.1,35.9,14.2,36.6,16.8,36.6L16.8,36.6L16.8,36.6z"/>
<path fill="#463014" d="M17.2,34c-0.7,2.1-2.2,3.9-2.2,3.9s2-0.1,2.2-0.5c0.1-0.3,1.8-4.4,2.5-9.2C19,29.2,17.2,33.8,17.2,34
	L17.2,34L17.2,34z"/>
<path fill="#E78724" d="M27.7,21.7c0,0,0.7,1.7,1.1,2.7c0.4,1,2,1.5,2,1.5s-0.8-0.9-0.8-3c0-0.9-1.2-1.3-1.2-1.3L27.7,21.7
	L27.7,21.7z"/>
<path fill="#E78724" d="M29.1,17.8c1.1-1.5,2.8-2.2,4.2-2.3c2.4-0.2,3.5,0.7,3.5,0.7s-3.9,0.2-5,1.6c-2.1,2.7-5.1,3-5.6,2.4
	c0.6,0,1.2-0.3,1.8-0.9C28.4,18.9,28.8,18.3,29.1,17.8L29.1,17.8L29.1,17.8z"/>
<path fill="#E78724" d="M30,7.2c1.8,0.9,4.3,2.2,4.3,2.2l-1,0.5c0.1,0.2,0.1,0.2,0.1,0.2l-1,0.5c0,0-2.4,1.8-3.9,2.9
	c0.5-1.5,2-3.9,2-3.9S30.9,8.4,30,7.2L30,7.2L30,7.2z"/>
<path fill="#FDC168" d="M37.8,5.1L38,4.9C38.7,5,37.8,5.1,37.8,5.1L37.8,5.1L37.8,5.1z"/>
<path fill="#C9C9C9" d="M29.7,20.5c0,0,1.1,0.5,2.3,0.1c1.6-0.5,1.7-2.2,1.7-2.2s1,2.9-1.8,3.5c-2.2,0.4-3.5-0.8-3.5-0.8L29.7,20.5
	L29.7,20.5z"/>
<path fill="#463014" d="M36.9,9.6c0.9-0.7,0.2-1.4,0.3-2.3c0-0.5,0.1-0.9,0.2-1.1c0.8-1.3,2.8-1.7,2.8-1.7l0.9-0.2l-0.6-0.7
	c-0.1-0.1-2.6-2.5-6.4-1.2c-2.7,0.9-4.7,3.8-4.8,3.9l1.4,0.6c0,0,1.6-2.8,3.9-3.5c1.9-0.6,3.6,0,4.3,0.3c-0.8,0.3-1.8,0.9-2.4,1.9
	c-0.3,0.5-0.3,1-0.4,1.6C36.1,8,36,8.7,35.4,9.1L36.9,9.6L36.9,9.6z"/>
<path fill="#463014" d="M39.3,20.5c0,0-1.1-1.4-1.5-4.1c-0.1-1.1,0.1-3.2,0.5-4c-0.1,2,0.4,4,0.4,4S39.1,20.1,39.3,20.5L39.3,20.5
	L39.3,20.5z"/>
<path fill="#463014" d="M33.3,8.2c0,0,0.4-1.6,1.4-2.4c1.4-1.1,3.2-0.5,3.2-0.5l0.3-0.8c-0.1,0-2.1-0.7-3.9,0.6
	c-1.8,1.3-2.1,2.5-2.1,2.6L33.3,8.2L33.3,8.2z"/>
<path fill="#463014" d="M35.7,19.5c0,0,0.6-0.9,0.5-1.8c-0.1-0.5-0.3-0.9-0.7-1.1c-0.7-0.3-1,0.5-1,0.5S35.6,17.3,35.7,19.5
	L35.7,19.5L35.7,19.5z"/>
<path fill="#463014" d="M29.2,20.8C29.2,20.8,29.2,20.9,29.2,20.8c0,0.1,1.8,1.5,3.7,0.1c1-0.8,0.9-2.6,0.6-3.4
	c-0.8,0.2-1.5,0.5-2.1,0.9c0.7-0.6,1.4-1.1,1.4-1.1l0.8-0.2l1.6-0.6c0,0.1,0.6,2.9-1.1,4.7c-0.7,0.8-4.3,2.7-5.9-0.5L29.2,20.8
	L29.2,20.8z"/>
<path fill="#463014" d="M29.4,21c-1,1.6-3.7,0.7-3.6-1c0,0,1.8,1,3.3-0.8c0.9-1,3.8-3.9,7.8-3C34.1,16.8,30.5,19.3,29.4,21L29.4,21
	L29.4,21z"/>
<path fill="#463014" d="M37.2,25.5c-0.3,0.1-1.1,1.1-1.1,2.4c0,0.7,0.1,4.1,0.4,6.3c-0.5,0.3-0.9,0.4-1.4,0.7
	c-0.3-2.4-0.4-6-0.4-7.4c0.1-1.6,1-2.7,1.8-3.2c0.3-0.1,0.5-0.3,0.8-0.4c1.4-0.8,2.8-1.5,2.8-2.9c0-1-0.4-1.4-0.8-1.7l0,0
	c-0.3-0.2-0.6-0.5-0.8-0.9c-0.5-1.2-0.6-4.1,0-4.9c0.3-0.4,1.1-1.6,0.9-2.5c-0.1-0.3-0.3-0.6-0.6-0.7c-0.4-0.2-0.8-0.3-1.4-0.3
	c-1.1,0-2.4,0.3-3.1,0.6c-2.3,0.7-5.2,2.9-6,3.5c0,0,0,0,0,0l-0.5,0.4l0.3-0.5c0,0,2.1-3.4,5.8-4.7c0.7-0.2,2.1-0.6,3.5-0.6
	c0.8,0,1.5,0.1,2.1,0.4c0.7,0.3,1.1,0.9,1.3,1.6c0.5,1.7-1,3.6-1.1,3.7c-0.2,0.3-0.3,2.6,0.2,3.5c0.1,0.1,0.2,0.3,0.4,0.4
	c0.1,0,0.1,0.1,0.2,0.2c0.6,0.4,1.4,1.1,1.4,2.6c0,2.1-2.1,3.2-3.8,4.1C37.7,25.2,37.4,25.3,37.2,25.5L37.2,25.5L37.2,25.5z"/>
<path fill="#463014" d="M34.7,9.3c-0.3-0.6-1.2-1.7-3.1-2.6c-2.2-1.1-4.7-1.6-7.5-1.6v0h0h0v0c-2.8,0-5.3,0.5-7.5,1.6
	c-2,1-2.8,2-3.1,2.6l-0.1,0.2l1.7,0.4l0.1-0.1l0-0.1c0-0.1,0.3-0.7,2.1-1.6c2-1,4.3-1.5,6.9-1.5c2.6,0,4.9,0.5,6.9,1.5
	c1.9,0.9,2.1,1.5,2.1,1.6l0,0.1l0.1,0.1l1.7-0.4L34.7,9.3L34.7,9.3z"/>
<path fill="#463014" d="M36.9,9.6c0.9-0.7,0.2-1.4,0.3-2.3c0-0.5,0.1-0.9,0.2-1.1c0.8-1.3,2.8-1.7,2.8-1.7l0.9-0.2l-0.6-0.7
	c-0.1-0.1-2.6-2.5-6.4-1.2c-2.7,0.9-4.7,3.8-4.8,3.9l1.4,0.6c0,0,1.6-2.8,3.9-3.5c1.9-0.6,3.6,0,4.3,0.3c-0.8,0.3-1.8,0.9-2.4,1.9
	c-0.3,0.5-0.3,1-0.4,1.6C36.1,8,36,8.7,35.4,9.1L36.9,9.6L36.9,9.6z"/>
<path fill="#463014" d="M35.2,9.2L35.4,9c0.5-0.4,0.6-1.1,0.6-1.8c0-0.6,0.1-1.2,0.4-1.7c0.6-0.9,1.5-1.5,2.2-1.8
	c-0.4-0.2-1.3-0.5-2.3-0.5c-0.6,0-1.1,0.1-1.7,0.3C32.5,4.2,31,6.7,30.8,7l-0.1,0.1l-1.6-0.8l0.1-0.1c0,0,2-3.1,4.8-4
	c0.8-0.2,1.5-0.4,2.3-0.4c2.7,0,4.3,1.6,4.3,1.6l0.8,0.9l-1.1,0.2c0,0-1.9,0.4-2.7,1.6c-0.1,0.2-0.2,0.6-0.2,1.1
	c0,0.3,0,0.5,0.1,0.8c0.1,0.5,0.2,1.1-0.4,1.6l-0.1,0L35.2,9.2L35.2,9.2z"/>
<path fill="#463014" d="M33.3,8.2c0,0,0.4-1.6,1.4-2.4c1.4-1.1,3.2-0.5,3.2-0.5l0.3-0.8c-0.1,0-2.1-0.7-3.9,0.6
	c-1.8,1.3-2.1,2.5-2.1,2.6L33.3,8.2L33.3,8.2z"/>
<path fill="#463014" d="M32,7.8l0-0.1c0-0.1,0.3-1.4,2.1-2.7c0.8-0.5,1.7-0.8,2.7-0.8c0.7,0,1.3,0.2,1.3,0.2l0.1,0l-0.3,1l-0.1,0
	c0,0-0.5-0.2-1.1-0.2c-0.8,0-1.4,0.2-2,0.7c-1,0.8-1.3,2.3-1.3,2.3l0,0.2L32,7.8L32,7.8z M37.8,5.1L38,4.6c-0.2-0.1-0.6-0.1-1.1-0.1
	c-0.9,0-1.8,0.3-2.5,0.8c-1.5,1.1-1.9,2.1-2,2.4L33.2,8c0.1-0.4,0.5-1.6,1.4-2.3C35.2,5.2,35.9,5,36.8,5C37.2,5,37.6,5,37.8,5.1
	L37.8,5.1L37.8,5.1z"/>
<path fill="#463014" d="M27.3,41.8c-0.7-0.8-1.1-1.6-1.2-1.8c-0.1-0.1-0.1-0.4,0.1-0.6c0.2-0.2,0.4-0.2,0.8-0.2h0.6
	c0.6,0,1.4,0,1.8,0l0.4,0c0.5,0,0.8,0.1,0.9,0.3c0.2,0.2,0.2,0.4,0.1,0.7c-0.3,0.8-1.1,1.5-1.3,1.7c-0.3,0.2-0.7,0.4-1.1,0.4l0,0
	C27.9,42.2,27.6,42.1,27.3,41.8L27.3,41.8L27.3,41.8z"/>
<path fill="#463014" d="M27.9,21.1l1.5-0.1c0,0-0.4,0.7-0.6,1.5c-0.3,1,0.2,2.4,0.2,2.4S27.1,22.7,27.9,21.1L27.9,21.1L27.9,21.1z"
	/>
<path fill="#E78724" d="M24,15.9c-0.9,0-2.1,0-3-0.7c0,0,1.2,2.1,3,2.1l0-0.3l0,0.3c1.9,0,3-2.1,3-2.1C26.1,15.9,24.9,15.9,24,15.9
	L24,15.9L24,15.9z"/>
<path fill="#463014" d="M26.6,15.9c-0.9,0.6-1.8,0.8-2.6,0.8c-0.8,0-1.6-0.2-2.6-0.8c0,0,1.4,1.7,2.5,1.7v0c0,0,0,0,0,0c0,0,0,0,0,0
	v0C25.2,17.5,26.6,15.9,26.6,15.9L26.6,15.9L26.6,15.9z"/>
<path fill="#463014" d="M29.7,46.1l-0.1-1.3c4.4-0.3,5.6-3.9,5.6-4.4l1.5-0.6C36.7,40.8,34.9,45.7,29.7,46.1L29.7,46.1L29.7,46.1z"
	/>
<path fill="#463014" d="M31.3,36.6c0-0.4-0.1-0.8-0.3-1.3c0,0,0-0.1,0-0.1c1.3,0,2.9-0.1,4.2-0.7c1.5-0.6,3.3-2.6,3.6-4.9
	c0,0,2.7,2.1,1.9,6.6c-0.8,4.2-4.3,5.6-8.3,5.9c0,0,0.5-1,0.3-1.5c2.3,0.2,4.9-0.7,6.1-2.8c1.1-1.9,0.8-5.1,0.3-5.5
	C37.9,35.9,33.8,36.6,31.3,36.6L31.3,36.6L31.3,36.6z"/>
<path fill="#463014" d="M32.9,37.6c-0.5-0.5-1.4-1.1-3.4-1.1c0,0-3.9,0-5.5,0l0,0h0h0c-1.6,0-5.5,0-5.5,0c-2,0-2.9,0.6-3.4,1.1
	c-0.7,0.8-0.8,1.8-0.3,3.1c1.3,3.5,3.1,7.1,9.2,7.1v0c0,0,0,0,0,0c0,0,0,0,0,0v0c6.1,0,7.9-3.6,9.2-7.1
	C33.7,39.4,33.6,38.4,32.9,37.6L32.9,37.6L32.9,37.6z M31.9,40.5c-0.6,1.8-2.3,6-7.9,6.1c-5.7,0-7.3-4.3-7.9-6.1
	c-0.3-1-0.3-1.7,0.1-2.2c0.3-0.3,0.9-0.7,2.3-0.7l1.5,0c1.1,0,2.5,0,4.1,0c1.6,0,3,0,4.1,0l1.5,0c1.4,0,2,0.4,2.3,0.7
	C32.3,38.8,32.3,39.5,31.9,40.5L31.9,40.5L31.9,40.5z"/>
<path fill="#463014" d="M30.8,34c0.7,2.1,2.2,3.9,2.2,3.9s-2-0.1-2.2-0.5c-0.1-0.3-1.8-4.4-2.5-9.2C29,29.2,30.8,33.8,30.8,34
	L30.8,34L30.8,34z"/>
</svg>
