<?xml version="1.0" encoding="utf-8"?>
<!-- Generator: Adobe Illustrator 18.0.0, SVG Export Plug-In . SVG Version: 6.00 Build 0)  -->
<!DOCTYPE svg PUBLIC "-//W3C//DTD SVG 1.1//EN" "http://www.w3.org/Graphics/SVG/1.1/DTD/svg11.dtd">
<svg version="1.1" id="Layer_1" xmlns="http://www.w3.org/2000/svg" xmlns:xlink="http://www.w3.org/1999/xlink" x="0px" y="0px"
	 viewBox="0 0 48 48" enable-background="new 0 0 48 48" xml:space="preserve">
<path fill="#D9D9D9" d="M44.4,4.8c0.5,0,1,0,1.5,0.3c0.5,0.3,0.7,0.8,0.9,1.3v36c-0.2,0.9-0.5,1.8-1.2,2.4c-0.6,0.5-1.4,0.3-2.1,0.4
	c-12.7,0-25.4,0-38,0c-1.9,0-3.4-1.5-4.1-3.1V7c0.4-1,1.3-1.7,2.4-1.8c0,10.3,0,20.5,0,30.8c0,1.1-0.1,2.1,0.1,3.2
	c0.3,1.3,1.5,2.3,2.9,2.3c11.7,0,23.5,0,35.2,0c1.3,0,2.4-1.1,2.6-2.3c0.1-3.9,0-7.8,0.1-11.8C44.4,19.9,44.4,12.3,44.4,4.8z"/>
<path d="M41.4,2.5c0.2,0,0.4,0,0.5,0c0.4,0.1,1,0.4,1.3,1l0,0l0,0c0.2,0.3,0.2,0.7,0.2,1.2l0,0.1c0,5.8,0,11.7,0,17.4l0,5.1
	c0,1.4,0,2.7,0,4.1c0,2.5,0,5.1-0.1,7.6c-0.1,0.8-0.9,1.4-1.6,1.4c-3.7,0-7.5,0-11.2,0l-7.5,0l-7.5,0l-9.1,0c-0.8,0-1.7-0.7-1.9-1.5
	c-0.1-0.6-0.1-1.2-0.1-1.8c0-0.4,0-0.8,0-1.2l0-7.4c0-7.6,0-15.6,0-23.4c0-0.8,0-1.4,0.3-1.8c0.5-0.5,1.1-0.8,1.6-0.8c4,0,8,0,12,0
	l8.4,0l8.4,0l5.2,0l0.2,0c0.1,0,0.3,0,0.4,0C41.2,2.5,41.3,2.5,41.4,2.5 M41.4,1.5c-0.2,0-0.5,0-0.7,0c0,0-0.1,0-0.1,0
	c-1.7,0-3.5,0-5.2,0c-5.6,0-11.1,0-16.7,0c-4,0-8,0-12,0C5.7,1.5,4.8,2,4.2,2.6C3.6,3.3,3.6,4.3,3.6,5.1c0,10.3,0,20.5,0,30.8
	c0,1.1-0.1,2.1,0.1,3.2c0.3,1.3,1.5,2.3,2.8,2.3c0,0,0,0,0,0c3,0,6.1,0,9.1,0c5,0,10,0,14.9,0c3.7,0,7.5,0,11.2,0
	c1.3,0,2.4-1.1,2.6-2.3c0.1-3.9,0-7.8,0.1-11.8c0-7.5,0-15,0-22.5c0-0.6,0-1.3-0.3-1.8c-0.4-0.8-1.2-1.3-2-1.5
	C41.9,1.5,41.7,1.5,41.4,1.5L41.4,1.5z"/>
<path fill="#FF8100" d="M18.9,11.6c1.6-1.9,4.3-2.5,6.7-2.2c1.9,0.2,3.6,1.1,5,2.4c-0.7,0.9-1.5,1.8-2.2,2.7
	c-1.4-1.1-3.2-1.8-4.9-1.4c-0.8,0.1-1.5,0.9-1.4,1.7c0.1,0.8,0.8,1.2,1.4,1.5c1.4,0.6,2.9,1.2,4.4,1.8c1.2,0.5,2.3,1.4,2.9,2.6
	c0.8,1.8,0.6,4-0.6,5.6c-0.9,1.2-2.3,2-3.7,2.4c-3.3,0.8-7-0.1-9.4-2.4c0-0.2,0.2-0.3,0.3-0.5c0.7-0.8,1.4-1.7,2.1-2.5
	c1.4,1.2,3.2,2.1,5,2c0.9,0,2-0.3,2.2-1.3c0.3-0.8-0.2-1.7-0.9-2c-1.6-0.8-3.2-1.4-4.8-2.1c-1.1-0.6-2.2-1.4-2.7-2.6
	C17.3,15.6,17.5,13.2,18.9,11.6z"/>
<path fill="#999999" d="M1.3,42c0.7,1.6,2.2,3.2,4.1,3.1c12.7,0,25.4,0,38,0c0.7,0,1.5,0.1,2.1-0.4c0.8-0.6,1.1-1.5,1.2-2.4v1.4
	c-0.2,1.1-0.7,2.3-1.8,2.7c-0.6,0.1-1.1,0-1.7,0c-12.4,0-24.9,0-37.3,0c-0.6,0-1.2,0.1-1.7-0.2c-1.4-0.6-2.6-1.8-2.9-3.3V42z"/>
</svg>
