<?xml version="1.0" encoding="utf-8"?>
<!-- Generator: Adobe Illustrator 19.0.0, SVG Export Plug-In . SVG Version: 6.00 Build 0)  -->
<svg version="1.1" id="Layer_1" xmlns="http://www.w3.org/2000/svg" xmlns:xlink="http://www.w3.org/1999/xlink" x="0px" y="0px"
	 viewBox="464 0 48 48" style="enable-background:new 464 0 48 48;" xml:space="preserve">
<path class="st0" d="M498.1,20L498.1,20l0.1,0c0,0,0-0.1,0-0.2l0-0.1C498.2,19.8,498.2,19.9,498.1,20L498.1,20z M497,17.3l0-0.1
	l-0.2,0l0,0.1L497,17.3L497,17.3z M493.8,23.4c0-0.1-0.3-0.5-0.9-1.1c0-0.1,0.2-0.3,0.6-0.5l1.2-1c0.3-0.3,0.4-0.9,0.5-1.6l0-0.2
	c0-0.5-0.4-0.9-1.1-1.3c-0.4-0.3-1.2-0.4-2.3-0.5c-0.9,0.1-2.1,0.4-3.6,1c-0.4,0.3-0.9,0.6-1.4,0.9l0,0.1c0,0,0.1,0,0.1-0.1
	c0.1,0,0.1,0,0.1,0.1l0.1,0l0,0l0,0c0,0-0.3,0.3-1,0.7l0,0.1l0,0l-0.1,0c0,0,0,0.1-0.1,0.1l0,0l0.1,0.1c0,0-0.1,0-0.1,0
	c-0.1,0-0.3,0.1-0.4,0.2l0.1-0.3c0.2-0.9,0.4-1.8,0.4-2.5l0,0c-0.1-0.1-0.3-0.2-0.4-0.4c0-0.1,0-0.2,0-0.2l0,0l0,0
	c-0.5,0.7-1.4,1.9-2.7,3.6c-1,1.2-1.5,1.9-1.6,2c-0.4,0.4-0.6,0.7-0.6,0.8c-0.1,0.1-0.2,0.1-0.1,0.2c0,0-0.1,0-0.1,0
	c-0.2,0.3-0.4,0.5-0.8,0.6l-0.4,0.1c0,0-0.1,0-0.1,0.1l0,0l0.1,0l0,0l-0.3,0.1l-0.6,0.1l-0.3,0c0,0,0.2,0,0.1,0l-0.4,0.1
	c-0.2,0-0.3,0-0.4-0.1l0,0c0,0,0,0.1,0,0.1l0-0.1l-0.3,0.1c0-0.1-0.4-0.6-1.2-1.5c0-0.2,0.3-0.4,0.8-0.7l1.5-1.4
	c0.3-0.4,0.6-1.2,0.6-2.1l0-0.2c-0.1-0.7-0.6-1.3-1.5-1.7c-0.6-0.4-1.6-0.6-3-0.6c-1.2,0.1-2.8,0.5-4.7,1.3
	c-0.5,0.4-1.1,0.8-1.8,1.1l0,0.1c0,0,0.1,0,0.2-0.1c0.1,0,0.1,0,0.1,0.1l0.1-0.1l0.1,0l0,0.1c0,0.1-0.4,0.4-1.3,1l0.1,0.1l-0.1,0
	l-0.1,0c0,0-0.1,0.1-0.2,0.1l0,0.1l0.1,0.2c0,0-0.1,0-0.2,0c-0.3,0-0.5,0.2-0.8,0.6l0.1,0.1c0.2-0.2,0.4-0.3,0.4-0.3l0,0.2
	c0,0-0.1,0-0.2,0.1l0.1,0.2c0.3-0.3,0.6-0.6,0.9-0.8c0.2,0,0.3,0.1,0.3,0.2l0.1,0c0.9-0.7,1.8-1.2,2.7-1.5l0,0.1
	c-0.2,0.2-0.3,0.4-0.3,0.4c0,0.1,0,0.2,0.1,0.2c0,0.2-0.4,1.2-1.2,3.1c-1.9,4.4-3.4,7.7-4.7,9.8c0,0,0,0.1,0.1,0.2
	c0.3-0.1,0.5-0.2,0.6-0.2l0.1,0l0,0.1l0.1,0l0.1-0.1c0,0,0,0.1,0.1,0l0,0.1c0,0.1-0.1,0.3-0.2,0.5c-0.1,0.1-0.3,0.4-0.4,0.9l0,0.1
	l0.1,0c0.5-0.6,0.9-1.1,1.2-1.7c1.5-0.4,2.6-0.9,3.4-1.3c0.8-0.1,1.4-0.3,1.8-0.6l0-0.1l-0.3,0.1l-0.1,0l0-0.1
	c0.6-0.1,1-0.2,1.2-0.4c1.1-0.9,2-1.5,2.6-1.8c1.2-0.9,2-1.7,2.3-2.5c0.1,0,0.1,0,0.2,0c0.2,0,0.3,0,0.3,0c0,0,0,0,0-0.1
	c0.3,0,0.1,0,0.3,0l0.4-0.1l0.1,0l0,0c0,0,0.1,0,0.2,0l0,0.1l-2,3.2l-0.4,0.6l-0.2,0.7l0,0l0.2-0.1l-0.1,0.3l0,0.1l0.1,0.1
	c0,0,0,0,0,0.1l0,0l0.1,0c0.1-0.1,0.2-0.2,0.2-0.3c0.1,0,0.2,0,0.3,0l0,0c-0.1,0-0.1,0.1-0.1,0.2l0,0l0,0c0.7-0.8,2.5-3.5,4-5.4
	c0-0.2,0.7-0.5,2.3-0.8l0,0c0.1,0.2-0.1,0.8-0.4,1.8c-0.2,0.6-0.3,0.9-0.3,0.9c-0.2,0.8-0.4,1.2-0.3,1.2l-0.6,1.8
	c-0.4,0.9-0.6,1.9-0.8,2.9c0,0,0.1,0,0.2,0l0.1-0.1c0,0,0,0,0.1,0l0-0.1l0.2,0c0.1,0,0.1-0.1,0.2-0.3c0-0.2,0-0.4,0.1-0.4
	c0.1-0.6,0.2-0.9,0.3-0.9c0.1-0.6,0.2-0.9,0.3-1c0.2-0.7,0.4-1.1,0.5-1.2l0,0.1l-0.2,0.4c-0.3,1.2-0.5,2.1-0.8,2.8l0.1,0.3l0,0
	c0.7-1.4,1.6-4.2,2.8-8.4c0-0.4,0.2-0.7,0.5-0.9l-0.1-0.1l0,0c0.1,0,0.2-0.1,0.3-0.2c0,0-0.1-0.1-0.4-0.1l0.6-2.6
	c0.1-0.1,0.2-0.2,0.2-0.2l0,0.1c0,0-0.1,0-0.1,0.1l0.1,0.2c0.2-0.2,0.4-0.4,0.7-0.6c0.1,0,0.2,0.1,0.2,0.1l0.1,0
	c0.7-0.5,1.4-0.9,2.1-1.1l0,0.1c-0.1,0.2-0.2,0.3-0.3,0.3c0,0.1,0,0.1,0.1,0.2c0,0.1-0.3,0.9-0.9,2.3c-1.4,3.3-2.6,5.8-3.6,7.4
	c0,0,0,0.1,0.1,0.1c0.2-0.1,0.4-0.1,0.4-0.2l0,0l0,0.1l0.1,0l0.1,0c0,0,0,0,0.1,0l0,0.1c0,0.1,0,0.2-0.2,0.4
	c-0.1,0.1-0.2,0.3-0.3,0.7l0,0l0.1,0c0.4-0.4,0.7-0.9,0.9-1.3c1.1-0.3,2-0.7,2.6-1c0.6-0.1,1.1-0.2,1.4-0.5l0,0L489,28l0,0l0,0
	c0.4-0.1,0.7-0.2,0.9-0.3c0.9-0.7,1.5-1.1,1.9-1.4C493.2,25.3,493.8,24.3,493.8,23.4L493.8,23.4z M493.5,23.4l0,0.4
	c0,0.1-0.1,0.1-0.1,0.1l-0.1-0.6C493.5,23.4,493.5,23.4,493.5,23.4L493.5,23.4z M466.8,20.6L466.8,20.6l-0.1-0.1l0.2,0l0,0.1
	C466.9,20.5,466.8,20.5,466.8,20.6L466.8,20.6z M465.6,32.5c-0.1-0.1-0.3-0.1-0.4-0.1l0-0.2c0-0.1,0-0.1,0.1-0.1
	c0.1,0,0.1,0,0.1,0.2c0.2-0.3,0.3-0.4,0.3-0.4l0.1,0.1C465.9,32.3,465.7,32.5,465.6,32.5L465.6,32.5z M478.3,19.2
	c-0.1,0-0.2-0.2-0.4-0.6l0-0.1c0.1,0,0.2,0.2,0.4,0.6L478.3,19.2L478.3,19.2z M478.1,17.9l0,0.1l-1.7-0.7
	C477.5,17.3,478.1,17.5,478.1,17.9L478.1,17.9z M470.8,24.1l-0.2,0l0-0.1l0.2,0L470.8,24.1L470.8,24.1z M470.6,20.4L470.6,20.4
	l0.1,0.2c-0.1,0-0.1,0.1-0.2,0.3l0-0.1C470.6,20.5,470.6,20.4,470.6,20.4L470.6,20.4z M470.1,21.6l0,0.2l-0.1,0L470.1,21.6
	L470.1,21.6L470.1,21.6z M469.9,22l0.1,0c0,0.2-0.1,0.3-0.2,0.3l-0.1,0C469.8,22.2,469.9,22.1,469.9,22L469.9,22z M469.7,22.6
	L469.7,22.6L469.7,22.6l0,0.2l-0.1,0l0-0.1C469.6,22.8,469.7,22.7,469.7,22.6L469.7,22.6z M469.5,23.1l0,0.3l-0.1,0l0-0.3
	L469.5,23.1L469.5,23.1z M467.5,28.8c-0.1,0.4-0.2,0.6-0.3,0.6l0-0.1C467.2,29.1,467.3,28.9,467.5,28.8L467.5,28.8z M467.1,29.6
	L467.1,29.6c0,0.1,0,0.2-0.1,0.2l0-0.1C467,29.6,467,29.6,467.1,29.6L467.1,29.6z M467,31.2l0.2,0l0,0.1c0,0-0.1,0-0.2,0.1l-0.1,0
	C466.9,31.3,466.9,31.2,467,31.2L467,31.2z M472.2,29.6c-1,0.5-1.6,0.9-1.8,1c-1.1,0.4-1.7,0.6-1.7,0.7c-1,0.4-1.6,0.7-2,0.9
	c-0.1,0-0.2,0-0.3-0.1c0-0.2,0.1-0.4,0.3-0.5c0.2,0,0.3,0,0.5,0.1c0.2-0.1,0.5-0.2,1-0.3l0-0.1l-0.4,0c0-0.1,0.4-0.2,1.1-0.5l0.2,0
	l0,0.1c-0.3,0-0.5,0.1-0.5,0.3c0,0.1,0,0.1,0.1,0.1c0.2-0.1,0.4-0.2,0.3-0.3c0.4-0.1,1.7-0.7,3.7-1.9l0,0.1
	C472.8,29.2,472.6,29.3,472.2,29.6L472.2,29.6z M469.1,30.6c0.3,0,0.6-0.1,0.8-0.4c0.1,0,0.1,0,0.1,0.1c-0.1,0-0.4,0.1-0.8,0.4
	l-0.1,0L469.1,30.6L469.1,30.6z M474.1,26.7l-1.6,1.2c-1.2,0.8-1.8,1.1-1.9,1.1c-1.8,1-3,1.5-3.4,1.6l-0.1,0c0.1-0.2,0.9-1.9,2.5-5
	c0.7-0.1,1.8-0.4,3.3-1l0.4,0c0.8-0.1,1.3,0.1,1.7,0.4l0,0.2C474.8,26.1,474.5,26.6,474.1,26.7L474.1,26.7z M471.1,25l0.3,0l0,0.1
	L471.1,25L471.1,25L471.1,25z M474.6,24.4l0.2,0c0.2,0.1,0.3,0.2,0.3,0.2l0,0.1C474.9,24.7,474.8,24.6,474.6,24.4L474.6,24.4z
	 M475.1,21.6c-0.2,0.2-0.6,0.5-1.3,1c-0.2,0-1.1,0.4-2.7,1c-0.1,0-0.2,0-0.2,0l0-0.1c0-0.2,0.1-0.5,0.3-0.8c0.1-0.6,0.3-1,0.4-1.1
	l1.3-2.9c0-0.2,0.3-0.3,0.8-0.4l0.2,0l0,0.2c0.6-0.1,0.9-0.1,1-0.1c1-0.1,1.6,0.1,1.6,0.6l0.1,0l0-0.3l0.1,0
	c0.3,0.2,0.5,0.4,0.5,0.6c0,0.2-0.1,0.4-0.3,0.6c-0.1,0-0.1,0-0.1-0.2l-0.1,0l0,0.4c-0.5,0.8-0.9,1.2-1.1,1.2
	C475.3,21.4,475.2,21.6,475.1,21.6L475.1,21.6z M475.9,23.6c-0.1-0.1-0.2-0.1-0.3-0.1l0-0.2l0.1,0l0.3,0.2
	C476,23.6,476,23.6,475.9,23.6L475.9,23.6z M476.7,24.6c0.1,0,0.2,0.1,0.2,0.1l-0.1,0l0,0c0,0,0,0,0,0l-0.1,0.1L476.7,24.6
	L476.7,24.6z M476.8,25.1L476.8,25.1l0.1-0.1l0,0L476.8,25.1L476.8,25.1z M477.2,25.5c0.2,0,0.2,0,0.5-0.1l0,0L477.2,25.5
	C477.2,25.5,477.2,25.5,477.2,25.5L477.2,25.5z M477.7,25.7c-0.2,0-0.2,0-0.5,0.1l0,0l0.5-0.1l0.2,0l0,0.1
	C477.7,25.6,477.8,25.6,477.7,25.7L477.7,25.7z M478.2,25.6c-0.1,0-0.1,0-0.1-0.1l0.1,0c0.1,0,0.1,0,0.1,0.1L478.2,25.6L478.2,25.6z
	 M479.5,24.2L479.5,24.2l0.2-0.1l0,0.1L479.5,24.2L479.5,24.2z M480.8,32.7c0-0.1,0-0.1,0-0.1l0,0c0.1,0,0.1,0,0.1,0.1l0,0
	L480.8,32.7L480.8,32.7z M481.8,24.6L481.8,24.6c-0.3,0-0.4,0.1-0.5,0.1l-0.1,0c-0.1,0-0.1,0-0.1-0.1L481.8,24.6l0.1-0.2l0.1,0.1
	C481.9,24.5,481.9,24.5,481.8,24.6L481.8,24.6z M482.3,24.4L482.3,24.4c0-0.1,0.1-0.1,0.1-0.1l0.5-0.1l0,0
	C482.6,24.3,482.5,24.3,482.3,24.4L482.3,24.4z M482.4,23.5c0,0-0.1,0-0.1,0.1c0,0-0.1,0-0.2,0c0-0.1,0.3-0.2,1-0.4l0.1,0l0,0.1
	C482.7,23.4,482.4,23.5,482.4,23.5L482.4,23.5z M483.6,22.1c0,0.6-0.2,0.9-0.6,1l0,0l-0.3,0.1l-0.1,0c-0.1,0-0.1,0-0.2,0l0-0.1
	c0,0,0.4-0.7,1.4-1.9l0.1,0C483.8,21.4,483.8,21.7,483.6,22.1L483.6,22.1z M485.8,20.3L485.8,20.3L485.8,20.3l0.1-0.1l0,0
	C485.9,20.2,485.9,20.2,485.8,20.3L485.8,20.3z M484.9,29.3c-0.1,0-0.2-0.1-0.3-0.1l0-0.1c0,0,0-0.1,0.1-0.1c0.1,0,0.1,0,0.1,0.1
	c0.2-0.2,0.2-0.3,0.3-0.3l0.1,0C485.1,29.2,485,29.3,484.9,29.3L484.9,29.3z M494.6,19.2c0,0-0.1-0.1-0.3-0.4l0-0.1
	C494.4,18.7,494.5,18.8,494.6,19.2L494.6,19.2L494.6,19.2z M494.4,18.2L494.4,18.2l-1.4-0.5C494,17.8,494.4,17.9,494.4,18.2
	L494.4,18.2z M488.9,23l-0.2,0l0-0.1L488.9,23L488.9,23L488.9,23z M488.7,20.1L488.7,20.1l0.1,0.1c0,0-0.1,0.1-0.2,0.2l0-0.1
	C488.7,20.2,488.7,20.2,488.7,20.1L488.7,20.1z M488.4,21l0,0.2l0,0L488.4,21L488.4,21L488.4,21z M488.1,21.3L488.1,21.3
	c0.1,0.1,0,0.2,0,0.2l0,0C488.1,21.5,488.2,21.4,488.1,21.3L488.1,21.3z M488,21.8L488,21.8L488,21.8l0,0.2l-0.1,0l0,0
	C488,21.9,488,21.9,488,21.8L488,21.8z M487.9,22.2l0,0.2l0,0L487.9,22.2L487.9,22.2L487.9,22.2z M486.3,26.5
	c-0.1,0.3-0.1,0.4-0.2,0.5l0,0C486.1,26.8,486.2,26.6,486.3,26.5L486.3,26.5z M486.1,27.1L486.1,27.1c0,0.1,0,0.1-0.1,0.1
	L486.1,27.1C486,27.1,486,27.1,486.1,27.1L486.1,27.1z M486,28.3l0.1,0l0,0C486.1,28.4,486.1,28.4,486,28.3L486,28.3
	C485.9,28.4,485.9,28.4,486,28.3L486,28.3z M490,27.1c-0.8,0.4-1.2,0.6-1.4,0.8c-0.8,0.3-1.3,0.5-1.3,0.6c-0.8,0.3-1.2,0.5-1.5,0.7
	c-0.1,0-0.1,0-0.2-0.1c0-0.2,0.1-0.3,0.2-0.4c0.1,0,0.3,0,0.4,0.1c0.1-0.1,0.4-0.1,0.7-0.2l0-0.1l-0.3,0c0,0,0.3-0.2,0.8-0.4l0.1,0
	l0,0c-0.2,0-0.4,0.1-0.4,0.2c0,0.1,0,0.1,0.1,0.1c0.2-0.1,0.3-0.2,0.3-0.2c0.3-0.1,1.3-0.6,2.8-1.5l0,0.1
	C490.4,26.8,490.2,26.9,490,27.1L490,27.1z M487.6,27.9c0.2,0,0.4-0.1,0.6-0.3c0.1,0,0.1,0,0.1,0.1C488.2,27.7,488,27.8,487.6,27.9
	L487.6,27.9L487.6,27.9L487.6,27.9z M491.4,25l-1.2,0.9c-0.9,0.6-1.4,0.9-1.4,0.9c-1.4,0.8-2.3,1.2-2.6,1.2l0,0
	c0-0.2,0.7-1.4,1.9-3.8c0.5,0,1.4-0.3,2.5-0.7l0.3,0c0.6,0,1,0.1,1.3,0.3l0,0.2C491.9,24.5,491.7,24.8,491.4,25L491.4,25z
	 M489.1,23.7l0.2,0l0,0L489.1,23.7L489.1,23.7L489.1,23.7z M491.8,23.2l0.1,0c0.1,0.1,0.2,0.1,0.2,0.2l0,0
	C492,23.4,491.9,23.3,491.8,23.2L491.8,23.2z M492.1,21c-0.1,0.1-0.5,0.4-1,0.8c-0.2,0-0.9,0.3-2,0.8c-0.1,0-0.1,0-0.2,0l0-0.1
	c0-0.2,0.1-0.4,0.2-0.6c0.1-0.5,0.2-0.8,0.3-0.8l1-2.2c0-0.1,0.2-0.2,0.6-0.3l0.1,0l0,0.1c0.4-0.1,0.7-0.1,0.8-0.1
	c0.8-0.1,1.2,0.1,1.2,0.5l0.1,0l0-0.2l0.1,0c0.2,0.1,0.3,0.3,0.4,0.4c0,0.1-0.1,0.3-0.2,0.5c-0.1,0-0.1,0-0.1-0.1l-0.1,0l0,0.3
	c-0.4,0.6-0.7,0.9-0.9,0.9C492.3,20.9,492.2,21,492.1,21L492.1,21z M492.6,22.5l0-0.1l0.1,0l0.2,0.1c0,0.1,0,0.1-0.1,0.1
	C492.7,22.5,492.6,22.5,492.6,22.5L492.6,22.5z M476.1,31.1L476.1,31.1l-0.2,0.1c0,0.1,0,0.1,0.1,0.1
	C476.1,31.2,476.1,31.2,476.1,31.1L476.1,31.1L476.1,31.1z M475.8,30.4L475.8,30.4C475.8,30.4,475.9,30.4,475.8,30.4l0.1-0.1
	C475.8,30.3,475.7,30.3,475.8,30.4L475.8,30.4z M478.3,25.7L478.3,25.7C478.3,25.7,478.3,25.7,478.3,25.7
	C478.3,25.7,478.3,25.7,478.3,25.7L478.3,25.7z M478.2,24.5l0.1,0l0-0.1L478.2,24.5L478.2,24.5L478.2,24.5z M503.2,28.1l-0.2,0
	l0,0.1l0,0l1.4-0.1l0-0.1L503.2,28.1L503.2,28.1z M504.5,27.9L504.5,27.9L504.5,27.9L504.5,27.9L504.5,27.9L504.5,27.9z M510.5,27.2
	L510.5,27.2l0.2,0.1l0-0.1L510.5,27.2L510.5,27.2z M510.3,27.2c-1.1,0.2-1.2,0.2-1.4,0.2l0,0.1l0.1,0l0.1,0l0,0l0.1,0
	C510.2,27.3,510.3,27.3,510.3,27.2L510.3,27.2L510.3,27.2z M503.9,25.6L503.9,25.6c-0.2,0.2-0.2,0.3-0.2,0.3l0,0
	C503.7,26,503.8,25.9,503.9,25.6L503.9,25.6z M502.6,24.9L502.6,24.9L502.6,24.9l-0.1,0L502.6,24.9C502.5,25,502.6,25,502.6,24.9
	L502.6,24.9z M505.4,27.8L505.4,27.8L505.4,27.8L505.4,27.8L505.4,27.8L505.4,27.8z M511.2,26.5L511.2,26.5c0.1,0,0.1,0,0.1-0.1
	l0-0.1c-0.2,0-0.4,0-0.6,0.1l0,0l-0.3,0c0-0.1,0-0.1-0.1-0.1l-0.2,0c-0.2,0-0.3,0-0.3,0.1c0,0,0,0,0,0l-0.2,0l-0.1,0.1c0,0,0,0,0,0
	l-0.1,0.1l0,0l-0.2,0l-0.1,0l0,0.1l0.1,0l0.1,0c0,0,0.1,0,0.1,0l0.1,0l0,0c-0.6,0.1-0.6,0.1-0.9,0.2c0,0-0.1,0-0.1,0l0,0
	c0,0-0.1,0-0.1-0.1l0.2,0c0,0,0,0,0.1,0c0.2-0.1,0.2-0.1,0.3-0.1l0-0.1c-0.5,0.1-0.3,0-1,0.1l0,0l0-0.1c0.9-0.1,0.6,0,0.9-0.1
	c0,0,0,0,0,0c0,0,0.1-0.1,0.1-0.1l0.1,0c0.3,0,0.4,0,1-0.1l0,0l0.1,0l0.1,0c0-0.1,0.1-0.1,0.2-0.1l0-0.1c-1.1,0.2-1.3,0.2-1.6,0.2
	l0,0c-0.3,0-0.3,0-0.4,0c0,0-0.1,0-0.1,0.1c0,0,0,0,0,0c0,0,0,0,0,0l-0.9,0.1c0,0,0,0,0,0c-0.5,0.1-0.3,0.1-1,0.2c0,0-0.1,0-0.1,0
	c0,0,0,0,0,0l-0.4,0l-0.3,0.1c0,0,0,0,0,0c-0.1,0-0.3,0.1-0.4,0.1h0c-0.1,0,0,0,0,0l-0.1,0c-0.1,0-0.1,0-0.4,0
	c-0.7,0.1-0.6,0.1-0.7,0.1l-0.3,0c0,0,0,0,0,0c-0.3,0-0.4-0.1-0.4-0.1c0-0.3,0.1-0.4,0.2-0.4l0,0l0,0.1l0,0c0.1,0,0.1-0.1,0.1-0.1
	l0-0.1l-0.1,0l0-0.1c0-0.1,0-0.1,0-0.2l0.2-0.3l0,0.1l0.1,0l0-0.1l-0.1-0.1c0.1-0.1,0.1-0.1,0.2-0.1l0,0l-0.1,0l0-0.1
	c0.3-0.6,0.4-0.9,0.4-1l0.1,0c0.1,0,0.1,0,0.1-0.1l-0.1,0l0,0c0-0.1,0-0.1,0-0.2c0.1-0.2,0.2-0.3,0.2-0.5c0,0,0,0,0,0
	c0.1-0.1,0.2-0.3,0.3-0.6c0.2-0.4,0.5-1.2,0.9-2.4c0.8-2.1,0.7-2.3,0.9-2.8l-0.1,0c0,0.1,0,0.1,0,0.2c-0.1,0-0.1,0-0.1,0l0,0
	c0-0.2,0.1-0.4,0.2-0.7l0,0l0.1,0.3l0.1,0c0,0,0-0.1,0.1-0.4c0,0,0-0.1-0.1-0.1l-0.1,0.1c0-0.1,0-0.2,0-0.5l0,0
	c-0.1-0.1-0.1-0.1-0.1-0.2l-0.5,0c0,0,0-0.1-0.1-0.2c0,0,0.1-0.1,0.3-0.1l0.1,0l0.1-0.1c0,0,0,0,0.1,0l0.1-0.1c0,0,0,0,0.1,0l0,0
	l0-0.1c-0.1,0-0.3,0-0.6,0l-0.1,0.1l0-0.1c-2.4,0.2-3.7,0.3-4,0.3c0,0-0.2,0-0.5,0c0,0,0,0.1-0.1,0.1l-0.1,0l-0.3,0.1
	c-0.1,0-0.2,0-0.4,0c-0.1,0-0.1,0.1-0.2,0.1c0,0,0.5,0,1-0.1c-0.1,0-0.1,0.1-0.2,0.1c-0.1,0-0.1,0-0.2,0c-0.1,0-0.3,0.1-0.7,0.2
	l-0.1,0l-1.7,0.3c-0.1,0-0.1,0-0.2,0c-0.1,0-0.2,0-0.4,0.1l-0.8,0.3l0.1,0.1c0,0,0.1,0,0.2-0.1l0.3,0l0,0.3
	c-0.3,0.1-0.4,0.3-0.5,0.5c-0.4,0.2-0.6,0.3-0.6,0.4l0,0l0.1,0l0.1-0.1l0.1,0.1l0,0.2c0,0.1-0.7,1.5-2,4.2c-1.1,2.6-1.7,4-1.8,4.3
	c-0.4,0.1-0.6,0.3-0.7,0.5c0,0.1,0.1,0.1,0.3,0.1l0,0.1l-0.1,0.2l0,0.2c0,0.1,0.3,0.2,0.9,0.2c0,0,0-0.1,0.1-0.1
	c0,0.1,0,0.4-0.1,0.7l0.1,0c0.2-0.3,0.3-0.5,0.3-0.7l0,0c0.1,0,0.1,0.1,0.2,0.2c-0.1,0-0.3,0.6-0.7,1.7l0.1,0.1l0.1,0
	c0.5-1.3,0.8-2,1-2.2c0.7-0.1,1.9-0.2,3.5-0.4l0.1-0.1c0,0,0,0.1,0.1,0l0.1,0l0.1-0.1c0,0,0,0.1,0.1,0l1.3-0.1
	c0.3,0,0.5-0.1,0.5-0.3c0,0,0.2-0.1,0.6-0.2c0,0,0.1,0,0.2,0c0,0,0.2-0.1,0.6-0.1c0-0.2,0.1-0.3,0.2-0.3l0-0.1c-0.1,0-0.2,0-0.4,0.1
	c-0.3,0-0.4,0-0.5-0.1c-0.1,0-0.1,0.1-0.2,0.1l-0.9,0l-0.1,0.1c0,0,0,0-0.1,0l0,0l-0.1,0.1c0,0-0.1-0.1-0.3-0.1l-0.1,0.1l-0.2,0
	l0-0.1c1.1-0.1,1.7-0.3,1.7-0.5c0.1,0,0.1,0,0.1,0.1l0.3-0.1l0-0.1l-2.7,0.1c0,0,0,0.1-0.1,0.1l-0.3,0c-0.1,0-0.2,0-0.2,0.1l-0.1,0
	c-0.3,0-0.6,0.1-0.8,0.1c-0.2,0-0.5,0-0.8,0l-0.6,0.1l-0.3,0c0-0.2,0.3-1.1,1.1-2.7c0.2-0.5,0.4-0.9,0.6-1c0,0,0.1,0,0.2,0l0.4-0.1
	l0.2,0c0.4,0,0.8-0.1,1.3-0.3c0.1,0,0.2,0,0.3,0l0.3-0.1l1-0.1c0.4,0,0.9-0.1,1.4-0.3l0-0.1c-0.2,0-0.3,0-0.3-0.1
	c0-0.1-0.1-0.2-0.4-0.2l0-0.1l0.3-0.1l0.7-0.1l0-0.1c0,0-0.2,0-0.4,0l0-0.1l0.3,0c0.1,0,0.1,0,0.1-0.1c-0.4,0-0.6,0-0.6-0.1
	c-2.6,0.1-3.9,0.2-3.9,0.1c0,0-0.1,0-0.2,0.1l-0.1-0.1c0.7-1.5,1.1-2.2,1.2-2.2c0,0.1,0,0.1-0.1,0.3l0,0l0.1,0c0.3-0.7,0.5-1,0.7-1
	c0.8-0.1-0.1-0.1,1.6-0.4c0.1,0,0.1,0,0.2,0c0.7-0.1,1.6-0.3,2.9-0.4l0-0.1l-0.7,0.1l0-0.1c0.1,0,0.1,0,0.2-0.1l0,0.1
	c0,0,0.1,0,0.1-0.1c0.1,0,0.2,0,0.3,0c0.2-0.1,0.4-0.1,0.5-0.1l0.4,0c0.1-0.1,0.1-0.1,0.1-0.2l0,0c-0.1,0-0.2,0-0.4,0
	c0-0.1,0-0.1,0.1-0.1l0.8-0.1l0.3-0.1c0,0,0,0.1,0,0.1c0,0,0.1,0,0.1-0.1c0,0,0,0,0.1,0c0,0.1-0.1,0.2-0.2,0.4l-0.1,0
	c0-0.1,0-0.1-0.1-0.2l0,0c-0.9,2.6-1.3,3.7-2.2,5.7c-0.2,0.5-0.3,0.8-0.4,0.8c0,0.1,0,0.1,0.1,0.1c0,0.2,0,0.5-0.2,0.7
	c-0.4,1.1-0.7,1.7-0.8,1.9l0.1,0.5c0,0.1,0,0.1-0.1,0.1l-0.1,0c0-0.1-0.1-0.2-0.2-0.2l0,0c-0.1,0.2-0.2,0.4-0.3,0.7l0.1,0
	c0.1-0.1,0.2-0.2,0.2-0.3l0.2,0l0.1,0c-0.1,0.1-0.1,0.2-0.1,0.3l0,0.1l-0.1,0.3l0,0c0.1,0,0.2,0,0.3,0.1c0.1,0,0.2,0,0.3-0.1
	c0.1,0,0.5,0,1.2,0l0.3-0.1c0.4,0,0.5,0,0.8,0l0.1,0l0.1-0.1l0,0c0.4,0,0.4,0,0.7,0l0,0l-0.2,0l0,0.1c0.1,0,0.1,0,0.2-0.1
	c0.1,0,0.1,0,0.1,0.1c-0.1,0-0.2,0-0.3,0.1l-0.1,0c-0.1,0-0.1,0-0.2,0.1l-0.1,0c0,0,0,0,0,0c0,0.1,0,0.1,0.1,0.1l0.1,0l0.8-0.1
	l0.3-0.1c0,0,0,0,0,0l0.1-0.1l0.3,0c0.2,0,0.2,0,0.6-0.1c0,0,0,0,0,0l0,0c0.7-0.1,0.8-0.1,0.9-0.2l0,0c0.2,0,0.1,0,0.1-0.1
	c0,0,0,0,0,0l0.1,0l0-0.1l-0.3,0l0,0c0,0,0,0,0,0h0v0c-0.2,0-0.2,0-0.3,0l-0.6,0l0,0l0.4,0l0.1,0l0.1-0.1l0,0c0.5,0,0.7,0.1,3-0.4
	c0.1,0,0.1-0.1,0.2-0.3C511.3,26.6,511.3,26.6,511.2,26.5c-0.2,0.2-0.3,0.1-0.7,0.2c0,0-0.1,0-0.1-0.1l0,0l0.4,0
	C510.9,26.6,511.1,26.6,511.2,26.5C511.2,26.5,511.2,26.5,511.2,26.5L511.2,26.5z M493.8,26.8l-0.2,0c0-0.1,0.1-0.3,0.3-0.8l0.1,0
	C494,26.1,494,26.4,493.8,26.8L493.8,26.8z M494,26L494,26c0-0.1,0-0.1,0.1-0.2l0,0C494.1,25.9,494.1,26,494,26L494,26z M496.2,27.7
	L496.2,27.7l-0.3,0.1l0,0L496.2,27.7L496.2,27.7z M495.9,27.7c0,0.1-0.1,0.1-0.3,0.2l-0.3,0l-0.1,0l0-0.1L495.9,27.7L495.9,27.7z
	 M498.1,17.4l-0.2,0l0-0.1c0-0.1,0-0.1,0.1-0.1l0.1,0l0.1,0C498.2,17.3,498.2,17.4,498.1,17.4L498.1,17.4z M500.7,16.9L500.7,16.9
	L500.7,16.9l-0.1,0.1C500.6,16.9,500.6,16.9,500.7,16.9L500.7,16.9z M500,17.1l-0.3,0l0,0c0.3,0,0.4-0.1,0.6-0.1c0,0,0,0.1,0.1,0
	l0,0.1l-0.1,0c-0.1,0-0.1,0-0.2,0C500.1,17.1,500.1,17.1,500,17.1L500,17.1z M500.3,18L500.3,18l0.4-0.1l0,0L500.3,18L500.3,18z
	 M500.8,17.7L500.8,17.7l0.2-0.1l0,0.1L500.8,17.7L500.8,17.7z M500.8,17L500.8,17l0-0.1l0.5,0l0,0.1C501.1,16.9,501,16.9,500.8,17
	L500.8,17z M501,18l0-0.1l0.2,0c0.1,0,0.1,0,0.1,0.1L501,18L501,18z M502.2,16.3l-0.3,0.1l0,0c-0.1,0-0.3,0-0.5,0
	C501.8,16.4,502.1,16.3,502.2,16.3L502.2,16.3z M502,17.5L502,17.5l-0.3,0.1l0,0L502,17.5L502,17.5z M502.5,17.7
	c0,0-0.1-0.1-0.2-0.1l-0.3,0.1l-0.3,0c-0.1,0-0.1-0.1-0.1-0.1l0.3,0l0.7-0.1l0.4,0l0,0.1C502.8,17.6,502.7,17.7,502.5,17.7
	L502.5,17.7z M506.1,16.8C506.2,16.8,506.2,16.8,506.1,16.8c0.2-0.1,0.3-0.2,0.5-0.3c-0.1,0.6-0.3,1-0.6,1.2l-0.2-0.1
	C506,17.2,506.1,16.9,506.1,16.8L506.1,16.8z M505.5,17.8L505.5,17.8c0,0.1-0.1,0.2-0.1,0.2l0-0.1C505.4,17.9,505.5,17.9,505.5,17.8
	L505.5,17.8z M505.1,18.8c0.1-0.4,0.2-0.6,0.3-0.7l0,0C505.4,18.5,505.3,18.7,505.1,18.8l0.1,0.2c-0.1,0.1-0.1,0.2-0.1,0.3l0,0
	l0-0.3C505.1,18.9,505.1,18.9,505.1,18.8L505.1,18.8z M505,19.3c0,0.1,0,0.2-0.1,0.4l0,0l0-0.1C504.9,19.4,504.9,19.3,505,19.3
	L505,19.3z M502.1,27.6L502.1,27.6L502.1,27.6L502.1,27.6C502.2,27.7,502.1,27.6,502.1,27.6L502.1,27.6z M506.2,27.7
	C506.2,27.6,506.2,27.6,506.2,27.7l-0.3,0l0,0h0l0.5,0l0,0C506.3,27.6,506.2,27.6,506.2,27.7L506.2,27.7z M505.9,27.6
	C506,27.6,505.9,27.6,505.9,27.6C505.9,27.6,505.9,27.6,505.9,27.6L505.9,27.6z M506,26.9l-0.3,0l0,0L506,26.9l0.2-0.1c0,0,0,0,0,0
	c0.3,0,0.3-0.1,0.4-0.1c0,0,0.1,0,0.1,0.1L506,26.9L506,26.9z M507,26.8c-0.2,0-0.2,0-0.3,0l0,0L507,26.8L507,26.8
	C507,26.8,507.1,26.8,507,26.8L507,26.8z M507.1,26.8L507.1,26.8l0.1-0.1l0,0L507.1,26.8L507.1,26.8z M507.4,26.7L507.4,26.7
	c0,0,0.1-0.1,0.1-0.1c0.1,0,0.1,0,0.1,0.1L507.4,26.7L507.4,26.7z M507.8,26.7L507.8,26.7l0.2-0.1l0,0L507.8,26.7L507.8,26.7z
	 M508.1,26.7C508,26.6,508.1,26.6,508.1,26.7l0.1,0c0,0,0,0,0,0l0,0.1L508.1,26.7L508.1,26.7z M511.5,26.3L511.5,26.3L511.5,26.3
	C511.5,26.3,511.5,26.3,511.5,26.3L511.5,26.3z M511.6,26.2C511.6,26.2,511.6,26.2,511.6,26.2C511.5,26.2,511.6,26.2,511.6,26.2
	L511.6,26.2C511.5,26.2,511.6,26.2,511.6,26.2L511.6,26.2L511.6,26.2l-0.1,0.1L511.6,26.2L511.6,26.2L511.6,26.2L511.6,26.2
	L511.6,26.2z M511.9,26.4L511.9,26.4L511.9,26.4l0.2,0.1C512,26.4,511.9,26.4,511.9,26.4L511.9,26.4z"/>
</svg>
