<?xml version="1.0" encoding="utf-8"?>
<!-- Generated by IcoMoon.io -->
<!DOCTYPE svg PUBLIC "-//W3C//DTD SVG 1.1//EN" "http://www.w3.org/Graphics/SVG/1.1/DTD/svg11.dtd">
<svg version="1.1" xmlns="http://www.w3.org/2000/svg" xmlns:xlink="http://www.w3.org/1999/xlink" width="49" height="48" viewBox="0 0 49 48">
<g id="icomoon-ignore">
	<line stroke-width="1" x1="" y1="" x2="" y2="" stroke="#449FDB" opacity=""></line>
</g>
	<path d="M46.815 0.24l-0.001-0c0.119-0.009 0.255 0.013 0.39 0.045 0.014 0.001 0.031-0.001 0.045 0 0.026 0.002 0.050 0.012 0.075 0.015 0.037 0.004 0.069 0.012 0.105 0.015 0.055 0.008 0.115 0.004 0.165 0.015 0.019 0.004 0.042 0.011 0.060 0.015 0.042 0.011 0.082 0.032 0.12 0.045 0.039 0 0.085 0.007 0.12 0 0.020 0.016 0.042 0.038 0.060 0.060 0.005 0.003 0.010 0.012 0.015 0.015 0.034 0.019 0.061 0.053 0.090 0.075 0.021 0.019 0.033 0.026 0.030 0.030 0.032 0.027 0.065 0.043 0.090 0.075 0.074 0.252 0.139 0.494 0.195 0.735 0.002 0.009-0.002 0.021 0 0.030 0.032 0.137 0.064 0.271 0.090 0.405 0.018 0.093 0.030 0.194 0.045 0.285 0.003 0.015 0.013 0.030 0.015 0.045 0.079 0.262 0.081 0.515 0.090 0.765 0.005 0.127 0.013 0.25 0.029 0.39 0.001 0.040-0.001 0.080 0 0.12 0.005 0.212-0.004 0.427-0.015 0.63v0.015c-0.001 0.016 0.001 0.030 0 0.045-0.013 0.208-0.031 0.401-0.060 0.6v0.015c-0.003 0.054-0.007 0.105-0.015 0.165-0.017 0.069-0.041 0.139-0.060 0.21-0.001 0.005 0.001 0.010 0 0.015-0.004 0.015-0.011 0.030-0.015 0.045-0.041 0.192-0.094 0.386-0.15 0.57-0.003 0.009 0.003 0.021 0 0.030-0.040 0.131-0.089 0.261-0.135 0.39-0.004 0.010-0.011 0.020-0.015 0.030-0.035 0.091-0.066 0.181-0.105 0.27-0.009 0.021-0.021 0.039-0.030 0.060-0.006 0.015-0.009 0.030-0.015 0.045-0.005 0.010-0.010 0.020-0.015 0.030-0.053 0.124-0.104 0.241-0.165 0.36-0.006 0.012-0.022 0.019-0.030 0.030-0.002 0.003 0.002 0.011 0 0.015-0.069 0.13-0.143 0.254-0.225 0.375-0.078 0.126-0.155 0.253-0.24 0.375-0.076 0.113-0.156 0.222-0.24 0.33-0.009 0.011-0.021 0.019-0.030 0.030-0.066-0.105-0.143-0.214-0.225-0.33-0.066-0.094-0.147-0.188-0.225-0.285-0.018-0.023-0.026-0.052-0.045-0.075-0.005-0.005-0.010-0.010-0.015-0.015s-0.010-0.010-0.015-0.015c-0.326-0.344-0.676-0.659-1.050-0.945-0.009-0.006-0.012-0.011-0.015-0.015-0.009-0.006-0.006-0.009-0.015-0.015-0.043-0.032-0.092-0.059-0.135-0.090-0.159-0.115-0.325-0.229-0.495-0.33 0.003-0.003-0.031-0.035-0.060-0.060-0.011-0.008-0.019-0.022-0.030-0.030-0.074-0.055-0.2-0.136-0.39-0.255-0.014 0.001-0.013-0.006-0.015 0 0.003 0.002-0.003 0.013 0 0.015 0.025 0.020 0.049 0.025 0.075 0.045 0.015 0.010 0.030 0.020 0.045 0.030 0.042 0.027 0.079 0.058 0.12 0.090 0.047 0.029 0.093 0.067 0.135 0.090v0.015c0.069 0.036 0.114 0.066 0.12 0.060 0.055 0.067 0.118 0.133 0.18 0.195 0.005 0.005 0.010 0.010 0.015 0.015 0.019 0.017 0.041 0.028 0.060 0.045 0.051 0.049 0.096 0.102 0.15 0.15 0.055 0.050 0.113 0.1 0.165 0.15 0.091 0.082 0.184 0.169 0.271 0.256 0.007 0.008 0.008 0.022 0.015 0.030 0.002 0.003-0.002 0.012 0 0.015 0.060 0.062 0.111 0.129 0.165 0.195 0.019 0.024 0.043 0.051 0.060 0.075 0.002 0.003-0.002 0.012 0 0.015 0.127 0.174 0.239 0.362 0.285 0.6 0.006 0.032 0.026 0.056 0.030 0.090 0.090 0.187 0.126 0.362 0.135 0.525 0.036 0.158 0.080 0.323 0.105 0.465-0.132 0.138-0.278 0.272-0.42 0.405-0.009 0.011-0.021 0.019-0.030 0.030-0.216 0.258-0.499 0.486-0.795 0.705-0.011 0.009-0.019 0.021-0.030 0.030-0.013 0.011-0.032 0.019-0.045 0.030-0.015 0.010-0.030 0.019-0.045 0.030-0.252 0.211-0.513 0.421-0.78 0.63-0.306 0.241-0.62 0.481-0.945 0.72-0.211 0.165-0.433 0.317-0.645 0.48-0.547 0.421-1.101 0.829-1.695 1.17-0.261 0.176-0.514 0.348-0.78 0.525-0.283 0.188-0.572 0.368-0.855 0.555-0.46 0.304-0.91 0.603-1.38 0.915-0.042 0.027-0.078 0.063-0.12 0.090-0.068 0.045-0.142 0.089-0.21 0.135-0.056 0.035-0.111 0.069-0.165 0.105-0.051 0.034-0.1 0.071-0.15 0.105-0.549 0.367-1.097 0.742-1.65 1.125-0.309 0.215-0.624 0.425-0.93 0.645-0.076 0.054-0.149 0.111-0.225 0.165-0.383 0.275-0.761 0.555-1.14 0.84-0.031 0.024-0.059 0.051-0.090 0.075-0.216 0.163-0.431 0.329-0.645 0.495-0.191 0.149-0.381 0.298-0.57 0.45-0.039 0.031-0.081 0.058-0.12 0.090-0.099 0.080-0.201 0.158-0.3 0.24-0.035 0.030-0.070 0.060-0.105 0.090-0.005 0.005-0.010 0.010-0.015 0.015-1.202 1.036-2.347 2.142-3.495 3.24-0.302 0.296-0.63 0.612-0.915 0.885-0.067 0.064-0.144 0.147-0.21 0.21-0.008 0.007-0.022 0.008-0.030 0.015-0.251 0.241-0.527 0.513-0.765 0.735-0.095 0.088-0.193 0.17-0.285 0.255-0.159 0.147-0.306 0.304-0.465 0.45l-0.014 0.016c-0.084 0.076-0.188 0.166-0.27 0.24-0.327 0.299-0.649 0.603-0.945 0.9-0.869 0.687-1.905 1.514-2.85 2.235-0.124 0.019-0.234 0.067-0.345 0.12-0.015 0.009-0.030 0.021-0.045 0.030-0.103 0.065-0.201 0.12-0.3 0.18-0.041 0.025-0.094 0.051-0.135 0.075-0.012 0.007-0.018 0.022-0.030 0.030-0.273 0.2-0.558 0.413-0.9 0.495-0.077 0.036-0.161 0.056-0.24 0.090-0.159 0.068-0.319 0.133-0.48 0.195-0.016 0.006-0.028 0.024-0.045 0.030h-0.015c-0.024 0.009-0.051 0.021-0.075 0.030-0.074 0.028-0.152 0.050-0.225 0.075-0.030 0.010-0.061 0.020-0.090 0.030-0.015 0.005-0.030 0.010-0.045 0.015-0.011 0.004-0.019 0.012-0.030 0.015-0.044 0.012-0.091 0.017-0.135 0.030-0.056 0.018-0.11 0.044-0.165 0.060-0.020 0.006-0.040 0.010-0.060 0.015-0.015 0.004-0.030 0.011-0.045 0.015-0.137 0.038-0.27 0.061-0.405 0.090s-0.272 0.065-0.405 0.090c-0.495 0.093-0.985 0.151-1.5 0.21-0.056 0.006-0.109 0.009-0.165 0.015-0.206 0.023-0.413 0.049-0.63 0.075-0.264 0.032-0.539 0.076-0.825 0.12-0.009 0.001-0.021-0.001-0.030 0-0.3 0.047-0.598 0.097-0.93 0.165-0.024 0.007-0.050 0.010-0.075 0.015-0.317 0.066-0.652 0.147-1.005 0.24-0.104 0.039-0.271 0.102-0.36 0.135-0.26 0.094-0.615 0.225-0.615 0.225l-0.99 0.285 0.060-0.060c-0.025 0.010-0.050 0.021-0.075 0.030-0.533 0.641-1.014 1.24-1.47 1.815-0.033 0.042-0.058 0.079-0.090 0.12-0.004 0.005-0.011 0.010-0.015 0.015-0.345 0.437-0.673 0.863-0.975 1.26-0.114 0.15-0.252 0.321-0.36 0.465-0.011 0.014-0.020 0.031-0.030 0.045-0.005 0.006-0.010 0.009-0.015 0.015-0.296 0.395-0.573 0.775-0.825 1.125-0.049 0.069-0.102 0.158-0.15 0.225-0.225 0.315-0.426 0.595-0.615 0.87-0.004 0.006-0.011 0.010-0.015 0.015-0.050 0.073-0.072 0.124-0.12 0.195-0.289 0.425-0.563 0.838-0.765 1.155-0.003 0.005-0.012 0.010-0.015 0.016s-0.012 0.010-0.015 0.015c-0.007 0.010-0.010 0.023-0.015 0.030-0.075 0.119-0.127 0.205-0.195 0.315-0.077 0.125-0.18 0.275-0.24 0.375-0.010 0.017-0.020 0.043-0.030 0.060-0.048 0.080-0.040 0.075-0.075 0.135-0.014 0.022-0.037 0.046-0.045 0.060-0.064 0.112-0.18 0.315-0.18 0.315l-2.895 3-0.135-0.12s0.208-0.347 0.315-0.526c0.070-0.115 0.203-0.337 0.3-0.495 0.005-0.008 0.010-0.022 0.015-0.030 0.102-0.165 0.24-0.388 0.375-0.6 0.039-0.062 0.079-0.115 0.12-0.18 0.024-0.039 0.050-0.081 0.075-0.12 0.045-0.071 0.098-0.16 0.15-0.24 0.012-0.019 0.033-0.041 0.045-0.060 0.275-0.432 0.599-0.942 0.945-1.47 0.045-0.069 0.103-0.155 0.15-0.225 0.062-0.095 0.101-0.158 0.165-0.255 0.080-0.121 0.171-0.264 0.254-0.392 0.237-0.355 0.473-0.697 0.735-1.080 0.279-0.408 0.596-0.856 0.9-1.29 0.637-0.908 1.304-1.85 2.040-2.835 0.052-0.069 0.113-0.14 0.165-0.21 0.021-0.028 0.039-0.062 0.060-0.090 0.149-0.198 0.311-0.402 0.465-0.6 0.355-0.465 0.708-0.924 1.080-1.395-0.013-0.032-0.018-0.072-0.030-0.105-0.008-0.023-0.007-0.051-0.015-0.075-0.014-0.044-0.033-0.089-0.045-0.135-0.004-0.015-0.011-0.030-0.015-0.045-0.012-0.050-0.036-0.098-0.045-0.15-0.013-0.075-0.008-0.16-0.015-0.24-0.001-0.010 0.001-0.020 0-0.030-0.008-0.097-0.016-0.196-0.015-0.3 0-0.009-0-0.021 0-0.030 0-0.036-0.002-0.068 0-0.105 0.006-0.109 0.014-0.213 0.030-0.33 0.020-0.146 0.052-0.307 0.090-0.465 0.008-0.034 0.021-0.070 0.030-0.105 0.015-0.057 0.028-0.122 0.045-0.18 0.029-0.102 0.067-0.208 0.105-0.315 0.010-0.028 0.020-0.062 0.030-0.090 0.048-0.135 0.106-0.277 0.165-0.42 0.004-0.010 0.011-0.020 0.015-0.030 0.068-0.163 0.142-0.337 0.225-0.51 0.105-0.218 0.245-0.455 0.375-0.69 0.094-0.169 0.193-0.346 0.3-0.525 0.107-0.183 0.222-0.377 0.345-0.57 0.009-0.014 0.021-0.031 0.030-0.045 0.027-0.042 0.047-0.077 0.075-0.12 0.106-0.163 0.228-0.34 0.345-0.51 0.094-0.137 0.201-0.28 0.3-0.42 0.033-0.047 0.056-0.088 0.090-0.135 0.018-0.024 0.042-0.050 0.060-0.075 0.047-0.066 0.086-0.128 0.135-0.195 0.015-0.020 0.030-0.040 0.045-0.060 0.136-0.185 0.302-0.391 0.45-0.585 0.191-0.25 0.391-0.515 0.6-0.78 0.029-0.037 0.060-0.082 0.090-0.12 0.096-0.121 0.2-0.251 0.3-0.375s0.2-0.239 0.3-0.36c0.037-0.044 0.079-0.089 0.12-0.135 0.021-0.025 0.039-0.049 0.060-0.075 0.009-0.010 0.021-0.020 0.030-0.030 0.245-0.292 0.497-0.592 0.765-0.9 0.106-0.122 0.234-0.25 0.345-0.375 0.042-0.049 0.077-0.102 0.12-0.15 0.005-0.010 0.010-0.020 0.015-0.030 0.076-0.139 0.19-0.242 0.315-0.345 0.015-0.016 0.030-0.029 0.045-0.045 0.005-0.004 0.010-0.011 0.015-0.015 0.034-0.038 0.070-0.081 0.105-0.12 0.056-0.062 0.108-0.117 0.165-0.18 0.054-0.059 0.125-0.12 0.18-0.18 0.108-0.119 0.205-0.241 0.315-0.36 0.003-0.006 0.012-0.008 0.015-0.015 0.006-0.004 0.009-0.011 0.015-0.015 0.393-0.427 0.783-0.85 1.215-1.305 0.002-0.002-0.002-0.012 0-0.015 0.065-0.068 0.138-0.139 0.21-0.21 0.059-0.064 0.122-0.119 0.18-0.18 0.010-0.015 0.019-0.031 0.030-0.045 0.005-0.005 0.010-0.010 0.015-0.015 0.249-0.354 0.57-0.638 0.9-0.93 0.026-0.023 0.049-0.052 0.075-0.075 0.035-0.035 0.070-0.070 0.105-0.105s0.071-0.070 0.105-0.105c0.172-0.175 0.333-0.346 0.51-0.525 0.015-0.016 0.030-0.029 0.045-0.045 0.047-0.060 0.092-0.116 0.135-0.18 0.505-0.487 1.011-0.97 1.515-1.455 0.026-0.025 0.049-0.049 0.075-0.075 0.021-0.020 0.039-0.039 0.060-0.060 0.016-0.015 0.029-0.030 0.045-0.045 0.076-0.073 0.148-0.152 0.225-0.225 0.202-0.197 0.419-0.389 0.63-0.585 0.072-0.067 0.138-0.142 0.21-0.21 0.069-0.063 0.14-0.132 0.21-0.195 0.029-0.027 0.061-0.049 0.090-0.075 0.073-0.065 0.151-0.13 0.225-0.195 0.045-0.040 0.090-0.080 0.135-0.12 0.049-0.045 0.1-0.090 0.15-0.135 0.038-0.033 0.082-0.058 0.12-0.090 0.297-0.261 0.6-0.519 0.915-0.765 0.157-0.127 0.32-0.25 0.48-0.375 0.015-0.011 0.030-0.019 0.045-0.030 0.059-0.046 0.121-0.089 0.18-0.135 0.093-0.072 0.176-0.153 0.27-0.225 0.111-0.084 0.23-0.159 0.345-0.24 0.052-0.039 0.098-0.081 0.15-0.12 0.029-0.022 0.061-0.038 0.090-0.060 0.199-0.148 0.399-0.304 0.585-0.45 0.319-0.325 0.736-0.545 1.14-0.78 0.015-0.010 0.029-0.022 0.045-0.030 0.018-0.012 0.042-0.018 0.060-0.030 0.122-0.082 0.238-0.173 0.36-0.255 0.019-0.012 0.041-0.018 0.060-0.030 0.020-0.015 0.041-0.029 0.060-0.045 0.005-0.004 0.009-0.011 0.015-0.015 0.050-0.040 0.103-0.076 0.15-0.12 0.101-0.044 0.192-0.103 0.285-0.165 0.009-0.006 0.021-0.009 0.030-0.015 0.006-0.004 0.009-0.012 0.015-0.015 0.009-0.006 0.021-0.009 0.030-0.015s0.021-0.009 0.030-0.015c0.301-0.214 0.583-0.485 0.945-0.615 0.004-0.002 0.011 0.002 0.015 0 0.068-0.043 0.142-0.078 0.21-0.12 0.075-0.053 0.143-0.111 0.225-0.15 0.056-0.034 0.109-0.071 0.165-0.105 0.104-0.063 0.211-0.118 0.315-0.18 0.469-0.282 0.938-0.556 1.41-0.825 0.103-0.062 0.208-0.123 0.315-0.18 0.041-0.023 0.079-0.052 0.12-0.075 0.084-0.047 0.17-0.089 0.255-0.135 0.25-0.139 0.5-0.27 0.75-0.405 0.015-0.010 0.030-0.019 0.045-0.030 0.020-0.015 0.040-0.030 0.060-0.045 0.271-0.181 0.559-0.319 0.856-0.45 0.014-0.007 0.031-0.008 0.045-0.015 0.010-0.005 0.020-0.010 0.030-0.015 0.004-0.002 0.011 0.002 0.015 0 0.496-0.258 0.98-0.51 1.47-0.75 0.357-0.175 0.7-0.345 1.050-0.51 0.176-0.083 0.351-0.16 0.525-0.24 0.031-0.014 0.059-0.031 0.090-0.045 0.188-0.086 0.37-0.171 0.555-0.255 0.024-0.011 0.051-0.019 0.075-0.030 0.006-0.003 0.009-0.012 0.015-0.015 0.093-0.042 0.192-0.079 0.285-0.12 0.184-0.081 0.373-0.163 0.555-0.24 0.089-0.039 0.181-0.081 0.27-0.12 0.038-0.017 0.082-0.029 0.12-0.045s0.081-0.028 0.12-0.045c0.006-0.003 0.009-0.012 0.015-0.015 0.452-0.187 0.88-0.35 1.305-0.51 0.264-0.101 0.511-0.193 0.765-0.285 0.010-0.005 0.020-0.010 0.030-0.015 0.092-0.049 0.185-0.109 0.27-0.165 0.111-0.008 0.224-0.026 0.33-0.045 0.348-0.12 0.694-0.229 1.020-0.33-0.001 0.013 0.002 0.031 0 0.045 0.013-0.004 0.032-0.011 0.045-0.015-0.043 0.138-0.081 0.251-0.105 0.36-0.001 0.004 0.001 0.011 0 0.015s0.001 0.011 0 0.015c-0.021 0.14-0.037 0.269-0.060 0.42-0.001 0.005 0.001 0.010 0 0.015-0.005 0.036-0.009 0.068-0.015 0.105-0.016 0.17-0.030 0.331-0.060 0.585-0.025 0.047-0.042 0.101-0.060 0.15-0.002 0.006-0.013 0.009-0.015 0.015-0.001 0.004 0.001 0.010 0 0.015-0.023 0.128-0.025 0.115-0.045 0.225-0.001 0.011 0.001 0.019 0 0.030-0.016 0.17-0.003 0.292 0.045 0.285 0.008-0.017 0.029-0.056 0.045-0.090 0.007-0.017 0.021-0.055 0.030-0.075 0.024-0.056 0.057-0.132 0.090-0.21 0.001-0.005-0.001-0.010 0-0.015 0.011-0.056 0.018-0.106 0.030-0.18 0.044-0.056 0.083-0.116 0.12-0.18 0.004-0.010 0.011-0.004 0.015-0.015 0.007-0.018 0.007-0.012 0.015-0.030 0.048-0.115 0.019-0.058 0.075-0.195 0.039-0.094 0.079-0.201 0.12-0.3 0.125-0.355 0.233-0.718 0.39-0.975 0.032-0.079 0.075-0.165 0.105-0.24 0.145-0.040 0.281-0.069 0.42-0.105 0.112-0.033 0.237-0.062 0.36-0.090 0.058-0.014 0.108-0.017 0.165-0.030 0.178-0.037 0.359-0.083 0.54-0.12 0.005-0.001 0.010 0.001 0.015 0 0.011-0.002 0.019-0.013 0.030-0.015 0.207-0.062 0.563-0.154 0.795-0.105 0.091-0.009 0.184-0.010 0.27-0.015 0.006-0.003 0.009-0.012 0.015-0.015 0.048-0.022 0.094-0.041 0.15-0.045zM42.9 3.525c-0 0.053-0.019 0.078-0.030 0.105 0.004-0.026-0.001-0.053 0-0.060 0.012-0.016 0.010-0.027 0.030-0.045zM44.58 10.53v0zM44.205 10.815l0.015 0.015zM14.414 21l0.015 0.030zM13.784 21.825v0zM27.075 23.985v0zM23.835 27v0zM22.47 28.11l-0.015 0.015zM22.29 28.26l0.015 0.015-0.014-0.014zM22.125 28.305v0zM22.155 28.335l-0.015 0.015zM22.185 28.38v0zM21.315 28.92v0zM21.24 28.981l0.015 0.015zM21 29.056v0zM20.85 29.116v0zM20.505 29.401l-0.015 0.015zM20.43 29.476l-0.015 0.015zM20.475 29.506v0zM19.59 29.881v0zM19.5 29.896v0zM19.5 29.941v0zM19.155 30.016v0zM18.84 30.136l-0.015 0.015z" fill="#000000"></path>
</svg>
