<?xml version="1.0" encoding="utf-8"?>
<!-- Generated by IcoMoon.io -->
<!DOCTYPE svg PUBLIC "-//W3C//DTD SVG 1.1//EN" "http://www.w3.org/Graphics/SVG/1.1/DTD/svg11.dtd">
<svg version="1.1" xmlns="http://www.w3.org/2000/svg" xmlns:xlink="http://www.w3.org/1999/xlink" width="48" height="48" viewBox="0 0 48 48">
<g id="icomoon-ignore">
	<line stroke-width="1" x1="" y1="" x2="" y2="" stroke="#449FDB" opacity=""></line>
</g>
	<path d="M6.527 12.851l10.278-0c0.734 0.002 1.358 0.788 1.193 1.503l-1.756 7.617c-0.124 0.536-0.647 0.951-1.197 0.951h-10.278c-0.736 0-1.362-0.787-1.197-1.503l1.761-7.616c0.124-0.536 0.647-0.951 1.197-0.951zM3.704 25.077l10.278 0c0.734 0.002 1.358 0.788 1.193 1.503l-1.756 7.62c-0.124 0.536-0.647 0.951-1.197 0.951h-10.278c-0.736 0-1.362-0.787-1.197-1.503l1.76-7.62c0.124-0.536 0.647-0.951 1.197-0.951zM30.879 5.583l5.173 0c0.821 0 1.458 1.001 1.112 1.745l-14.156 30.362c-0.196 0.421-0.648 0.709-1.112 0.709h-5.177c-0.822 0.001-1.462-1.004-1.112-1.749l14.16-30.359c0.196-0.421 0.648-0.709 1.112-0.71zM42.338 5.583l5.174 0c0.821 0 1.458 1.001 1.112 1.745l-14.156 30.362c-0.196 0.421-0.648 0.709-1.112 0.709h-5.177c-0.823 0.001-1.462-1.004-1.112-1.749l14.159-30.359c0.196-0.421 0.648-0.709 1.112-0.71z" fill="#000000"></path>
</svg>
