<?xml version="1.0" encoding="utf-8"?>
<!-- Generator: Adobe Illustrator 16.0.0, SVG Export Plug-In . SVG Version: 6.00 Build 0)  -->
<!DOCTYPE svg PUBLIC "-//W3C//DTD SVG 1.1//EN" "http://www.w3.org/Graphics/SVG/1.1/DTD/svg11.dtd">
<svg version="1.1" id="Layer_1" xmlns="http://www.w3.org/2000/svg" xmlns:xlink="http://www.w3.org/1999/xlink" x="0px" y="0px"
	 width="48px" height="48px" viewBox="0 0 48 48" enable-background="new 0 0 48 48" xml:space="preserve">
<path fill="#070404" d="M41.807,0.5c-1.5,0-34.25,0-34.25,0S6.391,0.667,6.391,2.167V45.75c0,0-0.334,1.75,1.416,1.75
	s34.166,0,34.166,0s1.252,0.084,1.252-1.666s0-43.667,0-43.667S43.307,0.5,41.807,0.5z M22.267,37.826c-0.553,0-1-0.642-1-1.434
	s0.447-1.434,1-1.434s1,0.642,1,1.434S22.82,37.826,22.267,37.826z M27.302,37.826c-0.553,0-1-0.642-1-1.434s0.447-1.434,1-1.434
	s1,0.642,1,1.434S27.854,37.826,27.302,37.826z M35.906,36.084c-0.209,1.67-0.951,1.742-0.951,1.742s-1.062-0.09-3.052-0.027
	c-1.988,0.062-2.448,0.125-2.073-1.125s2.202-5.937,2.062-14.062c-0.143-8.278-2.393-3.486-2.393-3.486s-2.228,6.943-3.295,10.486
	c-1.41,4.681-2.75,0.21-2.75,0.21c-2.997-11.696-4.813-13.897-5.813-11.272s1.25,16.562,1.688,17.812s0,1.438,0,1.438h-4.938
	c-0.84-0.465-0.812-1.75-0.812-1.75s-0.062-19.375,0-22.188s1.438-3.688,1.438-3.688l2.17-0.549l2.202,0.521
	c0.542,0.5,1.933,2.247,2.956,3.993c1.264,2.159,2.449,4.361,2.45,4.361c1.125-4.75,5.097-8.326,5.097-8.326L32,9.562l2.205,0.611
	c1.312,1.25,1.062,1.875,1.438,3.688S36.186,33.851,35.906,36.084z"/>
</svg>
