<?xml version="1.0" encoding="utf-8"?>
<!-- Generated by IcoMoon.io -->
<!DOCTYPE svg PUBLIC "-//W3C//DTD SVG 1.1//EN" "http://www.w3.org/Graphics/SVG/1.1/DTD/svg11.dtd">
<svg version="1.1" xmlns="http://www.w3.org/2000/svg" xmlns:xlink="http://www.w3.org/1999/xlink" width="40" height="48" viewBox="0 0 40 48">
<g id="icomoon-ignore">
	<line stroke-width="1" x1="" y1="" x2="" y2="" stroke="#449FDB" opacity=""></line>
</g>
	<path d="M4.249 0.025l0 0c0.123-0.014 0.324-0.025 0.448-0.025 2.195 0 3.976 1.781 3.976 3.976 0 0.021-0 0.054-0.001 0.074v20.675l23.508-23.508c0.645-0.654 1.914-1.185 2.832-1.185 2.195 0 3.976 1.781 3.976 3.976l-0 0.042v30.316l0.001 0.062c0 2.195-1.781 3.976-3.976 3.976s-3.976-1.781-3.976-3.976c0-0.017 0-0.045 0.001-0.062v-20.774l-23.557 23.557c-0.64 0.627-1.887 1.136-2.783 1.136-2.164 0-3.945-1.756-3.976-3.919v-30.316c-0-0.021-0.001-0.054-0.001-0.074 0-1.961 1.581-3.731 3.529-3.951z" fill="#000000"></path>
</svg>
