<?xml version="1.0" encoding="utf-8"?>
<!-- Generated by IcoMoon.io -->
<!DOCTYPE svg PUBLIC "-//W3C//DTD SVG 1.1//EN" "http://www.w3.org/Graphics/SVG/1.1/DTD/svg11.dtd">
<svg version="1.1" xmlns="http://www.w3.org/2000/svg" xmlns:xlink="http://www.w3.org/1999/xlink" width="48" height="48" viewBox="0 0 48 48">
	<path d="M48.72 25.923v-0.001 4.735c0 0.48-0.574 1.005-1.878 1.684-2.561 1.335-15.832 6.789-18.657 8.262s-4.39 1.464-6.622 0.397c-2.232-1.067-16.36-6.772-18.904-7.988-1.271-0.608-1.94-1.12-1.94-1.605v-4.849c0.019 0.483 0.668 0.997 1.94 1.605 2.544 1.215 16.672 6.913 18.904 7.98s3.797 1.085 6.622-0.388c2.825-1.473 16.095-6.927 18.657-8.261 1.201-0.626 1.819-1.123 1.878-1.569zM48.72 18.005v4.743c0 0.479-0.574 1.005-1.878 1.684-2.561 1.335-15.832 6.789-18.657 8.262s-4.39 1.464-6.622 0.397c-2.232-1.066-16.36-6.772-18.904-7.988-1.271-0.608-1.94-1.12-1.94-1.605v-4.858c0.019 0.483 0.668 0.997 1.94 1.605 2.544 1.215 16.672 6.922 18.904 7.988s3.797 1.085 6.622-0.388c2.825-1.473 16.095-6.926 18.657-8.262 1.201-0.626 1.819-1.131 1.878-1.578zM48.72 9.805v-0 4.735c0 0.479-0.574 1.005-1.878 1.684-2.561 1.335-15.832 6.797-18.657 8.27s-4.39 1.455-6.622 0.388c-2.232-1.066-16.36-6.773-18.904-7.988-1.271-0.608-1.94-1.12-1.94-1.605v-4.849c0.019 0.483 0.668 0.997 1.94 1.605 2.544 1.215 16.672 6.922 18.904 7.989s3.797 1.076 6.622-0.397c2.825-1.473 16.095-6.927 18.657-8.262 1.201-0.626 1.819-1.123 1.878-1.569zM26.852 7.134l-0.932 2.241-1.505-2.5-4.802-0.431 3.584-1.293-1.075-1.983 3.354 1.313 3.165-1.035-0.857 2.051 3.225 1.207zM17.909 14.352l11.122-1.707-3.358 4.927zM20.856 10.253c0 1.273-2.661 2.304-5.944 2.304s-5.944-1.032-5.944-2.304 2.661-2.304 5.944-2.304c3.283 0 5.944 1.032 5.944 2.304zM35.926 7.31l6.577 2.61-7.283 2.874-6.577-2.601z" fill="#000000"></path>
</svg>
