<?xml version="1.0" encoding="utf-8"?>
<!-- Generated by IcoMoon.io -->
<!DOCTYPE svg PUBLIC "-//W3C//DTD SVG 1.1//EN" "http://www.w3.org/Graphics/SVG/1.1/DTD/svg11.dtd">
<svg version="1.1" xmlns="http://www.w3.org/2000/svg" xmlns:xlink="http://www.w3.org/1999/xlink" width="48" height="48" viewBox="0 0 48 48">
<g id="icomoon-ignore">
	<line stroke-width="1" x1="" y1="" x2="" y2="" stroke="#449FDB" opacity=""></line>
</g>
	<path d="M23.246 21.99l-4.114-2.76 2.76-1.254zM19.382 22.24l-3.061-1.555 1.606-0.953zM15.318 24.197l-2.107-1.455 1.405-1.054zM35.739 30.419l1.304-2.007 1.003 0.953zM36.994 32.325l2.107-1.606 0.803 0.853zM35.538 12.356l-1.556-3.412 2.559-0.050zM28.564 15.216l-2.208 0.151-0.251-1.455zM28.213 17.173l-1.254 0.351-0.251-0.953zM42.262 15.718l2.007-0.853-0.351 1.104zM41.911 17.775l1.555-0.452-0.301 0.903zM25.298 21.089h4.842v0.598h-4.842v-0.598zM25.298 19.654h4.842v0.598h-4.842v-0.598zM40.084 21.089h4.842v0.598h-4.842v-0.598zM40.084 19.654h4.842v0.598h-4.842v-0.598zM38.377 16.11h-7.891v-0.538h2.456c0.302-1.295 0.362-2.532-0.003-3.16-0.156-0.267-0.371-0.391-0.678-0.391-1.404 0-1.984 1.485-2.008 1.548l0-0-0.504-0.189c0.029-0.077 0.731-1.896 2.511-1.896 0.497 0 0.892 0.228 1.142 0.659 0.445 0.764 0.392 2.086 0.091 3.43h4.309c0.572-1.682 1.768-2.475 3.765-2.475v0.538c-2.165 0-2.771 0.918-3.204 1.937h2.351l-0.005 0.535zM38.731 18.767l0.001 0c0.001 0.001 0.001 0.002 0.002 0.003-0.144 0.092-3.037 1.971-3.037 1.971l1.935 1.197-0.287 0.455-2.087-1.362-1.933 1.275-0.296-0.449 1.73-1.14-3.072-1.934 0.127-0.224c0.393-0.692 0.743-1.566 0.991-2.45h0.557c-0.226 0.833-0.534 1.646-0.868 2.314h5.474c-0.47-0.787-0.547-1.705-0.356-2.314l0.548-0.003c-0.267 0.915-0.065 1.718 0.574 2.659zM35.252 20.392l2.169-1.43-4.441-0.001zM45.126 10.393c-0.002-0.002-0.004-0.003-0.007-0.004 0.16 8.129-3.989 14.6-9.797 17.918-5.646-3.321-9.963-8.8-10.295-17.601 0.003-0.002 0.007-0.005 0.010-0.007-0.085-2.096 0.249-5.050 1.005-6.324 1.79 0.848 4.163 2.353 4.636 4.32 2.83-0.49 6.060-0.54 8.926-0.112 0.598-1.828 3.24-3.616 4.692-4.167 0.535 1.089 0.827 5.042 0.83 5.978zM40.294 8.697c0.021 0.004 0.042 0.008 0.063 0.012-0.021-0.004-0.042-0.008-0.063-0.012zM39.932 8.634c0.051 0.008 0.102 0.017 0.153 0.026-0.051-0.009-0.102-0.017-0.153-0.026zM44.223 11.028l0.001-0c-0.001-0 0.045-3.715-0.358-5.435-0.323 1.478-0.913 3.169-2.436 4.277-3.655-1.008-8.616-0.926-12.22 0.105-1.655-0.707-2.419-2.148-2.84-4.446-1.514 6.011 0.158 17.216 9.036 21.64 5.231-2.989 8.967-8.817 8.817-16.14zM48.009 36.363l-0.001-0.001c0.528 0.591 0.789 1.228 0.693 1.703l-0.067 0.334h-5.092c-9.254-4.834-17.456-8.297-26.030-9.057 0.102 1.559 0.575 2.814 1.419 3.754 0.885-0.302 1.849-0.246 2.473 0.162 0.422 0.276 0.654 0.686 0.654 1.154v0.415h-3.951c-2.528-1.783-4.8-3.631-6.583-5.371-2.005 0.49-3.282 1.552-4.053 2.483-1.228 1.482-1.828 3.466-1.528 5.052l0.093 0.492h-5.316v-0.415c0-0.801 2.946-5.637 6.977-10.145 0.255-0.286 0.521-0.577 0.796-0.871-1.653-2.198-2.64-4.317-2.92-6.31-0.295-2.104 0.212-4.040 1.467-5.599 1.279-1.589 2.987-2.37 5.221-2.386 0.636-0.005 1.505 0.112 2.381 0.268 0.152-0.308 0.375-0.573 0.67-0.717 0.89-0.435 4.102 0.65 5.688 2.873-2.149 0.959-5.749 0.611-6.419-0.378-0.16-0.237-0.213-0.619-0.163-1.019-2.533-0.426-4.996-0.274-6.73 1.88-1.107 1.376-1.554 3.092-1.291 4.963 0.208 1.481 0.908 3.436 2.673 5.818 3.803-3.953 10.627-8.047 16.861-9.55l0.187 0.812c-5.79 1.401-12.472 5.21-16.519 9.426 0.613 0.766 1.335 1.572 2.181 2.419 0.649-0.126 1.361-0.199 2.143-0.199 0.922 0 1.835 0.031 2.743 0.091 0.025-1.272 0.25-2.696 0.675-4.268l0.801 0.217c-0.414 1.529-0.63 2.902-0.649 4.114 8.712 0.75 16.914 4.188 26.254 9.061h4.073c-0.073-0.178-0.207-0.404-0.429-0.653-0.303-0.339-1.447-1.431-3.461-1.258l-0.322 0.028-7.41-7.978 0.425-0.536s6.138 6.464 7.196 7.724c1.492-0.035 3.278 0.447 4.189 1.467zM6.832 31.412l-0 0c0.795-0.96 2.070-2.047 4.015-2.631-0.668-0.687-1.276-1.368-1.821-2.043-3.961 4.252-6.641 8.462-7.314 9.919h3.349c-0.153-1.722 0.514-3.727 1.772-5.244z" fill="#000000"></path>
</svg>
