<?xml version="1.0" encoding="utf-8"?>
<!-- Generator: Adobe Illustrator 18.0.0, SVG Export Plug-In . SVG Version: 6.00 Build 0)  -->
<!DOCTYPE svg PUBLIC "-//W3C//DTD SVG 1.1//EN" "http://www.w3.org/Graphics/SVG/1.1/DTD/svg11.dtd">
<svg version="1.1" id="Layer_1" xmlns="http://www.w3.org/2000/svg" xmlns:xlink="http://www.w3.org/1999/xlink" x="0px" y="0px"
	 viewBox="0 0 256 256" enable-background="new 0 0 256 256" xml:space="preserve">
<path fill="#C4C4C4" d="M196.2,10.2c8.3-6.2,19.3-9.8,29.5-6.8c12.4,3.2,23.1,12.9,26.4,25.4c3.4,12.1-0.6,25.9-9.9,34.4
	c-3.6,3.4-8.3,5.1-12.1,8.1c0.7,4,2.8,7.4,4.4,11.1c10.7,23.9,11.8,51.4,5.2,76.5c-8.2,28.8-28.1,53.8-54.1,68.7
	c-10.4,5.6-21.2,10.7-32.9,12.8c-11.8,2.5-24,2.8-36,1.8c-9-1.5-18-3.1-26.7-6.1C60.7,226.4,36,204,23,176
	c-9.5-20.8-13.1-44.6-9.1-67.2c3.9-23.8,15.4-46.4,32.9-63c21.5-22,52.4-34.3,83.2-33.5c18.8-0.1,37.2,5.6,54,14
	C187.4,20.5,190.7,14.3,196.2,10.2z"/>
<path fill="#515151" d="M202.4,21.1c7.9,0,15.8-0.2,23.7,0c4.5,0.2,10.1,2.1,11.3,7c-0.2,3.2-1.2,6.5-0.2,9.7c1.4,5-4.2,8.3-8.4,8.9
	c-7.1,0.8-14.3,0.2-21.4,0.3c-1.7-2.3-3.4-4.5-5.1-6.7c7.3,0,14.6,0.1,21.9,0.1c2.1-0.1,4.4-0.2,5.8-1.9c-4.8-0.9-9.8-0.7-14.7-0.6
	c-1.8-2.2-3.5-4.5-5.3-6.7c6.1-0.1,12.1,0.1,18.2-0.2c0-0.7,0-2.2,0-2.9c-7-0.3-13.9-0.1-20.9-0.2C205.6,25.5,204,23.3,202.4,21.1z"
	/>
<path fill="#224FD2" d="M120.8,36.2c9.1-1.6,18.2,0.2,27.1,2c30.8,6.9,56.7,31,66.8,60.7c6.2,18.3,6.6,38.7,0.2,57.1
	c-8.4,25.6-28.6,47.1-53.8,56.7c-9.9,4-20.5,5.7-31.1,6.6c-24.4-0.1-49.2-9.4-66.1-27.3c-13.7-12.9-22.5-30.4-25.8-48.8
	c-3.7-17.4-0.6-35.7,6.4-51.9c6-13.8,15.8-25.7,27.2-35.4C85.8,44.8,102.9,37.8,120.8,36.2z"/>
<path fill="#C4C4C4" d="M119.9,76c5.4-3.1,12.4-3.1,17.8,0.1c4.6,2.3,7.8,6.4,10.6,10.6c17.2,24.7,34.8,49.2,51.9,74
	c-34.1,0.1-68.1,0-102.2,0c5.3-7.6,10.9-15.1,16.2-22.7c12-0.1,24,0,36-0.1c-7.2-10.3-14.6-20.5-22.1-30.5
	c-13,17.7-26,35.4-38.7,53.2c-11.2,0.2-22.5,0.1-33.7,0c17-23.9,34.3-47.7,51.4-71.5C110.7,84.2,114.3,78.8,119.9,76z"/>
</svg>
