<?xml version="1.0" encoding="utf-8"?>
<!-- Generator: Adobe Illustrator 18.0.0, SVG Export Plug-In . SVG Version: 6.00 Build 0)  -->
<!DOCTYPE svg PUBLIC "-//W3C//DTD SVG 1.1//EN" "http://www.w3.org/Graphics/SVG/1.1/DTD/svg11.dtd">
<svg version="1.1" id="Layer_1" xmlns="http://www.w3.org/2000/svg" xmlns:xlink="http://www.w3.org/1999/xlink" x="0px" y="0px"
	 viewBox="0 0 288 288" enable-background="new 0 0 288 288" xml:space="preserve">
<path fill="#C4C4C4" d="M283.6,32.4c-3.7-14.1-15.8-25-29.7-28.6c-11.5-3.4-23.8,0.7-33.2,7.6c-6.2,4.6-9.9,11.6-13.7,18.1
	c-18.9-9.5-39.6-15.9-60.8-15.8c-34.7-0.9-69.4,12.9-93.6,37.7C33,70.2,20,95.6,15.6,122.4c-4.5,25.4-0.5,52.2,10.2,75.6
	c14.6,31.5,42.4,56.7,75.4,67.6c9.8,3.4,19.9,5.2,30,6.9c13.5,1.1,27.2,0.8,40.5-2c13.2-2.4,25.3-8.1,37-14.4
	c29.2-16.8,51.6-44.9,60.9-77.3c7.4-28.2,6.2-59.2-5.8-86.1c-1.8-4.2-4.2-8-5-12.5c4.3-3.4,9.6-5.3,13.6-9.1
	C282.9,61.5,287.4,46,283.6,32.4z M241.8,175.5c-9.5,28.8-32.2,53-60.5,63.8c-11.1,4.5-23.1,6.4-35,7.4
	c-27.5-0.1-55.3-10.6-74.4-30.7c-15.4-14.5-25.3-34.2-29-54.9c-4.2-19.6-0.7-40.2,7.2-58.4c6.8-15.5,17.8-28.9,30.6-39.8
	c15.9-12.5,35.1-20.4,55.2-22.2c10.2-1.8,20.5,0.2,30.5,2.2c34.7,7.8,63.8,34.9,75.2,68.3C248.5,131.8,249,154.8,241.8,175.5z
	 M257.4,52.5c-8,0.9-16.1,0.2-24.1,0.3c-1.9-2.6-3.8-5.1-5.7-7.5c8.2,0,16.4,0.1,24.6,0.1c2.4-0.1,5-0.2,6.5-2.1
	c-5.4-1-11-0.8-16.5-0.7c-2-2.5-3.9-5.1-6-7.5c6.9-0.1,13.6,0.1,20.5-0.2c0-0.8,0-2.5,0-3.3c-7.9-0.3-15.6-0.1-23.5-0.2
	c-1.9-2.7-3.7-5.2-5.5-7.7c8.9,0,17.8-0.2,26.7,0c5.1,0.2,11.4,2.4,12.7,7.9c-0.2,3.6-1.4,7.3-0.2,10.9
	C268.4,48.2,262.1,51.9,257.4,52.5z"/>
<path fill="#C4C4C4" d="M134.9,85.5c6.1-3.5,14-3.5,20,0.1c5.2,2.6,8.8,7.2,11.9,11.9c19.3,27.8,39.1,55.3,58.4,83.2
	c-38.4,0.1-76.6,0-115,0c6-8.6,12.3-17,18.2-25.5c13.5-0.1,27,0,40.5-0.1c-8.1-11.6-16.4-23.1-24.9-34.3
	c-14.6,19.9-29.2,39.8-43.5,59.8c-12.6,0.2-25.3,0.1-37.9,0c19.1-26.9,38.6-53.7,57.8-80.4C124.5,94.7,128.6,88.7,134.9,85.5z"/>
</svg>
