<?xml version="1.0" encoding="utf-8"?>
<!-- Generator: Adobe Illustrator 18.0.0, SVG Export Plug-In . SVG Version: 6.00 Build 0)  -->
<!DOCTYPE svg PUBLIC "-//W3C//DTD SVG 1.1//EN" "http://www.w3.org/Graphics/SVG/1.1/DTD/svg11.dtd">
<svg version="1.1" id="Layer_1" xmlns="http://www.w3.org/2000/svg" xmlns:xlink="http://www.w3.org/1999/xlink" x="0px" y="0px"
	 viewBox="0 0 288 288" enable-background="new 0 0 288 288" xml:space="preserve">
<g>
	<path fill="#D3AFAF" d="M57.5,42.4l83.1-30.3c1.6-0.6,3.3,0.6,3.3,2.3v259.1c0,1.7-1.7,2.9-3.3,2.3l-83.1-31
		c-1-0.4-1.6-1.3-1.6-2.3V44.7C55.9,43.7,56.5,42.8,57.5,42.4z"/>
	<path fill="#D3AFAF" d="M156.5,90.1V274c0,1.4,1.5,2.3,2.8,1.6l71.8-38.5c0.6-0.3,1-1,1-1.6V131.1c0-0.7-0.4-1.3-0.9-1.6l-71.8-41
		C158.1,87.8,156.5,88.7,156.5,90.1z"/>
</g>
</svg>
