<?xml version="1.0" encoding="utf-8"?>
<!-- Generator: Adobe Illustrator 18.0.0, SVG Export Plug-In . SVG Version: 6.00 Build 0)  -->
<!DOCTYPE svg PUBLIC "-//W3C//DTD SVG 1.1//EN" "http://www.w3.org/Graphics/SVG/1.1/DTD/svg11.dtd">
<svg version="1.1" id="Layer_1" xmlns="http://www.w3.org/2000/svg" xmlns:xlink="http://www.w3.org/1999/xlink" x="0px" y="0px"
	 viewBox="0 0 49 48" enable-background="new 0 0 49 48" xml:space="preserve">
<g>
	<path fill="#003366" d="M34.1,30.8c-0.6-1.1-1.3-2.3-2.1-3.5c-0.6-0.8-1.2-1.7-1.8-2.5c-0.3-0.3-0.2-0.7,0-0.9
		c0.2-0.2,0.4-0.4,0.6-0.6c2.8-2.8,5.6-5.7,7.8-8.9c2.3-3.3,3.6-6.5,3.9-9.8c0-0.3-0.1-0.7-0.4-0.9c-0.2-0.1-0.4-0.2-0.6-0.2
		c-0.1,0-0.2,0-0.4,0.1C39.1,4.5,37,5.1,35,5.5c-0.4,0.1-0.7,0.4-0.9,0.7c-1.4,3.9-5.1,7.7-8.9,11.6c-0.2,0.1-0.4,0.3-0.7,0.3
		c-0.3,0-0.6-0.2-0.7-0.3c-3.8-3.9-7.5-7.6-8.9-11.5C14.7,6,14.4,5.7,14,5.6c-2-0.5-4.1-1.1-6.2-1.9c-0.1,0-0.2-0.1-0.4-0.1
		C7.2,3.6,7,3.6,6.8,3.8C6.6,4,6.4,4.3,6.4,4.6c0.3,3.3,1.6,6.5,3.9,9.8c2.2,3.1,5,6,7.8,8.9C23.2,28.5,28,33.4,28.5,39
		c0,0.5,0.5,0.9,1,0.9h6c0.3,0,0.5-0.1,0.7-0.3c0.2-0.2,0.3-0.5,0.3-0.7c0-1.1-0.2-2.1-0.5-3.2h0c0,0,0-0.1,0-0.1
		c0-0.2,0.2-0.4,0.4-0.4c0,0,0,0,0.1,0l0,0c4.9,0.7,7.9,1.9,8,3.1c0,0,0,0,0,0c0,1.2-2.8,3-7.3,4.3h0c-0.4,0.1-0.7,0.5-0.7,0.9
		c0,0.5,0.4,0.9,1,0.9c0.1,0,0.1,0,0.2,0c6-1.4,10.1-3.8,10.1-6.4C47.6,34.9,42.2,32,34.1,30.8z"/>
	<path fill="#003366" d="M18.1,27.7c-0.1-0.1-0.4-0.3-0.7-0.3c-0.4,0-0.7,0.3-0.8,0.4c-0.7,1-1.2,2-1.7,2.9
		C6.8,32.1,1.4,34.9,1.4,38c0,2.7,4,5,10,6.4c0,0,0,0,0,0c0.1,0,0.1,0,0.2,0c0.5,0,1-0.4,1-0.9c0-0.4-0.3-0.8-0.7-0.9l0,0
		c-4.5-1.3-7.3-3.1-7.3-4.3c0,0,0,0,0,0c0-1.3,3.1-2.4,7.9-3.1c0,0,0,0,0,0c0.2,0,0.4,0.2,0.4,0.4c0,0,0,0.1,0,0.1l0,0
		c-0.3,1.1-0.4,2.1-0.5,3.2c0,0.3,0.1,0.5,0.3,0.7c0.2,0.2,0.4,0.3,0.7,0.3h6c0.5,0,0.9-0.4,1-0.9c0.1-1.7,0.7-3.5,1.7-5.3
		c0.3-0.6,0.1-1.2-0.1-1.5C21.1,30.9,19.9,29.6,18.1,27.7z"/>
	<path fill="#003366" d="M23.8,13c0.2,0.2,0.5,0.3,0.7,0.3l0,0c0.2,0,0.5,0,0.7-0.3c2.1-2,3.2-4.4,3.5-5.1c0-0.1,0.1-0.2,0.1-0.4
		c0-0.5-0.4-0.9-0.9-0.9c-0.4,0-1.5,0.1-3.3,0.1h0c-1.9,0-3-0.1-3.3-0.1c-0.5,0-0.9,0.4-0.9,0.9c0,0.2,0,0.3,0.1,0.4
		C20.6,8.5,21.7,10.9,23.8,13z"/>
</g>
</svg>
