<?xml version="1.0" encoding="utf-8"?>
<!-- Generator: Adobe Illustrator 18.0.0, SVG Export Plug-In . SVG Version: 6.00 Build 0)  -->
<!DOCTYPE svg PUBLIC "-//W3C//DTD SVG 1.1//EN" "http://www.w3.org/Graphics/SVG/1.1/DTD/svg11.dtd">
<svg version="1.1" id="Layer_1" xmlns="http://www.w3.org/2000/svg" xmlns:xlink="http://www.w3.org/1999/xlink" x="0px" y="0px"
	 viewBox="0 0 288 288" enable-background="new 0 0 288 288" xml:space="preserve">
<path d="M142.3,15.8c0.3,4.3,1,10.9,1.3,14.5c0.9,8.6-1.5,17.2-6.3,22.3c-6.3,6.7-13.1,9.8-39.3,18.2c-12.7,4-17.2,7.3-16.1,11.8
	c1.4,5.7,12.2,14.7,26,21.6c34.2,17.1,63.1,15.6,71.8-3.8c8.9-19.6-3.1-59.7-24.5-82.1C150.9,13.5,143.8,8,142.4,8
	C142,8,141.9,11.6,142.3,15.8z"/>
<path d="M202.1,82.4c-2.7,1.7-9.4,8.3-9.4,9.2c0,0.2-2.2,3.7-4.9,7.8c-6.4,9.6-8.3,13.8-12.4,26.4c-3,8.9-3.5,11.9-3.6,22.7
	c-0.1,10.8,0.1,13.1,2.3,17.3c4.1,8.5,7.3,11.1,17.8,14.6c14.8,4.8,41.9-2.3,64.4-16.5c6.9-4.4,21.7-19,21.7-21.5c0-1.3-1-1.5-4.5-1
	c-2.6,0.3-9.6,1-15.8,1.3c-13.3,0.9-18.9-0.8-25.1-7.2c-3.9-4.1-11.9-18.9-11.9-22c0-0.9-0.6-3.1-1.5-5.1c-0.8-1.9-2.3-6.5-3.3-10
	c-2.5-8.4-4.9-13.5-7.6-15.9C205.6,80,205.7,80,202.1,82.4z"/>
<path d="M65.7,106.2c-22.1,5.9-46.1,21.2-55.1,35.1l-2.1,3l5.4-0.6c2.9-0.3,10.4-1,16.6-1.3c10.3-0.6,11.9-0.4,16.4,1.7
	c2.8,1.3,6.8,4.2,8.9,6.5c3.6,4,9.3,14,9.3,16.5c0.1,0.8,1,3.2,2.2,5.6c1.2,2.4,2.1,5,2.2,5.7c0,2.1,4.1,14,6.5,19.3
	c3.8,8.2,8.9,8.2,15.7-0.2c1.8-2.2,3.9-4.6,4.6-5.4c0.6-0.9,1.3-1.7,1.3-2.1c0-0.3,1.2-2.4,2.7-4.5c11.3-16.7,18.6-43.2,15.8-57.7
	c-2.4-12-6.4-17.2-16.6-21.9C93.9,103.6,75.1,103.7,65.7,106.2z"/>
<path d="M129.9,173.1c-6.5,0.6-13.7,3.8-17.3,7.6c-1.3,1.3-3.5,4.8-4.9,7.9c-2.5,5.3-2.7,6.5-2.3,17.9c0.4,10.3,1.1,13.9,3.9,21.8
	c3.5,9.9,8.9,20.6,14.5,28.8c6.3,9.3,20,21.4,21.9,19.5c0.3-0.3,0-5.3-0.8-10.9c-1.9-14.9-1.1-22.9,3-28.8
	c5.1-7.2,12.7-11.4,29.2-16.6c19.2-5.9,23.5-7.6,26.5-10.1c4.4-4.1,1.9-9-7.8-16.5C176.3,179.2,150,170.9,129.9,173.1z"/>
</svg>
