<?xml version="1.0" encoding="utf-8"?>
<!-- Generated by IcoMoon.io -->
<!DOCTYPE svg PUBLIC "-//W3C//DTD SVG 1.1//EN" "http://www.w3.org/Graphics/SVG/1.1/DTD/svg11.dtd">
<svg version="1.1" xmlns="http://www.w3.org/2000/svg" xmlns:xlink="http://www.w3.org/1999/xlink" width="45" height="48" viewBox="0 0 45 48">
<g id="icomoon-ignore">
	<line stroke-width="1" x1="" y1="" x2="" y2="" stroke="#449FDB" opacity=""></line>
</g>
	<path d="M23.103 19.873l7.029 3.019-7.548 2.783-6.51-2.783zM12.536 23.647l10.047 4.010v14.104l-10.283-4.528zM33.669 23.647v13.066l-9.293 3.774v-13.302zM11.522 0.502l7.029 3.019-7.547 2.783-6.509-2.783zM0.956 4.276l-0 0 10.047 4.010v14.104l-10.283-4.528zM22.088 4.276v13.066l-9.293 3.774v-13.302zM34.164 0l7.028 3.019-7.547 2.783-6.51-2.783zM23.598 3.774l10.047 4.010v14.104l-10.283-4.528zM44.73 3.774v13.066l-9.293 3.774v-13.302z" fill="#000000"></path>
</svg>
