<?xml version="1.0" encoding="utf-8"?>
<!-- Generated by IcoMoon.io -->
<!DOCTYPE svg PUBLIC "-//W3C//DTD SVG 1.1//EN" "http://www.w3.org/Graphics/SVG/1.1/DTD/svg11.dtd">
<svg version="1.1" xmlns="http://www.w3.org/2000/svg" xmlns:xlink="http://www.w3.org/1999/xlink" width="48" height="48" viewBox="0 0 48 48">
<g id="icomoon-ignore">
	<line stroke-width="1" x1="" y1="" x2="" y2="" stroke="#449FDB" opacity=""></line>
</g>
	<path d="M24 0c-13.255 0-24 10.745-24 24s10.745 24 24 24 24-10.745 24-24-10.745-24-24-24zM38.253 38.253c-1.852 1.852-4.008 3.306-6.408 4.321-0.61 0.258-1.229 0.484-1.856 0.679v-3.597c0-1.891-0.648-3.281-1.945-4.172 0.813-0.078 1.559-0.188 2.238-0.328s1.398-0.344 2.156-0.609 1.437-0.582 2.039-0.949 1.18-0.844 1.734-1.43 1.020-1.25 1.395-1.992 0.672-1.633 0.891-2.672 0.328-2.184 0.328-3.434c0-2.422-0.789-4.484-2.367-6.188 0.719-1.875 0.641-3.914-0.234-6.117l-0.586-0.070c-0.406-0.047-1.137 0.125-2.191 0.516s-2.238 1.031-3.551 1.922c-1.859-0.516-3.789-0.773-5.789-0.773-2.016 0-3.938 0.258-5.766 0.773-0.828-0.563-1.613-1.027-2.355-1.395s-1.336-0.617-1.781-0.75-0.859-0.215-1.242-0.246-0.629-0.039-0.738-0.023-0.188 0.031-0.234 0.047c-0.875 2.219-0.953 4.258-0.234 6.117-1.578 1.703-2.367 3.766-2.367 6.188 0 1.25 0.109 2.395 0.328 3.434s0.516 1.93 0.891 2.672 0.84 1.406 1.395 1.992 1.133 1.062 1.734 1.43 1.281 0.684 2.039 0.949 1.477 0.469 2.156 0.609 1.426 0.25 2.238 0.328c-1.281 0.875-1.922 2.266-1.922 4.172v3.667c-0.708-0.211-1.405-0.46-2.091-0.749-2.4-1.015-4.556-2.469-6.408-4.321s-3.306-4.008-4.321-6.408c-1.050-2.482-1.582-5.122-1.582-7.844s0.532-5.362 1.582-7.845c1.015-2.4 2.469-4.556 4.321-6.408s4.008-3.306 6.408-4.321c2.482-1.050 5.122-1.582 7.845-1.582s5.362 0.532 7.845 1.582c2.4 1.015 4.556 2.469 6.408 4.321s3.306 4.008 4.321 6.408c1.050 2.483 1.582 5.122 1.582 7.845s-0.532 5.362-1.582 7.845c-1.015 2.4-2.469 4.556-4.321 6.408z" opacity="1" visibility="false" fill="#000000"></path>
</svg>
