<?xml version="1.0" encoding="utf-8"?>
<!-- Generated by IcoMoon.io -->
<!DOCTYPE svg PUBLIC "-//W3C//DTD SVG 1.1//EN" "http://www.w3.org/Graphics/SVG/1.1/DTD/svg11.dtd">
<svg version="1.1" xmlns="http://www.w3.org/2000/svg" xmlns:xlink="http://www.w3.org/1999/xlink" width="48" height="48" viewBox="0 0 48 48">
<g id="icomoon-ignore">
	<line stroke-width="1" x1="" y1="" x2="" y2="" stroke="#449FDB" opacity=""></line>
</g>
	<path d="M0 24q0-5.598 2.759-10.326t7.487-7.487 10.326-2.759 10.326 2.759 7.487 7.487 2.759 10.326q0 6.723-3.924 12.094t-10.138 7.433q-0.723 0.134-1.058-0.188t-0.335-0.804v-5.652q0-2.598-1.393-3.804 1.527-0.161 2.746-0.482t2.518-1.045 2.17-1.781 1.42-2.813 0.549-4.031q0-3.241-2.116-5.518 0.991-2.438-0.214-5.464-0.75-0.241-2.17 0.295t-2.464 1.179l-1.018 0.643q-2.491-0.696-5.143-0.696t-5.143 0.696q-0.429-0.295-1.138-0.723t-2.237-1.031-2.304-0.362q-1.179 3.027-0.188 5.464-2.116 2.277-2.116 5.518 0 2.277 0.549 4.018t1.406 2.813 2.156 1.795 2.518 1.045 2.746 0.482q-1.071 0.964-1.312 2.759-0.563 0.268-1.205 0.402t-1.527 0.134-1.754-0.576-1.487-1.674q-0.509-0.857-1.299-1.393t-1.326-0.643l-0.536-0.080q-0.563 0-0.777 0.121t-0.134 0.308 0.241 0.375 0.348 0.321l0.188 0.134q0.589 0.268 1.165 1.018t0.844 1.366l0.268 0.616q0.348 1.018 1.179 1.647t1.795 0.804 1.862 0.188 1.487-0.094l0.616-0.107q0 1.018 0.013 2.384t0.013 1.446q0 0.482-0.348 0.804t-1.071 0.188q-6.214-2.063-10.138-7.433t-3.924-12.094z" opacity="1" visibility="false" fill="#000000"></path>
</svg>
