<?xml version="1.0" encoding="utf-8"?>
<!-- Generated by IcoMoon.io -->
<!DOCTYPE svg PUBLIC "-//W3C//DTD SVG 1.1//EN" "http://www.w3.org/Graphics/SVG/1.1/DTD/svg11.dtd">
<svg version="1.1" xmlns="http://www.w3.org/2000/svg" xmlns:xlink="http://www.w3.org/1999/xlink" width="40" height="48" viewBox="0 0 40 48">
<g id="icomoon-ignore">
	<line stroke-width="1" x1="" y1="" x2="" y2="" stroke="#449FDB" opacity=""></line>
</g>
	<path d="M20.139 0.026l0-0c0.462-0.013 0.987 0.18 1.511 0.792 0.56 0.654 3.218 3.628 6.176 6.929 0.153-1.012 0.76-1.769 1.487-1.769h3.047c0.842 0 1.528 1.015 1.528 2.267v6.254c2.318 2.58 5.302 5.903 5.302 5.903s0.253 0.293 0.323 0.711c0.056 0.077 0.086 0.175 0.086 0.278v2.5c0 0.26-0.209 0.469-0.469 0.47h-2.365v18.84c-25.346 0-2.984-0.011-33.276 0v-18.84h-2.234c-0.26 0-0.47-0.209-0.47-0.47v-2.226c-0.106-0.338-0.122-0.8 0.274-1.262 0.763-0.89 17.541-19.584 17.541-19.584s0.657-0.769 1.54-0.792zM14.249 17.751c-1.836 0-3.066 0.295-3.693 0.882-0.619 0.58-0.927 1.746-0.927 3.501v2.859c0 1.183-0.202 2.007-0.6 2.467-0.391 0.453-1.111 0.678-2.165 0.678h-0.678v1.703h0.678c1.047 0 1.767 0.23 2.165 0.69s0.6 1.293 0.6 2.492v2.847c-0 1.755 0.308 2.925 0.927 3.513 0.627 0.588 1.857 0.882 3.693 0.882h0.686v-1.716h-0.752c-1.040 0-1.717-0.173-2.034-0.523s-0.478-1.086-0.478-2.206v-2.953c-0-1.239-0.162-2.14-0.494-2.704s-0.909-0.954-1.728-1.168c0.811-0.199 1.384-0.58 1.716-1.144 0.339-0.564 0.507-1.47 0.507-2.716v-2.953c0-1.12 0.161-1.852 0.478-2.202s0.995-0.527 2.034-0.527h0.752v-1.703h-0.686zM25.466 17.751v1.703h0.772c1.032 0 1.704 0.178 2.014 0.527 0.317 0.342 0.478 1.074 0.478 2.202v2.953c0 1.247 0.162 2.153 0.494 2.716s0.909 0.945 1.728 1.144c-0.818 0.214-1.396 0.604-1.728 1.168s-0.494 1.465-0.494 2.704v2.953c0 1.136-0.161 1.877-0.478 2.218-0.31 0.342-0.982 0.511-2.014 0.511h-0.772v1.716h0.694c1.836 0 3.060-0.295 3.672-0.882 0.619-0.588 0.931-1.758 0.931-3.513v-2.847c0-1.199 0.198-2.031 0.596-2.492s1.122-0.69 2.169-0.69h0.682v-1.703h-0.682c-1.047 0-1.771-0.225-2.169-0.678-0.398-0.461-0.596-1.284-0.596-2.467v-2.859c-0-1.755-0.312-2.921-0.931-3.501-0.612-0.588-1.836-0.882-3.672-0.882h-0.694zM15.233 22.060l-0-0v14.228h3.407v-4.934h2.247c1.681 0 2.972-0.4 3.868-1.201 0.902-0.807 1.352-1.959 1.352-3.452 0-1.487-0.45-2.631-1.352-3.431-0.897-0.807-2.187-1.209-3.869-1.209h-5.653zM18.64 24.719l1.883 0c0.661 0 1.172 0.172 1.532 0.515s0.539 0.831 0.539 1.466-0.179 1.129-0.539 1.479c-0.36 0.343-0.871 0.515-1.532 0.515h-1.883v-3.975z" fill="#000000"></path>
</svg>
