<?xml version="1.0" encoding="utf-8"?>
<!-- Generated by IcoMoon.io -->
<!DOCTYPE svg PUBLIC "-//W3C//DTD SVG 1.1//EN" "http://www.w3.org/Graphics/SVG/1.1/DTD/svg11.dtd">
<svg version="1.1" xmlns="http://www.w3.org/2000/svg" xmlns:xlink="http://www.w3.org/1999/xlink" width="40" height="48" viewBox="0 0 40 48">
<g id="icomoon-ignore">
	<line stroke-width="1" x1="" y1="" x2="" y2="" stroke="#449FDB" opacity=""></line>
</g>
	<path d="M23.212 48.018l-7.625-1.632-7.667-4.992-5.522-8.496-1.469-7.728-0.209-6.418s0.828-4.312 1.253-5.161c0.425-0.85 3.433-5.487 3.433-5.487l5.7-4.92 7.859-3.186 5.31 0.212 5.362 1.131 4.408 2.267 3.611 5.31s0.637 2.761 0.85 3.611c0.212 0.85 0.637 6.372 0.637 6.372l-2.124 6.159-4.46 4.46-5.947 2.549-6.159-1.911-3.823-3.398-1.487-5.31 1.487-4.885 3.823-3.398 4.481-0.446 3.165 1.699 2.336 3.419-4.035-3.186-2.549-0.637-2.973 0.85-1.699 1.699-1.699 2.761v4.248l2.124 2.973 4.035 2.549h4.035l4.248-2.124 2.124-2.973s1.274-3.186 1.274-4.46c0-1.274 0-4.035-0.425-5.097s-2.549-5.31-2.549-5.31-1.912-1.699-2.761-2.124c-0.85-0.425-3.628-1.539-3.628-1.539s-3.169-0.585-4.231-0.585-5.097 1.274-5.097 1.274l-4.46 2.336-4.035 2.973-2.761 4.885-0.85 4.885 0.212 4.673 0.425 3.611 1.699 3.823 2.124 4.248 6.372 6.796 4.8 2.549 3.058 1.062z" fill="#000000"></path>
</svg>
