<?xml version="1.0" encoding="utf-8"?>
<!-- Generated by IcoMoon.io -->
<!DOCTYPE svg PUBLIC "-//W3C//DTD SVG 1.1//EN" "http://www.w3.org/Graphics/SVG/1.1/DTD/svg11.dtd">
<svg version="1.1" xmlns="http://www.w3.org/2000/svg" xmlns:xlink="http://www.w3.org/1999/xlink" width="48" height="48" viewBox="0 0 48 48">
<g id="icomoon-ignore">
	<line stroke-width="1" x1="" y1="" x2="" y2="" stroke="#449FDB" opacity=""></line>
</g>
	<path d="M24.72 0c13.255 0 24 10.745 24 24 0 13.251-10.734 23.995-23.985 24h-18.555c-3.010 0-5.453-2.437-5.46-5.445v-18.57c0.010-13.248 10.751-23.985 24-23.985zM31.77 5.685c-6.221 0-11.265 5.044-11.265 11.265v5.97h-4.725c-1.471 0-2.656 1.157-2.655 2.625 0 1.459 1.17 2.625 2.625 2.625h3.915c0.464 0 0.84 0.377 0.84 0.84v5.16c-0.006 3.279-2.676 5.94-5.955 5.94-1.111 0-1.371-0.15-2.13-0.15-1.593 0-2.67 1.067-2.67 2.535 0 1.215 1.051 2.262 2.325 2.595 0.874 0.228 1.531 0.345 2.475 0.345 6.221 0 11.265-5.044 11.265-11.265v-5.97h4.725c1.471 0 2.656-1.157 2.655-2.625 0-1.459-1.17-2.625-2.625-2.625h-3.915c-0.464 0-0.84-0.377-0.84-0.84v-5.16c0.006-3.279 2.676-5.94 5.955-5.94 1.111 0 1.386 0.15 2.145 0.15 1.594 0 2.655-1.081 2.655-2.55-0-1.215-1.036-2.247-2.31-2.58-0.874-0.228-1.546-0.345-2.49-0.345z" fill="#000000"></path>
</svg>
