<?xml version="1.0" encoding="utf-8"?>
<!-- Generated by IcoMoon.io -->
<!DOCTYPE svg PUBLIC "-//W3C//DTD SVG 1.1//EN" "http://www.w3.org/Graphics/SVG/1.1/DTD/svg11.dtd">
<svg version="1.1" xmlns="http://www.w3.org/2000/svg" xmlns:xlink="http://www.w3.org/1999/xlink" width="44" height="48" viewBox="0 0 44 48">
<g id="icomoon-ignore">
	<line stroke-width="1" x1="" y1="" x2="" y2="" stroke="#449FDB" opacity=""></line>
</g>
	<path d="M21.875 0.944l-0 0c3.786 0 7.329 1.046 10.357 2.852-1.728 0.982-3.090 1.904-3.442 2.255-1.040 1.040-0.004 3.765 2.314 6.083s5.044 3.353 6.084 2.314c0.346-0.346 1.246-1.68 2.213-3.374 1.697 2.947 2.676 6.363 2.676 10.004 0 11.117-9.046 20.126-20.202 20.126s-20.202-9.010-20.202-20.126 9.046-20.135 20.202-20.135zM40.2 0.002l-0-0c0.818 0.019 1.576 0.213 2.103 0.74 0.533 0.533 0.726 1.306 0.757 2.154s-0.109 1.808-0.353 2.819c-0.468 1.932-1.332 4.016-2.28 5.722 1.653 2.98 2.137 6.031 2.137 9.642 0 11.41-9.271 20.681-20.681 20.681s-20.681-9.271-20.681-20.681c0-3.64 0.962-7.048 2.617-10.021-0.947-1.672-1.949-3.652-2.549-5.485-0.315-0.961-0.523-1.88-0.547-2.701s0.144-1.591 0.682-2.129c0.495-0.495 1.199-0.686 1.952-0.69 2.395-0.013 5.711 1.598 8.313 3.071 3.017-1.722 6.495-2.726 10.214-2.726 3.668 0 7.062 0.64 10.088 2.339 1.687-0.942 3.684-1.841 5.528-2.339 0.965-0.261 1.883-0.414 2.701-0.395zM40.175 1.079l-0-0c-0.66-0.015-1.489 0.119-2.389 0.362-1.801 0.486-3.875 1.415-5.536 2.364l-0.269 0.151-0.269-0.16c-2.886-1.698-6.17-2.322-9.827-2.322-3.634 0-7.027 1.002-9.945 2.726l-0.269 0.151-0.269-0.151c-2.573-1.474-6.112-3.082-8.035-3.071-0.58 0.003-0.966 0.15-1.195 0.379-0.244 0.244-0.389 0.682-0.37 1.338s0.201 1.489 0.496 2.389c0.59 1.802 1.628 3.876 2.592 5.554l0.151 0.261-0.152 0.269c-1.656 2.876-2.608 6.204-2.608 9.76 0 10.828 8.777 19.605 19.605 19.605s19.605-8.777 19.605-19.605c0-3.63-0.455-6.513-2.12-9.382l-0.16-0.269 0.151-0.269c0.945-1.65 1.847-3.804 2.305-5.696 0.229-0.946 0.346-1.834 0.32-2.533s-0.201-1.177-0.446-1.422c-0.248-0.248-0.703-0.414-1.363-0.429z" fill="#000000"></path>
</svg>
