<?xml version="1.0" encoding="utf-8"?>
<!-- Generated by IcoMoon.io -->
<!DOCTYPE svg PUBLIC "-//W3C//DTD SVG 1.1//EN" "http://www.w3.org/Graphics/SVG/1.1/DTD/svg11.dtd">
<svg version="1.1" xmlns="http://www.w3.org/2000/svg" xmlns:xlink="http://www.w3.org/1999/xlink" width="32" height="48" viewBox="0 0 32 48">
<g id="icomoon-ignore">
	<line stroke-width="1" x1="" y1="" x2="" y2="" stroke="#449FDB" opacity=""></line>
</g>
	<path d="M12.008 20.138c-5.809-0.611-4.834-9.623-0.153-12.077 3.101-1.626 7.288-1.555 10.090-0.459 5.315 2.080 6.726 4.739 7.491 9.938s-1.797 18.948-7.95 20.486c-5.504 1.376-7.627-1.292-7.033-3.822 0.612-2.599 3.626-5.966 3.822-8.256 0.459-5.351-6.268-5.81-6.268-5.81h0.001zM1.655 7.45c-1.556-2.26-1.126-5.257 0.96-6.693s5.039-0.769 6.595 1.491c1.556 2.26 1.127 5.257-0.96 6.693s-5.039 0.769-6.595-1.491zM13.653 6.027c-1.332-0.227-2.182-2.166-1.962-3.456s1.477-2.152 2.809-1.925c1.332 0.227 2.182 2.166 1.962 3.456s-1.477 2.152-2.809 1.925zM17.971 5.095c-0.754-1.070-0.494-3.29 0.61-4.068s2.209-0.573 2.963 0.497c0.754 1.070 0.494 3.29-0.61 4.068s-2.209 0.573-2.963-0.497zM22.584 5.899h-0c-0.232-1.116 0.743-2.809 1.942-3.057s2.358 0.454 2.59 1.57c0.232 1.116-0.743 2.809-1.942 3.058s-2.359-0.454-2.59-1.57zM27.453 7.497c0.682-1.017 1.917-1.384 2.758-0.82s0.971 1.846 0.289 2.863c-0.682 1.017-1.917 1.384-2.758 0.82s-0.971-1.846-0.289-2.863z" fill="#000000"></path>
</svg>
