<?xml version="1.0" encoding="utf-8"?>
<!-- Generated by IcoMoon.io -->
<!DOCTYPE svg PUBLIC "-//W3C//DTD SVG 1.1//EN" "http://www.w3.org/Graphics/SVG/1.1/DTD/svg11.dtd">
<svg version="1.1" xmlns="http://www.w3.org/2000/svg" xmlns:xlink="http://www.w3.org/1999/xlink" width="25" height="48" viewBox="0 0 25 48">
<g id="icomoon-ignore">
	<line stroke-width="1" x1="" y1="" x2="" y2="" stroke="#449FDB" opacity=""></line>
</g>
	<path d="M17.983 0.001l0-0c0.142-0.004 0.303 0.006 0.49 0.032 1.499 0.207 0.849 3.321 2.015 4.59 0.354-1.203 0.569-2.73 1.425-3.357s2.807-0.641 1.566 1.935c-1.24 2.576 0.36 3.97-0.016 6s-1.542 1.66-2.044 2.966c-0.502 1.306 0.294 4.279-0.65 5.615-0.874 1.236-1.083 3.084-0.625 4.651 0.001 0.003 0.002 0.007 0.003 0.010 1.764 4.028 2.94 8.528 2.924 13.296-0.015 5.38-1.417 5.985-3.158 6.022s-2.924-5.491-6.643-5.602c-3.712-0.11-6.672 4.805-9.004 4.805-1.321 0-1.631-0.797-1.528-2.819 0.033-0.673 0.085-1.363 0.147-2.066-0.182 0.394-0.375 0.641-0.567 0.641-0.657 0-1.787-0.347-1.573-1.432s1.992-1.895 2.044-3.895-0.78-2.207-0.647-4.369c0.127-2.061 2.528-2.725 3.411-7.294 0.63-5.557 0.859-13.829 0.173-15.266 2.27 1.269 7.714 6.142 11.903 13.123 0.923 0.911 2.689-0.102 2.771-1.531 0.089-1.557-0.142-3.52-1.153-3.594s-1.734-1.086-2.745-1.16c-1.011-0.074-2.093 0.94-2.566-0.404s1.267-1.913 2.566-2.127c-1.159-1.159-1.835-2.444-2.345-3.78s-0.886-2.561 0.538-3.085c1.424-0.524 1.306 2.172 2.937 3.405-0.48-1.815-0.658-2.571-0.621-3.626 0.032-0.923-0.019-1.655 0.971-1.685zM11.808 15.234c-0.159 0.005-0.318 0.017-0.477 0.039-1.424 0.194-3.32 1.397-3.495 2.937-0.072 0.637 0.066 1.256 0.356 1.787-0.001 0.001-0.002 0.002-0.003 0.003 0.202 0.386 0.477 0.704 0.801 0.951 0.002 0.001 0.005 0.002 0.006 0.003 0.034 0.027 0.070 0.051 0.106 0.077 0.002 0.002 0.004 0.005 0.006 0.006 0.007 0.005 0.015 0.011 0.022 0.016 0.461 0.329 1.014 0.533 1.611 0.557 0.096 0.004 0.195 0.006 0.291 0.003h0.016c0.323 0.002 0.65-0.037 0.971-0.115 0.382-0.093 0.746-0.243 1.083-0.439 0.010-0.006 0.022-0.010 0.032-0.016 0.637-0.359 1.171-0.885 1.496-1.563 0.038-0.080 0.070-0.162 0.102-0.243 0.010-0.024 0.019-0.049 0.029-0.074 0.008-0.021 0.018-0.040 0.026-0.061s0.015-0.043 0.022-0.064c0.001-0.003 0.002-0.006 0.003-0.010 0.088-0.253 0.147-0.517 0.173-0.791 0.003-0.081 0.003-0.163 0.003-0.243v-0.016c0.003-0.109 0.002-0.219-0.003-0.33-0.013-0.125-0.034-0.247-0.061-0.362-0-0.001 0-0.002 0-0.003-0.040-0.205-0.104-0.405-0.195-0.596-0.007 0.002-0.015 0.001-0.022 0.003-0.529-1.026-1.691-1.492-2.899-1.457zM15.824 16.529l-0 0c-0.093 0.006-0.185 0.016-0.279 0.026 0.131 0.312 0.217 0.655 0.253 1.028 0.143 2.292-1.486 4.22-3.69 4.734-1.611 0.376-3.577-0.122-4.465-1.624-0.046-0.078-0.087-0.158-0.128-0.237-0.278 0.19-0.554 0.379-0.82 0.557-0.576 2.819-4.168 18.561-2.338 18.76s4.434-4.87 8.699-4.833c4.273 0.037 5.958 5.684 6.999 5.647s1.725 0.369 1.836-5.993c0.111-6.361-3.772-14.486-6.067-18.065zM4.245 25.517c-0.366-0.010-1.217 1.43-1.217 2.332 0 0.724 0.378 1.39 0.647 2.175 0.221-1.33 0.465-2.644 0.721-3.905 0.042-0.423-0.025-0.599-0.151-0.602z" fill="#000000"></path>
</svg>
