<?xml version="1.0" encoding="utf-8"?>
<!-- Generated by IcoMoon.io -->
<!DOCTYPE svg PUBLIC "-//W3C//DTD SVG 1.1//EN" "http://www.w3.org/Graphics/SVG/1.1/DTD/svg11.dtd">
<svg version="1.1" xmlns="http://www.w3.org/2000/svg" xmlns:xlink="http://www.w3.org/1999/xlink" width="42" height="48" viewBox="0 0 42 48">
<g id="icomoon-ignore">
	<line stroke-width="1" x1="" y1="" x2="" y2="" stroke="#449FDB" opacity=""></line>
</g>
	<path d="M24.225 0.58v0l-0.075 12.819 9.353-12.517 7.537 1.725-9.732 12.516 9.656 13.273-7.386 2.346-9.43-13.803v12.441l-7.007 1.059v-29.181zM8.167 7.693l0 0c0.080-0.008 0.156-0.001 0.227 0.045l5.312 3.48c0.001 0.001-0.001 0.014 0 0.015 0.655-0.357 1.345-0.658 2.058-0.908v2.906c-3.921 1.764-6.66 5.698-6.66 10.277 0 6.225 5.051 11.276 11.276 11.276 4.381 0 8.185-2.495 10.050-6.145 1.559 2.283 2.755 4.041 2.755 4.041 0.053 0.078 0.153 0.118 0.242 0.091l0.621-0.197 1.892 3.118c0.086 0.142 0.057 0.321-0.061 0.439l-2.77 2.785c-0.121 0.121-0.311 0.139-0.454 0.045l-5.191-3.405c-1.060 0.624-2.205 1.11-3.421 1.438l-1.453 5.933c-0.039 0.162-0.183 0.272-0.348 0.272h-3.935c-0.17 0-0.314-0.12-0.348-0.287l-1.226-5.903c-1.178-0.318-2.297-0.796-3.33-1.392l-5.267 3.194c-0.142 0.086-0.322 0.072-0.439-0.045l-2.785-2.785c-0.121-0.121-0.139-0.311-0.045-0.454l3.36-5.116c-0.634-1.115-1.113-2.338-1.423-3.617l-5.797-1.408c-0.161-0.039-0.288-0.182-0.288-0.348v-3.935c0-0.17 0.121-0.329 0.288-0.363l5.978-1.241c0.33-1.105 0.8-2.146 1.377-3.118l-3.254-5.373c-0.086-0.142-0.072-0.322 0.045-0.439l2.785-2.785c0.060-0.060 0.147-0.083 0.227-0.091z" fill="#000000"></path>
</svg>
