<?xml version="1.0" encoding="utf-8"?>
<!-- Generated by IcoMoon.io -->
<!DOCTYPE svg PUBLIC "-//W3C//DTD SVG 1.1//EN" "http://www.w3.org/Graphics/SVG/1.1/DTD/svg11.dtd">
<svg version="1.1" xmlns="http://www.w3.org/2000/svg" xmlns:xlink="http://www.w3.org/1999/xlink" width="48" height="48" viewBox="0 0 48 48">
<g id="icomoon-ignore">
	<line stroke-width="1" x1="" y1="" x2="" y2="" stroke="#449FDB" opacity=""></line>
</g>
	<path d="M26.718 10.637c1.606 0 3.002 0.6 4.135 1.692 1.137-1.094 2.542-1.691 4.149-1.691 1.637 0 3.091 0.608 4.259 1.788s1.781 2.653 1.781 4.315l0.014 10.487c-0.18 1.756-0.921 3.316-2.188 4.618h-0.007c-1.49 1.517-3.337 2.299-5.44 2.299h-13.682c-1.675-0.179-3.165-0.972-4.404-2.195-1.45-1.445-2.195-3.231-2.195-5.268v-19.198h3.604v18.486c0 2.473 1.689 4.398 3.666 4.398l12.288 0.048c2.562 0 4.556-1.765 4.556-3.859l-0.021-9.817c0-0.637-0.208-1.135-0.663-1.595-0.456-0.461-0.94-0.67-1.567-0.67-0.641 0-1.117 0.208-1.574 0.67-0.455 0.459-0.663 0.958-0.663 1.595v8.401h-3.811v-8.401c0-0.637-0.208-1.135-0.663-1.595-0.457-0.462-0.933-0.67-1.574-0.67-0.627 0-1.111 0.209-1.567 0.67-0.455 0.459-0.663 0.958-0.663 1.595v8.401h-3.811v-8.401c0-1.662 0.613-3.135 1.781-4.315s2.623-1.788 4.259-1.788zM22.398 41.76c-8.662 0-16.179-6.566-16.179-15.221l-0.008-10.508v-2.68h-5.492v-13.351l30.403 0.125c8.67 0 16.179 6.559 16.179 15.221v26.414zM43.773 34.675v-19.329c0-6.457-5.663-11.692-12.65-11.692h-7.252v-0.016l-19.614-0.086v6.271h2.197c1.492 0 3.287 1.402 3.287 3.459l0.016 13.25c0 6.457 5.663 11.692 12.643 11.692h17.232c2.209 0 4.142-1.399 4.142-3.55z" fill="#000000"></path>
</svg>
