<?xml version="1.0" encoding="utf-8"?>
<!-- Generated by IcoMoon.io -->
<!DOCTYPE svg PUBLIC "-//W3C//DTD SVG 1.1//EN" "http://www.w3.org/Graphics/SVG/1.1/DTD/svg11.dtd">
<svg version="1.1" xmlns="http://www.w3.org/2000/svg" xmlns:xlink="http://www.w3.org/1999/xlink" width="44" height="48" viewBox="0 0 44 48">
<g id="icomoon-ignore">
	<line stroke-width="1" x1="" y1="" x2="" y2="" stroke="#449FDB" opacity=""></line>
</g>
	<path d="M1.259 2.721l-0-0.001c0.246-0 0.34 0.215 0.34 0.215l8.327 15.727h-0.035l7.011 13.243h0.035l5.572 10.526s0.61 0.945-0.6 1.547c-1.21 0.603-1.774-0.488-1.774-0.488l-5.598-11.584h0.004l-6.366-13.243h-0.037l-7.366-15.248s-0.202-0.393 0.19-0.606c0.118-0.064 0.215-0.088 0.297-0.088zM43.049 1.891c-6.984-3.281-13.303-1.714-20.37 0.356-7.115 2.083-13.443 3.21-20.552 0.371 0.774 1.355 1.162 2.032 1.937 3.385 0.711 1.245 1.424 2.49 2.135 3.735 0.775 1.354 1.162 2.031 1.937 3.385 5.66 1.566 10.348-0.465 15.378-2.926 6.040-2.954 11.496-5.612 18.397-4.072-5.832-2.858-11.119-2.15-17.217-0.53 5.97-2.975 11.592-5.289 18.355-3.703z" fill="#000000"></path>
</svg>
