<?xml version="1.0" encoding="utf-8"?>
<!-- Generated by IcoMoon.io -->
<!DOCTYPE svg PUBLIC "-//W3C//DTD SVG 1.1//EN" "http://www.w3.org/Graphics/SVG/1.1/DTD/svg11.dtd">
<svg version="1.1" xmlns="http://www.w3.org/2000/svg" xmlns:xlink="http://www.w3.org/1999/xlink" width="34" height="48" viewBox="0 0 34 48">
<g id="icomoon-ignore">
	<line stroke-width="1" x1="" y1="" x2="" y2="" stroke="#449FDB" opacity=""></line>
</g>
	<path d="M9.569 0l-0-0.001c0.403-0.013 0.753 0.227 1.125 0.345 0.909-0.297 1.114 0.119 1.56 0.285 0.991-0.209 1.295 0.239 1.77 0.72l0.54-0.015c1.494 0.881 2.242 2.678 2.505 3.6 0.263-0.922 1.011-2.719 2.505-3.6l0.54 0.015c0.475-0.481 0.779-0.929 1.77-0.72 0.446-0.166 0.652-0.582 1.56-0.285 0.567-0.179 1.065-0.652 1.815-0.060 0.632-0.244 1.252-0.331 1.8 0.165 0.846-0.11 1.112 0.126 1.32 0.39 0.186-0.004 1.398-0.194 1.95 0.63 1.388-0.164 1.831 0.811 1.335 1.726 0.283 0.439 0.573 0.874-0.090 1.71 0.234 0.466 0.087 0.979-0.465 1.59 0.146 0.655-0.146 1.11-0.66 1.47 0.096 0.896-0.821 1.419-1.095 1.605-0.105 0.522-0.317 1.018-1.365 1.29-0.173 0.778-0.815 0.917-1.425 1.080 2.017 1.173 3.746 2.711 3.735 6.495l0.3 0.525c2.312 1.406 4.393 5.926 1.14 9.6-0.213 1.15-0.568 1.981-0.885 2.895-0.475 3.684-3.578 5.406-4.395 5.61-1.197 0.912-2.46 1.779-4.185 2.385-1.626 1.677-3.388 2.311-5.16 2.31-0.026 0-0.064 0-0.090 0-1.772 0.001-3.534-0.633-5.16-2.31-1.725-0.606-2.988-1.473-4.185-2.385-0.817-0.204-3.92-1.927-4.395-5.61-0.317-0.914-0.673-1.745-0.885-2.895-3.253-3.673-1.172-8.194 1.14-9.6l0.3-0.525c-0.012-3.784 1.718-5.323 3.735-6.494-0.61-0.163-1.252-0.302-1.425-1.080-1.048-0.272-1.26-0.768-1.365-1.29-0.274-0.186-1.191-0.709-1.095-1.605-0.514-0.36-0.806-0.815-0.66-1.47-0.552-0.612-0.699-1.124-0.465-1.59-0.663-0.836-0.358-1.271-0.075-1.71-0.497-0.914-0.068-1.889 1.32-1.725 0.552-0.824 1.764-0.634 1.95-0.63 0.208-0.264 0.474-0.5 1.32-0.39 0.548-0.496 1.168-0.409 1.8-0.165 0.258-0.204 0.479-0.278 0.69-0.285zM9.629 1.064v0c0.207 0.257 0.487 0.5 0.18 0.795-0.424-0.269-0.839-0.544-1.845-0.735 0.227 0.257 0.689 0.523 0.405 0.78-0.532-0.206-1.119-0.363-1.77-0.45 0.312 0.26 0.571 0.518 0.315 0.72-0.569-0.178-1.348-0.416-2.115-0.21l0.48 0.495c0.054 0.066-1.135 0.048-1.92 0.060 0.286 0.404 0.58 0.792 0.75 1.484-0.078 0.080-0.473 0.036-0.84 0 0.376 0.804 1.033 1.006 1.185 1.35-0.23 0.177-0.552 0.135-0.9 0.015 0.271 0.566 0.841 0.951 1.29 1.41-0.113 0.082-0.311 0.132-0.78 0.075 0.414 0.447 0.922 0.862 1.515 1.23-0.105 0.123-0.475 0.112-0.81 0.12 0.537 0.534 1.227 0.821 1.875 1.17-0.323 0.224-0.548 0.168-0.795 0.165 0.459 0.382 1.241 0.579 1.965 0.81-0.138 0.217-0.276 0.284-0.57 0.345 0.766 0.43 1.865 0.23 2.175 0.45-0.075 0.216-0.287 0.362-0.54 0.48 1.234 0.073 4.604-0.048 5.25-2.64-1.263-1.408-3.566-3.071-7.53-5.115 3.084 1.048 5.86 2.443 8.19 4.365 2.738-1.294 0.856-4.554-0.48-5.85-0.068 0.342-0.152 0.566-0.24 0.63-0.435-0.473-0.79-0.97-1.35-1.425-0.002 0.267 0.138 0.568-0.195 0.78-0.3-0.41-0.707-0.784-1.245-1.095 0.26 0.454 0.049 0.592-0.090 0.78-0.412-0.358-0.801-0.709-1.56-0.99zM24.599 1.065l-0.001 0c-0.759 0.281-1.148 0.632-1.56 0.99-0.14-0.188-0.35-0.326-0.090-0.78-0.539 0.311-0.945 0.685-1.245 1.095-0.333-0.212-0.193-0.512-0.195-0.78-0.56 0.456-0.915 0.952-1.35 1.425-0.088-0.064-0.172-0.288-0.24-0.63-1.336 1.296-3.218 4.556-0.48 5.85 2.329-1.922 5.106-3.317 8.19-4.365-3.964 2.044-6.267 3.707-7.529 5.115 0.647 2.592 4.017 2.713 5.25 2.64-0.253-0.118-0.465-0.264-0.54-0.48 0.309-0.22 1.409-0.020 2.175-0.45-0.294-0.061-0.432-0.128-0.57-0.345 0.724-0.231 1.506-0.428 1.965-0.81-0.247 0.003-0.472 0.059-0.795-0.165 0.648-0.349 1.337-0.636 1.875-1.17-0.335-0.008-0.705 0.003-0.81-0.12 0.593-0.368 1.101-0.783 1.515-1.23-0.469 0.057-0.667 0.007-0.78-0.075 0.449-0.459 1.019-0.844 1.29-1.41-0.348 0.12-0.67 0.162-0.9-0.015 0.152-0.344 0.809-0.546 1.185-1.35-0.367 0.036-0.762 0.080-0.84 0 0.17-0.694 0.464-1.081 0.75-1.485-0.785-0.012-1.974 0.006-1.92-0.060l0.48-0.495c-0.767-0.206-1.546 0.032-2.115 0.21-0.256-0.202 0.003-0.46 0.315-0.72-0.651 0.087-1.238 0.244-1.77 0.45-0.284-0.257 0.178-0.523 0.405-0.78-1.006 0.191-1.421 0.466-1.845 0.735-0.307-0.295-0.027-0.538 0.18-0.795zM17.053 11.73c-2.188-0.057-4.285 1.635-4.29 2.61-0.006 1.185 1.727 2.384 4.305 2.415 2.633 0.019 4.312-0.967 4.32-2.19 0.010-1.385-2.393-2.856-4.335-2.835zM10.438 12.555l0-0c-3.039 0.057-5.358 2.162-5.25 5.64 0.12 1.524 7.951-5.308 6.6-5.535-0.458-0.077-0.916-0.113-1.35-0.105zM23.263 12.674c-0.434-0.008-0.891 0.028-1.35 0.105-1.351 0.227 6.479 7.059 6.6 5.535 0.108-3.479-2.212-5.583-5.25-5.64zM21.704 16.845c-0.812 0.021-1.598 0.29-2.235 0.825-2.443 2.057-1.64 6.157 0.78 7.89 0.186 0.13 0.373 0.261 0.57 0.375 1.387 0.833 3.301 0.86 4.575-0.21 2.443-2.057 1.64-6.157-0.78-7.89-0.187-0.128-0.376-0.257-0.57-0.375-0.693-0.417-1.528-0.636-2.34-0.615zM12.373 16.934l-0-0c-2.62-0.111-5.014 2.384-5.22 4.98-0.016 0.227-0.034 0.448-0.030 0.675 0.002 1.618 0.961 3.271 2.535 3.81 3.023 1.031 6.11-1.773 6.345-4.74 0.013-0.227 0.029-0.463 0.030-0.69-0.002-1.618-0.961-3.271-2.535-3.81-0.378-0.129-0.751-0.209-1.125-0.225zM28.948 19.724c-1.847 0.031-0.475 8.784 1.2 8.040 1.901-1.53 2.505-6.012-1.020-8.025-0.066-0.018-0.12-0.016-0.18-0.015zM4.768 19.844h0c-0.060-0.001-0.114-0.003-0.18 0.015-3.525 2.013-2.921 6.496-1.020 8.025 1.674 0.744 3.047-8.010 1.2-8.040zM17.264 25.859c-0.026-0.001-0.070-0.001-0.096-0.001-2.621 0-4.749 1.962-4.749 4.379l0 0.032c-0.001 0.029-0.001 0.075-0.001 0.104 0 2.417 2.127 4.379 4.749 4.379s4.749-1.962 4.749-4.379c0-0.029-0.001-0.075-0.001-0.104l0-0.032c0-2.36-2.077-4.321-4.635-4.378l-0.008-0zM27.659 27.509c-1.113 0.029-2.444 1.096-3.705 2.52h0.015c-1.47 1.721-2.302 4.854-1.23 5.865 1.025 0.786 3.787 0.675 5.82-2.145 1.476-1.894 0.978-5.055 0.135-5.895-0.313-0.242-0.664-0.355-1.035-0.345zM6.044 28.184c-0.287 0.027-0.549 0.12-0.795 0.27-0.877 0.667-1.038 2.929 0.21 5.16 1.851 2.659 4.448 2.927 5.52 2.28 1.133-0.847 0.518-3.718-0.84-5.355-1.169-1.356-2.599-2.304-3.795-2.355-0.1-0.004-0.204-0.009-0.3 0zM17.189 36.029c-1.896-0.047-4.805 0.751-4.77 1.785-0.030 0.705 2.276 2.742 4.635 2.64 2.278 0.039 4.637-1.981 4.605-2.88-0.005-0.926-2.562-1.628-4.47-1.545z" fill="#000000"></path>
</svg>
