<?xml version="1.0" encoding="utf-8"?>
<!-- Generated by IcoMoon.io -->
<!DOCTYPE svg PUBLIC "-//W3C//DTD SVG 1.1//EN" "http://www.w3.org/Graphics/SVG/1.1/DTD/svg11.dtd">
<svg version="1.1" xmlns="http://www.w3.org/2000/svg" xmlns:xlink="http://www.w3.org/1999/xlink" width="49" height="48" viewBox="0 0 49 48">
<g id="icomoon-ignore">
	<line stroke-width="1" x1="" y1="" x2="" y2="" stroke="#449FDB" opacity=""></line>
</g>
	<path d="M24.336 0l0.001-0c13.036 0 23.591 10.556 23.591 23.592-0.001 4.731-1.383 9.142-3.778 12.837-0.91-0.21-1.881-0.339-2.858-0.339-1.669 0-3.191 0.286-4.311 0.751-0.122 0.062-0.218 0.192-0.218 0.339 0 0.053 0.028 0.125 0.048 0.17 0.133 0.384-0.103 0.804-1.187 1.041-1.608 0.353-2.617 1.992-3.197 2.543-0.682 0.648-2.614 1.064-2.325 0.678 0.226-0.302 1.096-1.26 1.623-2.277 0.471-0.91 0.898-1.166 1.477-2.035 0.169-0.254 0.826-1.135 1.017-1.841 0.216-0.692 0.135-1.556 0.218-1.913 0.116-0.513 0.619-1.646 0.654-2.277 0.022-0.354-1.488 0.509-2.204 0.509s-1.419-0.428-2.059-0.46c-0.791-0.038-1.293 0.622-2.010 0.509-0.408-0.067-0.763-0.433-1.477-0.46-1.018-0.040-2.265 0.56-4.602 0.484-2.299-0.076-4.408-2.891-4.699-3.342-0.339-0.529-0.76-0.535-1.211-0.121-0.453 0.415-1.004 0.083-1.163-0.194-0.302-0.529-1.127-2.053-2.374-2.374-1.726-0.448-2.582 0.941-2.47 2.059 0.116 1.132 0.848 1.455 1.187 2.059 0.339 0.602 0.501 0.991 1.138 1.259 0.453 0.188 0.619 0.476 0.484 0.848-0.119 0.322-0.585 0.395-0.896 0.412-0.658 0.032-1.117-0.146-1.453-0.363-0.391-0.248-0.7-0.6-1.042-1.187-0.395-0.649-1.021-0.945-1.744-0.945-0.346 0-0.683 0.093-0.969 0.242-1.137 0.589-2.468 0.945-3.924 0.945h-1.647c-0.798-2.369-1.235-4.917-1.235-7.557 0-13.035 10.579-23.591 23.616-23.591zM27.872 4.868l0-0.001c-0.54 0.020-1.091 0.106-1.623 0.242-0.784 0.201-2.316 0.979-5.159 0.339-4.921-1.108-5.651 1.374-5.934 2.446s-0.945 4.117-0.945 4.117c-0.226 1.241-0.542 3.388 7.097 4.844 3.559 0.678 3.743 1.617 3.9 2.277 0.281 1.187 0.75 1.864 1.26 2.204s-0.016 0.62-0.581 0.678c-1.515 0.157-7.102-1.46-10.415-3.342-2.712-1.657-2.754-3.143-2.131-4.408-4.096-0.442-7.169 0.386-7.727 2.325-0.957 3.326 7.292 8.993 16.713 11.844 9.884 2.994 20.064 0.912 21.193-5.304 0.514-2.82-1.877-4.907-5.886-5.813-0.233 0.786-0.56 1.784-2.035 2.543-0.215 0.109-0.291-0.072-0.194-0.242 0.56-0.948 0.66-1.176 0.824-1.55 0.226-0.546 0.33-1.33-0.121-2.955-0.887-3.194-2.724-7.454-4.069-8.841-0.975-1.002-2.546-1.466-4.166-1.405zM29.521 34.269c0.122 0.118 0.332 0.515 0.076 1.022-0.143 0.267-0.298 0.456-0.575 0.677-0.331 0.267-0.98 0.572-1.871 0.009-0.477-0.305-0.506-0.405-1.166-0.321-0.473 0.062-0.66-0.413-0.491-0.812 0.171-0.394 0.867-0.713 1.735-0.208 0.39 0.23 0.998 0.715 1.529 0.284 0.222-0.178 0.353-0.294 0.66-0.648 0.016-0.016 0.034-0.024 0.056-0.024 0.019 0 0.036 0.008 0.048 0.020zM22.486 11.239c-2.726 0.198-3.010 0.492-3.52 1.036-0.72 0.767-1.668-0.995-1.668-0.995-0.57-0.12-1.259-1.038-0.888-1.894 0.367-0.847 1.045-0.594 1.257-0.332 0.258 0.322 0.808 0.847 1.525 0.829 0.715-0.017 1.542-0.168 2.693-0.168 1.166 0 1.952 0.436 1.996 0.808 0.038 0.32-0.095 0.622-1.394 0.716zM25.351 6.734h-0.012c-0.043 0-0.077-0.032-0.077-0.071 0-0.029 0.018-0.053 0.043-0.064 0.528-0.279 1.317-0.502 2.218-0.594 0.271-0.027 0.536-0.042 0.791-0.045 0.045 0 0.089 0 0.135 0.002 1.512 0.034 2.724 0.636 2.707 1.343s-1.258 1.253-2.772 1.22c-0.489-0.012-0.949-0.082-1.344-0.198-0.048-0.012-0.082-0.050-0.082-0.097 0-0.048 0.034-0.088 0.082-0.1 0.945-0.218 1.581-0.575 1.535-0.914-0.059-0.447-1.294-0.689-2.757-0.543-0.161 0.017-0.317 0.039-0.468 0.061z" fill="#000000"></path>
</svg>
