<?xml version="1.0" encoding="utf-8"?>
<!-- Generated by IcoMoon.io -->
<!DOCTYPE svg PUBLIC "-//W3C//DTD SVG 1.1//EN" "http://www.w3.org/Graphics/SVG/1.1/DTD/svg11.dtd">
<svg version="1.1" xmlns="http://www.w3.org/2000/svg" xmlns:xlink="http://www.w3.org/1999/xlink" width="48" height="48" viewBox="0 0 48 48">
<g id="icomoon-ignore">
	<line stroke-width="1" x1="" y1="" x2="" y2="" stroke="#449FDB" opacity=""></line>
</g>
	<path d="M34.056 20.044c0.046-0.249 0.649-1.749 0.649-1.749 0.748-1.685 0.273-2.893 0.273-2.893-0.441-1.637-1.707-2.916-1.707-2.916 0.061 0.046 0.447 1.070 0.447 1.070 0.888 2.452-1.492 3.859-1.492 3.859-0.613 0.405-1.614 1.37-1.614 1.37-1.404 1.373-0.98 3.055-0.98 3.055l0.056 0.025c1.67 0.41 3.239 1.076 4.665 1.949-0.944-1.838-0.295-3.769-0.295-3.769zM38.939 27.992c-0.156-2.021 1.137-3.537 1.137-3.537 0.133-0.216 1.251-1.38 1.251-1.38 1.324-1.286 1.336-2.584 1.336-2.584 0.203-1.683-0.496-3.342-0.496-3.342 0.038 0.064 0.014 1.159 0.014 1.16-0.090 2.605-2.823 3.023-2.823 3.023-0.722 0.148-2.012 0.67-2.012 0.67-1.681 0.696-2.004 2.223-2.041 2.442 1.386 0.99 2.61 2.188 3.634 3.548zM48.72 24.643c0.013 0.076-0.421 1.085-0.421 1.085-1.051 2.384-3.742 1.755-3.742 1.755-0.725-0.128-2.116-0.125-2.116-0.124-1.963 0.022-2.819 1.531-2.819 1.531l0.103 0.25c0.854 1.367 1.513 2.865 1.939 4.46 0.581-1.992 2.399-2.95 2.401-2.95 0.204-0.146 1.673-0.818 1.673-0.818 1.707-0.701 2.199-1.899 2.199-1.899 0.811-1.49 0.782-3.29 0.782-3.29zM28.388 21.603c-1.489-1.358-1.598-3.333-1.598-3.333-0.056-0.247-0.049-1.861-0.047-1.861 0.070-1.842-0.82-2.79-0.82-2.79-1.012-1.359-2.666-2.079-2.666-2.079 0.075 0.020 0.814 0.832 0.814 0.832 1.73 1.945 0.042 4.135 0.042 4.135-0.42 0.605-0.992 1.871-0.992 1.871-0.751 1.695 0.115 3.042 0.211 3.187 0.843-0.125 1.71-0.184 2.588-0.175 0.842 0.008 1.666 0.080 2.468 0.212zM19.377 19.279c-0.137-0.21-0.738-1.708-0.738-1.708-0.619-1.737-1.795-2.285-1.795-2.285-1.451-0.882-3.249-0.937-3.249-0.937 0.077-0.007 1.064 0.47 1.064 0.47 2.334 1.162 1.581 3.822 1.581 3.822-0.164 0.716-0.224 2.108-0.224 2.108-0.072 1.959 1.398 2.886 1.398 2.886l0.070-0.024c1.426-0.831 2.993-1.453 4.652-1.822-1.91-0.698-2.757-2.51-2.757-2.51zM16.42 24.283c-2.024 0.052-3.474-1.31-3.474-1.31-0.207-0.144-1.316-1.316-1.316-1.316-1.218-1.385-2.518-1.457-2.518-1.457-1.671-0.285-3.359 0.331-3.359 0.331 0.067-0.035 1.158 0.042 1.16 0.042 2.596 0.218 2.88 2.966 2.88 2.966 0.112 0.728 0.572 2.042 0.572 2.042 0.66 1.847 2.365 2.164 2.365 2.164l0.034-0.029c1.038-1.322 2.271-2.482 3.654-3.434zM8.31 28.845c-0.247-0.057-1.712-0.733-1.712-0.733-1.643-0.84-2.876-0.427-2.876-0.427-1.658 0.353-3.002 1.552-3.002 1.552 0.050-0.059 1.095-0.391 1.095-0.391 2.494-0.758 3.773 1.693 3.773 1.693 0.371 0.634 1.286 1.685 1.286 1.683 1.294 1.473 3 1.139 3 1.139l0.043-0.085c0.464-1.611 1.171-3.116 2.074-4.485-1.851 0.779-3.681 0.054-3.681 0.054z" fill="#000000"></path>
</svg>
