<?xml version="1.0" encoding="utf-8"?>
<!-- Generated by IcoMoon.io -->
<!DOCTYPE svg PUBLIC "-//W3C//DTD SVG 1.1//EN" "http://www.w3.org/Graphics/SVG/1.1/DTD/svg11.dtd">
<svg version="1.1" xmlns="http://www.w3.org/2000/svg" xmlns:xlink="http://www.w3.org/1999/xlink" width="48" height="48" viewBox="0 0 48 48">
<g id="icomoon-ignore">
	<line stroke-width="1" x1="" y1="" x2="" y2="" stroke="#449FDB" opacity=""></line>
</g>
	<path d="M23.565 11.719l-0.001-0.001c1.54-0.001 3.224 0.042 3.982 0.12 2.932 0.303 5.581 0.925 8.608 1.866l0.032-1.586c1.299 0.162 2.586 0.425 3.866 0.696 2.678 0.611 4.134 1.062 5.456 1.692 1.19 0.568 1.682 1.206 2.405 3.12 0.289 0.765 0.808 2.452 0.808 2.625 0 0.092-0.97 0.758-1.487 1.021-1.467 0.747-2.917 0.823-4.74 0.246-1.193-0.377-3.15-1.339-4.36-2.143l-0.736-0.459 0.788 1.886 0.966 0.465c2.119 1.019 3.905 1.618 4.995 1.676 1.049 0.056 2.23-0.233 3.606-0.883 0.367-0.173 0.695-0.314 0.73-0.314 0.098 0 0.007 0.498-0.186 1.019-0.202 0.546-0.401 0.723-1.335 1.18-1.788 0.874-3.386 1.275-5.825 1.46-1.071 0.081-1.969 0.046-3.594-0.138-1.355-0.153-2.364-0.162-2.827-0.024-0.432 0.128-0.84 0.501-1.031 0.941-0.205 0.471-0.247 1.503-0.092 2.203 0.227 1.023 0.819 2.326 1.517 3.338 0.178 0.259 0.305 0.487 0.284 0.509-0.044 0.045-3.628-1.597-3.892-1.782-0.094-0.066-0.581-0.589-1.083-1.161s-1.158-1.288-1.459-1.59c-1.342-1.347-2.842-1.994-4.61-1.993-1.329 0.001-2.205 0.304-2.915 1.005-0.46 0.455-0.676 0.93-0.836 1.842-0.11 0.627-0.090 2.111 0.036 2.643 0.033 0.141 0.041 0.348 0.016 0.37l-3.074-1.508-0.108-0.489c-0.341-1.54-1.225-3.129-2.397-4.302-1.557-1.558-3.334-2.306-5.475-2.307-1.722-0-3.075 0.504-4.122 1.538-1.114 1.1-1.615 2.24-1.607 3.653 0.013 2.237 1.418 4.174 3.544 4.888 0.567 0.191 0.641 0.2 1.65 0.203 0.94 0.002 1.105-0.013 1.503-0.146 1.194-0.399 1.906-1.256 2.077-2.497 0.159-1.157-0.576-2.603-1.583-3.114-1.017-0.516-2.131-0.467-2.741 0.12-0.501 0.482-0.508 1.158-0.020 1.6 0.291 0.264 0.566 0.333 0.956 0.224 0.989-0.277 1.504-0.096 1.713 0.673 0.205 0.754-0.207 1.098-0.914 1.382-1.77 0.711-3.863-0.411-4.294-2.203-0.508-2.111 0.873-3.822 2.771-4.342 0.692-0.189 1.778-0.184 2.483 0.002 2.303 0.606 3.862 2.439 4.122 4.848 0.106 0.985-0.008 1.767-0.39 2.668-1.053 2.484-3.408 3.738-6.579 3.503-3.276-0.243-6.104-2.473-7.096-5.597-0.275-0.867-0.354-1.433-0.348-2.499 0.009-1.685 0.283-2.813 1.075-4.422 1.769-3.593 4.902-6.413 9.891-8.904 3.096-1.546 5.879-2.389 9.048-2.74 0.523-0.058 1.633-0.085 2.831-0.086zM43.62 14.966c-0.445 0.001-0.9 0.107-1.329 0.326-0.456 0.232-1.016 0.837-1.251 1.348-0.414 0.899-0.319 1.971 0.252 2.802 0.695 1.012 2.063 1.475 3.212 1.087 1.741-0.588 2.504-2.602 1.573-4.153-0.546-0.91-1.479-1.412-2.457-1.41zM43.588 15.795c0.875-0.019 1.719 0.55 1.971 1.536 0.127 0.497 0.082 0.859-0.172 1.386-0.371 0.771-1.217 1.187-2.111 1.041-0.63-0.103-1.17-0.529-1.455-1.145-0.347-0.751-0.154-1.736 0.448-2.281 0.394-0.357 0.861-0.527 1.319-0.537zM44.056 16.815c-0.698 0-1.144 0.518-0.758 0.881 0.313 0.295 0.848 0.355 1.263 0.142 0.269-0.138 0.363-0.329 0.294-0.607-0.051-0.204-0.46-0.417-0.8-0.417z" fill="#000000"></path>
</svg>
