<?xml version="1.0" encoding="utf-8"?>
<!-- Generated by IcoMoon.io -->
<!DOCTYPE svg PUBLIC "-//W3C//DTD SVG 1.1//EN" "http://www.w3.org/Graphics/SVG/1.1/DTD/svg11.dtd">
<svg version="1.1" xmlns="http://www.w3.org/2000/svg" xmlns:xlink="http://www.w3.org/1999/xlink" width="48" height="48" viewBox="0 0 48 48">
<g id="icomoon-ignore">
	<line stroke-width="1" x1="" y1="" x2="" y2="" stroke="#449FDB" opacity=""></line>
</g>
	<path d="M37.905 0c2.621 0 4.74 2.12 4.74 4.74 0 0.064 0.002 0.131 0 0.195 0.002 0.064 0 0.131 0 0.195 0 0.061 0.002 0.119 0 0.18 0.002 0.064 0 0.131 0 0.195 0 0.066 0.002 0.129 0 0.195 0.002 0.061 0 0.119 0 0.18 0 2.619-2.119 4.74-4.74 4.74s-4.74-2.121-4.74-4.74c0-0.061-0.002-0.119 0-0.18-0.003-0.066 0-0.129 0-0.195 0-0.065-0.003-0.132 0-0.195-0.002-0.060 0-0.119 0-0.18 0-0.065-0.003-0.132 0-0.195-0.003-0.064 0-0.131 0-0.195 0-2.62 2.118-4.74 4.74-4.74zM27.885 3.72c1.065 0 2.187 0.132 3.33 0.33 0.18 0.031 0.3 0.194 0.3 0.375 0 0.006 0.001 0.133 0 0.135 0.001 3.633 2.975 6.585 6.63 6.585 1.253 0 2.493-0.36 3.585-1.065 0.154-0.1 0.358-0.077 0.48 0.060 2.707 3.011 4.41 6.867 4.8 10.875 0.005 0.060-0.009 0.126-0.030 0.18 0.008 0.071 0.023 0.14 0.030 0.21 0.005 0.060-0.009 0.111-0.030 0.165 0.008 0.070 0.023 0.139 0.030 0.21 0.005 0.060-0.009 0.111-0.030 0.165 0.008 0.070 0.023 0.14 0.030 0.21 0.010 0.106-0.019 0.207-0.090 0.285s-0.18 0.135-0.285 0.135l-7.23-0.015c-0.183 0-0.346-0.133-0.375-0.315-0.861-5.401-5.651-9.48-11.145-9.48-1.494 0-2.971 0.312-4.395 0.915-0.169 0.071-0.368 0.005-0.465-0.15l-3.84-6.090c-0.056-0.090-0.074-0.198-0.045-0.3 0.008-0.029 0.031-0.049 0.045-0.075-0.056-0.090-0.074-0.198-0.045-0.3 0.009-0.031 0.029-0.063 0.045-0.090-0.056-0.089-0.074-0.198-0.045-0.3 0.008-0.029 0.031-0.049 0.045-0.075-0.056-0.090-0.074-0.198-0.045-0.3s0.1-0.193 0.195-0.24c2.668-1.318 5.624-2.040 8.55-2.040zM16.425 7.68c0.104 0.018 0.184 0.076 0.24 0.165l3.84 6.105c0.078 0.123 0.073 0.272 0 0.39 0.070 0.121 0.071 0.26 0 0.375 0.071 0.122 0.072 0.275 0 0.39 0.089 0.154 0.075 0.347-0.060 0.465-2.304 2.006-3.691 4.84-3.855 7.845 0.147 3.006 1.515 5.841 3.81 7.86 0.139 0.122 0.174 0.325 0.075 0.48 0.072 0.119 0.078 0.267 0 0.39 0.067 0.117 0.076 0.255 0 0.375 0.067 0.117 0.076 0.255 0 0.375l-3.885 6.090c-0.056 0.088-0.136 0.147-0.24 0.165s-0.216-0.010-0.3-0.075c-3.099-2.411-5.434-5.799-6.57-9.525-0.029-0.094-0.012-0.186 0.030-0.27-0.011-0.035-0.019-0.070-0.030-0.105-0.028-0.092-0.010-0.187 0.030-0.27-0.011-0.035-0.019-0.070-0.030-0.105-0.028-0.092-0.010-0.187 0.030-0.27-0.011-0.035-0.019-0.070-0.030-0.105-0.045-0.147 0.015-0.31 0.135-0.405 1.417-1.121 2.321-2.789 2.49-4.545-0.155-1.777-1.058-3.471-2.49-4.605-0.121-0.096-0.179-0.258-0.135-0.405 0.011-0.035 0.019-0.071 0.030-0.105-0.040-0.083-0.058-0.178-0.030-0.27 0.011-0.035 0.019-0.071 0.030-0.105-0.042-0.084-0.059-0.176-0.030-0.27 0.011-0.034 0.019-0.071 0.030-0.105-0.042-0.084-0.059-0.192-0.030-0.285 1.146-3.757 3.508-7.154 6.645-9.57 0.082-0.064 0.196-0.093 0.3-0.075zM5.58 18.105c2.683 0 4.86 2.179 4.86 4.86 0 0.066-0.012 0.13-0.015 0.195 0.002 0.060 0.015 0.119 0.015 0.18s-0.013 0.12-0.015 0.18c0.002 0.065 0.015 0.129 0.015 0.195 0 0.064-0.012 0.132-0.015 0.195 0.002 0.066 0.015 0.129 0.015 0.195 0 2.681-2.177 4.845-4.86 4.845s-4.86-2.164-4.86-4.845c0-0.066 0.012-0.13 0.015-0.195-0.002-0.063-0.015-0.131-0.015-0.195 0-0.066 0.012-0.13 0.015-0.195-0.002-0.060-0.015-0.119-0.015-0.18s0.013-0.12 0.015-0.18c-0.003-0.065-0.015-0.129-0.015-0.195 0-2.681 2.177-4.86 4.86-4.86zM46.635 24.375c0.106-0 0.199 0.042 0.27 0.12s0.116 0.18 0.105 0.285c-0.008 0.074-0.022 0.151-0.030 0.225 0.016 0.049 0.036 0.112 0.030 0.165-0.008 0.075-0.022 0.149-0.030 0.225 0.016 0.049 0.036 0.097 0.030 0.15-0.008 0.076-0.022 0.149-0.030 0.225 0.016 0.049 0.036 0.097 0.030 0.15-0.43 4.283-2.34 8.34-5.37 11.43-0.116 0.118-0.289 0.152-0.435 0.075-0.961-0.501-2.021-0.765-3.060-0.765-3.351 0-6.169 2.506-6.555 5.835-0.019 0.164-0.152 0.301-0.315 0.33-1.157 0.205-2.292 0.315-3.39 0.315-2.96 0-5.952-0.724-8.64-2.070-0.095-0.047-0.167-0.123-0.195-0.225s-0.012-0.211 0.045-0.3c-0.014-0.026-0.037-0.047-0.045-0.075-0.028-0.102-0.012-0.211 0.045-0.3-0.017-0.029-0.035-0.057-0.045-0.090-0.028-0.102-0.012-0.211 0.045-0.3-0.014-0.025-0.037-0.046-0.045-0.075-0.028-0.102-0.012-0.211 0.045-0.3l3.87-6.075c0.099-0.154 0.297-0.222 0.465-0.15 1.44 0.617 2.944 0.93 4.455 0.93 5.478 0 10.272-4.044 11.145-9.405 0.029-0.18 0.178-0.315 0.36-0.315zM38.085 37.2c2.683 0 4.86 2.163 4.86 4.83 0 0.066 0.002 0.13 0 0.195 0.002 0.062 0 0.118 0 0.18 0 0.065 0.002 0.13 0 0.195 0.002 0.065 0 0.13 0 0.195s0.002 0.13 0 0.195c0.002 0.060 0 0.12 0 0.18 0 2.667-2.177 4.83-4.86 4.83s-4.86-2.163-4.86-4.83c0-0.061 0.013-0.12 0.015-0.18-0.002-0.065-0.015-0.129-0.015-0.195s0.013-0.13 0.015-0.195c-0.002-0.065-0.015-0.129-0.015-0.195 0-0.063 0.013-0.118 0.015-0.18-0.002-0.065-0.015-0.13-0.015-0.195 0-2.667 2.177-4.83 4.86-4.83z" fill="#000000"></path>
</svg>
