<?xml version="1.0" encoding="utf-8"?>
<!-- Generated by IcoMoon.io -->
<!DOCTYPE svg PUBLIC "-//W3C//DTD SVG 1.1//EN" "http://www.w3.org/Graphics/SVG/1.1/DTD/svg11.dtd">
<svg version="1.1" xmlns="http://www.w3.org/2000/svg" xmlns:xlink="http://www.w3.org/1999/xlink" width="40" height="48" viewBox="0 0 40 48">
<g id="icomoon-ignore">
	<line stroke-width="1" x1="" y1="" x2="" y2="" stroke="#449FDB" opacity=""></line>
</g>
	<path d="M3.795 0.090v-0h32.355c1.632 0 2.97 1.347 2.97 2.835v0.045c0 0.096-0.045 0.249-0.045 0.345l-3.165 29.040c0.049 1.151-0.579 2.247-1.635 2.775l-12.87 6.345c-0.432 0.191-0.858 0.285-1.29 0.285s-0.873-0.094-1.305-0.285l-12.9-6.345c-0.576-0.288-1.062-0.715-1.35-1.29-0.24-0.336-0.387-0.723-0.435-1.155l-3.255-29.28c0-0.096-0.15-0.234-0.15-0.33v-0.045c0-1.584 1.443-2.94 3.075-2.94zM14.25 9.6c-1.74 0-3.012 0.304-3.81 0.9-0.798 0.589-1.2 1.528-1.2 2.835v2.085c0 1.016-0.214 1.722-0.645 2.115s-1.207 0.585-2.34 0.585h-0.735v2.265h0.735c1.133 0 1.909 0.2 2.34 0.6 0.431 0.393 0.645 1.099 0.645 2.115v1.95c0 1.307 0.402 2.254 1.2 2.85s2.070 0.9 3.81 0.9h2.595v-2.28h-0.825c-1.125 0-1.862-0.152-2.205-0.45-0.335-0.291-0.495-0.921-0.495-1.89v-1.695c0-1.056-0.181-1.814-0.54-2.295-0.351-0.481-0.974-0.822-1.86-1.005 0.878-0.169 1.501-0.494 1.86-0.975s0.54-1.247 0.54-2.31v-1.695c0-0.962 0.16-1.584 0.495-1.875 0.343-0.298 1.080-0.45 2.205-0.45h0.825v-2.28h-2.595zM22.995 9.6v2.28h0.84c1.117 0 1.84 0.152 2.175 0.45 0.343 0.291 0.51 0.913 0.51 1.875v1.695c0 1.063 0.181 1.829 0.54 2.31s0.989 0.805 1.875 0.975c-0.886 0.183-1.516 0.524-1.875 1.005s-0.54 1.239-0.54 2.295v1.695c0 0.969-0.167 1.599-0.51 1.89-0.336 0.298-1.058 0.45-2.175 0.45h-0.84v2.28h2.595c1.74 0 3.012-0.304 3.81-0.9s1.2-1.543 1.2-2.85v-1.95c0-1.016 0.214-1.722 0.645-2.115 0.431-0.4 1.207-0.6 2.34-0.6h0.735v-2.265h-0.735c-1.133 0-1.909-0.192-2.34-0.585s-0.645-1.099-0.645-2.115v-2.085c0-1.307-0.402-2.245-1.2-2.835-0.798-0.596-2.070-0.9-3.81-0.9h-2.595z" fill="#000000"></path>
</svg>
