<?xml version="1.0" encoding="utf-8"?>
<!-- Generated by IcoMoon.io -->
<!DOCTYPE svg PUBLIC "-//W3C//DTD SVG 1.1//EN" "http://www.w3.org/Graphics/SVG/1.1/DTD/svg11.dtd">
<svg version="1.1" xmlns="http://www.w3.org/2000/svg" xmlns:xlink="http://www.w3.org/1999/xlink" width="48" height="48" viewBox="0 0 48 48">
<g id="icomoon-ignore">
	<line stroke-width="1" x1="" y1="" x2="" y2="" stroke="#449FDB" opacity=""></line>
</g>
	<path d="M3.516 1.078v39.844h39.844v-39.844h-39.844zM33.844 19.125q1.781 0 3.094 0.703t2.203 2.297l-2.906 1.875q-0.469-0.844-1.031-1.219t-1.383-0.375-1.289 0.445-0.469 1.148q-0.047 0.844 0.516 1.313t1.781 0.984l0.938 0.375q2.391 0.984 3.68 2.297t1.289 3.609q-0.047 2.531-1.781 3.867t-4.453 1.336q-2.578-0.047-4.289-1.102t-2.508-2.742l3.047-1.734q0.563 0.984 1.453 1.617t2.25 0.633q1.172 0 1.852-0.516t0.68-1.313q0-0.938-0.727-1.453t-1.992-1.031l-0.938-0.422q-2.063-0.797-3.281-2.086t-1.219-3.539q0.047-2.156 1.5-3.539t3.984-1.43zM21.469 19.359h3.75v12.797q-0.047 2.859-1.57 4.242t-4.055 1.383q-2.203-0.047-3.586-1.008t-2.039-2.414l3.094-1.828q0.375 0.797 0.914 1.336t1.477 0.563 1.453-0.469 0.563-1.852v-12.75z" fill="#000000"></path>
</svg>
