<?xml version="1.0" encoding="utf-8"?>
<!-- Generator: Adobe Illustrator 18.0.0, SVG Export Plug-In . SVG Version: 6.00 Build 0)  -->
<!DOCTYPE svg PUBLIC "-//W3C//DTD SVG 1.1//EN" "http://www.w3.org/Graphics/SVG/1.1/DTD/svg11.dtd">
<svg version="1.1" id="Layer_1" xmlns="http://www.w3.org/2000/svg" xmlns:xlink="http://www.w3.org/1999/xlink" x="0px" y="0px"
	 viewBox="0 0 48 48" enable-background="new 0 0 48 48" xml:space="preserve">
<g>
	<g>
		<g>
			<path fill="#B2ABAB" d="M29.5,44.9c2.1-1.3,3.7-3.1,4.2-5.6c0.7-3.3-0.5-6-2.7-8.3c-1.4-1.5-3.2-2.7-4.9-3.8
				c-1.2-0.8-2.5-1.6-3.5-2.7c-0.9-0.9-1.5-2-1.3-3.6c-1.1,1.1-1.7,2.3-1.8,3.6c-0.2,1.5,0.3,2.8,1.2,4c0.4,0.5,0.8,1,1.1,1.5
				c0.6,0.7,1,1.6,1,2.5c0,1.6-1,2.8-2.4,2.9c-1.5,0.1-2.8-1.1-2.9-2.6c0-0.5,0.1-1,0.1-1.7c-2.3,1.9-3.9,4.2-4,7.2
				c-0.1,3.1,1.6,5.2,4,7c-0.2,0.2-0.4,0-0.6,0c-7-2.4-10.7-9-9.1-16.4c0.9-4.4,3.3-8.1,6.2-11.4c2-2.3,4.3-4.2,6.3-6.4
				c1.3-1.5,2.4-3.1,3-5c0.4-1.3,0.3-2.3-0.1-3.2c0.2-0.2,0.4-0.1,0.5,0.1c2.5,2.4,4,5.2,3.8,8.8c-0.1,1.4-0.6,2.8-0.9,4.2
				c-0.3,1.1-0.4,2.3-0.1,3.4c0.3,1.1,0.9,2,2,2.3c1.7,0.5,3.8-0.8,3.4-2.9c1.9,1,3.4,2.2,4.8,3.8c5.5,6.2,4.7,14.7-1.8,19.9
				c-1.6,1.2-3.3,2.2-5.2,2.9C29.7,45.1,29.5,45.2,29.5,44.9z"/>
		</g>
	</g>
</g>
</svg>
