<?xml version="1.0" encoding="utf-8"?>
<!-- Generator: Adobe Illustrator 18.0.0, SVG Export Plug-In . SVG Version: 6.00 Build 0)  -->
<!DOCTYPE svg PUBLIC "-//W3C//DTD SVG 1.1//EN" "http://www.w3.org/Graphics/SVG/1.1/DTD/svg11.dtd">
<svg version="1.1" id="Layer_1" xmlns="http://www.w3.org/2000/svg" xmlns:xlink="http://www.w3.org/1999/xlink" x="0px" y="0px"
	 viewBox="0 0 288 288" enable-background="new 0 0 288 288" xml:space="preserve">
<path fill="none" d="M174.7,32.6c-0.1,0-0.2,0-0.2,0C174.5,32.7,174.6,32.7,174.7,32.6c-0.1-0.2-0.2-0.3-0.3-0.5
	C174.5,32.3,174.6,32.4,174.7,32.6z"/>
<path fill="none" d="M102.6,205.6c0.2,1.6,0.2,3.3,0,4.9c0.1,0.1,0.1,0.3,0,0.4c0.1-0.1,0.1-0.3,0-0.4
	C102.8,208.9,102.8,207.2,102.6,205.6c0-0.1,0-0.3,0-0.4C102.6,205.3,102.6,205.4,102.6,205.6z"/>
<path fill="none" d="M111.1,210.1C111.1,210.1,111.1,210.1,111.1,210.1C111.1,210.1,111.1,210.1,111.1,210.1z"/>
<path fill="#1A1A1A" d="M133,276.4c-0.4-0.4-0.6-0.8-0.7-1.3c-0.3-1.5-0.1-3,0.2-4.5c0.5-2.9,1.4-5.7,1.2-8.6
	c-0.1-1.2-0.2-2.2-1.4-2.8c-1.3-0.6-2.2,0.1-3.1,0.8c-1.7,1.5-3.2,3.3-4.6,5.1s-2.9,3.6-4.3,5.3c-0.2,0.3-0.5,0.8-0.9,0.6
	c-0.4-0.2-0.2-0.6-0.2-1c0.1-1.3,0.3-2.6,0.4-3.9c0.2-1.7,0.4-3.4,0.1-5.1c-0.4-2-1.8-2.6-3.5-1.3c-0.4,0.3-0.8,0.7-1.1,1.1
	c-1.3,1.5-2.4,3.1-3.5,4.8c-2.6,4.1-5.1,8.3-8.2,12c-0.6,0.7-1.2,1.4-1.7,2.1c-0.6,0.8-0.8,1.8-0.3,2.7c0.5,0.8,1.3,1.1,2.2,1
	c1-0.1,1.5-0.8,2-1.4c2.4-3.3,4.9-6.7,7.3-10c0.1-0.2,0.2-0.5,0.6-0.4c-0.1,0.4-0.1,0.9-0.1,1.3c-0.1,1.6-0.4,3.2-0.1,4.8
	c0.4,1.9,1.9,2.6,3.6,1.8c0.9-0.4,1.7-1.1,2.4-1.8c1.4-1.3,2.7-2.7,3.9-4.2c1.3-1.7,2.7-3.4,4.1-5.2c0.4,1.4,0.3,2.7,0.2,3.9
	c-0.1,2.2-0.6,4.4-0.1,6.6c0.3,1.4,1.1,2.2,2.2,2.3c1.2,0.1,2.3-0.2,3.3-0.8C134.3,279.5,134.4,277.6,133,276.4z"/>
<path fill="#1A1A1A" d="M236.2,278.4c-0.3-0.9-0.9-1.4-1.9-1.5c-0.7,0-1.2-0.4-1.8-0.8c-1.6-1.3-3-3-4.2-4.6c-1-1.4-1.1-1.4,0.3-2.4
	c3-2,4-4.9,3.8-8.3c-0.2-2.6-1.5-4-4-4.4c-2-0.3-3.6,0.5-5.1,1.7c-0.3,0.3-0.5,0.6-1.1,0.2c-1.2-0.8-2.4-0.6-3.5,0.4
	c-0.6,0.6-1,1.4-1.2,2.2c-1.5,5.9-3,11.8-4.4,17.7c-0.5,2,0.6,3,2.6,2.7c1.9-0.3,2.8-1.4,3.1-3.7c0.3-2.3,0.6-4.6,1.3-7
	c1.7,2.2,3.4,4.2,5.1,6.3c1.6,2,3.4,3.8,5.8,4.8c1.7,0.8,3.1,0.3,4.5-0.9C236.3,280.2,236.5,279.3,236.2,278.4z M227.3,263.2
	c-0.2,0.6-0.5,1.1-0.8,1.5c-1.5,1.9-3.4,3.2-5.8,4.1c0.3-1.8,0.6-3.5,1.3-5c0.7-1.6,1.9-2.6,3.7-2.8
	C227,261,227.7,261.9,227.3,263.2z"/>
<path fill="#1A1A1A" d="M102.9,256.8c-0.8-0.3-1.7-0.4-2,0.7c-0.2,0.6-0.6,0.5-1.1,0.5c-3-0.5-5.7,0.4-7.8,2.6
	c-4.4,4.3-6.7,9.5-6.5,15.9c0.2,4.2,2.6,6.2,6.7,5.3c8.1-1.9,14.3-9.8,14.7-18.5C107,260.9,104.9,257.6,102.9,256.8z M96.8,275.6
	c-1.1,0.9-2.4,1.5-3.8,1.6c-1.8,0.1-3.1-1-3-2.7c0.3-3.7,1.3-7.2,3.8-10.1c1.6-1.9,3.9-2.4,6.2-1.5c1.3,0.5,1.7,1.2,1.7,3.1
	C101.3,269.4,99.9,272.9,96.8,275.6z"/>
<path fill="#1A1A1A" d="M202.7,263.7c0.9-0.3,1.9-0.1,2.9-0.1c2.5-0.1,5-0.1,7.4-0.9c0.9-0.3,1.7-0.7,2.2-1.5c0.8-1.3,0.5-2.1-1-2.2
	c-3.2-0.1-6.4-0.4-9.6,0c-1.9,0.2-3.7,0.8-4.4,2.9c0,0.1-0.2,0.3-0.3,0.3c-2.2,0.6-3,2.4-3.5,4.2c-1.2,4.1-2.3,8.2-3.5,12.2
	c-0.3,1,0.1,1.6,0.9,2.1c0.6,0.4,1.3,0.4,2,0.2c3.8-0.9,7.6-1.9,11.6-1.7c0.5,0,1-0.1,1.5-0.3c0.9-0.5,1.5-1.7,1.4-2.8
	c-0.2-1.1-1-1.4-1.9-1.5c-0.7-0.1-1.4-0.2-2.1-0.2c-2.4-0.1-4.8,0.3-7.3,0.6c0.4-2.7,0.6-2.8,3.1-2.8c1.9,0,3.8-0.1,5.5-0.8
	c1.2-0.5,1.9-1.3,2.1-2.6c0.1-0.9-0.3-1.4-1.2-1.5c-0.7,0-1.5,0-2.2,0c-1.7,0.1-3.4,0.3-5.3,0.5c0.3-0.6,0.4-1.2,0.7-1.6
	C202.2,265.4,201.6,264.1,202.7,263.7z"/>
<path fill="#1A1A1A" d="M83.4,258.6c-1.4-0.8-2.9-1.3-4-1.3c-3.1,0.1-5.3,1.2-7.2,2.8c-4.1,3.5-6.4,8.1-7.6,13.3
	c-0.4,2-0.2,3.9,0.9,5.7c0.8,1.4,1.9,1.9,3.4,1.6c3.5-0.7,7-1.8,10.2-3.6c1-0.5,1.9-1.2,2.6-2c0.6-0.7,1-1.4,1-2.4
	c0-0.9-0.4-1.2-1.2-1.2c-0.8,0-1.5,0.3-2.2,0.5c-2.4,0.9-4.8,1.9-7.3,2.6c-1.2,0.3-1.7,0-1.9-1.2c-0.1-0.5-0.1-1,0.1-1.4
	c0.5-2,1.2-3.9,2.2-5.7c0.8-1.3,1.6-2.5,2.9-3.3c1.6-1,3.3-1.6,5.2-0.5c0.6,0.4,1.2,0.2,1.8-0.1c0.9-0.5,1.4-1.4,1.7-2.4
	C84.1,259.4,83.9,259,83.4,258.6z"/>
<path fill="#1A1A1A" d="M192,259.9c-3.2-2.7-7.9-2.4-10.9,0.6c-1.8,1.9-2.1,3.8-1,6.2c0.9,1.8,2.1,3.3,3.3,4.9
	c0.8,1.1,1.7,2.2,2.5,3.3c0.6,0.8,0.3,1.5-0.7,1.8c-0.6,0.2-1.1,0.1-1.6-0.1c-1.7-0.6-3.1-1.5-4.4-2.7c-0.4-0.4-0.8-0.9-1-1.5
	c-0.1-0.9-0.6-1.3-1.5-1.4c-1-0.1-1.8-0.1-2.4,0.9c-0.9,1.6-0.7,3.1,1,4.6c3.2,2.9,7.1,4.1,10.9,4.4c3.5,0.1,5.7-3.1,4.5-6.1
	c-0.5-1.4-1.4-2.5-2.2-3.7c-1.4-1.9-2.9-3.7-4.2-5.6c-1-1.5-0.6-2.5,1.2-3.1c1.6-0.5,2.9-0.1,4.2,0.9c1.5,1.2,2.8,0.6,3.1-1.3
	C193.2,261.2,192.7,260.5,192,259.9z"/>
<path fill="#A4A4A4" d="M174.2,32.1L174.2,32.1c-0.1,0.1-0.2,0.2-0.2,0.2C174.2,32.4,174.3,32.4,174.2,32.1z"/>
<path fill="#A4A4A4" d="M174.5,32.7c0.1,0,0.1,0,0.2,0c-0.1-0.2-0.2-0.3-0.3-0.5c-0.1,0-0.1-0.1-0.2-0.1c0.1,0.3,0,0.3-0.2,0.2
	c0,0,0.1,0.1,0.1,0.1C174.2,32.6,174.3,32.7,174.5,32.7z"/>
<path fill="none" d="M113.6,207.1c0.2,0.1,0.5,0.3,0.7,0.4c1,0.6,1.9,1.2,2.8,1.8c-0.9-0.6-1.9-1.3-2.8-1.8
	C114.1,207.4,113.8,207.2,113.6,207.1z"/>
<path fill="none" d="M185.4,175.6c-1.9-0.9-3.7-1.9-5.5-3.1c-1.3-0.9-2.6-1.8-3.9-2.7c1.3,0.9,2.6,1.8,3.9,2.7
	C181.7,173.7,183.5,174.8,185.4,175.6z"/>
<path fill="none" d="M95.6,176.4c-0.6,0.3-1.1,0.7-1.6,1.1c-0.3,0.2-0.6,0.4-0.8,0.6c0.3-0.2,0.5-0.4,0.8-0.6
	C94.5,177.1,95.1,176.7,95.6,176.4z"/>
<path fill="none" d="M131,224.3c-0.1-0.2-0.3-0.4-0.4-0.6C130.8,223.9,130.9,224.1,131,224.3z"/>
<path fill="none" d="M108.8,171.1c0.4-0.1,0.8-0.1,1.2-0.2C109.6,171,109.2,171,108.8,171.1z"/>
<path fill="none" d="M95.6,176.4c0.8-0.5,1.7-1,2.6-1.4C97.3,175.4,96.5,175.8,95.6,176.4z"/>
<path fill="none" d="M110.1,171c0.4,0,0.8-0.1,1.2-0.1C110.9,170.9,110.5,170.9,110.1,171z"/>
<path fill="none" d="M193,30.4c0,0.1,0,0.2,0,0.3C193.1,30.5,193.1,30.4,193,30.4z"/>
<path fill="none" d="M188,28.5c-0.2-0.2-0.5-0.4-0.7-0.6c-3.1-2.4-6.3-4.7-9.4-7.1c3.1,2.4,6.3,4.7,9.4,7.1
	C187.5,28.1,187.8,28.3,188,28.5z"/>
<path fill="none" d="M189.3,47.9C189.2,47.9,189.2,47.9,189.3,47.9C189.2,47.9,189.2,47.9,189.3,47.9z"/>
<path fill="none" d="M182.2,54.3l7.6-5C187.2,51,184.7,52.7,182.2,54.3z"/>
<path fill="none" d="M189.9,47.9c0.2,0,0.4,0,0.5,0.1C190.3,47.9,190.1,47.9,189.9,47.9z"/>
<path fill="none" d="M183.8,42c0.2,0.1,0.4,0.2,0.6,0.3C184.2,42.3,184,42.1,183.8,42z"/>
<path fill="none" d="M185.9,15.5c2.9,1.9,5.7,4,8.4,6.1C191.6,19.4,188.9,17.3,185.9,15.5z"/>
<path fill="none" d="M190.4,27.2c0.7,0.7,1.4,1.5,2.1,2.2c0.2,0.2,0.4,0.5,0.5,0.8c-0.1-0.3-0.3-0.6-0.5-0.8
	C191.8,28.6,191.1,27.9,190.4,27.2z"/>
<path fill="none" d="M140.1,253.6C140.1,253.6,140.1,253.7,140.1,253.6C140.1,253.7,140.1,253.6,140.1,253.6z"/>
<path fill="none" d="M140,253.8C140,253.8,140,253.8,140,253.8C140,253.8,140,253.8,140,253.8z"/>
<path fill="none" d="M140,253.5c-0.1-0.1-0.2-0.1-0.3-0.1c-2.2-1.1-4.3-2.3-6.7-3.2c-1.4-0.5-2.3,0-3.4,0.9
	c3.5,0.9,6.8,1.7,10.1,2.5c0-0.1,0-0.1,0-0.2C139.8,253.4,139.9,253.4,140,253.5z"/>
<path fill="none" d="M140,253.5c0,0,0.1,0.1,0.1,0.1C140.1,253.6,140.1,253.6,140,253.5z"/>
<path fill="none" d="M139.9,253.8c0,0-0.1,0-0.1,0C139.9,253.8,139.9,253.8,139.9,253.8z"/>
<path fill="#1A1A1A" d="M184,225.5c0,0.1,0.1,0.1,0.1,0.2l0,0C184.1,225.6,184,225.5,184,225.5z"/>
<path fill="none" d="M139.7,253.4c-2.2-1-4.4-2.3-6.7-3.2c-1.4-0.5-2.2,0-3.4,0.9c3.5,0.9,6.8,1.7,10.1,2.5c0,0.1,0.1,0.1,0.1,0.1
	c0,0,0.1,0,0.1,0s0.1,0,0.1,0c0,0,0,0,0-0.1c0,0,0,0,0-0.1c0-0.1,0-0.1-0.1-0.1C139.9,253.4,139.8,253.4,139.7,253.4z"/>
<path fill="#1A1A1A" d="M241.4,107c1.6-0.6,3.2-1.3,4.9-1.8c0.9-0.3,1.2-0.8,1.2-1.7c0.5-7.1,1.1-14.2,1.6-21.3
	c0.1-1-0.1-1.2-1.1-0.9c-5.3,1.7-10.6,3.3-16,5c-1.6,0.5-1.7,0.5-2.4-1.1c-2.7-6.1-4.8-12.4-7-18.6c-0.5-1.3-0.5-2.5,0.1-3.7
	c0.8-2.2,0.3-4.4,0.2-6.6c0-0.1-0.1-0.2-0.1-0.3c-0.6-6.1-1.4-12.2-3-18.1c-1.4-5.2-3.3-10.2-5.8-14.9c-2.7-5.1-5.5-10.1-8.6-14.9
	c-1.3-2.1-2.7-4-5.1-5c-0.8-0.4-1.7-0.5-2.6-0.6c-1-0.1-1.6,0.3-2.3,1.1c-1.2,1.4-1.6,3.4-0.8,5c2.2,4.8,4.2,9.7,6.2,14.7
	c0.1,0.2,0.3,0.5,0.5,0.8c-0.5,0-0.6-0.3-0.7-0.5c-3.5-3.6-7.6-6.5-11.7-9.4c-5.5-3.9-11.6-7.1-17.6-10.2c-0.8-0.4-1.6-0.7-2.5-0.8
	c-1.5-0.2-3-0.3-4.5-0.5c-2.4-0.3-4.2,1.1-4.2,3.4c0,1.3-0.5,1.5-1.6,1.6c-0.9,0.1-2.2,1.4-2.3,2.2c-0.3,2.9,0.6,5.3,2.7,7.3
	c5.2,4.9,10.2,9.9,15.3,14.9c0.1,0,0.1,0.1,0.2,0.1c0.1,0.1,0.3,0.3,0.3,0.5c-0.1,0-0.2,0-0.2,0c-0.2,0-0.3-0.1-0.4-0.3
	c0,0-0.1-0.1-0.1-0.1c-0.7-0.4-1.5-0.8-2.2-1.3c-3.5-2.3-7-4.7-10.5-7c-1.6-1.1-3.3-1.9-5.4-2c-1.9-0.1-3.3,0.4-4.6,1.7
	c-0.9,0.9-1.2,1.8-1,3c0.2,1.7,1.3,2.8,2.6,3.7c5.9,4,11.1,8.6,16,13.8c0.4,0.5,0.9,0.9,1.3,1.3c1.4,1.1,2.2,2.6,3.1,4.2
	c0.4,0.7,0.3,0.9-0.5,0.9c-5,0-9.8,1.4-14.6,2.4c-2,0.4-3.9,1.1-4.6,3.3c-0.8,2.4-1.1,3.8,1.9,4.6c6,1.5,11.8,3.6,17.4,6
	c0.5,0.2,1,0.5,1.4,0.9c1.4,1.2,2.7,2.6,4.2,3.5c4.4,2.9,9,5.6,14.3,6.8c0.6,0.1,1.2,0.5,1.8,0.6c0.6,0.2,1,0.5,1.1,1.1
	c0.3,2.1,1.6,3.3,3.6,3.9c0.3,0.1,0.4,0.3,0.7,0.3c0.6,0.2,0.9,0.6,1.1,1.3c0.8,2.8,1.6,5.6,2.5,8.4c0.3,0.9,0,1.2-0.8,1.4
	c-4.4,1.3-8.7,2.6-13,3.9c-1.5,0.5-1.6,0.5-0.8,1.9c3.5,6.4,7.1,12.8,10.6,19.2c1.5,2.7,1.5,2.7,4.3,1.3c0.3-0.1,0.7-0.6,0.9-0.2
	c0.3,0.4,0.7,1,0.3,1.5c-1.3,1.5-2.2,3.3-3.3,4.9c-0.4,0.5-0.4,0.9-0.1,1.4c1.2,1.9,2.4,3.9,3.5,5.9c0.1,0.2,0.4,0.5,0.3,0.7
	c-0.4,1.4-1,2.9-1.4,4.3c-0.8-3.1-2.1-5.8-3.7-8.4c-2.1-3.4-4.8-6.4-7.3-9.5c-0.4-0.5-0.8-0.9-1.3-1.3c-2.3-2.4-5.3-3.9-8.2-5.6
	c-1.3-0.8-2.6-1.2-4-1.5c-4.4-0.9-8.7-1.3-13.1,0.1c-0.9,0.3-1.4,0.1-1.9-0.7c-1.1-1.5-1.9-3.2-3.4-4.4c-3.5-2.8-7.2-5.4-11.6-6.8
	c-3.3-1.1-6.6-1.9-10.1-2c-1.8-0.1-3.6,0.1-5.4,0.2c-4.6,0.4-9.3,0.9-13.4,3.4c-0.8,0.5-1.7,0.8-2.6,1.3c-4.2,2.3-8.4,4.5-11.9,8
	c-3.6,3.6-7.3,7.1-10.5,11.1c-3.8,4.5-6.6,9.6-9.2,14.8c-0.2,0.4-0.3,0.8-0.8,1.1c-0.5-3-1-5.8-1.4-8.7c-0.1-0.5,0.3-0.5,0.6-0.5
	c1,0.1,2.1,0.2,3.1,0.3c0.8,0.1,1.2-0.1,1.4-0.9c0.3-1.2,0.5-2.4,0.8-3.7c1-4.6,2.3-9.1,3.5-13.7c0.2-0.9,0.1-1.2-0.8-1.4
	c-4.5-1.1-8.9-2.2-13.4-3.3c-0.8-0.2-1.2-0.5-1-1.4c1-3.5,1.5-7.1,2.8-10.5c0.1-0.4,0.3-0.7,0.6-1c1.2-0.9,2-1.9,1.9-3.5
	c-0.1-1.2,0.5-2,1.6-2.5c2.1-1,4.2-2.2,6.2-3.4c1.6-0.9,2.9-2.2,3.8-3.9c3.8-7.1,6.9-14.5,11.5-21.2c0.4-0.6,0.7-1.2,1.2-1.7
	c3-3.1,5.7-6.4,9-9.1c1-0.9,1.3-2.1,1.3-3.3c0-1.5-0.9-2.5-1.8-3.6c-0.9-1-1.8-1.9-3.3-1.7c-0.3,0-0.7-0.1-1-0.2
	c0.2-0.4,0.6-0.6,0.9-0.8c4-2.6,7.9-5.1,11.9-7.7c4.8-3.1,9.6-6.2,14.4-9.3c0.6-0.4,0.9-0.7,0.2-1.3c-0.2-0.1-0.3-0.3-0.4-0.5
	c-1-1.2-1-1.2-2.3-0.3c-13.4,8.4-26.9,16.7-40.3,25.1c-1.2,0.7-1.2,0.7-1.8-0.6c-1.3-3.1-2.1-6.3-3.1-9.5c-0.2-0.7,0-1.2,0.5-1.6
	c3.4-2.7,6.5-5.7,9.6-8.7c1.3-1.2,2-2.6,2.2-4.3c0.3-2-1.1-3-2.9-2.3c-0.9,0.4-1.8,0.8-2.6,1.2c-8,4.4-16.5,7.4-25.2,9.9
	c-0.5,0.1-1,0.3-1.4-0.2c-0.9-1.1-2.2-1.7-3.3-2.4c-0.2-0.2-0.5-0.2-0.7-0.2c-1.2,0.3-2.4,0.6-3.1,1.7c-1.9,2.7-4.2,5.1-5.9,8
	c-2,3.3-3.9,6.6-6.2,9.7c-0.4,0.6-0.6,0.7-1,0c-2.5-4.4-5-8.7-7.5-13.1c-0.8-1.4-1.6-2.7-2.6-4c-1.1-1.4-2.4-2.1-4.2-1.9
	c-0.3,0-0.7-0.1-0.8,0.4c-0.3,1.3-0.8,2.6-0.7,3.9c0.4,3.2,1,6.4,1.7,9.5c1.4,5.4,2.9,10.7,4.5,16c1.5,5.2,3.3,10.3,5,15.5
	c0.1,0.5,0.4,0.8-0.2,1.2c-0.8,0.4-2.1,0.7-2.2,1.5c-0.1,0.8,0.6,1.8,0.9,2.6c0,0.1,0.1,0.1,0.1,0.2c0.3,0.7,0.4,1.7,0.9,1.9
	c0.7,0.3,1.3-0.6,1.9-1c0.6-0.3,0.8-0.3,1,0.3c1.5,3.4,3,6.8,4.4,10.3c0.2,0.5,0.3,1.1,0.1,1.6c-1,2.7-1.7,5.6-2.2,8.4
	c-0.1,0.8-0.4,0.8-1.1,0.6c-3.3-0.8-6.5-1.7-9.8-2.5c-1.4-0.4-1.4-0.4-1.6,1.1c0,0,0,0.1,0,0.1c-0.7,7.8-1.4,15.6-2.1,23.4
	c-0.1,0.7,0,1,0.8,1.1c2.3,0.3,4.5,0.6,6.8,1c0.4,0.1,0.8,0.1,0.7,0.7c-0.5,2.6-0.9,5.3-1.5,7.9c-0.2,0.8-0.1,1.3,0.4,1.9
	c0.8,1,1.5,2.1,2.3,3.1c0.5,0.7,0.9,1.7,0.5,2.4c-0.3,0.5-0.4,0.9-0.4,1.4c0.1,4.9,0.1,9.7,0.3,14.6c0.1,2.4,0.1,4.7,0.1,7.1
	c0.1,6.3,0.5,12.5,0.7,18.8c0.1,3.1-0.4,6.1-0.3,9.2c0,0.8,0.2,1.2,1,1.4c1.9,0.6,3.7,1.4,5.5,1.9c1,0.3,1.7,0.9,2.2,1.8
	c0.4,0.8,0.5,1.7,0.5,2.6c0,0.8,0.3,1.4,1,1.8c2.9,2.1,5.8,4.2,8.7,6.4c7.6,5.6,15.2,11.3,22.9,16.9c0.7,0.5,0.9,1,0.5,1.7
	c-0.4,0.7-0.6,1.6-1,2.3c-0.3,0.7-0.3,1.1,0.4,1.6c1,0.7,1.9,1.4,2.8,2.2c0.8,0.6,0.8,1.7,0.6,2.4c-0.2,0.6-1,0.1-1.5,0
	c-0.4,0-0.7-0.1-1.1-0.2c-3.6-0.6-7.2-1.5-10.9-1.8c-5.9-0.5-11.8-1-17.7-0.8c-0.3,0-0.8-0.3-0.9,0.3c-0.1,0.5-0.2,1,0.4,1.4
	c0.3,0.2,0.6,0.3,0.9,0.4c3.3,1.2,6.4,2.8,9.5,4.6c2,1.1,3.9,2.4,6.1,3.1c0.4,0.1,0.8,0.5,1.3,0c-3.3-2.6-6.5-5.2-9.8-7.8
	c0.5-0.3,0.8-0.2,1.2-0.2c3.9,0.3,7.8,0.8,11.6,1.7c8.4,2,16.7,4.2,24.9,6.7c2.7,0.8,5.6,1.2,8,2.8c0.6,0.4,0.9,0.8,0.9,1.5
	c0.1,0.2,0.3,0.4,0.1,0.5c-0.2,0.1-0.4-0.1-0.6-0.3c-1.9-0.2-3.8-0.3-5.7-0.5c-5.4-0.5-10.8-1.3-16.3-1.1c-4.1,0.1-8.2-0.2-12.3,0.1
	c-5.8,0.4-11.6,1.2-17.4,1.8c-0.3,0-0.7,0-0.7,0.3c0,0.4,0.2,0.9,0.7,1c0.4,0.1,0.9,0.1,1.3,0.1c2.9,0.1,5.8,0.1,8.7,0.1
	c7.3,0.2,14.5-0.1,21.8,0.5c2.6,0.2,5.3,0.1,7.8,0.6c12.1,2.2,24.1,4.6,36.1,7.2c1.4,0.3,2.8,0.5,4.2,1.2c-0.6,0.6-1.5,0.8-1.9,1.6
	c-2.6,5.9-4.2,12.2-6.2,18.3c-0.3,1,0.4,2.2,1.4,2.5c1.9,0.5,3.8-0.6,4.1-2.6c0.2-1.3,0.5-2.5,0.6-3.8c0.1-0.4,0.2-0.6,0.6-0.8
	c1.5-0.6,3.1-1.3,4.6-1.9c2.3-0.9,4.4-2.1,6.2-3.8c1.6-1.5,2.9-3.2,2.9-5.5c0-0.7,0.2-1.2,0.7-1.6c2.6-2,4.9-4.3,7.1-6.6
	c2.2-2.3,4.6-4.3,7-6.2c0.3-0.2,0.5-0.6,1-0.4c2.1,0.8,4.2,1.7,6.6,2.6c-4.4,2.7-8.5,5.2-12.7,7.7c-0.2,0.1-0.4,0.2-0.6,0.2
	c-1.5,0.4-2.8,1.3-4,2.4c-4.4,4.4-6.6,9.5-6.4,15.8c0.2,4.2,2.6,6.2,6.7,5.3c7.2-1.7,13.4-8.6,14.4-16.1c0.3-2.1,0.6-4.2-0.9-6
	c-0.6-0.8-1.3-1.5-2.1-2.3c0.2-0.1,0.3-0.2,0.5-0.3c9.1-5.4,19-9.1,29-12.5c12.2-4.2,24.6-7.5,37.1-10.7c-0.3-0.1-0.6-0.1-0.9-0.2
	c-0.8,0.1-1.6,0.2-2.4,0.2c-3.4,0.3-6.9,0.7-10.2,1.6c-0.1,0-0.1,0.1-0.2,0.1c-0.3,0.1-0.7,0.2-1.1,0.2c-0.2,0-0.3,0-0.6,0
	c0.8-0.7,1-1.8,1.8-2.1c0.1,0,0.1,0,0.1-0.1c0,0,0.1,0,0.1,0c0.2-0.1,0.5-0.1,0.8,0c0.1-0.6,0.2-0.8,0.8-0.7l0-0.1c0,0,0,0,0,0h0
	c0-0.1,0.1-0.1,0.2-0.2v0c0.2-0.3,0.5-0.6,0.9-0.6c0.6-0.9,1.4-1.6,2.3-2.2c0.6-0.4,1.2-0.7,1.9-1h0c1.9,0,3.7-2.3,5.7-3.1
	c0-0.1-0.1-0.1-0.2-0.2c-2.8,0.4-5.6,0.8-8.3,1.9c-5.8,2.1-11.7,3.8-17.4,6.3c-8.7,3.8-17.4,7.6-25.7,12.1c-0.3,0.1-0.5,0.3-0.9,0.4
	c-0.2-2-0.4-4-0.6-5.9c-0.1-0.4,0.1-0.6,0.5-0.7c7.4-3.9,14.8-7.8,22.6-11c6.4-2.6,12.7-5.5,19-8.1c0-0.1,0.1-0.1,0.1-0.1
	c0,0,0,0,0.1,0c0,0,0,0,0.1,0c0.1,0.1,0,0.2-0.1,0.3c0,0-0.1,0-0.1,0.1h0c-1.7,2.4-3.2,5-4.4,7.7c0.4,0.1,0.6,0,0.8-0.2
	c1.3-1.4,2.6-2.8,3.9-4.2c2.5-2.8,5.1-5.4,8.2-7.5c0.2-0.1,0.5-0.3,0.4-0.6c-0.2-0.3-0.5-0.2-0.8-0.1c-2.9,0.6-5.8,1.1-8.7,1.8
	c-1,0.2-0.9-0.1-0.9-0.8c0-2.3,0.3-4.6,0.4-6.9c0-1,0.3-2,0.7-2.9c1.2-2.6,2.3-5.3,3.5-7.9c0.6-1.3,0.9-2.7,1.2-4.1
	c0.4-2.2,0.6-4.5,0.9-6.8c0.4-3.5,1.6-6.8,2.2-10.2c0.8-4.4,1.4-8.8,3-13c1.5-3.7,2.9-7.4,4.4-11.1c2.1-5,4.7-9.8,5.9-15.1
	c0.4-1.9,0.9-3.5,0.1-5.4c-0.5-1-0.6-2.1-1-3.2c-0.3-0.8-0.3-1.6-0.1-2.4c0.6-2.9,0.8-5.7-0.7-8.4c-0.4-0.7,0.1-1.2,0.5-1.6
	c1-1.1,1.1-1.5,0.2-2.7c-1-1.3-2.1-2.6-3.2-3.8c-0.9-1-1.8-2.1-2.7-3.1C240.6,107.5,240.7,107.3,241.4,107z M165.7,275.6
	c-1.1,0.9-2.4,1.5-3.8,1.6c-1.7,0.1-3.1-1-2.9-2.7c0.3-3.8,1.4-7.3,3.9-10.3c1.5-1.8,3.8-2.2,6-1.4c1.3,0.5,1.8,1.2,1.7,3.1
	C170.2,269.4,168.8,272.9,165.7,275.6z M203.4,81.2c-0.3-0.8-0.6-1.2-1.5-1c-1,0.3-1.6-0.2-2.1-1.1c-0.7-1.5-1.3-3.3-2.5-4.2
	c-1.2-0.9-3.1-1-4.7-1.4c-1.2-0.3-2.4-0.7-3.7-0.9c-2.7-0.5-5-1.6-7.2-3.2c-3.5-2.6-7.2-5-10.9-7.3c-1.2-0.1-2.4-0.4-3.5-0.7
	c-3.3-0.7-6.5-1.4-9.8-2c-0.8-0.1-0.9-0.7-1-1.3c-0.1-0.6,0.1-1.3,0.8-1.7c1-0.6,2.2-0.7,3.4-0.9c5.2-0.8,10.5-1.4,15.8-1.5
	c1.3,0,2.4,0.5,3.7,0.8c0.7,0.2,1.3,0.1,1.9-0.3c2.5-1.7,5.1-3.3,7.6-5c0.4-0.3,1.1-0.4,0.8-1.1c-0.1-0.1-0.1-0.2-0.2-0.3
	c-0.1-0.1-0.3-0.1-0.5-0.1c-0.2,0-0.4,0-0.6,0c0,0-0.1,0-0.1,0c-2.9-0.1-5.4,0.8-7.8,2.3c-0.9,0.6-3,0.2-3.6-0.6
	c-4-6-9.6-10.4-15-15.1c-2.4-2.1-4.7-4.2-7.3-6.2c-0.6-0.5-0.9-1.7-0.5-2.3c0.6-0.8,1.3-0.5,2-0.2c2.2,1,4.2,2.1,6.2,3.4
	c6.6,4.7,13.7,8.7,20.8,12.7c0.2,0.1,0.4,0.2,0.6,0.3c1.1,0.4,1.6-0.1,1.5-1.2c-0.1-0.6-0.3-1.1-0.7-1.6
	c-5.7-6.7-11.7-13.2-17.6-19.7c-1.2-1.3-2.7-2.5-4.1-3.7c-1.1-0.9-2-2-2.6-3.3c-0.4-0.8-0.3-1.5,0.3-2.2c0.5-0.5,0.9-0.6,1.6-0.3
	c2,1,3.9,2.1,5.7,3.4c3.1,2.4,6.3,4.7,9.4,7.1c3.1,2.4,6.3,4.7,9.4,7.1c0.3,0.2,0.5,0.4,0.7,0.6c0.6,0.5,1.1,1.1,1.7,1.7
	c0.1,0.1,0.2,0.2,0.3,0.3c0.2,0.2,0.4,0.5,0.7,0.7c0.6,0.4,1.3,0.7,2,0.1c0.2-0.2,0.3-0.4,0.4-0.6c0-0.1,0-0.2,0-0.3
	c0,0,0-0.1,0-0.1c-0.1-0.3-0.3-0.6-0.5-0.8c-0.7-0.7-1.4-1.5-2.1-2.2c-1.2-1.2-2.4-2.4-3.7-3.5c-4.1-3.4-8.3-6.7-12.5-9.9
	c-2.1-1.6-4.6-2.7-7-4.1c-0.8-0.5-1.4-1.2-2-1.9c-0.4-0.5-0.5-1.1-0.3-1.8c0.3-0.6,0.9-0.6,1.4-0.6c0.8-0.1,1.6,0.2,2.3,0.6
	c5.4,2.7,10.8,5.5,15.9,8.6c0.4,0.3,0.8,0.5,1.3,0.8c2.9,1.9,5.7,4,8.4,6.1c1.3,1,2.2,2.5,3.3,3.9c0.5,0.6,0.1,1.1-0.3,1.5
	c-0.3,0.3-0.7,0.4-1,0.6c-0.4,0.3-0.8,0.5-0.7,1c0.1,0.5,0.6,0.6,1.1,0.7c0.6,0.1,1.3,0.1,1.9-0.2c2-0.8,3.6,0.6,4.9,1.9
	c0.3,0.4,0.5,1.1,1.1,0.9c0.6-0.3,0.7-1,0.7-1.6c-0.1-1.8-0.6-3.5-1-5.2c-1-4.4-3.2-8.4-4.9-12.6c-0.6-1.5-1.3-3-1.9-4.5
	c-0.3-0.8,0.1-1.5,0.6-2.1c0.4-0.5,1-0.1,1.4,0.2c1.8,0.8,2.8,2.2,3.7,3.9c0.9,1.8,2.1,3.4,3.1,5.1c1.7,3,3.8,5.8,5.1,8.9
	c2,4.6,4.5,8.9,5.7,13.8c1,4.3,2.4,8.6,3,13.1c0.2,1.7-0.1,3.3,0.1,4.9c0.4,3.3-0.1,6.4-1.4,9.3c-0.4,0.8-0.3,1.6,0.1,2.4
	c3,6.2,5.4,12.7,7.8,19.2c0.3,0.8,0.2,1.2-0.7,1.4c-5.7,1.7-11.3,3.4-17,5.1c-0.8,0.3-1.1,0-1.3-0.7C206.1,88.7,204.8,85,203.4,81.2
	z M200.2,143.4c0.1,0.2,0.4,0.4,0.2,0.7c-0.1,0.1-0.1,0.1-0.2,0.2c0,0,0,0,0,0.1c0.5,0.8-14-5.9-13.5-5.2l1.4,1.1
	c0.3,0.1,0.5,0.3,0.7,0.4c1.8,1,3.5,2.1,5.1,3.4l3.1,2.4c4.7,3.4,7.6,8.1,9,13.7c0,0.2,0.1,0.3,0.1,0.5l0.1,0.2
	c0.2,0.3,0.3,0.8,0.2,1.1c0,0.1,0,0.2,0.1,0.3c-0.1,0.8-0.7,0.5-1.1,0.5c-2.4-0.1-4.8-0.6-7.1-1.3c-2.1-0.4-3.8-0.8-4.2-1
	c-5.2-2-9.7-3.9-14.2-7.1c-4.4-3.2-10.4-6.8-12.4-12c-1-2.7-0.4-4.5-0.3-7.3c0.1-2.9-0.6-4.7,2-4.2c1,0.2,2.2,0.3,3.5,0.3
	c0.5,0,1-0.1,1.4-0.1c1.5,0,3,0.1,4.5,0.3c2.6,0.2,4.9,0.7,6.4,1.9c1.1,0.5,2.2,1.1,3.3,1.7c2.6,1.5,5.2,3.1,7.8,4.7
	c0.5,0.3,1,0.7,1.4,1.3C198.4,140.9,199.3,142.2,200.2,143.4z M166.4,117.7c0.6-1.3,2-1.5,3.5-1.7c1.2-0.1,2.1-0.8,5.2,0.6
	c3,0.9,6.1,1.7,9,3c0.5,0.2,1,0.4,1.3,0.9c1.9,1.4,3.6,2.9,5,4.8c2.2,2.9,4.4,5.8,6.5,9.1c-0.2-0.1-0.3-0.1-0.5-0.2
	c0.3,0.4,0.6,0.7,0.9,1c0.3,0.3-3.3-1.4-3.6-1.6c-3.8-2.4-8.5-5.3-12.3-5.9c-1.9-0.3-14.4,0.4-14.4-1.4c0-1.4,0-2.9-0.1-4.3
	C167.1,121.1,166.1,118.4,166.4,117.7z M164.9,142.4c0.1-0.4,0.4-0.5,0.6-0.1c0.1,0,0.2,0.1,0.3,0.3c0.9,1.8,2.1,3.3,3.5,4.7
	c1.5,1.4,3,2.7,4.6,4.1c3.1,2.8,6.4,5.6,9.6,8.4c2.1,1.8,4.6,2.7,7.3,3.4c6.1,1.5,12.3,2.1,18.4,3c1.6,0.2,3.1,0.8,4.4,1.8
	c0,0-0.1,0-0.1,0c0.1,0.1,0.2,0.1,0.3,0.2c-3.5-0.5-6.9-0.5-10.4-0.5c-3.8-0.1-7.5,0.4-11.2,0.8c-1.3,0.1-2.6,0-3.9-0.3
	c-3.6-0.8-7-2.3-10.4-3.7c-3.9-1.6-7.1-4.1-10.1-6.9c-0.2-0.2-0.5-0.4-0.7-0.6c-3.3-3.3-4.1-7.3-2.9-11.9
	C164.4,144,164.7,143.1,164.9,142.4z M195.7,191.9c-0.2,0-0.3,0-0.5,0c-0.1,0-0.1,0-0.2,0c-0.5,0-0.9,0.1-1.4,0.1
	c-0.5,0-0.8,0.2-1,0.7c-0.2,0.5-0.5,0.8-0.7,1.3c0,0.1-0.1,0.1-0.1,0.2c-0.9,2.2-2.2,4-3.7,5.6c-0.3,0.4-0.7,0.7-1.1,1
	c-0.9,0.8-1.9,1.6-2.9,2.4c-1.7,1.2-3.6,1.9-5.5,2.6c-0.1,0.1-0.3,0.1-0.4,0.2c-0.1,0.1-0.3,0.1-0.4,0.2c-0.1,0-0.1,0.1-0.2,0.1
	c-0.1,0-0.3,0.1-0.4,0.1c-0.4,0.2-0.8,0.4-0.5,1.1c0.2,0.7,0.7,0.9,1.4,0.9c0.1,0,0.3,0,0.5,0c0.6-0.1,1.2-0.2,1.7-0.4
	s1.1-0.5,1.7-0.7c0.4-0.2,0.8-0.3,1.2-0.5c-0.3,1.4-0.5,2.8-1,4c-0.1,0.2-0.2,0.4-0.3,0.6c-0.3,0.8-0.7,1.5-1,2.2
	c-0.2,0.5-0.5,1-0.7,1.5c-1.3,2.7-2.9,5.3-4.8,7.7c-0.4,0.5-0.8,1-1.2,1.4c-0.9,1-1.9,1.8-3,2.6c-0.4,0.3-0.8,0.6-1.2,0.8
	c-0.8,0.5-1.6,1-2.4,1.4c-0.7,0.4-1.3,0.7-2,1c-0.3,0.1-0.5,0.2-0.8,0.3c-0.2,0.1-0.4,0.2-0.6,0.3c-0.2,0.1-0.3,0.1-0.5,0.2
	c-0.5,0.2-1,0.4-1.4,0.5c-0.1,0.1-0.3,0.1-0.5,0.1c-0.5,0.2-1,0.3-1.5,0.5c-1.6,0.5-3.2,0.9-4.8,1.2c-0.6,0.1-1.3,0.3-1.9,0.4
	c-0.1,0-0.1,0-0.2,0c-0.6,0.1-1.3,0.2-1.9,0.3c-0.7,0.1-1.4,0.2-2.1,0.3c-2.3,0.3-4.6,0.1-6.8-0.2c-0.1,0-0.2,0-0.3-0.1
	c-0.1,0-0.2-0.1-0.3-0.1c-0.6-0.2-1.1-0.4-1.7-0.7c-0.7-0.4-1.4-0.8-2.1-1.2c-0.5-0.3-1-0.5-1.5-0.8c-0.6-0.4-1.3-0.8-1.9-1.2
	c-1.2-0.8-2.2-1.8-2.7-3.3c-0.3-0.8-0.7-1.5-1.1-2.3c-0.1-0.2-0.3-0.4-0.4-0.6c-0.9-1.5-2.1-3-3.2-4.3c-0.5-0.6-1-1.1-1.5-1.7
	c-0.3-0.3-0.5-0.6-0.7-0.8c-1-1.1-2-2.2-3-3.2c-0.3-0.3-0.5-0.5-0.8-0.8c-1.1-1-2.2-2-3.4-2.9c-0.3-0.2-0.6-0.4-0.9-0.6
	c-0.9-0.6-1.9-1.3-2.8-1.8c-0.3-0.1-0.5-0.3-0.7-0.4c-0.2-0.1-0.5-0.3-0.7-0.5c-3.2-2.1-5.8-4.9-7.3-8.7c-0.5-1.3-2.3-1-3.7-1
	l-1.9-1.2c-0.6-0.2-1.1-0.6-1.5-1l-1.7-1.1c-2.1-3.2-3.3-6.6-4.7-10.2c-0.4-0.9-0.6-1.6-0.6-2.2c0-0.2,0-0.4,0-0.6
	c0-0.1,0.1-0.3,0.1-0.4c0-0.1,0-0.1,0.1-0.2c0-0.1,0.1-0.2,0.1-0.3c0.3-0.6,0.8-1.1,1.5-1.7c0.3-0.2,0.5-0.4,0.8-0.6
	c0.5-0.4,1.1-0.7,1.6-1.1c0.8-0.5,1.7-1,2.6-1.4c3.2-1.6,6.6-2.8,10-3.7c0.2-0.1,0.4-0.1,0.6-0.1c0.4-0.1,0.8-0.1,1.2-0.2
	c0.4,0,0.8-0.1,1.2-0.1c0.4,0,0.8,0,1.2,0c0.2,0,0.4,0,0.6,0c1.4-0.1,2.8-0.1,4.2-0.2c2.1-0.1,4.2-0.3,6.3-0.5
	c2.1-0.2,4.2-0.4,6.3-0.6c3.8-0.4,7.5-1.3,11-2.8c0.7-0.3,1.5-0.6,2.2-1c0.4-0.2,0.9-0.4,1.3-0.6c0.3-0.1,0.5-0.3,0.7-0.4
	c1.7-0.9,3.4-1.8,5-2.7c0.2-0.2,0.4-0.3,0.6-0.4c0,0,0.1,0,0.1,0c0,0.1,0,0.1,0,0.1c0,0.2-0.1,0.3-0.2,0.4c-0.1,0.1-0.2,0.1-0.3,0.2
	c-1.6,2.1-3.9,3.5-5.8,5.3c-0.2,0.2-0.4,0.3-0.6,0.5c-0.6,0.5-1.2,1-1.9,1.6c2.4,0,4.8-0.3,7-0.9c3.2-0.9,6.1-2.6,8.6-5.1
	c0.6-0.6,1.1-1.2,1.6-1.9c1.2-1.6,2.3-3.5,3.3-5.7c0.8,2.7,2.7,4.6,4.4,6.7c0.1,0.1,0.2,0.3,0.3,0.4s0.2,0.3,0.3,0.5
	c0.2,0.3,0.4,0.5,0.7,0.7c0.2,0.1,0.4,0.3,0.5,0.4c0.2,0.1,0.4,0.3,0.5,0.4c0.1,0.1,0.2,0.1,0.3,0.2c1.2,1,2.5,1.9,3.7,2.8
	c0.8,0.6,1.7,1.2,2.6,1.8c1.3,0.9,2.6,1.8,3.9,2.7c1.7,1.2,3.6,2.2,5.5,3.1c0.5,0.2,1,0.4,1.4,0.6c1.5,0.6,2.9,1.2,4.4,1.6
	c0.1,0,0.2,0.1,0.3,0.1c0.9,0.3,1.9,0.3,2.9,0.5c0.4,0,0.7,0.1,1.1,0.1c0.2,0,0.5,0.1,0.7,0.3c0.3,0.1,0.5,0.4,0.8,0.6
	c0.9,0.8,1.7,1.9,1.7,2.6c0,0.1,0,0.2,0,0.3c0,0.1,0,0.1-0.1,0.1c-0.1,0.2-0.3,0.4-0.4,0.6c-0.3,0.6-0.7,1.2-1,1.8
	c-0.1,0.1-0.1,0.2-0.1,0.3c-0.4,0.9-0.5,1.9,0,3.1c1.4-1.3,2.6-2.8,3.4-4.4c0.3-0.4,0.5-0.9,0.6-1.4c0.1-0.3,0.3-0.6,0.4-1
	c0.1-0.3,0-0.7,0.1-1c0.1-0.3-0.3-0.8-0.1-1c0,0,0,0,0.1-0.1s0.1-0.1,0.2-0.1c0.1,0,0.2-0.1,0.3-0.1c0.2,0,0.4-0.1,0.6-0.1
	c0.6,0,1.1,0.1,1.6,0.3c0.3,0.1,0.2,0.5,0.2,0.8c0,0,0,0.1,0,0.1c-0.1,1-0.5,1.9-0.8,2.8c-0.1,0.2-0.2,0.4-0.3,0.6
	c-0.6,1.5-1.3,3.1-2.2,4.4C199.8,190.1,198.2,191.8,195.7,191.9z M198.7,197.1c-0.4,2-0.7,3.9-1,5.9c-0.1,0.6-0.1,1.2-0.6,1.9
	c0-0.2-0.1-0.3-0.1-0.5c0,0.1-0.1,0.2-0.1,0.3c-0.5-2.9-0.8-5.6-0.9-8.3c0-0.6,0.4-0.8,0.8-0.9c0.6-0.2,1.5-1,1.9-0.6
	c0.1,0.1,0.1,0.1,0.1,0.2c0,0,0.1,0,0.1,0.1C199.5,195.6,198.9,196.5,198.7,197.1z M157.1,238.9c-1.1,0.2-2.1,0.3-3.2,0.3
	c-1.1,0-2.2-0.1-3.3-0.4c-0.6-0.1-0.8-0.5-0.8-1c0-0.3,0.3-0.3,0.5-0.3c0.1,0,0.3,0,0.5,0c0.3,0,0.6,0,1,0c0.4,0,0.8,0,1.2,0
	c0.3,0,0.6,0,1,0c0.9,0,1.9-0.1,2.8-0.3c0.2,0,0.3-0.1,0.5,0c0.4,0,0.6,0.1,0.7,0.6C157.8,238.3,157.9,238.8,157.1,238.9z
	 M104.4,213.6c0.6-2.4,0.4-4.8,0.7-7.2c0.1-0.5,0.3-0.4,0.6-0.2c0.5,0.5,1,1,1.5,1.5c0,0,0,0,0.1,0.1c0.1,0.1,0.1,0.1,0.2,0.2
	c0.2,0.2,0.3,0.4,0.1,0.7c-0.9,1.8-1.7,3.5-2.6,5.3c-0.1,0-0.2-0.1-0.3-0.1c0-0.1,0-0.1,0-0.1C104.6,213.6,104.5,213.6,104.4,213.6z
	 M195.2,174.7c-1-0.1-2-0.3-3-0.3c-2,0.1-3.6-1-5.3-1.9c0.1,0,0.1,0,0.2,0c-0.1-0.1-0.3-0.1-0.4-0.2c0.3,0,0.6,0,0.9,0.1
	c0.3,0,0.6,0.1,1,0.2c2.8,0.6,5.5-0.2,8.2-0.5c2.8-0.3,5.3,0.7,7.7,2.1c-0.1,0-0.1,0-0.1,0c0.1,0.1,0.2,0.1,0.4,0.2
	C201.6,174.8,198.4,175,195.2,174.7z M89.9,138.7c0.9-1.8,2-3.5,3.1-5.1c0.6-0.8,1.1-1.6,1.7-2.4c0.3-0.4,0.6-0.8,0.9-1.2
	c0.9-1.2,1.8-2.3,2.8-3.5c1-1.1,1.9-2.2,2.9-3.4s2-2.2,2.9-3.3c0.4-0.4,0.9-0.8,1.4-1.2l2.9-3.4v0c3.4-3.3,8.1-6.4,12.7-8.2
	c0.1-0.1,0.2-0.1,0.3-0.1c0.7-0.3,1.3-0.5,2-0.8c0.5-0.1,0.9-0.3,1.4-0.4c1.6-0.5,3.3-0.9,4.9-1.4c3-1,6.1-1.4,9.2-1.4
	c0.5,0,0.9,0,1.3,0c2.3,0.1,4.6,1,6.7,1.9c0.9,0.4,1.9,0.8,2.8,1.3c0.2,0.1,0.5,0.2,0.7,0.3c0.7,0.3,1.4,0.7,2,1.1
	c0.5,0.3,0.9,0.5,1.3,0.8c0.4,0.3,0.9,0.5,1.3,0.8c0.8,0.6,1.7,1.2,2.4,1.9c2.6,2.4,4.4,5.1,5.4,8.4c0.8,2.4,1.3,4.8,1.5,7.2
	c0.2,2.4-0.5,4.7-1.1,6.9c-0.1,0.3-0.2,0.4-0.3,0.4c-0.1,0.1-0.2,0.2-0.3,0.2c-0.5-0.1-1.7-1.9-2-2.2c-3.2-3.7-6.7-6.8-11.4-8.4
	c-5-1.8-10.7-2.7-16-2.3c-2.7,0.2-5.4,0.8-8.1,1.2c-2.6,0.5-5.3,0.7-7.8,1.5c-0.8,0.3-1.7,0.6-2.5,0.9c-0.8,0.3-1.5,0.7-2.3,1
	c-3.1,1.3-6.2,3-9,4.8c-2.2,1.4-4.1,2.8-6,4.5c-0.3,0.3-0.5,0.5-0.8,0.8c-1.8,1.7-3.5,3.5-5.4,5c-0.9,1.2-2.1,2.1-3.2,3.1
	C88.5,142.3,89,140.4,89.9,138.7z M88.9,149.8c0.1-0.2,0.3-0.4,0.5-0.6c3.9-3.9,7.7-7.9,12-11.3c7.2-5.6,15-10,24.1-12
	c2.2-0.5,4.4-0.8,6.7-0.8c2.6,0,5.2-0.1,7.7-0.2c5-0.2,9.5,1.2,13.7,3.8c1.7,1,3.2,2.3,4.6,3.7c1.4,1.4,2.7,3,3.8,4.8
	c0.9,1.5,0.7,3.2,0.4,4.8c-0.8,4.8-3.7,8.3-6.9,11.6c-3.1,3.1-7,5.2-10.6,7.6c-5.1,3.4-10.9,4.7-16.8,5.6
	c-7.4,1.1-14.9,1.2-22.3,2.2c-2.7,0.3-5.4,0.6-8.1,1c-3.2,0.6-6,2.2-8,4.8c-0.7,1-1.2,2.2-1.9,3.5c-0.1-0.1-0.1-0.3-0.1-0.4
	c0,0.1-0.1,0.1-0.1,0.2c-0.5-1.8-0.3-3.3,0.3-4.6c1.3-2.9,3.5-4.9,6.2-6.3c4.9-2.6,10.3-3.1,15.5-4.4c4.2-1.1,8.5-1.7,12.7-2.8
	c5.8-1.6,11.4-3.7,16.7-6.4c2.8-1.5,5.7-3,7.7-5.7c1.4-2,1.8-4.2,1.4-6.5c0-0.2-0.1-0.3-0.1-0.4c-0.1,0-0.3,0.1-0.6,0.3
	c-2.1,1.9-4.3,3.7-6.7,5.3c-3.7,2.4-7.9,3.9-12.2,4.9c-6.8,1.7-13.7,3.1-20.7,3.6c-5,0.3-9.8,1.2-14.5,2.8c-4,1.4-8,2.8-11.2,5.7
	c-0.4,0.4-0.9,0.7-1.5,1.2c0-0.2,0.1-0.3,0.1-0.5c-0.1,0.1-0.2,0.1-0.3,0.2c0.2-1.2,0.6-2,1.1-2.8C83.9,157.8,86.4,153.8,88.9,149.8
	z M124.4,156.2c-1.3,0.7-2.6,1-4,1.3c-6.6,1.6-13.2,2.6-19.9,3.8c-4.8,0.9-9.1,2.8-12.9,5.7c-0.2,0.2-0.5,0.4-0.7,0.5
	c-0.3,0.2-0.5,0.1-0.5-0.1c-0.2,0-0.2-0.1-0.3-0.4c-0.1-1.7,0.4-2.5,1.9-3.2c2.1-1,4.2-2,6.3-3c2.8-1.3,5.7-1.7,8.7-2
	c4.6-0.5,9.3-1.1,13.9-1.6l7.2-1.2c-0.3,0.1-0.6,0.3-0.8,0.4L124.4,156.2z M92.9,47.4c0.1,0.3,0.1,0.6-0.2,0.8c-1,0.6-2,1.2-3,1.9
	c-0.1,0.1-0.2,0.1-0.5,0.2c-0.1-0.1-0.2-0.4-0.4-0.6c-2.1-2.4-4.2-4.8-6.3-7.3c-0.3-0.3-0.6-0.6,0-1c2.1-1.2,3.7-3.1,5.9-4.1
	c0.6-0.3,0.8-0.3,1,0.3C90.8,40.8,91.8,44.2,92.9,47.4z M75.8,32.6c3-1.1,5.9-2.3,8.9-3.5c4.3-1.7,8.2-4.1,12.2-6.2
	c0.4-0.2,0.8-0.5,1.2-0.7c0.4-0.2,0.7-0.7,1.2-0.4c0.6,0.3,0.4,0.9,0.4,1.6c0.1,0.7-0.3,1.3-1,1.9C94.6,29,90.4,32.6,86,36
	c-1.7,1.4-3.8,2-5.7,3.1c-0.4,0.2-0.6,0-0.8-0.3c-1.4-1.8-2.8-3.6-4.2-5.4C74.7,32.8,75.4,32.8,75.8,32.6z M50.3,71.1
	c-3.2-9.9-6.6-19.8-9.3-29.9c-0.6-2.3-0.9-4.8-1.3-7.2c-0.1-0.7,0.3-1.1,0.8-1.3c0.6-0.3,0.6,0.4,0.9,0.7c4.4,6.1,7.4,13,11,19.5
	c1.1,2,2.3,3.9,3.4,5.8c0.2,0.4,0.4,0.7,1,0.5c0.6-0.2,0.5-0.6,0.4-1.1c-0.5-2-1.5-3.9-2.2-5.8c-0.3-0.7-0.3-1.2,0-1.9
	c1.6-3.3,3.9-6.2,5.6-9.4c1.6-2.9,3.7-5.5,5.3-8.4c0.8-1.5,2.7-1.7,3.9-0.6c0.8,0.8,1.5,1.7,2.1,2.7c2,3.3,4.8,5.9,7.6,8.6
	c1.9,1.9,3.9,3.8,5.9,5.5c0.7,0.6,0.8,1.5,1.2,2.2c0.1,0.3,0,0.5-0.2,0.6C86.1,52,86,52,85.9,52.1c-1.7,1.4-3.2,1.2-5.2,0.2
	c-3.9-1.9-7.2-4.5-10.1-7.6c-0.1-0.1-0.2-0.2-0.3-0.3c-1.4-1-1.4-1-2,0.6c-0.6,1.6-1,3.2-1.7,4.7c-0.3,0.5,0.1,1.1,0.5,1.5
	c0.5,0.5,0.8,1.2,1.6,1c0.4-0.1,0.6-0.3,0.6-0.6c0.2-0.9,0.5-1.9,0.7-3c3.1,2.6,6.5,4.6,9.8,6.8c-1.2,0.7-2.2,1.3-3.3,1.9
	c-8.4,4.7-16.7,9.4-25.1,14.1C50.8,71.9,50.6,72,50.3,71.1z M53.2,77.6c-0.3-0.6-0.2-0.9,0.4-1.3c10.1-6.2,20.2-12.5,30.3-18.8
	c0.5-0.3,1-0.1,1.5-0.3c1.8-0.4,3.5-0.9,5-1.9c0.1-0.1,0.3-0.1,0.4-0.3c1.1-2.5,3.6-3.3,5.7-4.3c4.8-2.2,9.7-4.2,13.9-7.4
	c1-0.8,2-0.5,2.8,0.1c0.7,0.5,1.2,1.5,0.9,2.6c-0.3,1.3-0.8,2.4-1.9,3.4c-4.1,3.8-7.3,8.1-10.3,12.8c-2.7,4.2-5.3,8.4-7.3,13
	c-0.4,0.9-1,1.7-1.7,2.4c-2.8,3.2-6.2,5.7-10,7.5c-0.8,0.4-1.2,1-1.3,1.9c-0.1,0.7-0.3,1.4-0.3,2.1c-0.1,1.8-0.7,3.3-2.2,4.5
	c-0.5,0.4-0.5,1-0.7,1.5c-1.1,3.6-2.1,7.1-3.2,10.7c0,0.1,0,0.2,0,0.2c0,0.2,0,0.4-0.2,0.5c-0.5,0.1-0.9,0-1.3-0.3
	c-5.2-1.2-10.4-2.5-15.6-3.9c-0.6-0.1-1.3-0.3-1.9-0.4c-1-0.1-1.1-0.6-0.6-1.4c0.7-3.3,1.5-6.6,3.5-9.3c0.4-0.6,0.4-1.1,0-1.8
	C56.7,85.5,55.1,81.5,53.2,77.6z M42.3,120.5c-0.2,0-0.3-0.1-0.4-0.1c-0.5-0.1-0.7-0.4-0.6-1.2c0.6-5.6,1.2-11.1,1.8-16.7
	c0-0.1,0-0.3,0.1-0.4c0-0.1,0.1-0.1,0.1-0.2c0.1-0.2,0.3-0.2,0.5-0.2c0.1,0,0.3,0,0.4,0.1c7.6,2,15.1,4,22.7,6s15.1,4,22.7,6
	c0.7,0.2,1,0.4,0.7,1.2l-3.3,10.7c-0.1,0.4-0.2,0.9-0.7,0.9c-0.1,0-0.1,0-0.2,0c-4-0.6-8.1-1.1-12.1-1.7c-2.6-0.4-5.3-0.7-7.9-1.1
	C58.1,122.7,50.2,121.6,42.3,120.5z M48.5,131.3c-0.1-0.4-0.1-0.8,0-1c0.1-0.2,0.1-0.3,0.2-0.5c0,0.1,0,0.1,0.1,0.2
	C48.8,130.4,48.7,130.8,48.5,131.3z M118,236.3L118,236.3c-0.3,0-0.3,0.2-0.5,0.3c-0.1,0.1-0.1,0.1-0.2,0.2
	c-0.1,0.1-0.3,0.2-0.5,0.3c-0.4,0.3-0.7,0.6-0.9,1c0,0.1,0,0.1,0,0.1c0,0.1,0,0.2,0,0.2h0.1v0.2c-0.3,0.8-0.4,1.4-0.6,1.8
	c0,0.1-0.1,0.2-0.1,0.3c0,0.1-0.1,0.1-0.1,0.2s-0.1,0.1-0.1,0.1c-0.1,0.1-0.2,0.1-0.3,0.1c0,0-0.1,0-0.1,0c-0.2,0-0.3-0.1-0.6-0.1
	c-0.4-0.1-0.9-0.3-1.6-0.6c-0.1,0-0.1,0-0.1-0.1s-0.1-0.1-0.1-0.1c-0.1-0.1-0.2-0.1-0.3-0.1c0,0-0.1,0-0.1,0c0,0,0,0,0,0V240h0
	c-0.8-0.3-1.6-0.5-2.4-0.8c-0.5-0.2-0.9-0.3-1.4-0.5c-0.6-0.1-1.2-0.4-1.8-0.4c-1.6-0.6-3.3-0.8-4.9-1.4c-0.1,0-0.2,0-0.5,0v0
	c-1.1-0.2-2-0.5-3.1-0.7c-1-0.2-1.4-0.7-1.3-1.7c0.1-0.4,0-0.9,0-1.3c0-0.1,0-0.2,0-0.5c-0.2-0.3-0.4-0.6-0.6-1
	c-0.1-0.1-0.1-0.2-0.2-0.3c-0.1-0.1-0.4-0.3-0.4-0.4c-0.3-0.1-0.2-0.1-0.3-0.2c-0.9-0.8-0.6-1.9-0.5-3c0-0.1,0-0.2,0-0.3
	c0-0.2,0.1-0.4,0.1-0.6c0-0.1,0-0.2,0.1-0.3c0.5-1.7,0.6-3.4-1.3-4.4c-0.2-0.1-0.4-0.3-0.6-0.5v0.1c-0.8-0.7-1.8-1.4-2.6-1.9
	c-0.1-0.3-0.2-0.3-0.5-0.5c-1.4-0.8-2.5-1.6-3.6-2.7c-0.3-0.2-0.6-0.3-0.9-0.5h0.1c-0.2-0.3-0.4-0.3-0.5-0.4
	c-0.2-0.2-0.4-0.3-0.7-0.5c-1.4-1.2-3.3-2.3-4.8-3.7c-0.5-0.2-0.9-0.6-1.3-0.9v-0.1c-1.5-1-3-2.1-4.4-3.2h0c-0.2,0-0.2-0.1-0.5-0.3
	c-0.8-0.4-1.7-1.1-2.4-1.7c-0.2-0.3-0.5-0.3-0.7-0.3c-0.7-0.6-1.3-0.8-1.8-1.3c-0.2-0.1-0.4-0.3-0.7-0.5c-1.7-1-3.3-2-4.6-3.4
	c-0.1-0.1-0.1-0.1-0.1-0.1c-0.1-0.1-0.2-0.2-0.3-0.3c-0.1-0.1-0.2-0.3-0.3-0.5c-0.1-0.1-0.1-0.3-0.1-0.4v0.2c-1-1.1-1.7-2.4-2.5-3.5
	c0-0.1-0.1-0.1-0.1-0.2c0-0.1-0.1-0.1-0.1-0.2c0-0.1,0-0.2,0-0.3c0-0.2,0.1-0.4,0.3-0.6c0-0.1,0-0.1,0-0.2c0.3-1.8,1.3-3.4,2-5.1
	c0-0.1,0-0.1,0-0.2v-0.2c0,0,0-0.3,0-0.4c0-0.1,0-0.1-0.1-0.2c0,0,0,0-0.1-0.1c-0.1-0.1-0.1-0.1-0.2-0.1c0,0-0.1,0-0.1,0
	c-0.2,0-0.4,0.1-0.7,0.3c-0.2,0.1-0.5,0.3-0.6,0.5c-0.1,0.1-0.1,0.1-0.2,0.2c-0.1,0.1-0.1,0.1-0.2,0.2c0,0-0.1,0.1-0.1,0.1
	c0,0,0,0,0,0c0,0,0,0,0,0s0,0.1,0,0c-0.6,0.6-1.4,1.2-2.1,1.8c-0.1,0.1-0.4,0.3-0.4,0.5v0h-0.1h0c-0.2,0.3-0.5,0.3-0.8,0.1
	c-1.2-0.5-2.4-1-3.6-1.6c-0.3-0.1-0.4-0.4-0.5-0.7c0-0.1-0.1-0.2-0.1-0.4c0-0.1-0.1-0.2-0.1-0.3v0.1c-0.4-2,0.3-3.4,0.6-5.1
	c0-0.1,0.1-0.3,0.1-0.4c0.3-1.6,0.4-3.4,0.9-5c0-0.2,0-0.5,0-0.7h0c-0.3-1.8-0.3-3.6-0.4-5.4c0-0.3,0-0.6,0-0.9
	c-0.2-3.3-0.4-6.7-0.5-10c-0.3-7-0.8-14-0.6-21c0-1.1-0.2-2.1-0.6-3c-0.1-0.2-0.2-0.5-0.3-0.7c-0.3-0.6-0.7-1.3-1.2-1.9
	c-0.6-0.9-0.8-1.7-0.6-2.8c0.4-1.6,0.7-3.3,1-5c0.1-0.8,0.4-1.2,1.3-0.9c0.3,0.1,0.7,0.1,1.1,0.1c1.5,0.3,3,0.4,4.5,0.7
	c0.1,0,0.2,0,0.4,0.1c1.3,0.1,2.8,0.3,4.2,0.6c0.1,0,0.3,0,0.5,0.1c1.7,0.2,3.4,0.4,5.1,0.7c0.4,0,0.7,0,1.1,0.2c0.1,0,0.1,0,0.1,0
	c2,0.2,3.5,0.4,5.2,0.6h-0.2v0.1c1.1,0.1,1.9,0.3,2.7,0.4c0.9,0.1,1.8,0.4,2.7,0.4h0c0.1,0,0.1,0,0.2,0c0.1,0,0.3,0.1,0.3,0.1
	c0.6,0,0.8,0.3,0.9,0.8c0.5,2.7,0.8,5.3,1.4,8c0,0.2,0.1,0.4,0.1,0.5c0.1,0.5,0.1,0.9,0.2,1.3c0.3,1.3,0.5,2.6,0.7,3.9
	c0,0.1,0,0.4,0,0.4c0,0,0,0.1,0,0.1c0.3,1.7,0.6,3.2,0.9,4.8c0,0.2,0,0.3,0,0.5c-0.5,0.6-1,1.2-1.5,1.9c-0.8,1.1-1.5,2.3-2,3.5
	c-0.4,0.9-0.8,1.8-1.2,2.6l-0.1,0c-0.3,0.9-0.7,1.8-1.2,2.6c0,0-0.1,0.1-0.1,0.1c-0.1,0.1-0.1,0.3-0.1,0.4v0c-0.5,1.3-1,2.5-1.6,3.7
	c-0.2,0.4-0.4,0.8-0.6,1.2c-0.1,0.2-0.3,0.5-0.3,0.6c-0.3,1.1-0.5,2.1-1.1,3.1c-0.2,0.9-0.4,1.8-0.9,2.6c-0.3,1.7-0.9,3.1-1.5,4.6
	c-0.1,0.2-0.2,0.4-0.2,0.6c0,0,0,0.1,0,0.1c0,0.1-0.1,0.2-0.1,0.3c0,0.1-0.1,0.3-0.1,0.4c0,0,0,0.1,0,0.1c-0.1,2.9-0.3,5.8-0.5,8.7
	c0.1,0,0.2,0.1,0.3,0.1c0.4-0.7,0.7-1.4,1.1-2.2c0.4-0.7,0.6-1.4,1-2.2c0.2-0.5,0.6-1,0.6-1.5c0.8-1.4,1.6-2.8,2.5-4.1
	c0.1-0.1,0.3-0.2,0.3-0.5c0.7-1.1,1.6-2.6,2.4-3.9c0.3-0.5,0.6-0.9,0.9-1.4h0c0.2-0.6,0.5-0.6,0.8-0.9s0.4-0.5,1-0.8
	c0,0.2,0.1,0.4,0,0.6c0,0,0,0.1,0,0.1c0,0.1-0.1,0.2-0.1,0.3c0,0,0,0.1,0,0.1c0,0.1,0,0.1-0.1,0.2c0,0.1,0,0.1,0,0.2s-0.1,0.1,0,0.2
	c0,0.1,0,0.1,0,0.2h0c-0.3,1.7-0.3,3.6-0.3,5.4c0,0.1-0.1,0.2-0.1,0.3l0.1,0c0.2,1.7,0.5,3.4,0.7,5.1h0c0,0,0.1,0.4,0.1,0.5
	c0.3,1.7,0.6,3.4,0.8,5.1c0,0.1,0,0.1,0,0.2c0,0.1,0.1,0.2,0.1,0.3c0.3,1.4,1.3,2.3,1.9,3.5c0.5,0.6,0.9,1.4,1.3,2h0v0
	c1.4,1.2,2.6,2.5,4.2,3.6c0.2,0,0.5,0.3,0.7,0.3h0v0.1c0.6,0.1,1,0.5,1.6,0.3c0.1,0,0.2-0.1,0.3-0.1c0.1-0.1,0.2-0.1,0.2-0.2
	c0.1-0.3-0.1-0.4-0.3-0.5c-2.3-1.5-1.9-3.9-2.2-6.1h0.1v0c0.6,0.5,1,1.1,1.4,1.6c0.1,0.1,0.2,0.2,0.3,0.3c0.2,0.2,0.4,0.4,0.6,0.6
	c0.4,0.4,0.8,0.8,1.3,1.2c0.4,0.4,0.9,0.8,1.5,1c0.2,0.1,0.5,0.3,0.6,0.3h-0.1c1.7,0.8,3.2,1.6,4.7,2.4c0.3,0.1,0.6,0.2,0.9,0.4
	c0.6,1.7,1.2,3.4,1.1,5.3c0.1,0,0.1,0.2,0.1,0.3c0,0.1,0,0.3,0,0.4c0.2,1.6,0.2,3.3,0,4.9c0.1,0.1,0.1,0.3,0,0.5c0,0.1,0,0.1,0,0.1
	h0c0,1.6,0,3.3-0.5,4.9c0,1.6-0.5,3.2-0.7,4.8c0,0.1,0,0.1-0.1,0.2c-0.1,0.3-0.2,0.7,0.5,0.6v0c1.5-1.6,3-3.1,4.4-4.9v0
	c0,0,0,0.1,0,0v0.1c0-0.6,0.4-0.8,0.7-1.1c0.6-0.6,1.2-1.5,1.8-2.3s1.2-1.6,1.8-2.4c0-0.1,0-0.1,0-0.1c0.1-0.3,0.2-0.5,0.3-0.5
	c0.1,0,0.1-0.1,0.2-0.1c0,0,0.1,0,0.1,0s0.1,0,0.1,0c0.2,0,0.4,0.1,0.6,0.2c0.3,0.2,0.6,0.4,0.9,0.6c1.7,0.9,3.6,1.5,4.9,3.2
	c0.1,0.1,0.3,0.2,0.5,0.4c0.6,0.3,1.1,0.9,1.5,1.5c0.1,0.1,0.3,0.3,0.5,0.4c0,0,0.1,0,0.1,0.1c2.2,1.9,2.4,2.9,0.8,5.4
	c-0.1,0.1-0.1,0.2-0.2,0.2c-0.1,0.3-0.2,0.5-0.3,0.6c-0.1,0.1-0.1,0.3-0.2,0.4c0,0.1-0.1,0.1-0.1,0.2c-0.4,0.7-0.9,1.4-1,2.2
	c-0.1,0.6-0.3,1.3-0.1,2c0.3,1.1,0.6,2.2,0.8,3.3c0.1,0.7,0.3,1.4,0.3,2.1C120.2,234.6,119.4,235.6,118,236.3z M125.5,250
	c-0.4,0.5-0.4,1.4-1,1.3c0,0,0,0-0.1,0c-0.1,0-0.1,0-0.2,0c-1.1-0.1-2.2-0.4-3.1-1c-0.3-0.2-0.3-0.6-0.3-1c0-1.8,0-3.5,0-5.3
	c0-0.4,0.1-0.8-0.2-1c-1.2-0.8-0.9-2.1-1.2-3.3c-0.1-0.5,0.2-0.7,0.5-1c1.1-1.2,2.2-2.4,3.3-3.6c0.7-0.8,1-1.7,0.5-2.6
	c-1-1.9-0.8-3.7,0-5.7c0.6-1.5,1.1-3.1,1.7-4.9c0.1,0.1,0.1,0.1,0.2,0.2c0-0.1,0.1-0.1,0.1-0.2c1.1,1.5,2.3,2.7,3.1,4.1l7.8,7.7
	c1.6,0.8,3,2,4.9,2.2c0.2,0,0.5,0,0.4,0.3c0,0.2-0.2,0.2-0.4,0.1c0,0-0.1,0-0.1,0c-0.1,0-0.1,0-0.2,0c-3.9,0.1-7.6,1.3-11.4,2.1
	c-0.4,0.1-0.6,0.3-0.5,0.7c0.1,0.5,0.2,0.7,0.8,0.8c1,0.2,2,0.3,3,0.3c1.4,0,2.8-0.2,4.1-0.4c1.5-0.3,3.1-0.4,4.6-0.4
	c1.5,0,3,0.1,4.5,0.3c-5,0.8-9.2,3.7-13.8,5.6c-2.4,1-4.2,2.9-6.4,4.1C125.7,249.5,125.7,249.8,125.5,250z M140,253.7
	C140,253.8,140,253.8,140,253.7c-0.1,0.1-0.1,0.1-0.1,0.1s-0.1,0-0.1,0c-0.1,0-0.1-0.1-0.1-0.1c-3.3-0.8-6.6-1.6-10.1-2.5
	c1.2-0.9,2-1.5,3.4-0.9c2.3,0.9,4.4,2.2,6.7,3.2c0.1,0,0.3,0,0.3,0.1C140,253.6,140,253.6,140,253.7C140,253.7,140,253.7,140,253.7z
	 M150,264.5c-0.5,0.9-1.4,1.5-2.2,2.2c-1.6,1.2-3.4,2.2-5.7,2.8c0.8-2.5,1.5-4.9,2.9-6.9c0.9-1.3,3.1-1.6,4.4-0.9
	C150.3,262.3,150.6,263.5,150,264.5z M163.1,249.5c-2.6,2.1-5.1,4.2-7.6,6.5c-0.6,0.6-1,0.6-1.7,0.2c-4.1-2.4-8.4-4.5-12.9-6.4
	c-1.9-0.8-4-1.2-6-1.9c0.2-0.4,0.6-0.4,1-0.5c4.3-1.6,8.7-3,12.9-4.9c1.1-0.5,2.2-0.1,3.3,0.1c1.6,0.2,3.2,0.3,4.6-0.5
	c0.3-0.1,0.5-0.3,0.8-0.1c3.3,1.4,6.5,2.7,9.9,4.1C165.9,247.3,164.5,248.4,163.1,249.5z M183.2,235.2c-1.3,1.7-1.6,3.7-0.9,5.7
	c0.8,2.4,0.2,4.1-2.1,5.3c-0.5,0.3-1,0.5-1.4,0.4c-0.3,0-0.6-0.1-1-0.3c-4.4-3-9.6-4-14.5-5.8c-0.7-0.3-1.4-0.5-2.1-0.7
	c-0.8-0.2-0.8-0.8-0.7-1.3c0.1-0.4,0.3-0.5,0.5-0.5c0.2-0.1,0.5,0.1,0.7,0.2c5.6,1.4,11.3,2.5,16.7,4.6c0.2,0.1,0.4,0.1,0.5,0.1
	c0.4-0.1,0.5-0.4,0.4-1c-0.1-1.3-0.2-2.5-1.7-3.2c-3.6-1.7-7.5-2.4-11.4-2.7c-0.6-0.1-1.2-0.1-1.7-0.1c2.8-1.7,5.8-2.6,8.4-4.8
	c0.3-0.3,0.6-0.5,0.9-0.8l4.7-5.7c0.2-0.3,0.4-0.6,0.6-0.9c0.1,0,0.1,0.1,0.1,0.1l0.1-0.1c0.5,0.3,0.5,0.6,0.6,0.9
	c1.2,2.9,2.3,5.8,3.5,8.7C183.6,234.2,183.6,234.7,183.2,235.2z M243.4,115.7c0.1,0.1,0.1,0.2,0.2,0.3c0,0.1,0,0.2,0,0.3
	c0,0.1-0.1,0.1-0.2,0.2c-0.1,0.1-0.1,0.1-0.1,0.2l0,0c0,0,0,0.1-0.1,0.1c0,0,0,0.1,0,0.1h0v0.1c-1.7,1.7-1.2,3.3,0.1,4.9
	c0.1,0.1,0.2,0.3,0.2,0.4c1.1,1.5,0.2,3,0,4.5c0,0.1-0.1,0.2-0.2,0.3c0,0-0.1,0-0.1,0c-0.1,0-0.2,0-0.3-0.1c0,0-0.1,0-0.1,0
	c-1-0.3-2-0.6-3-0.9c-0.1,0-0.1-0.1-0.2-0.1c-0.1,0-0.1-0.1-0.2-0.1c-0.4,0-1,0-1.4-0.2c-1.3-0.5-2.4-0.4-3.4,0.6
	c0,0.1,0,0.2-0.1,0.2c0.5,0.7,1.3,0.9,2,1.1c2.9,0.9,5.3,2.7,8,4.1c0.6,0.3,0.7,1.1,0.7,1.8c0,0.4-0.1,0.8-0.2,1.2
	c-0.3,1.2-0.6,2.4-0.8,3.6c0,0.3,0,0.6-0.2,0.9c0,2-1.4,3.4-2,5.1c-0.1,0.1-0.1,0.2-0.2,0.5c-0.4,1.1-1,2.4-1.5,3.5
	c0,0.1-0.1,0.2-0.1,0.3c0,0,0,0,0-0.1c0,0,0,0,0,0.1s0,0.1-0.1,0.1c0,0,0,0.1-0.1,0.1c-0.1,0.5-0.2,1.1-0.7,1.5
	c-0.5,1.8-1.3,3.4-2.2,5.1c-0.1,0.1-0.1,0.1-0.2,0.4c-0.7,1.7-1.5,3.7-2.2,5.6c-0.2,0.7-0.3,1.4-0.5,2c0,0.1-0.1,0.1-0.1,0.2
	c0,0,0,0,0,0.1c0,0.1-0.1,0.1-0.1,0.2c0,0.9-0.1,1.5-0.4,2.2c-0.1,0.5-0.3,1-0.4,1.4c0,0.1,0,0.1-0.1,0.2c-0.8,3.6-1.6,7.1-2.4,10.7
	c-0.6,2.9-0.9,5.9-1.4,8.8c-0.5,2.8-0.6,5.6-1.2,8.3c-0.5,2-1.6,3.8-2.5,5.6c-0.8,1.7-1.4,3.5-2.4,5.2c0,0.1-0.1,0.1-0.1,0.2
	c-0.1,0.1-0.1,0.3-0.1,0.4c0,0.1,0,0.1-0.1,0.2c0,0.1-0.1,0.3-0.1,0.4c0,0.1,0,0.3,0,0.4s0,0.3,0,0.4c0,0.1,0,0.3,0,0.4
	c0,0.3,0,0.6,0,0.8c-0.2,3-0.6,6-0.5,9.1c0,0.6-0.1,0.9-0.7,1.1c-0.2,0.1-0.4,0.2-0.7,0.3c-0.5,0.2-0.9,0.4-1.3,0.6
	c-0.2,0.1-0.5,0.2-0.7,0.3c-0.4,0.1-0.6,0.3-1.2,0.4c0,0,0,0,0-0.1c0,0-0.1,0.1-0.1,0.1c-0.5,0.2-1,0.5-1.5,0.6
	c-0.4,0.1-0.7,0.3-1.1,0.4c-0.8,0.5-1.6,0.8-2.5,1.1c-0.1,0.1-0.3,0.2-0.4,0.3c-1.8,0.8-3.6,1.6-5.3,2.4c0,0-0.2,0.1-0.2,0.1
	c-1,0.3-1.9,0.8-2.9,1.3c-1,0.5-2.1,0.9-3.1,1.3c-1.6,0.7-3.3,1.4-4.9,2.1c-0.1,0-0.1,0-0.2,0c-1.5,0.6-3,1.4-4.4,2
	c-0.6,0.3-1.4,0.6-2.1,0.9c-1.3,0.5-1.6,0.4-1.9-0.9c-0.8-0.6-0.9-1.7-1.2-2.5c-0.3-0.8-0.6-1.8-0.8-2.6c-0.1-0.3-0.2-0.2-0.2-0.4
	c-0.3-0.4-0.3-0.8-0.4-1.2c0-0.1,0-0.1,0-0.2c-0.1-0.1-0.1-0.1-0.1-0.2c0-0.1-0.1-0.1-0.1-0.2h0.1c-0.4-1.2-0.8-2.3-1.1-3.5
	c-0.3-0.8-0.8-1.5-0.9-2.4c-0.1-0.3-0.1-0.6,0-0.8c0-0.1,0.1-0.3,0.1-0.4c0-0.1,0-0.1,0.1-0.2c0.2-0.6,0.6-1.1,0.9-1.6
	c0.2-0.5,0.4-0.9,0.6-1.3c0.2-0.5,0.4-0.8,0.6-1.4c0.5-0.8,0.7-1.8,1.3-2.8c0-0.2,0.2-0.4,0.2-0.7c0.5-1.7,1.1-3.5,1.7-5.1
	c0-0.1-0.1-0.1,0-0.2c0.2-1,1.2-1.4,1.7-2v0c0.3-0.1,0.4-0.3,0.6-0.3c0.2-0.3,0.3-0.4,0.5-0.6c0.3-0.4,0.6-0.8,0.9-1.2
	c0.1-0.2,0.3-0.4,0.4-0.6c0.5-0.8,1-1.6,1.6-2.4c0.2-0.3,0.4-0.6,0.7-0.6c0.1,0,0.1,0,0.1,0c0.5,0.1,0.3,0.6,0.3,1
	c-0.3,1.3-0.2,2.6,0,3.8c0.1,1,0.3,2,0.4,3c0,0.1,0,0.3,0,0.4c0.3,0.7,0.4,1.5,0.4,2.2c0.2,1,0.4,1.9,0.7,2.8c0.8,1.7,1.5,3.5,2,5.3
	l0.1,0c1,1.4,1.9,3,2.9,4.6c0.3,0.4,0.6,0.8,0.9,1h0.1v0.2c0.3,0,0.4,0.6,0.8,0.1c-0.1-0.3-0.1-0.3-0.2-0.3
	c-0.1-0.3-0.3-0.6-0.4-0.9c-0.1-0.2-0.1-0.4-0.2-0.6c-0.1-0.2-0.1-0.4-0.1-0.6c0-0.1,0-0.2-0.1-0.3c0-0.2-0.1-0.4-0.1-0.6
	c-0.1-0.3-0.1-0.6-0.1-0.9c-0.1-0.3-0.1-0.6-0.1-0.9c-0.1-0.1-0.1-0.2-0.1-0.3c0-0.1-0.1-0.2-0.1-0.3c0-0.3-0.1-0.7-0.1-1
	c-0.1-0.7-0.2-1.3-0.3-2c0-0.3-0.1-0.7-0.2-1c-0.4-3.7-0.1-7.4,0.4-11h0.2c0.3-1.7,0.7-3.6,1-5.5c0.1,0,0.2,0,0.3,0
	c-0.1,3.1,0.2,6.1,0.9,9.1c0,0.1,0,0.1,0,0.2c0.4,1.2,0.9,2.3,1.2,3.5c0.1,0.3,0.2,0.5,0.3,0.7c0.1,0.2,0.2,0.5,0.3,0.7
	c0.1,0.1,0.2,0.3,0.3,0.4c0.1,0.1,0.3,0.3,0.3,0.4c0.3,0.2,0.4,0.5,0.6,0.7c0.2,0.2,0.3,0.4,0.5,0.6c0.6,0.6,1.2,1.1,1.9,1.8
	c-0.1-0.6-0.1-1.1-0.2-1.6c-0.1-0.5-0.1-1-0.2-1.6c0,0-0.1-0.1-0.1-0.1c0-0.4-0.1-0.8-0.1-1.3c-0.2-1.3-0.3-2.6-0.5-3.9
	c0-0.1,0-0.2,0-0.3c0-0.1,0-0.3,0-0.3c-0.2-1.7-0.3-3.2-0.2-4.9c0-0.1,0-0.1,0-0.2c-0.1-0.1-0.1-0.3-0.1-0.4
	c-0.2-1.3-0.1-2.6,0.1-3.9c0.1-0.4,0-0.8,0.1-1.2c0-0.1,0-0.1,0-0.2c0-1.9,0.1-3.7,0.6-5.5c0-0.1,0-0.2,0-0.2
	c0.1-0.8,0.3-1.9,0.4-2.8c0.1-0.9,0.3-1.9,0.4-2.8c0.1-0.4,0.2-0.6,0.4-0.6c0.1,0,0.3,0.1,0.5,0.2c0.2,0.1,0.4,0.3,0.6,0.4
	c0.3,0.2,0.6,0.4,0.9,0.6s0.6,0.4,0.8,0.6c0,0,0.1,0.1,0.1,0.1c0.1,0.1,0.2,0.1,0.2,0.1h0.1v0c2,1,3.1,2.6,4.4,4.2
	c0.3,0.2,0.4,0.3,0.6,0.6c0.3,0.3,0.5,0.8,0.7,1.2c0.9,1.2,1.5,2.4,2,3.8c0,0.1,0.1,0.3,0.1,0.4c0,0.1,0.1,0.1,0.1,0.3
	c0.2,0.3,0.4,0.6,0.5,1s0.3,0.7,0.4,1c0.1,0.2,0.1,0.3,0.2,0.5c0.1,0.1,0.1,0.2,0.2,0.3c0.1,0.1,0.3,0.2,0.5,0.3c0.3-1-0.4-2-0.1-3
	h0.1c0-0.3-0.1-0.3-0.1-0.4c-0.3-1.8-0.5-3.6-1.3-5.3c0-0.1,0-0.5,0-0.5c-0.7-1.7-1-3.4-2-4.9c-0.2-0.2-0.4-0.5-0.4-0.7
	c-0.3-0.3-0.5-0.6-0.6-1c-0.1-0.2-0.3-0.5-0.5-0.7c0,0,0,0.2,0,0.2c0,0-0.1-0.1-0.1-0.1c0,0,0,0,0,0c-0.8-1.2-1.7-2.2-2.6-3.3
	c0,0-0.1-0.1-0.1-0.1c-0.1-0.1-0.2-0.1-0.3-0.4c-0.7-0.3-1.3-1.1-2-1.7c-0.1-0.1-0.2-0.1-0.2-0.2c-0.1-0.1,0-0.1-0.3-0.2
	c-1.4-1-2.4-2.1-3.7-3c-0.2-0.3-0.5-0.1-0.6-0.6c3.6-0.2,7.1,0.2,10.8,0.4V172h0c1.8,0.3,3.5,0.6,5.1,1.3c0.1,0,0.1,0.1,0.2,0.1v0.1
	c1.1,0.3,2.2,0.8,3.3,1.3c0.2,0.1,0.5,0.5,0.8,0.1c0.2-0.3-0.1-0.5-0.3-0.8c-0.4-0.6-0.8-1.2-1.3-1.8c-0.1-0.1-0.2-0.3-0.2-0.4
	c-0.8-0.8-1.5-1.7-2.2-2.6c-0.2-0.2-0.5-0.5-0.7-0.8c-0.8-0.6-1.7-1.2-2.4-2c-0.1-0.1-0.3-0.3-0.4-0.3c-0.4,0-0.8-0.4-1.1-0.6
	c-0.4-0.3-0.8-0.5-1.1-0.7c-0.1-0.1-0.3-0.1-0.4-0.2c-1.7-0.6-3.4-1.2-5.1-1.9c-0.1,0-0.2,0-0.2-0.1c0,0-0.1,0-0.2,0
	c-0.4,0-0.6-0.1-0.8-0.3c-0.1-0.1-0.3-0.3-0.3-0.4c0,0,0-0.1-0.1-0.1c-0.1-0.2-0.1-0.5-0.1-0.7c0.1-0.9,0-1.7-0.1-2.6
	c0-0.3-0.1-0.5-0.1-0.7c-0.1-0.3-0.1-0.5-0.2-0.7c-0.1-0.2-0.1-0.5-0.2-0.7c-0.1-0.3-0.2-0.8-0.3-1c0,0-0.1,0-0.1-0.1
	c-0.3-1.7-1-3.4-1.5-5.1c-0.1-0.2-0.1-0.4-0.2-0.7c-0.4-0.8-0.6-1.3-0.7-2c0-0.2,0-0.4,0-0.6c0-0.1,0-0.2,0-0.3
	c0.1-0.3,0.1-0.6,0.2-1c0.1-0.4,0.3-0.8,0.4-1.3c0-0.1,0-0.2,0-0.2h0c0.4-2,1.2-3.7,1.7-5.5c0,0,0.1,0,0.1-0.1c0,0,0.1-0.1,0.1-0.1
	c0,0,0.1,0,0.1-0.1c0.5-0.7,0.7-1.5,0.6-2.2c0-0.4-0.1-0.8-0.3-1.2c-0.2-0.5-0.4-1-0.7-1.5c0-0.1-0.1-0.1-0.2-0.1
	c0,0-0.1-0.1-0.1-0.1c-1.1-1.2-1.8-2.7-2.4-4.2c-0.1-0.1-0.1-0.3-0.2-0.5c-0.1-0.1-0.1-0.1-0.1-0.2c0,0,0-0.1,0-0.1
	c0-0.1-0.1-0.1-0.1-0.2c0,0,0,0,0,0c0,0,0,0,0-0.1c0-0.2,0.1-0.3,0.1-0.5c0.1-0.1,0.1-0.2,0.2-0.3c0.1-0.1,0.1-0.2,0.2-0.3
	c0,0,0.1-0.1,0.1-0.1c0.8-1.1,1.5-2.2,2.3-3.3c0.7-0.9,0.9-1.8,0.6-3c-0.5-1.6-0.4-1.6,1.2-2.2c0.3-0.1,0.6-0.2,0.8-0.3
	c0.1,0,0.1,0,0.2,0c1.3-0.6,2.6-1.1,4-1.5c0.2-0.1,0.4-0.1,0.6-0.2c0.1-0.1,0.1-0.1,0.2-0.1c0.1,0,0.1-0.1,0.2-0.1
	c0.2-0.1,0.4-0.2,0.6-0.3c1.8-0.7,3.5-1.3,5.3-2c0.1,0,0.1,0,0.2,0c1.7-0.8,3.4-1.4,5.2-2c0.2-0.1,0.4-0.2,0.7-0.2
	c0.3-0.2,1.1-0.4,1.4-0.6c1.4-0.5,2.5-1.1,3.8-1.4c1.9-1.4,3.4-0.8,4.6,0.9c0.2,0.1,0.3,0.2,0.5,0.4c0.3,0.2,0.3,0.5,0.6,0.8
	C240.9,113.2,242.2,114.5,243.4,115.7z M204,117.3c-0.3,0.1-0.5,0.1-0.6,0.1c-0.4,0.1-0.6-0.1-0.9-0.6c-2.6-4.6-5.1-9.2-7.8-13.8
	c-0.3-0.6-0.5-0.9,0.4-1.1c16.6-4.9,33.2-9.7,49.8-14.6c0.2-0.1,0.4-0.1,0.7-0.2c0,0,0,0,0,0.1c0.1,0,0.1,0,0.2-0.1
	c-0.3,3-0.5,5.9-0.7,8.7c-0.2,2.1-0.3,4.2-0.5,6.3c-0.1,0.8-0.3,1.2-1.1,1.5L204,117.3z"/>
<path fill="#1A1A1A" d="M184,225.5c0,0.1,0.1,0.1,0.1,0.2C184.1,225.6,184,225.5,184,225.5L184,225.5z"/>
<path fill="#1A1A1A" d="M174.2,32.1L174.2,32.1L174.2,32.1z"/>
<path fill="#1A1A1A" d="M174.4,32.2c-0.1,0-0.1-0.1-0.2-0.1l0,0C174.3,32.1,174.3,32.2,174.4,32.2z"/>
<path fill="#1A1A1A" d="M174.5,32.7c-0.2,0-0.3-0.1-0.4-0.3C174.2,32.6,174.3,32.7,174.5,32.7z"/>
<path fill="#1A1A1A" d="M110.8,210.1c-0.1,0.1-0.3,0.3-0.3,0.5C110.5,210.4,110.7,210.2,110.8,210.1z"/>
<path fill="#1A1A1A" d="M111,210.1C111,210.1,111,210.1,111,210.1C111,210.1,111,210.1,111,210.1z"/>
<path fill="#1A1A1A" d="M82.5,144.5c0-0.1,0-0.3,0-0.4c-0.3-1.3-0.5-2.6-0.7-3.9c0.3,1.3,0.5,2.6,0.7,3.9
	C82.5,144.3,82.5,144.4,82.5,144.5z"/>
<path fill="#A3A3A3" d="M140,253.5C140,253.5,140,253.5,140,253.5c-0.1-0.1-0.2-0.1-0.4-0.1c0.1,0,0.1,0.1,0.1,0.1
	c0,0.1-0.1,0.1-0.1,0.1l0,0c0,0.1,0.1,0.1,0.1,0.1c0,0,0.1,0,0.1,0c0,0,0.1,0,0.1,0c0,0,0,0,0-0.1s0-0.1,0-0.1l0,0l0,0
	C140.1,253.6,140.1,253.6,140,253.5z"/>
<path fill="#A3A3A3" d="M140,253.8C140,253.8,140.1,253.8,140,253.8c0-0.1,0-0.1,0-0.1C140.1,253.7,140.1,253.7,140,253.8
	C140.1,253.8,140,253.8,140,253.8z"/>
<path fill="#A3A3A3" d="M139.7,253.6L139.7,253.6L139.7,253.6c0,0.1,0.1,0.1,0.1,0.1C139.8,253.8,139.7,253.7,139.7,253.6z"/>
<path fill="#A3A3A3" d="M140,253.5C140,253.5,140,253.5,140,253.5C140,253.5,140,253.5,140,253.5z"/>
<path fill="#A3A3A3" d="M140.1,253.6L140.1,253.6L140.1,253.6z"/>
<path fill="#A3A3A3" d="M139.7,253.6c0-0.1,0-0.1-0.1-0.1C139.7,253.5,139.7,253.6,139.7,253.6L139.7,253.6
	C139.7,253.6,139.7,253.6,139.7,253.6z"/>
<path fill="#A3A3A3" d="M139.7,253.6L139.7,253.6L139.7,253.6z"/>
<path fill="#1A1A1A" d="M122,180.5c4.7,0.4,9.3,1.3,13.9,2c0.6,0.1,1.2,0.1,1.8,0.4c1.4,0.7,2.1,2,2.6,3.4c0.8,2.1,1.1,4.4,1.2,6.6
	c0.1,1.8-0.3,3.3-1.7,4.4c-1.1,0.9-1.9,1.9-2.3,3.3c1.8,0,3.3,0.3,4.5,1.8c0.7,1,1.7,1.7,2.6,2.6c2.2,1.9,5.3,1.5,6.9-1
	c0.7-1.1,1.3-2.2,2.1-3.3c1-1.5,2-3.1,3.8-3.7c1.1-0.4,0.6-0.9,0.3-1.3c-0.7-0.9-2.1-1-3.3-0.2c-1.9,1.1-3.1,2.8-4.5,4.4
	c-0.4,0.5-0.8,1-1.3,1.3c-0.7,0.5-1.3,0.5-1.9-0.1c-0.7-0.7-1.3-1.4-2.1-2c-0.6-0.5-0.7-1-0.4-1.7c0.8-1.5,1.1-3.2,1-4.8
	c-0.3-3.7-0.9-7.3-3.5-10.2c-0.3-0.3-0.3-0.5,0.1-0.8c2.9-2,4.4-4.8,4.8-8.2c0.1-0.9-0.1-1.6-0.8-1.8c-0.7-0.2-1.2,0.5-1.5,1
	c-0.7,1.2-1.6,2.3-2.4,3.4c-1.3,1.7-3,2.1-4.9,1.8c-6.7-1-13.4-1.7-20.1-2.1c-0.3,0-0.7-0.1-1,0.1c-2.1,1.6-4.3,3.1-5.7,5.5
	c0.1,0,0.2,0.1,0.2,0.1c0.2,0,0.4-0.1,0.6-0.1C114.7,180.4,118.3,180.2,122,180.5z"/>
<path fill="#1A1A1A" d="M184.5,183.1c-1.7,0.8-3.3,1.7-4.9,2.6c-0.4,0.3-0.8,0.5-1.3,0.6c-2.8,0.5-5.6,0.9-8.5,0.9
	c-1.7,0-3-0.7-4.3-1.5c-0.8-0.5-1.6-1.2-1.7-2.4c0.4-0.1,0.8,0,1.2,0.1c1.5,0.2,3,0.7,4.5,0.6c3.7-0.2,7.1-1.3,10.5-2.5
	c1.1-0.4,2.2-0.8,3.3-1.2c0.5-0.2,0.6-0.3,0.2-0.8c-0.5-0.6-1.1-0.5-1.7-0.4c-7.3,1.1-14.6,0.8-21.9-0.5c-2.1-0.4-4.4-0.5-5.2-3.2
	c-0.2-0.7-0.4-1.4-0.6-2.1c-0.1-0.8-0.6-1.4-1.1-2c-0.3-0.4-0.6-0.5-1.1-0.4c-0.5,0.1-0.4,0.6-0.4,0.9c0,1.2,0.1,2.4,0.2,3.5
	c0.1,1.3,0.6,2.6,1.3,3.6c1.5,2.1,3.5,3.3,6,3.9c1.8,0.4,1.8,0.4,2,2.3c0.1,0.8,0.2,1.5,1,2c1.3,0.8,2.6,1.6,4.2,1.7
	c1,0.1,2,0.1,2.8,0.8c1.1,0.8,2.4,1,3.7,1.2c1,0.1,2,0.1,3,0.3c0.8,0.1,1.3-0.1,1.9-0.6c2.8-2.3,5.5-4.6,8.2-7.2
	C185.6,182.9,185.2,182.8,184.5,183.1z"/>
<path fill="#1A1A1A" d="M161.5,205.8c-0.2-0.4-0.5-0.5-0.9-0.3c-2.2,1.2-4.7,1.3-7.2,1.6c-1,0.1-2.3-0.2-3.1,0.6
	c-1.9,1.8-3.4,1.1-5.1-0.2c-0.1-0.1-0.2-0.1-0.3-0.2c-2.4-1.3-4.8-1.8-7.3-0.1c-0.9,0.6-2,1-3.1,0.8c-0.9-0.2-1.5-0.2-2.2,0.4
	c-0.3,0.3-0.8,0.6-1.2,0.8c-1.1,0.7-1.1,0.8-0.1,1.7c0.2,0.2,0.5,0.3,0.8,0.4c2.3,0.7,4.5,0.2,6.6-0.9c2.1-1.2,4.1-1.1,6.1,0.4
	c1.8,1.3,3.7,1.3,5.6,0.5c2.5-1,5-2.1,7.6-2.5c0.4-0.1,0.8-0.2,1.2,0.1c1.1,1,2.2,0.3,3.3-0.1c0.4-0.2,0.5-0.5,0.4-0.9
	C162.5,207,161.8,206.5,161.5,205.8z"/>
<path fill="#1A1A1A" d="M151.2,213.1c-2.8,0.1-5.6,0.5-8.2,1.4c-2.2,0.7-4.6,1.2-5.7,3.7c-0.6,1.5-0.6,3-1,4.5
	c0.2,1.2,0.2,2.3,0.9,3.3c0.2,0.3,0.3,0.7,0.8,0.7c0.5,0,0.7-0.4,0.8-0.8c0.5-1.1,0.6-2.3,1-3.4c0.5-1.8,1.4-3.3,3.3-4.1
	c2-0.8,4-1.6,6-2.4c0.4-0.1,0.8-0.2,1.2-0.1c2.5,0.4,5.1,0.3,7.3,1.7c0.2,0.1,0.4,0.2,0.7,0.1c0.8-0.2,0.9-0.5,0.4-1.2
	C156.9,214.1,154.2,213.1,151.2,213.1z"/>
<path fill="#1A1A1A" d="M131.7,187.6c1.7-0.2,3.4-0.4,5-0.6c0.4-0.1,1.2,0.1,1.3-0.4c0.1-0.6-0.5-0.9-0.9-1.3
	c-0.2-0.2-0.5-0.2-0.8-0.3c-1.7-0.6-3.4-0.5-5.1-0.2c-3.5,0.6-6.9,0.8-10.4,0c-0.9-0.2-1.9-0.2-3-0.4c-1.3,0.3-2.8,0.6-4.1,1.2
	c-1,0.4-1,1-0.2,1.6c0.5,0.4,1,0.6,1.6,0.4c2.2-0.8,4-0.4,5.8,1.1c1.8,1.5,3.9,1.8,6.1,1c1.2-0.4,2.3-1.1,3.4-1.7
	C130.8,187.9,131.2,187.7,131.7,187.6z"/>
<path fill="#1A1A1A" d="M240.5,98c1.6,0,3.2-1.8,3.1-3.5c-0.1-1.9-1-2.9-2.8-2.8c-1.8,0-3.4,1.7-3.3,3.4
	C237.6,96.7,238.9,98.1,240.5,98z"/>
<path fill="#1A1A1A" d="M47.9,116.7c1.3,1.1,3.1,1.1,4.4,0c1.7-1.5,2.1-3.7,1.1-6.3c-0.6-1.6-1.5-2.2-3.2-2.2
	c-0.8,0.1-1.8,0-2.5,0.7C45.6,111,45.7,114.8,47.9,116.7z"/>
<path fill="#FFEDD4" d="M189.3,47.9c0.2,0,0.4,0,0.6,0C189.7,47.9,189.5,47.9,189.3,47.9z"/>
<path fill="#FFEDD4" d="M189.7,30.1c-0.6-0.6-1.1-1.1-1.7-1.7C188.6,29,189.1,29.6,189.7,30.1z"/>
<path fill="#FFEDD4" d="M186.8,23.7c1.3,1.1,2.5,2.2,3.7,3.5C189.2,26,188,24.8,186.8,23.7z"/>
<path fill="#E0C595" d="M202,49.4c-2.5,1.7-5.1,3.3-7.6,5L202,49.4z"/>
</svg>
