<?xml version="1.0" encoding="utf-8"?>
<!-- Generator: Adobe Illustrator 18.0.0, SVG Export Plug-In . SVG Version: 6.00 Build 0)  -->
<!DOCTYPE svg PUBLIC "-//W3C//DTD SVG 1.1//EN" "http://www.w3.org/Graphics/SVG/1.1/DTD/svg11.dtd">
<svg version="1.1" id="Layer_1" xmlns="http://www.w3.org/2000/svg" xmlns:xlink="http://www.w3.org/1999/xlink" x="0px" y="0px"
	 viewBox="0 0 288 288" enable-background="new 0 0 288 288" xml:space="preserve">
<g>
	<path fill="#68B604" d="M135.4,118.9c0,0,0-37,37-37h111c0,0,0,37-37,37H135.4z"/>
	<path fill="#68B604" d="M135.4,166.2c0,0,0-37,37-37h55.5c0,0,0,37-37,37H135.4z"/>
	<path fill="#68B604" d="M135.4,213.4c0,0,0-37,37-37h18.5c0,0,0,37-37,37H135.4z"/>
	<polygon fill="#68B604" points="123,184.6 123,214.1 4,214.1 80.7,109.5 14.8,109.5 14.8,80 139,80 62.7,184.6 	"/>
</g>
</svg>
