<?xml version="1.0" encoding="utf-8"?>
<!-- Generator: Adobe Illustrator 18.0.0, SVG Export Plug-In . SVG Version: 6.00 Build 0)  -->
<!DOCTYPE svg PUBLIC "-//W3C//DTD SVG 1.1//EN" "http://www.w3.org/Graphics/SVG/1.1/DTD/svg11.dtd">
<svg version="1.1" id="Layer_1" xmlns="http://www.w3.org/2000/svg" xmlns:xlink="http://www.w3.org/1999/xlink" x="0px" y="0px"
	 viewBox="0 0 48 48" enable-background="new 0 0 48 48" xml:space="preserve">
<g>
	
		<linearGradient id="SVGID_1_" gradientUnits="userSpaceOnUse" x1="-119.413" y1="168.611" x2="-119.1023" y2="168.2795" gradientTransform="matrix(82.4907 0 0 -81.4303 9870.6865 13737.1113)">
		<stop  offset="0" style="stop-color:#F9A03C"/>
		<stop  offset="1" style="stop-color:#F7974E"/>
	</linearGradient>
	<path fill="url(#SVGID_1_)" d="M45.2,33.3c0-0.2,0-0.4,0-0.6c0-0.2-13.4-13-13.4-13h-0.3C31.5,19.7,45.1,34.1,45.2,33.3L45.2,33.3
		L45.2,33.3z"/>
	
		<linearGradient id="SVGID_2_" gradientUnits="userSpaceOnUse" x1="-118.1203" y1="169.4429" x2="-117.5259" y2="168.8632" gradientTransform="matrix(40.2105 0 0 -40.4122 4748.7295 6859.6187)">
		<stop  offset="0" style="stop-color:#F9A03C"/>
		<stop  offset="1" style="stop-color:#F7974E"/>
	</linearGradient>
	<path fill="url(#SVGID_2_)" d="M16.5,28.9c0,0,0,0.1-0.1,0.1c0,0,0,0.1-0.1,0.1c-0.4,0.9,6,7.2,6.5,6.4c0,0,0-0.1,0.1-0.1
		c0,0,0.1-0.1,0.1-0.1C23.5,34.7,16.7,28.4,16.5,28.9L16.5,28.9L16.5,28.9z"/>
	
		<linearGradient id="SVGID_3_" gradientUnits="userSpaceOnUse" x1="-119.1785" y1="170.5723" x2="-118.6497" y2="169.9661" gradientTransform="matrix(41.0403 0 0 -39.9333 4901.1562 6831.8164)">
		<stop  offset="0" style="stop-color:#F9A03C"/>
		<stop  offset="1" style="stop-color:#F7974E"/>
	</linearGradient>
	<path fill="url(#SVGID_3_)" d="M25.6,37.7c0,0-0.1,0.3-0.3,0.4c0,0,6.3,6.3,6.3,6.3h0.6C32.2,44.3,26.3,38,25.6,37.7L25.6,37.7
		L25.6,37.7z"/>
	
		<linearGradient id="SVGID_4_" gradientUnits="userSpaceOnUse" x1="-118.5035" y1="168.4965" x2="-118.3848" y2="168.3399" gradientTransform="matrix(255.8347 0 0 -242.016 30325.3262 40781.707)">
		<stop  offset="0" style="stop-color:#F26D58"/>
		<stop  offset="1" style="stop-color:#F9A03C"/>
	</linearGradient>
	<path fill="url(#SVGID_4_)" d="M45.3,32.6C45,39.1,39.6,44.3,33,44.3h-0.9l-6.6-6.5c0.5-0.8,1-1.6,1.5-2.4h6c1.9,0,3.4-1.5,3.4-3.4
		c0-1.9-1.5-3.4-3.4-3.4h-3.5c0.3-1.4,0.4-2.9,0.4-4.4c0-1.5-0.2-3-0.4-4.5h2.2l13.6,13.4C45.3,33,45.3,32.8,45.3,32.6L45.3,32.6
		L45.3,32.6z M6.2,4H2.6v8.9h3.6c6.3,0,11.3,5.1,11.3,11.3c0,1.7-0.4,3.3-1.1,4.8l6.5,6.4c2.1-3.2,3.4-7.1,3.4-11.2
		C26.4,13.1,17.3,4,6.2,4L6.2,4L6.2,4z"/>
	
		<linearGradient id="SVGID_5_" gradientUnits="userSpaceOnUse" x1="-118.7113" y1="168.2886" x2="-118.5374" y2="168.1744" gradientTransform="matrix(160.7307 0 0 -174.8133 19103.1348 29424.4551)">
		<stop  offset="0" style="stop-color:#B84E51"/>
		<stop  offset="1" style="stop-color:#F68E48"/>
	</linearGradient>
	<path fill="url(#SVGID_5_)" d="M33,4H18.5C22,6.2,25,9.2,27,12.9h6c1.9,0,3.4,1.5,3.4,3.4c0,1.9-1.5,3.4-3.4,3.4h-1.4l13.6,13.4
		c0-0.4,0.1-0.7,0.1-1.1c0-3-1.1-5.7-2.9-7.9c1.8-2.1,2.9-4.9,2.9-7.9C45.3,9.5,39.8,4,33,4L33,4L33,4z"/>
	
		<linearGradient id="SVGID_6_" gradientUnits="userSpaceOnUse" x1="-118.2336" y1="168.9804" x2="-118.2254" y2="168.7739" gradientTransform="matrix(176.7653 0 0 -92.6293 20916.0742 15685.1387)">
		<stop  offset="0" style="stop-color:#F9A03C"/>
		<stop  offset="1" style="stop-color:#F7974E"/>
	</linearGradient>
	<path fill="url(#SVGID_6_)" d="M32.1,44.3H18.6c2.7-1.7,5.1-3.9,6.9-6.5L32.1,44.3L32.1,44.3z M23,35.4L16.5,29
		c-1.8,3.9-5.7,6.6-10.3,6.6H2.6v8.9h3.6C13.2,44.4,19.4,40.8,23,35.4L23,35.4L23,35.4z"/>
</g>
</svg>
