<?xml version="1.0" encoding="utf-8"?>
<!-- Generator: Adobe Illustrator 18.0.0, SVG Export Plug-In . SVG Version: 6.00 Build 0)  -->
<!DOCTYPE svg PUBLIC "-//W3C//DTD SVG 1.1//EN" "http://www.w3.org/Graphics/SVG/1.1/DTD/svg11.dtd">
<svg version="1.1" id="Layer_1" xmlns="http://www.w3.org/2000/svg" xmlns:xlink="http://www.w3.org/1999/xlink" x="0px" y="0px"
	 viewBox="0 0 288 288" enable-background="new 0 0 288 288" xml:space="preserve">
<path fill="#FFFFFF" d="M194.1,175.1L194.1,175.1L194.1,175.1L194.1,175.1L194.1,175.1L194.1,175.1z"/>
<path fill="#BA8449" d="M194.1,175.1L194.1,175.1L194.1,175.1L194.1,175.1L194.1,175.1L194.1,175.1z"/>
<path fill="#FFF8EE" d="M179.3,46.7c19.6-1.8,31.1-22.1,43-19c-8,5-15.9,15-27,31.4C192.6,63,173.9,47.2,179.3,46.7"/>
<g>
	<g>
		<defs>
			<rect id="SVGID_89_" x="196" y="68.5" width="25.4" height="17.2"/>
		</defs>
		<clipPath id="SVGID_1_">
			<use xlink:href="#SVGID_89_"  overflow="visible"/>
		</clipPath>
		<g opacity="0.3" clip-path="url(#SVGID_1_)">
			<g transform="translate(484.2881,425.6104)">
				<path fill="#FFFFFF" d="M-275.8-340c-2.2,0-4.4-0.9-7.4-3c-2.9-2-5.1-4-5.1-7.5v-6.7h6.5c0.9,0,1.8,0.2,2.7,0.6
					c0.7,0.3,3.4,1.2,4.6,1.5c0.4,0,1.2-0.2,2.8-0.5c0.8-0.2,1.3-0.2,2-0.2h5.7l0.9,5.6c0.4,2.7-0.8,6.1-4.5,7.4
					c-0.2,0.1-0.8,0.4-1.2,0.6c-1.8,0.9-3.9,1.9-6,2.3C-275-340-275.4-340-275.8-340"/>
			</g>
		</g>
	</g>
	<path fill="#FFFFFF" d="M186.7,232.6h-24.6v-21.3h24.6V232.6z"/>
</g>
<path fill="#BA8449" d="M194.1,175.1L194.1,175.1L194.1,175.1L194.1,175.1L194.1,175.1L194.1,175.1z"/>
<path fill="#895B2E" d="M194.1,175.1L194.1,175.1L194.1,175.1L194.1,175.1L194.1,175.1L194.1,175.1z M211.9,193.1
	c-2.7-6-5.8-11.7-9.9-16.9c-1-1.3-2.1-2.6-3.3-3.8c-0.3-0.3-0.6-0.6-0.9-0.9l-0.2-0.2l-0.1-0.1l-0.2-0.2c-0.2-0.1-0.4-0.2-0.5-0.3
	c-0.3-0.2-0.6-0.3-0.9-0.4c-1.1-0.4-1.9-0.5-2.8-0.7c-3.4-0.5-6.6-0.6-9.8-0.7c-6.5-0.1-12.8,0-19.2,0.3
	c-12.8,0.5-25.5,1.5-38.2,2.8c-6.3,0.7-12.7,1.4-19.1,2.4c-3.2,0.5-6.3,1-9.5,1.7c-1.6,0.4-3.2,0.7-4.8,1.2
	c-0.8,0.2-1.6,0.5-2.5,0.9c-0.4,0.2-0.9,0.4-1.4,0.7c-0.2,0.2-0.5,0.3-0.8,0.5s-0.6,0.5-1,1l0,0c-0.9,1.1-1.8,2.4-2.6,3.6
	c-0.8,1.2-1.6,2.5-2.3,3.8c-1.4,2.5-2.7,5.1-3.9,7.7c-1.1,2.6-2.2,5.2-3.1,7.9c-0.5,1.3-0.9,2.6-1.2,4c-0.2,0.7-0.4,1.3-0.6,2
	l-0.3,1l-0.1,0.5c0,0.1,0.2,0.2,0.6,0.5h0.1h5.8c0.3-0.6,0.5-1.2,0.8-1.8c0.5-1.3,1.1-2.6,1.6-3.8c1-2.6,1.9-5.1,2.8-7.7
	c0.9-2.5,1.9-5.1,3-7.4c0.6-1.2,1.2-2.3,1.8-3.5c0.7-1.1,1.3-2.1,2.1-3.1c0,0,0.1,0,0.1-0.1c0.2-0.1,0.5-0.2,0.7-0.4
	c0.6-0.2,1.3-0.5,2-0.7c1.4-0.4,2.9-0.8,4.4-1.1c3-0.7,6.1-1.2,9.2-1.7c6.2-1,12.5-1.8,18.8-2.5c12.6-1.4,25.2-2.4,37.8-3
	c6.3-0.3,12.6-0.5,18.9-0.4c3.1,0.1,6.3,0.2,9.1,0.6c0.7,0.1,1.4,0.3,1.9,0.4c0.1,0,0.2,0,0.2,0.1c0.2,0.2,0.5,0.5,0.7,0.7
	c1.1,1.1,2,2.2,3,3.3c3.7,4.7,6.8,10.2,9.4,15.8c2.3,5.2,4.3,10.6,5.3,16.1h5c-0.5-3.1-1.3-6.1-2.2-9
	C214.4,199.1,213.2,196.1,211.9,193.1"/>
<path fill="#895B2E" d="M231.7,187.6c-0.2-3.2-2.1-5.5-5.5-6.3c-2.7-0.6-6.3-0.1-7.2,1.6c-1.8,3.4-4,7.5-14.9,8.1
	c-0.7,0-1.3,0.7-1.3,1.4s0.7,1.3,1.4,1.3c11.4-0.5,14.7-4.9,17.1-9.4c0.5-0.4,3.2-0.9,5.4,0c1.6,0.7,2.3,1.8,2.4,3.5
	c0.3,6.2-6.2,17.7-9.7,23.5h3.1C226.4,204.6,232,194.1,231.7,187.6"/>
<path fill="none" stroke="#F8A38F" stroke-width="2" stroke-miterlimit="10" d="M214.8,177.1c-0.9,6.2,11.2,14.7,19.4,14.5
	c6.8-0.2,14.5-3.4,13.4-7.2c-1.1-3.9-7.7,0.7-8.3-2c-0.5-2.6,7.7-7.5,4.4-11.1c-3.1-3.3-6.7,5.2-10.3,4s0.7-9.5-3.8-10
	c-5.3-0.5-3.3,11.3-7.3,11.5C219.5,177.1,215.1,175.1,214.8,177.1z"/>
<g>
	<g>
		<defs>
			<rect id="SVGID_95_" x="230.9" y="170.4" width="7.7" height="7.2"/>
		</defs>
		<clipPath id="SVGID_2_">
			<use xlink:href="#SVGID_95_"  overflow="visible"/>
		</clipPath>
		<g opacity="0.5" clip-path="url(#SVGID_2_)">
			<g transform="translate(518.459,298.042)">
				<path fill="#FCD4C3" d="M-287.3-127.7c-0.2,1.1-1.1,6.3,1.6,7c2.3,0.6,4-0.8,5.8-3.7c-1,0.9-3.5,3.1-5.4,2.3
					C-287.2-123-287.4-125-287.3-127.7"/>
			</g>
		</g>
	</g>
</g>
<g>
	<g>
		<defs>
			<rect id="SVGID_99_" x="238" y="180.1" width="5.7" height="5"/>
		</defs>
		<clipPath id="SVGID_3_">
			<use xlink:href="#SVGID_99_"  overflow="visible"/>
		</clipPath>
		<g opacity="0.5" clip-path="url(#SVGID_3_)">
			<g transform="translate(530.751,283.3955)">
				<path fill="#FCD4C3" d="M-291.4-103.3c-2.3,2.6-1.2,4.7,0.3,5c1.9,0.4,4.4-1.6,4-1.6c-0.5,0-4.2,1.2-4.9-0.6
					C-292.5-101.9-291.7-102.7-291.4-103.3"/>
			</g>
		</g>
	</g>
</g>
<path fill="#FFF8EE" d="M179.3,46.7c19.6-1.8,31.1-22.1,43-19c-8,5-15.9,15-27,31.4C192.6,63,173.9,47.2,179.3,46.7"/>
<path fill="none" stroke="#E5D0AE" stroke-width="3" stroke-linecap="round" stroke-linejoin="round" stroke-miterlimit="10" d="
	M179.3,46.7c19.6-1.8,31.1-22.1,43-19c-8,5-15.9,15-27,31.4C192.6,63,173.9,47.2,179.3,46.7z"/>
<path fill="none" stroke="#895B2E" stroke-width="2" stroke-linecap="round" stroke-linejoin="round" stroke-miterlimit="10" d="
	M56.8,42.3c8.8-8.2,24.7-5,37.5-0.4c7.3,2.6,16.8,0.5,17.4,2c1.6,3.5-7.9,10.7-15.7,10.5C88.3,54.3,75.4,39.8,56.8,42.3z"/>
<path fill="none" stroke="#F8A38F" stroke-width="2" stroke-miterlimit="10" d="M192.7,56.4c4.5,1.3,21.6-32.2,29.9-28.9
	c26.4,10.5-8,50.9-18.9,51.8C192.7,80.1,190.2,55.6,192.7,56.4z"/>
<path fill="none" stroke="#F8A38F" stroke-width="2" stroke-miterlimit="10" d="M97.3,52.4c-7.3,3.2-33.2-23.9-44.1-6.5
	C46,57.4,67.8,80.6,83.4,83.1S101.1,50.7,97.3,52.4z"/>
<path fill="#E5D0AE" d="M75.9,92.8c0.3-1.3,0.5-2.7,0.5-4c0.1-1.4,0.2-2.8,0.5-4.1c0.1-0.7,0.3-1.4,0.6-2s0.5-1.3,0.7-1.9
	c0.5-1.3,1-2.6,1.6-3.8c2.3-5.1,4.9-9.9,8.1-14.4s6.7-8.7,10.7-12.3c4-3.7,8.7-6.7,13.7-8.7c5-2.1,10.4-3.4,15.8-4
	c5.4-0.7,10.8-0.8,16.2-0.7c5.4,0.1,10.8,0.4,16.2,1.1s10.8,1.9,16,3.8c2.6,1,5.1,2.1,7.5,3.5s4.7,3.1,6.8,5.1
	c2.1,1.9,3.9,4.2,5.4,6.6s2.6,5,3.6,7.7c0.9,2.6,1.6,5.3,2.2,8s1,5.3,1.6,7.8c0.3,1.2,0.7,2.4,1.1,3.6c0.5,1.2,1,2.5,1.4,3.8
	c0.9,2.5,1.9,5.1,2.8,7.6c3.5,10.2,6.6,20.6,8.5,31.2c0.9,5.3,1.6,10.7,1.7,16.1c0.1,5.4-0.4,10.8-1.9,16c-0.4,1.3-0.8,2.6-1.3,3.8
	s-1.2,2.4-1.6,3.7c-0.2,0.7-0.4,1.3-0.7,1.9c-0.3,0.6-0.7,1.2-1.1,1.8c-0.7,1.1-1.6,2.3-2.5,3.3c-3.5,4.2-8,7.6-12.8,10.2
	s-10,4.6-15.2,6.1c-5.3,1.5-10.5,2.7-15.9,3.7s-10.7,1.7-16,2.4c-2.7,0.3-5.4,0.6-8.1,0.9l-4,0.4c-1.3,0.1-2.7,0.2-4.1,0.3
	c-11,0.6-22-1-32.5-3.9c-5.3-1.5-10.4-3.3-15.4-5.5s-9.9-4.7-14.5-7.7c-2.3-1.5-4.6-3.2-6.7-5.1c-0.5-0.5-1.1-1-1.6-1.5
	s-0.9-1.1-1.4-1.6c-0.9-1.1-1.8-2.2-2.6-3.3c-3.1-4.6-5.6-10-6.4-15.6c-0.9-5.7-0.1-11.5,1.5-16.8c1.6-5.4,4.1-10.3,6.7-15.1
	c2.7-4.7,5.6-9.3,8.4-13.8c1.4-2.3,2.7-4.6,3.9-6.9C74.4,97.5,75.4,95.2,75.9,92.8L75.9,92.8z M79.9,93.7c-0.7,2.8-1.9,5.4-3.2,7.9
	c-1.3,2.5-2.7,4.8-4.1,7.1c-2.8,4.6-5.7,9.1-8.2,13.7s-4.8,9.4-6.2,14.3c-1.4,4.9-2,10-1.2,15c0.8,4.9,2.9,9.6,5.9,13.7
	c0.7,1,1.6,2,2.4,3c0.4,0.5,0.9,1,1.3,1.4c0.4,0.5,0.9,0.9,1.3,1.3c1.8,1.7,3.9,3.2,6.1,4.7c4.4,2.8,9,5.3,13.9,7.4
	c4.8,2.1,9.8,3.9,14.9,5.3c5.1,1.4,10.2,2.5,15.4,3.2c5.2,0.7,10.4,0.9,15.6,0.7c1.3-0.1,2.6-0.2,3.9-0.3l4-0.4
	c2.6-0.2,5.3-0.5,8-0.8c5.3-0.5,10.6-1.2,15.8-2.1c5.3-0.9,10.4-1.9,15.5-3.3s10.1-3,14.9-5.1c4.7-2.2,9.3-4.9,13-8.6
	c0.9-0.9,1.8-1.9,2.6-2.9c0.4-0.5,0.8-1.1,1.2-1.6s0.9-1,1.3-1.6c0.9-1.1,1.3-2.3,1.9-3.5c0.5-1.2,0.9-2.5,1.2-3.8
	c1.3-5.2,1.6-10.6,1.3-15.9c-0.4-5.3-1.3-10.6-2.6-15.8c-2.5-10.4-6.2-20.4-10.1-30.3c-1-2.5-2-5-3-7.4l-1.6-3.7
	c-0.5-1.3-1-2.7-1.4-4c-0.7-2.7-1.2-5.3-1.8-7.9c-0.5-2.6-1.2-5.1-2-7.5c-1.7-4.9-4.2-9.3-7.9-12.8c-3.6-3.5-8.1-6.2-12.9-8.2
	c-4.8-2-10-3.3-15.2-4.2s-10.5-1.4-15.8-1.7c-5.3-0.2-10.7-0.3-16,0.3s-10.5,1.7-15.4,3.8c-4.9,2-9.4,4.9-13.2,8.5
	c-3.9,3.6-7,8-9.3,12.6c-2.4,4.7-4.1,9.7-5.6,14.7c-0.4,1.2-0.7,2.5-1,3.8c-0.2,0.6-0.3,1.3-0.5,1.9c-0.1,0.3-0.1,0.7-0.2,1
	s-0.2,0.6-0.4,0.9c-0.5,1.2-1.1,2.4-1.7,3.6C80.6,91.2,80.2,92.4,79.9,93.7L79.9,93.7z"/>
<g>
	<g>
		<defs>
			<rect id="SVGID_111_" x="133.5" y="108.4" width="13.1" height="5.5"/>
		</defs>
		<clipPath id="SVGID_4_">
			<use xlink:href="#SVGID_111_"  overflow="visible"/>
		</clipPath>
		<g opacity="0.25" clip-path="url(#SVGID_4_)">
			<g transform="translate(391,387.166)">
				<path fill="#E3AB5E" d="M-244.4-276c0,1.5-2.9,2.8-6.5,2.8s-6.5-1.2-6.5-2.8c0-1.5,2.9-2.8,6.5-2.8
					C-247.3-278.6-244.4-277.5-244.4-276"/>
			</g>
		</g>
	</g>
</g>
<path fill="#F8A38F" d="M135.1,103c1.5-1,9.5-0.7,10.5,0.4c1,1,3.2,5.2,0.7,7c-0.9,0.6-0.9-1.9-2.9-1.5c-2.4,0.5-1.1,3.6-3,3.6
	c-2.9-0.1-0.1-3.4-2.6-3.8c-1.9-0.4-2.3,1.5-3.2,1.3C131.7,109.4,133,104.4,135.1,103"/>
<g>
	<g>
		<defs>
			<rect id="SVGID_113_" x="132.9" y="102.4" width="14.5" height="9.9"/>
		</defs>
		<clipPath id="SVGID_5_">
			<use xlink:href="#SVGID_113_"  overflow="visible"/>
		</clipPath>
		<g clip-path="url(#SVGID_5_)">
			<g transform="translate(380.2207,400.4053)">
				<path fill="#F8A38F" d="M-240.8-298c-1.9,0-3.7,0.2-4.3,0.6c-2.1,1.4-3.4,6.4-0.6,6.9h0.1c0.7,0,1.1-1.4,2.6-1.4
					c0.2,0,0.3,0,0.5,0c2.5,0.4-0.2,3.8,2.6,3.8l0,0c1.8,0,0.5-3,3-3.5c0.2,0,0.3,0,0.4,0c1.4,0,1.6,1.6,2.2,1.6
					c0.1,0,0.2,0,0.3-0.1c2.6-1.8,0.4-6-0.7-7C-235.2-297.5-238.1-298-240.8-298 M-240.8-297.2L-240.8-297.2c3,0,5.3,0.4,5.7,0.7
					c0.6,0.6,1.8,2.8,1.6,4.4c-0.1,0.6-0.3,1.1-0.7,1.4c0-0.1-0.1-0.1-0.2-0.2c-0.4-0.5-1-1.3-2.1-1.3c-0.2,0-0.4,0-0.5,0.1
					c-1.7,0.4-2,1.7-2.3,2.6c-0.2,0.9-0.3,0.9-0.6,0.9l0,0c-0.8,0-0.8-0.2-0.8-1.1s0-2.3-1.8-2.6c-0.2,0-0.4,0-0.6,0
					c-1.1,0-1.8,0.7-2.3,1.1c-0.1,0.1-0.3,0.3-0.4,0.3c-0.4-0.1-0.8-0.3-1-1.1c-0.3-1.4,0.7-3.8,1.8-4.6
					C-244.4-297-243-297.2-240.8-297.2"/>
			</g>
		</g>
	</g>
</g>
<g>
	<g>
		<defs>
			<rect id="SVGID_117_" x="95" y="115.1" width="93.6" height="47.5"/>
		</defs>
		<clipPath id="SVGID_6_">
			<use xlink:href="#SVGID_117_"  overflow="visible"/>
		</clipPath>
		<g opacity="0.5" clip-path="url(#SVGID_6_)">
			<g transform="translate(347.2148,315.9766)">
				<path fill="#D8CAB2" d="M-229.7-157.4c-0.9-1.4-1.4-3.1-1.9-4.7c-0.5-1.6-1-3.2-1.5-4.8c-1-3.2-2.1-6.4-3.6-9.4
					s-3.4-5.8-5.8-7.9c-2.4-2.1-5.3-3.5-8.4-4.1l0,0l0,0c-1.1-0.4-1.6-1.5-1.2-2.5s1.4-1.5,2.3-1.3c7.2,1.7,14.7,2.5,22.1,2.6
					s15-0.3,22.5-1.2s14.9-2.2,22.2-3.9s14.6-3.7,21.7-6.1c1.1-0.4,2.2,0.2,2.5,1.2c0.3,0.8,0,1.6-0.6,2.1l0,0l0,0
					c-0.2,0.2-0.6,0.5-0.9,0.8c-0.3,0.3-0.6,0.7-0.9,1c-0.6,0.7-1.2,1.5-1.8,2.3c-1.2,1.6-2.3,3.2-3.3,4.9
					c-2.2,3.3-4.2,6.7-6.1,10.2c-1.9,3.5-3.8,7-5.5,10.5c-0.9,1.8-1.7,3.6-2.4,5.4c-0.4,0.9-0.7,1.8-1.1,2.8
					c-0.2,0.5-0.3,0.9-0.4,1.4c0,0,0,0.1,0,0.2c0,0.1,0,0.1-0.1,0.2c0,0.1-0.1,0.2-0.2,0.2c-0.1,0.1-0.2,0.2-0.4,0.3
					c-0.2,0.2-0.5,0.3-0.7,0.4c-1.9,0.8-3.9,1.2-5.8,1.6c-1.9,0.4-3.9,0.7-5.9,0.9c-4,0.5-7.9,0.9-11.9,1c-4,0.2-8,0.2-11.9-0.2
					c-2-0.2-4-0.5-5.9-1c-1-0.3-1.9-0.6-2.8-1.1C-228.3-156.1-229.1-156.6-229.7-157.4 M-229.6-157.6c0.5,0.8,1.4,1.4,2.3,1.8
					c0.9,0.4,1.8,0.7,2.8,1c1.9,0.5,3.9,0.8,5.9,0.9c4,0.3,7.9,0.3,11.9,0.1s7.9-0.7,11.8-1.2c1.9-0.3,3.9-0.6,5.8-1.1
					s3.9-0.9,5.6-1.7c0.2-0.1,0.4-0.2,0.6-0.4c0.2-0.1,0.3-0.2,0.3-0.3c0.1-0.5,0.2-1,0.4-1.5c0.3-1,0.6-1.9,0.9-2.9
					c0.7-1.9,1.4-3.7,2.2-5.6c1.6-3.7,3.2-7.3,4.9-10.9c1.7-3.6,3.5-7.2,5.4-10.7c0.9-1.8,1.9-3.5,3-5.3c0.5-0.9,1.1-1.8,1.7-2.6
					c0.3-0.4,0.6-0.9,0.9-1.3c0.4-0.4,0.7-0.9,1.2-1.3l0,0l1.9,3.4c-7.3,2.5-14.6,4.5-22.1,6.2s-15,3.1-22.6,4s-15.3,1.4-23,1.2
					s-15.4-1.1-23-2.9l1.1-4l0,0c3.3,2,6.3,3.9,8.6,6.6c2.3,2.7,3.9,5.8,5.2,9c1.2,3.2,2.2,6.5,3,9.7c0.4,1.6,0.9,3.3,1.3,4.9
					C-231-160.6-230.5-158.9-229.6-157.6"/>
			</g>
		</g>
	</g>
</g>
<path fill="#F8A38F" d="M144.2,139.1c-0.9,0-1.7,0-2.6,0.1c-17.5,1.1-25.6,18.4-23.8,20.5c2.6,2.8,9.3,3.8,16.9,3.8
	c13.5,0,29.8-3.1,30.3-4.6c1.5-4.5,3.2-8.2,3.9-10C169.5,147.1,159.4,138.9,144.2,139.1 M144.2,140.4c13.4,0,22.4,6.4,23.3,8.3
	c-0.2,0.4-0.4,0.9-0.6,1.5c-0.8,1.9-2,4.7-3.1,7.9c-2.1,1.2-16.1,3.9-29.1,3.9c-8.1,0-13.7-1.2-15.8-3.3c-0.1-0.7,0.6-3.5,3.1-7
	c2.2-3.2,8.6-10.7,19.7-11.3C142.5,140.4,143.4,140.4,144.2,140.4L144.2,140.4"/>
<path fill="#FFF7E3" d="M124.8,130.1c1.7,3,4.8,17.6,6.1,17.9c1.3,0.3,9.5,2.6,10.6,2.1c1.2-0.5,1.1-3.3,2.3-2.5
	c1,0.7,1.5,2,2.5,1.5c1.8-0.9,7.1-4.2,8-5.6c0.8-1.5,0.7-9.8,0-16.4C150.9,128.6,130.8,130.8,124.8,130.1"/>
<g>
	<g>
		<defs>
			<rect id="SVGID_127_" x="124.9" y="126.7" width="29.7" height="10.3"/>
		</defs>
		<clipPath id="SVGID_7_">
			<use xlink:href="#SVGID_127_"  overflow="visible"/>
		</clipPath>
		<g clip-path="url(#SVGID_7_)">
			<g transform="translate(361.751,348.25)">
				<path fill="#EADCBE" d="M-234.6-211.1c-0.5-5.4,24.4-7.2,27.5-6.7c0-1.3-0.2-2.1-0.2-3.6c-4.1,2.1-26.5,4.3-29.5,3.4
					C-236.5-217.4-235.4-214.4-234.6-211.1"/>
			</g>
		</g>
	</g>
</g>
<g>
	<g>
		<defs>
			<rect id="SVGID_129_" x="139" y="133" width="5.5" height="14.7"/>
		</defs>
		<clipPath id="SVGID_8_">
			<use xlink:href="#SVGID_129_"  overflow="visible"/>
		</clipPath>
		<g clip-path="url(#SVGID_8_)">
			<g transform="translate(380.458,354.3682)">
				<path fill="#FFDC99" d="M-240.9-221.4c0.5,1.2,1,2.3,1.4,3.5s0.8,2.4,1.2,3.6l1.1,3.6l1.1,3.6l-1.7,0.5l-0.8-3.7l-0.9-3.7
					c-0.3-1.2-0.6-2.4-0.9-3.6c-0.4-1.2-0.7-2.4-1.1-3.5L-240.9-221.4z"/>
			</g>
		</g>
	</g>
</g>
<path fill="#333333" d="M218.4,75.5c-2.8,0.4-8.1,2.1-11.4,1.2c-3.3-1-19.4-11.1-59.9-5c-3.9,0.6-7.8,0-10.5-0.7
	c-2.7-0.7-17.9-9.5-58.6-3.7c-4,0.6-9.6-1.2-11.6-1s-2.6,6.5-1.8,8.1c0.8,1.6,5,3,5.5,5S74.3,101,83.9,109c10.2,8.6,36.2,2.6,38.5,1
	c10.3-7.3,12.6-28.4,16.1-28.4c1.2,0,5.9-0.4,7,0.5c6,4.7,5.8,24,12.1,30c5.6,5.4,36.2,9.3,41.5,3.2c5.3-6.1,13.1-24.7,14.9-26.1
	c1.8-1.3,5.8-2.3,7-4.2C222.2,83.2,221.2,75,218.4,75.5z M117.1,103.5c-4.2,2.3-25,3-29.9-0.2c-7.5-4.8-6.9-22.5-6-23.7
	c1.1-1.5,4.2-3.6,6.2-4.1c16.2-4.2,37.8,1.1,40.8,5.1C130,83,123.6,99.8,117.1,103.5z M194.4,110.2c-5.3,2.5-25.8-0.9-29.6-3.7
	c-6-4.5-10.2-22-8.1-24.2c3.5-3.6,25.6-6,41.1,0.2c1.9,0.7,4.6,3.2,5.6,4.9C204.2,88.8,202.4,106.3,194.4,110.2z"/>
<path d="M104.9,90.4c-0.5,3.9-2.5,6.8-4.4,6.5s-2.9-3.6-2.4-7.5s2.5-6.8,4.4-6.5S105.4,86.5,104.9,90.4"/>
<path d="M184.6,94.8c0.4,3.9-0.8,7.2-2.6,7.4c-1.9,0.2-3.7-2.8-4.1-6.7c-0.4-3.9,0.8-7.2,2.6-7.4C182.3,88,184.1,91,184.6,94.8"/>
<g>
	<g>
		<defs>
			<rect id="SVGID_147_" x="202.4" y="75.2" width="12.3" height="3.9"/>
		</defs>
		<clipPath id="SVGID_9_">
			<use xlink:href="#SVGID_147_"  overflow="visible"/>
		</clipPath>
		<g opacity="0.3" clip-path="url(#SVGID_9_)">
			<g transform="translate(475.375,441.375)">
				<path fill="#333333" d="M-272.8-366.1c-1.2-0.5,4.4,4,6.1,3.8s4.7-2.1,6-2.6c1-0.4-4,1-5.5,0.7
					C-267.7-364.4-271.6-365.6-272.8-366.1"/>
			</g>
		</g>
	</g>
</g>
<g>
	<g>
		<defs>
			<rect id="SVGID_161_" x="102.3" y="84.4" width="2" height="2"/>
		</defs>
		<clipPath id="SVGID_10_">
			<use xlink:href="#SVGID_161_"  overflow="visible"/>
		</clipPath>
		<g opacity="0.25" clip-path="url(#SVGID_10_)">
			<g transform="translate(327.375,426)">
				<path fill="#FFFFFF" d="M-223-340.5c0-0.5-0.4-1-1-1s-1,0.4-1,1s0.4,1,1,1S-223-340-223-340.5"/>
			</g>
		</g>
	</g>
</g>
<g>
	<g>
		<defs>
			<rect id="SVGID_163_" x="181.3" y="89.1" width="2" height="2"/>
		</defs>
		<clipPath id="SVGID_11_">
			<use xlink:href="#SVGID_163_"  overflow="visible"/>
		</clipPath>
		<g opacity="0.25" clip-path="url(#SVGID_11_)">
			<g transform="translate(446.375,419)">
				<path fill="#FFFFFF" d="M-263-328.9c0-0.5-0.4-1-1-1c-0.5,0-1,0.4-1,1s0.4,1,1,1C-263.5-327.9-263-328.4-263-328.9"/>
			</g>
		</g>
	</g>
</g>
<path fill="#D0DDDC" d="M212.2,80.6c0,0.3-1.6,0.5-3.5,0.5s-3.5-0.2-3.5-0.5s1.6-0.5,3.5-0.5C210.7,80.1,212.2,80.4,212.2,80.6"/>
<path fill="#D0DDDC" d="M77.4,72c0,0.3-1.6,0.3-3.5,0s-3.4-0.8-3.3-1.1c0.1-0.3,1.6-0.3,3.5,0C76,71.1,77.5,71.6,77.4,72"/>
<g transform="translate(455.4502,200.8125)">
	<path fill="#E24B31" d="M-266.1,34.1c0,0-1.1-4,3.1-11.6s7.4-3.5,7.4-3.5s3.6,3.9-0.5,9.7S-266.1,34.1-266.1,34.1 M-298.2,39.6
		c-4.8,12.5-16.4,7.4-16.4,7.4s-1.3-4.5,2.5-17s12.6-7.6,12.6-7.6S-293.4,27.1-298.2,39.6 M-306.9-12.9c0,0,7.2-18.9,9-9.7
		s-15.2,36.5-15.2,36.5C-312.9,7.8-306.9-12.9-306.9-12.9 M-410.4,34.1c0.3-12.1,8.2-17.4,11-14.8s1.8,8.4-3.5,11.9
		C-408,34.8-410.4,34.1-410.4,34.1 M-191.1,32.1c-0.4-4.1-4.1-2.6-4.1-2.6s-5.9,4.6-11.1,4.1c-5.2-0.5-3.5-12.1-3.5-12.1
		s1.1-10.7-1.9-11.6c-3.1-0.9-6.8,2.8-6.8,2.8s-4.7,5.2-6.9,11.8l-0.6,0.2c0,0,0.7-11.6-0.1-14.3c-0.6-1.3-6.2-1.2-7.1,1.1
		c-0.9,2.3-5.4,18.6-5.7,25.5c0,0-8.8,7.4-16.4,8.7c-7.7,1.2-9.5-3.6-9.5-3.6s20.8-5.8,20.1-22.4c-0.7-16.6-16.8-10.5-18.6-9.1
		c-1.8,1.3-11.1,7-13.9,22.6c-0.1,0.5-0.3,2.9-0.3,2.9s-8.1,5.4-12.5,6.8c0,0,12.5-21.1-2.8-30.7c-6.9-4.2-12.5,4.6-12.5,4.6
		s20.7-23,16.1-42.5c-2.2-9.3-6.8-10.3-11.1-8.8c-6.5,2.6-8.9,6.3-8.9,6.3s-8.4,12.1-10.3,30.2s-4.8,39.8-4.8,39.8s-4,3.9-7.6,4.1
		c-3.7,0.2-2-10.9-2-10.9s2.8-16.9,2.6-19.8s-0.4-4.4-3.8-5.4c-3.3-1-7,3.3-7,3.3s-9.7,14.7-10.5,16.9l-0.5,0.9l-0.5-0.6
		c0,0,6.8-20,0.3-20.3s-10.8,7.1-10.8,7.1s-7.4,12.5-7.7,13.9l-0.5-0.6c0,0,3.1-14.5,2.5-18.1s-4-2.8-4-2.8s-4.3-0.5-5.4,2.3
		s-5.2,21-5.7,26.8c0,0-10.7,7.7-17.7,7.7c-7,0.1-6.3-4.5-6.3-4.5s25.8-8.8,18.8-26.3c-3.2-4.5-6.8-5.9-12-5.8s-11.3,3.3-15.5,12.6
		c-2,4.5-2.8,8.7-2.8,11.9l0,0c0,0-4.8,0.9-7.3-1.1s-3.9,0-3.9,0s-4.3,6.1-0.1,7.7c4.2,1.6,10.6,3.2,10.6,3.2l0,0
		c0.6,2.6,2.3,7,7.4,10.8c7.6,5.8,22.3-0.9,22.3-0.9l6-3.6c0,0,0.2,5.4,4.6,6.2c4.4,0.8,6.2-0.1,13.9-18.6c4.5-9.5,4.8-9,4.8-9
		l0.5-0.1c0,0-3.5,18.1-2.1,23s7.1,4.4,7.1,4.4s3.2,1.1,5.7-7.9c2.6-9,7.4-18.4,7.4-18.4h0.6c0,0-2.1,18.1,1.1,24
		c3.3,5.9,11.7,1.8,11.7,1.8s5.9-3.1,6.8-4c0,0,7,5.9,16.9,4.8c22.1-4.4,30-10.3,30-10.3s3.8,9.6,15.6,10.5
		c13.5,1,20.8-7.5,20.8-7.5s-0.1,5.5,4.6,7.4c4.7,1.9,7.9-8.3,7.9-8.3l7.9-21.1h0.7c0,0,0.4,13.5,8.2,15.7
		c7.8,2.2,17.9-5.6,17.9-5.6S-190.6,36.2-191.1,32.1"/>
</g>
</svg>
