<?xml version="1.0" encoding="utf-8"?>
<!-- Generator: Adobe Illustrator 16.0.0, SVG Export Plug-In . SVG Version: 6.00 Build 0)  -->
<!DOCTYPE svg PUBLIC "-//W3C//DTD SVG 1.1//EN" "http://www.w3.org/Graphics/SVG/1.1/DTD/svg11.dtd">
<svg version="1.1" id="Layer_1" xmlns="http://www.w3.org/2000/svg" xmlns:xlink="http://www.w3.org/1999/xlink" x="0px" y="0px"
	 width="48px" height="48px" viewBox="0 0 48 48" enable-background="new 0 0 48 48" xml:space="preserve">
<path fill="#040607" d="M0,0v48h48V0H0z M26.422,8.572l0.985-1.357c-1.82,3.288-0.088,7.324,2.7,9.44
	c0.49,0.37,1.017,0.692,1.57,0.958c0.291,0.14,0.59,0.263,0.896,0.372c0.237,0.084,0.508,0.172,0.752,0.232
	c3.117,0.756,5.658,0.234,7.168-1.942c-0.459,0.661-2.184,5.155-8.545,3.926c-0.141-0.027-0.274-0.076-0.41-0.119
	c-0.042-0.013-0.085-0.027-0.126-0.04c-0.096-0.032-0.191-0.064-0.286-0.099c-2.303-0.845-4.274-2.625-5.238-4.894
	C24.977,12.912,25.106,10.507,26.422,8.572z M21.328,40.375c-0.235-0.044-0.46-0.124-0.688-0.193
	c-0.054-0.016-0.107-0.032-0.161-0.048c-0.224-0.069-0.445-0.142-0.666-0.219c-0.025-0.008-0.05-0.017-0.075-0.025
	c-0.201-0.071-0.4-0.146-0.598-0.222c-0.051-0.021-0.103-0.039-0.154-0.061c-0.212-0.083-0.424-0.172-0.632-0.263
	c-0.039-0.018-0.076-0.035-0.115-0.052c-0.183-0.083-0.363-0.165-0.542-0.252c-0.046-0.023-0.094-0.044-0.14-0.066
	c-0.025-0.013-0.053-0.026-0.08-0.039c-0.115-0.058-0.228-0.118-0.342-0.177c-0.088-0.046-0.178-0.091-0.265-0.138
	c-0.161-0.086-0.32-0.178-0.479-0.269c-0.059-0.033-0.118-0.065-0.176-0.1c-0.215-0.126-0.429-0.257-0.638-0.391
	c-0.059-0.037-0.118-0.077-0.176-0.117c-0.137-0.089-0.273-0.177-0.407-0.268c-0.015-0.011-0.028-0.021-0.042-0.031
	c-0.051-0.035-0.102-0.071-0.152-0.108c-0.141-0.098-0.281-0.199-0.419-0.301c-0.067-0.051-0.133-0.101-0.2-0.151
	c-0.125-0.097-0.25-0.193-0.374-0.292c-0.061-0.05-0.124-0.099-0.186-0.148c-0.15-0.125-0.301-0.251-0.448-0.378
	c-0.028-0.025-0.057-0.05-0.086-0.074c-0.002-0.002-0.005-0.003-0.007-0.006c-0.167-0.147-0.332-0.297-0.494-0.45
	c-0.049-0.045-0.097-0.093-0.146-0.139c-0.122-0.118-0.242-0.234-0.36-0.354c-0.049-0.049-0.098-0.098-0.144-0.146
	c-0.153-0.157-0.305-0.313-0.451-0.477c-0.006-0.007-0.011-0.011-0.018-0.019c-0.003-0.003-0.006-0.007-0.008-0.009
	c-0.152-0.166-0.3-0.337-0.444-0.507c-0.041-0.048-0.082-0.097-0.122-0.146c-0.108-0.131-0.214-0.26-0.318-0.392
	c-0.043-0.055-0.087-0.109-0.13-0.166c-0.117-0.149-0.232-0.301-0.345-0.458c-0.021-0.027-0.043-0.057-0.063-0.086
	c-0.004-0.004-0.007-0.009-0.011-0.014c-0.129-0.18-0.255-0.362-0.378-0.545c-0.038-0.058-0.074-0.114-0.111-0.173
	c-0.089-0.136-0.176-0.271-0.261-0.408c-0.044-0.071-0.086-0.142-0.128-0.211c-0.077-0.129-0.152-0.257-0.226-0.386
	c-0.041-0.074-0.082-0.146-0.123-0.221c-0.023-0.04-0.047-0.08-0.069-0.122c-0.038-0.069-0.073-0.141-0.11-0.211
	c-0.058-0.112-0.117-0.223-0.172-0.337c-2.357-4.711-2.742-10.481,0.344-14.916l2.408-3.055c-2.716,5.252-1.496,11.647,1.904,16.283
	c0.123,0.169,0.248,0.335,0.377,0.501c0.04,0.051,0.079,0.101,0.119,0.15c0.108,0.135,0.217,0.27,0.327,0.404
	c0.04,0.046,0.078,0.092,0.119,0.14c0.147,0.174,0.299,0.347,0.454,0.516c0.007,0.009,0.015,0.016,0.021,0.023
	c0.146,0.159,0.295,0.317,0.447,0.474c0.047,0.047,0.095,0.094,0.143,0.142c0.119,0.122,0.24,0.24,0.364,0.357
	c0.047,0.046,0.094,0.091,0.143,0.138c0.167,0.155,0.336,0.31,0.507,0.46c0.018,0.017,0.037,0.03,0.053,0.045
	c0.159,0.139,0.32,0.273,0.482,0.407c0.056,0.045,0.114,0.091,0.172,0.137c0.128,0.104,0.257,0.204,0.388,0.304
	c0.062,0.048,0.125,0.096,0.19,0.144c0.142,0.104,0.284,0.208,0.428,0.311c0.049,0.032,0.097,0.068,0.147,0.102
	c0.148,0.104,0.3,0.204,0.453,0.303c0.058,0.038,0.114,0.078,0.172,0.115c0.21,0.132,0.423,0.264,0.638,0.39
	c0.056,0.032,0.111,0.062,0.166,0.094c0.163,0.093,0.325,0.186,0.49,0.273c0.09,0.05,0.182,0.096,0.273,0.143
	c0.135,0.069,0.271,0.142,0.408,0.208c0.052,0.025,0.102,0.05,0.152,0.074c0.176,0.083,0.352,0.164,0.528,0.245
	c0.042,0.018,0.083,0.037,0.125,0.055c0.207,0.091,0.416,0.178,0.627,0.261c0.054,0.021,0.108,0.043,0.163,0.065
	c0.192,0.073,0.385,0.144,0.58,0.213c0.03,0.011,0.061,0.022,0.091,0.033c0.217,0.076,0.437,0.146,0.657,0.214
	c0.056,0.018,0.113,0.036,0.171,0.052c0.226,0.067,0.451,0.139,0.683,0.192c6.121,1.393,12.585,0.142,16.224-4.602
	C40.583,31.408,36.249,43.097,21.328,40.375z M27.244,29.657c-0.224-0.037-0.436-0.12-0.65-0.188
	c-0.068-0.021-0.136-0.044-0.204-0.065c-0.15-0.051-0.299-0.102-0.449-0.156c-0.07-0.025-0.14-0.05-0.21-0.076
	c-0.163-0.064-0.328-0.131-0.489-0.2c-0.044-0.018-0.089-0.035-0.132-0.054c-0.203-0.088-0.401-0.182-0.598-0.277
	c-0.013-0.007-0.029-0.014-0.043-0.021c-0.096-0.047-0.191-0.098-0.287-0.148c-0.048-0.024-0.098-0.048-0.145-0.075
	c-0.137-0.073-0.275-0.15-0.41-0.229c-0.021-0.012-0.043-0.023-0.065-0.037c-0.157-0.092-0.311-0.187-0.463-0.283
	c-0.045-0.027-0.089-0.06-0.136-0.09c-0.095-0.062-0.19-0.123-0.284-0.188c-0.007-0.004-0.013-0.008-0.018-0.014
	c-0.214-0.146-0.421-0.299-0.625-0.456c-0.046-0.035-0.09-0.071-0.135-0.105c-0.204-0.161-0.404-0.324-0.598-0.494
	c-0.001-0.003-0.003-0.004-0.005-0.004c-0.006-0.006-0.013-0.014-0.021-0.019c-0.175-0.154-0.345-0.314-0.511-0.476
	c-0.044-0.043-0.089-0.087-0.132-0.13c-0.172-0.171-0.34-0.344-0.5-0.52c-0.444-0.386-0.814-0.956-1.149-1.436
	c-0.367-0.525-0.695-1.078-0.987-1.646c-1.741-3.396-1.862-7.695,0.369-10.906l1.823-2.574c-1.483,2.507-1.668,5.596-0.812,8.348
	c0.817,2.653,2.537,4.994,4.705,6.705c0.046,0.038,0.093,0.074,0.14,0.112c0.204,0.154,0.411,0.308,0.623,0.456
	c0.099,0.065,0.199,0.131,0.298,0.197c0.048,0.031,0.094,0.063,0.139,0.093c0.153,0.097,0.307,0.191,0.464,0.282
	c0.028,0.018,0.062,0.034,0.09,0.052c0.126,0.073,0.255,0.146,0.382,0.215c0.059,0.029,0.116,0.06,0.175,0.09
	c0.1,0.052,0.2,0.104,0.3,0.152c0.199,0.099,0.399,0.191,0.604,0.28c0.042,0.02,0.086,0.038,0.13,0.056
	c0.163,0.068,0.326,0.135,0.492,0.197c0.067,0.027,0.138,0.052,0.205,0.077c0.151,0.055,0.304,0.108,0.457,0.158
	c0.065,0.021,0.13,0.043,0.197,0.063c0.215,0.067,0.432,0.131,0.65,0.188c4.955,1.286,9.6-0.361,11.996-3.815
	C41.424,22.696,38.766,31.565,27.244,29.657z"/>
</svg>
