<?xml version="1.0" encoding="utf-8"?>
<!-- Generator: Adobe Illustrator 16.0.0, SVG Export Plug-In . SVG Version: 6.00 Build 0)  -->
<!DOCTYPE svg PUBLIC "-//W3C//DTD SVG 1.1//EN" "http://www.w3.org/Graphics/SVG/1.1/DTD/svg11.dtd">
<svg version="1.1" id="Layer_1" xmlns="http://www.w3.org/2000/svg" xmlns:xlink="http://www.w3.org/1999/xlink" x="0px" y="0px"
	 width="48px" height="48px" viewBox="0 0 48 48" enable-background="new 0 0 48 48" xml:space="preserve">
<g>
	<path fill="#0A69AD" d="M3.223,11.843C-0.991,17.9-0.466,25.78,2.753,32.216c0.076,0.155,0.156,0.306,0.236,0.459
		c0.05,0.097,0.098,0.194,0.15,0.288c0.029,0.059,0.063,0.113,0.094,0.167c0.055,0.104,0.111,0.2,0.167,0.302
		c0.101,0.176,0.203,0.351,0.308,0.526c0.058,0.096,0.115,0.191,0.176,0.288C4,34.434,4.119,34.619,4.241,34.804
		c0.05,0.081,0.1,0.158,0.151,0.236c0.168,0.25,0.339,0.499,0.516,0.745c0.005,0.006,0.009,0.013,0.015,0.018
		c0.028,0.04,0.059,0.08,0.087,0.118c0.153,0.214,0.312,0.421,0.471,0.626c0.06,0.076,0.119,0.151,0.178,0.227
		c0.142,0.18,0.288,0.355,0.435,0.534c0.055,0.066,0.111,0.134,0.166,0.199c0.198,0.232,0.4,0.465,0.607,0.691
		c0.002,0.004,0.007,0.009,0.011,0.013c0.009,0.011,0.016,0.017,0.024,0.025c0.201,0.223,0.407,0.436,0.616,0.65
		c0.064,0.066,0.13,0.133,0.197,0.199c0.162,0.163,0.326,0.321,0.492,0.482c0.067,0.063,0.133,0.129,0.201,0.19
		c0.222,0.209,0.446,0.413,0.674,0.614c0.004,0.004,0.007,0.006,0.01,0.008c0.04,0.034,0.08,0.067,0.117,0.102
		c0.202,0.174,0.407,0.346,0.613,0.516c0.083,0.068,0.169,0.136,0.253,0.203c0.168,0.135,0.339,0.268,0.51,0.398
		c0.091,0.069,0.182,0.139,0.273,0.208c0.189,0.139,0.38,0.277,0.573,0.41c0.069,0.051,0.138,0.1,0.208,0.148
		c0.02,0.015,0.038,0.027,0.058,0.042c0.183,0.125,0.369,0.245,0.556,0.365c0.08,0.056,0.16,0.109,0.241,0.161
		c0.287,0.183,0.578,0.361,0.872,0.533c0.079,0.047,0.161,0.091,0.24,0.136c0.216,0.124,0.434,0.249,0.654,0.367
		c0.119,0.063,0.241,0.125,0.362,0.188c0.156,0.081,0.31,0.163,0.467,0.242c0.036,0.018,0.074,0.036,0.108,0.053
		c0.063,0.03,0.128,0.06,0.191,0.091c0.245,0.119,0.492,0.231,0.741,0.344c0.053,0.023,0.104,0.047,0.157,0.071
		c0.285,0.124,0.574,0.245,0.864,0.359c0.07,0.028,0.141,0.055,0.211,0.082c0.269,0.104,0.541,0.206,0.816,0.303
		c0.035,0.013,0.068,0.023,0.103,0.035c0.301,0.104,0.604,0.203,0.91,0.298c0.072,0.021,0.146,0.044,0.219,0.065
		c0.311,0.095,0.619,0.205,0.94,0.265C40.73,50.083,46.65,34.118,46.65,34.118c-4.971,6.479-13.799,8.188-22.16,6.285
		c-0.317-0.072-0.625-0.17-0.933-0.262c-0.079-0.022-0.157-0.047-0.233-0.071c-0.301-0.092-0.602-0.188-0.897-0.292
		c-0.041-0.015-0.083-0.03-0.124-0.046c-0.267-0.094-0.53-0.19-0.792-0.291c-0.074-0.03-0.148-0.06-0.222-0.089
		c-0.288-0.113-0.574-0.232-0.856-0.355c-0.057-0.024-0.113-0.051-0.171-0.075c-0.242-0.11-0.482-0.222-0.722-0.335
		c-0.069-0.033-0.138-0.066-0.208-0.101c-0.188-0.092-0.373-0.189-0.558-0.284c-0.124-0.064-0.25-0.127-0.373-0.195
		c-0.226-0.12-0.447-0.247-0.669-0.374c-0.075-0.043-0.15-0.083-0.226-0.127c-0.293-0.173-0.583-0.353-0.871-0.533
		c-0.079-0.05-0.156-0.105-0.235-0.157c-0.208-0.135-0.416-0.271-0.619-0.413c-0.068-0.045-0.133-0.095-0.201-0.139
		c-0.197-0.14-0.391-0.281-0.585-0.424c-0.089-0.065-0.175-0.132-0.26-0.197c-0.178-0.136-0.355-0.271-0.53-0.414
		c-0.079-0.062-0.158-0.125-0.235-0.188c-0.222-0.183-0.442-0.366-0.659-0.556c-0.023-0.02-0.048-0.039-0.073-0.062
		c-0.233-0.205-0.464-0.416-0.692-0.628c-0.066-0.064-0.13-0.125-0.194-0.188c-0.169-0.161-0.334-0.322-0.497-0.488
		c-0.066-0.066-0.131-0.13-0.196-0.194c-0.208-0.213-0.411-0.429-0.611-0.646c-0.009-0.011-0.02-0.021-0.029-0.032
		c-0.211-0.23-0.418-0.467-0.619-0.704c-0.056-0.065-0.108-0.128-0.162-0.191c-0.151-0.184-0.3-0.367-0.447-0.552
		c-0.054-0.067-0.108-0.136-0.163-0.205c-0.176-0.227-0.347-0.454-0.515-0.685c-4.643-6.333-6.311-15.066-2.6-22.24"/>
	<path fill="#0A69AD" d="M16.305,6.739c-3.047,4.386-2.882,10.257-0.504,14.896c0.399,0.777,0.846,1.531,1.348,2.249
		c0.457,0.655,0.962,1.433,1.569,1.96c0.219,0.24,0.449,0.476,0.684,0.709c0.059,0.06,0.12,0.119,0.18,0.178
		c0.227,0.221,0.459,0.438,0.698,0.649c0.01,0.007,0.02,0.018,0.028,0.025c0.003,0.001,0.006,0.002,0.008,0.006
		c0.265,0.232,0.538,0.455,0.816,0.675c0.062,0.047,0.123,0.097,0.185,0.145c0.278,0.214,0.562,0.424,0.854,0.623
		c0.008,0.007,0.016,0.013,0.025,0.019c0.128,0.089,0.258,0.173,0.388,0.257c0.063,0.041,0.123,0.085,0.186,0.123
		c0.208,0.132,0.418,0.262,0.632,0.387c0.03,0.019,0.06,0.035,0.089,0.051c0.185,0.107,0.373,0.213,0.56,0.313
		c0.064,0.037,0.132,0.069,0.198,0.103c0.131,0.069,0.26,0.139,0.392,0.203c0.02,0.01,0.041,0.02,0.059,0.028
		c0.269,0.131,0.54,0.259,0.817,0.38c0.059,0.025,0.119,0.049,0.18,0.073c0.221,0.094,0.445,0.186,0.668,0.272
		c0.096,0.036,0.191,0.069,0.287,0.104c0.205,0.075,0.408,0.145,0.613,0.214c0.094,0.029,0.186,0.061,0.279,0.089
		c0.293,0.092,0.582,0.206,0.889,0.257c15.736,2.606,19.367-9.509,19.367-9.509c-3.273,4.717-9.617,6.967-16.385,5.211
		c-0.299-0.079-0.596-0.166-0.889-0.258c-0.092-0.027-0.18-0.058-0.27-0.087c-0.209-0.068-0.418-0.141-0.625-0.216
		c-0.092-0.035-0.188-0.068-0.279-0.105c-0.227-0.085-0.449-0.176-0.672-0.27c-0.061-0.024-0.121-0.049-0.178-0.075
		c-0.279-0.122-0.553-0.249-0.824-0.383c-0.137-0.067-0.273-0.139-0.41-0.209c-0.08-0.041-0.158-0.082-0.238-0.122
		c-0.174-0.095-0.35-0.194-0.521-0.294c-0.039-0.024-0.084-0.047-0.123-0.07c-0.215-0.125-0.424-0.254-0.633-0.386
		c-0.062-0.04-0.125-0.085-0.189-0.127c-0.137-0.09-0.273-0.18-0.408-0.27c-0.29-0.201-0.572-0.411-0.851-0.622
		c-0.063-0.051-0.127-0.101-0.19-0.152c-2.962-2.338-5.31-5.534-6.427-9.159c-1.17-3.758-0.917-7.978,1.109-11.402"/>
	<path fill="#0A69AD" d="M27.309,2.927c-1.797,2.644-1.975,5.928-0.729,8.848c1.316,3.1,4.01,5.531,7.154,6.684
		c0.129,0.048,0.26,0.091,0.391,0.135c0.057,0.018,0.115,0.038,0.172,0.055c0.186,0.058,0.369,0.125,0.561,0.162
		c8.689,1.678,11.045-4.459,11.672-5.362c-2.062,2.972-5.533,3.686-9.791,2.652c-0.334-0.082-0.703-0.203-1.027-0.318
		c-0.418-0.148-0.826-0.317-1.225-0.508c-0.756-0.363-1.475-0.804-2.145-1.309c-3.809-2.891-6.174-8.403-3.688-12.894"/>
</g>
</svg>
