<?xml version="1.0" encoding="utf-8"?>
<!-- Generator: Adobe Illustrator 19.0.0, SVG Export Plug-In . SVG Version: 6.00 Build 0)  -->
<svg version="1.1" id="Layer_1" xmlns="http://www.w3.org/2000/svg" xmlns:xlink="http://www.w3.org/1999/xlink" x="0px" y="0px"
	 viewBox="208 0 48 48" style="enable-background:new 208 0 48 48;" xml:space="preserve">
<style type="text/css">
	.st0{fill:#53C1DE;}
</style>
<g>
	<path class="st0" d="M247.5,16.6c-0.5-0.2-1-0.3-1.5-0.5c0.1-0.4,0.2-0.7,0.2-1c1.2-5.6,0.4-10.2-2.2-11.6
		c-2.5-1.4-6.5,0.1-10.6,3.6c-0.4,0.3-0.8,0.7-1.2,1.1c-0.3-0.3-0.5-0.5-0.8-0.7c-4.3-3.8-8.6-5.4-11.2-3.9c-2.5,1.4-3.2,5.7-2.2,11
		c0.1,0.5,0.2,1,0.4,1.6c-0.6,0.2-1.2,0.4-1.8,0.6c-5,1.8-8.3,4.5-8.3,7.4c0,2.9,3.5,5.9,8.7,7.7c0.4,0.1,0.8,0.3,1.3,0.4
		c-0.1,0.6-0.3,1.1-0.4,1.7c-1,5.2-0.2,9.4,2.3,10.8c2.6,1.5,6.8,0,11-3.7c0.3-0.3,0.7-0.6,1-0.9c0.4,0.4,0.9,0.8,1.3,1.2
		c4,3.5,8,4.9,10.5,3.5c2.6-1.5,3.4-5.9,2.3-11.4c-0.1-0.4-0.2-0.8-0.3-1.3c0.3-0.1,0.6-0.2,0.9-0.3c5.5-1.8,9-4.7,9-7.7
		C256,21.1,252.7,18.4,247.5,16.6z M234.8,8.6c3.5-3.1,6.8-4.3,8.3-3.4c1.6,0.9,2.2,4.6,1.2,9.5c-0.1,0.3-0.1,0.6-0.2,0.9
		c-2-0.5-4.1-0.8-6.4-1c-1.3-1.9-2.7-3.6-4-5C234,9.2,234.4,8.9,234.8,8.6z M223.6,24c0.6-1.3,1.3-2.6,2-3.8c0,0,0,0,0,0l0,0l0,0
		c0.7-1.3,1.5-2.5,2.3-3.7c1.4-0.1,2.9-0.2,4.3-0.2h0c1.5,0,2.9,0.1,4.3,0.2c0.8,1.2,1.6,2.4,2.3,3.7c0.7,1.3,1.4,2.6,2.1,3.8
		c-0.6,1.3-1.3,2.6-2,3.8c-0.7,1.3-1.5,2.5-2.3,3.7c-1.4,0.1-2.9,0.2-4.4,0.2c-1.5,0-2.9,0-4.3-0.1c-0.8-1.2-1.6-2.4-2.3-3.7h0
		C224.9,26.6,224.2,25.3,223.6,24z M222.5,26.4c0.4,0.8,0.9,1.6,1.3,2.5h0c0.5,0.8,1,1.6,1.5,2.4c-1.6-0.2-3-0.4-4.4-0.7
		C221.4,29.3,221.9,27.9,222.5,26.4z M222.5,21.7c-0.6-1.4-1.1-2.8-1.5-4.1c1.4-0.3,2.8-0.6,4.3-0.7c-0.5,0.8-1,1.6-1.5,2.4v0
		C223.4,20,222.9,20.8,222.5,21.7z M240.6,28.9c0.5-0.8,0.9-1.7,1.4-2.5c0.6,1.4,1.2,2.9,1.6,4.2c-1.4,0.3-2.9,0.6-4.4,0.8
		C239.7,30.5,240.1,29.7,240.6,28.9z M242,21.7c-0.4-0.8-0.9-1.6-1.4-2.5c-0.5-0.8-1-1.6-1.4-2.4c1.5,0.2,3,0.4,4.3,0.8
		C243.1,18.9,242.6,20.2,242,21.7z M232.2,11c0.9,1,1.9,2.1,2.8,3.4c-0.9,0-1.9-0.1-2.8-0.1c-0.9,0-1.9,0-2.8,0.1
		C230.3,13.2,231.3,12.1,232.2,11z M221.3,5.2c1.6-0.9,5.1,0.4,8.8,3.7c0.2,0.2,0.5,0.4,0.7,0.7c-1.4,1.5-2.7,3.2-4.1,5
		c-2.2,0.2-4.4,0.5-6.3,1c-0.1-0.5-0.2-1-0.3-1.5C219.2,9.5,219.8,6.1,221.3,5.2z M219,30.1c-0.4-0.1-0.8-0.2-1.2-0.4
		c-2.3-0.8-4.2-1.8-5.5-2.9c-1.2-1-1.8-2-1.8-2.8c0-1.7,2.6-3.9,6.9-5.4c0.5-0.2,1.1-0.4,1.6-0.5c0.6,1.9,1.4,4,2.3,6
		C220.4,26.1,219.6,28.2,219,30.1z M230,39.4c-1.8,1.6-3.7,2.8-5.3,3.3c-1.5,0.5-2.6,0.5-3.3,0.1c-1.5-0.9-2.1-4.2-1.3-8.7
		c0.1-0.5,0.2-1,0.3-1.6c1.9,0.4,4.1,0.7,6.4,0.9c1.3,1.9,2.7,3.6,4.1,5C230.6,38.9,230.3,39.1,230,39.4z M232.3,37.1
		c-1-1-1.9-2.2-2.9-3.4c0.9,0,1.8,0.1,2.8,0.1c1,0,1.9,0,2.9-0.1C234.2,34.9,233.2,36.1,232.3,37.1z M244.6,39.9
		c-0.3,1.5-0.9,2.5-1.6,3c-1.5,0.9-4.7-0.3-8.2-3.2c-0.4-0.3-0.8-0.7-1.2-1.1c1.3-1.5,2.7-3.2,4-5.1c2.3-0.2,4.5-0.5,6.4-1
		c0.1,0.4,0.2,0.8,0.3,1.2C244.9,36.1,245,38.2,244.6,39.9z M246.4,29.8c-0.3,0.1-0.5,0.2-0.8,0.2c-0.6-1.9-1.4-3.9-2.4-6
		c0.9-2,1.7-4,2.3-5.9c0.5,0.1,1,0.3,1.4,0.4c4.4,1.5,7.1,3.8,7.1,5.5C254,25.8,251.1,28.2,246.4,29.8z"/>
	<path class="st0" d="M232.2,19.7c2.3,0,4.2,1.9,4.2,4.2c0,2.3-1.9,4.2-4.2,4.2c-2.3,0-4.2-1.9-4.2-4.2
		C228,21.6,229.9,19.7,232.2,19.7"/>
</g>
</svg>
