<?xml version="1.0" encoding="utf-8"?>
<!-- Generated by IcoMoon.io -->
<!DOCTYPE svg PUBLIC "-//W3C//DTD SVG 1.1//EN" "http://www.w3.org/Graphics/SVG/1.1/DTD/svg11.dtd">
<svg version="1.1" xmlns="http://www.w3.org/2000/svg" xmlns:xlink="http://www.w3.org/1999/xlink" width="37" height="48" viewBox="0 0 37 48">
<g id="icomoon-ignore">
	<line stroke-width="1" x1="" y1="" x2="" y2="" stroke="#449FDB" opacity=""></line>
</g>
	<path d="M25.62 14.714c0 0-0.566-5.278-5.802-5.424s-7.926 3.958-7.926 9.822 2.972 10.555 8.067 10.555c5.095 0 5.661-5.864 5.661-5.864l9.765 0.586s0.575 5.296-3.511 9.336c-4.086 4.040-9.102 4.7-12.605 4.673s-8.359 0.055-13.055-4.755c-4.697-4.81-5.494-9.483-5.494-14.073s0.891-10.671 6.475-15.283c3.795-3.133 7.643-4.288 11.49-4.288 16.063 0 17.142 14.815 17.142 14.815z" fill="#000000"></path>
</svg>
