<?xml version="1.0" encoding="utf-8"?>
<!-- Generated by IcoMoon.io -->
<!DOCTYPE svg PUBLIC "-//W3C//DTD SVG 1.1//EN" "http://www.w3.org/Graphics/SVG/1.1/DTD/svg11.dtd">
<svg version="1.1" xmlns="http://www.w3.org/2000/svg" xmlns:xlink="http://www.w3.org/1999/xlink" width="48" height="48" viewBox="0 0 48 48">
<g id="icomoon-ignore">
	<line stroke-width="1" x1="" y1="" x2="" y2="" stroke="#449FDB" opacity=""></line>
</g>
	<path d="M30.064 4.107v5.191c-1.657-1.543-3.428-2.697-5.313-3.461-1.869-0.764-3.859-1.145-5.972-1.145-4.16 0-7.344 1.276-9.554 3.827-2.21 2.535-3.315 6.207-3.315 11.016 0 4.793 1.105 8.465 3.315 11.016 2.21 2.535 5.395 3.802 9.554 3.802 2.112 0 4.103-0.382 5.971-1.146 1.885-0.764 3.656-1.917 5.313-3.461v5.143c-1.722 1.17-3.55 2.047-5.484 2.632-1.917 0.585-3.948 0.877-6.093 0.877-5.508 0-9.847-1.682-13.015-5.045-3.168-3.38-4.752-7.986-4.752-13.82 0-5.849 1.584-10.456 4.753-13.82 3.169-3.38 7.507-5.070 13.015-5.070 2.177 0 4.225 0.293 6.142 0.877 1.934 0.569 3.745 1.43 5.435 2.584zM24.105 12.252v6.309h6.309v1.925h-6.309v6.309h-1.903v-6.309h-6.309v-1.925h6.309v-6.309h1.903zM42.411 12.252v6.309h6.309v1.925h-6.309v6.309h-1.903v-6.309h-6.309v-1.925h6.309v-6.309h1.903z" fill="#000000"></path>
</svg>
