<?xml version="1.0" encoding="utf-8"?>
<!-- Generated by IcoMoon.io -->
<!DOCTYPE svg PUBLIC "-//W3C//DTD SVG 1.1//EN" "http://www.w3.org/Graphics/SVG/1.1/DTD/svg11.dtd">
<svg version="1.1" xmlns="http://www.w3.org/2000/svg" xmlns:xlink="http://www.w3.org/1999/xlink" width="48" height="48" viewBox="0 0 48 48">
<g id="icomoon-ignore">
	<line stroke-width="1" x1="" y1="" x2="" y2="" stroke="#449FDB" opacity=""></line>
</g>
	<path d="M43.703 12.122c0-2.437-0.002-4.872 0.002-7.309 0.514-0.002 1.031-0.002 1.547-0.002 0.008 2.3 0 4.601 0.004 6.901 1.156-0.307 2.308-0.621 3.464-0.928 0.002 1.283 0.002 2.566 0 3.851-1.154 0.312-2.312 0.619-3.464 0.933 0 3.136-0.002 6.275 0 9.411 1.156-0.307 2.308-0.621 3.464-0.928 0.002 1.283 0 2.566 0 3.849-1.154 0.314-2.31 0.619-3.464 0.933-0.004 2.27 0 4.541-0.002 6.811-0.516 0-1.034 0-1.55-0.002-0.002-2.14 0.002-4.281 0-6.42-2.304 0.619-4.606 1.238-6.909 1.863-0.002 2.439 0.002 4.876-0.002 7.314h-1.56c-0.004-2.3 0.002-4.603-0.002-6.903-1.152 0.307-2.3 0.621-3.452 0.926-0.002-1.29-0.002-2.581 0-3.871 1.15-0.314 2.302-0.617 3.452-0.931 0-3.129 0.004-6.26 0-9.388-1.152 0.305-2.3 0.619-3.452 0.926-0.002-1.285-0.002-2.568 0-3.851 1.15-0.314 2.302-0.617 3.452-0.931 0.002-2.272 0-4.546 0.002-6.821 0.52 0 1.040 0 1.562 0.002 0.002 2.141-0.002 4.285 0 6.428 2.304-0.619 4.606-1.238 6.909-1.863zM36.796 17.839c-0.004 3.131-0.002 6.261-0.002 9.392 2.304-0.621 4.606-1.242 6.909-1.863 0-3.131 0.002-6.26-0.002-9.39-2.302 0.617-4.603 1.242-6.905 1.861zM8.756 6.646c2.738-1.339 5.878-1.704 8.887-1.371 2.86 0.322 5.654 1.586 7.614 3.722 1.423 1.522 2.355 3.437 2.944 5.422-1.369 0.325-2.738 0.651-4.109 0.973-0.724-2.327-2.104-4.61-4.35-5.73-2.497-1.231-5.495-1.124-8.098-0.288-2.88 0.946-4.891 3.555-5.773 6.372-1.014 3.23-0.982 6.714-0.402 10.022 0.464 2.667 1.78 5.263 4.028 6.851 2.461 1.805 5.775 2.121 8.676 1.386 2.222-0.565 4.088-2.171 5.124-4.199 0.591-1.098 0.974-2.295 1.27-3.503 1.391 0.355 2.787 0.699 4.176 1.066-0.772 2.938-2.183 5.835-4.597 7.767-2.491 2.048-5.775 2.925-8.966 2.824-3.585-0.036-7.389-1.031-9.923-3.71-2.542-2.753-3.959-6.415-4.384-10.107-0.352-3.466-0.151-7.073 1.18-10.325 1.255-3.105 3.697-5.7 6.703-7.17z" fill="#000000"></path>
</svg>
