<?xml version="1.0" encoding="utf-8"?>
<!-- Generated by IcoMoon.io -->
<!DOCTYPE svg PUBLIC "-//W3C//DTD SVG 1.1//EN" "http://www.w3.org/Graphics/SVG/1.1/DTD/svg11.dtd">
<svg version="1.1" xmlns="http://www.w3.org/2000/svg" xmlns:xlink="http://www.w3.org/1999/xlink" width="32" height="48" viewBox="0 0 32 48">
<g id="icomoon-ignore">
	<line stroke-width="1" x1="" y1="" x2="" y2="" stroke="#449FDB" opacity=""></line>
</g>
	<path d="M10.54 32.294c0 0-1.58 0.928 1.124 1.242 3.276 0.377 4.951 0.323 8.561-0.367 0 0 0.949 0.601 2.275 1.122-8.094 3.504-18.319-0.204-11.961-1.998zM9.552 27.723c0 0-1.772 1.325 0.934 1.608 3.5 0.365 6.264 0.395 11.047-0.536 0 0 0.662 0.677 1.702 1.048-9.787 2.892-20.686 0.229-13.683-2.119zM17.889 19.968c1.994 2.319-0.524 4.406-0.524 4.406s5.064-2.64 2.738-5.947c-2.172-3.083-3.838-4.615 5.18-9.897 0 0-14.154 3.571-7.394 11.438zM28.594 35.677c0 0 1.169 0.973-1.288 1.726-4.672 1.429-19.446 1.861-23.549 0.057-1.475-0.648 1.291-1.548 2.162-1.736 0.908-0.199 1.426-0.162 1.426-0.162-1.641-1.167-10.604 2.292-4.553 3.283 16.503 2.702 30.085-1.217 25.803-3.167zM11.3 22.986c0 0-7.515 1.803-2.661 2.457 2.049 0.277 6.135 0.214 9.94-0.108 3.11-0.265 6.233-0.828 6.233-0.828s-1.097 0.474-1.89 1.021c-7.631 2.027-22.374 1.084-18.128-0.989 3.589-1.751 6.507-1.552 6.507-1.552zM24.781 30.595c7.757-4.071 4.171-7.984 1.667-7.457-0.614 0.129-0.887 0.241-0.887 0.241s0.228-0.36 0.663-0.516c4.953-1.759 8.761 5.187-1.599 7.937 0 0.002 0.12-0.108 0.156-0.205zM20.104 0c0 0 4.296 4.341-4.075 11.015-6.712 5.354-1.53 8.406-0.002 11.895-3.918-3.569-6.794-6.713-4.865-9.639 2.83-4.294 10.673-6.376 8.942-13.27zM12.063 41.629c7.446 0.481 18.88-0.267 19.151-3.826 0 0-0.521 1.349-6.154 2.42-6.355 1.208-14.193 1.067-18.842 0.293-0 0 0.951 0.796 5.845 1.113z" fill="#000000"></path>
</svg>
