<?xml version="1.0" encoding="utf-8"?>
<!-- Generated by IcoMoon.io -->
<!DOCTYPE svg PUBLIC "-//W3C//DTD SVG 1.1//EN" "http://www.w3.org/Graphics/SVG/1.1/DTD/svg11.dtd">
<svg version="1.1" xmlns="http://www.w3.org/2000/svg" xmlns:xlink="http://www.w3.org/1999/xlink" width="38" height="48" viewBox="0 0 38 48">
<g id="icomoon-ignore">
	<line stroke-width="1" x1="" y1="" x2="" y2="" stroke="#449FDB" opacity=""></line>
</g>
	<path d="M19.232 41.76c-0.559 0-1.115-0.146-1.604-0.43l-5.11-3.023c-0.763-0.427-0.39-0.578-0.139-0.666 1.019-0.353 1.224-0.435 2.311-1.051 0.113-0.064 0.263-0.040 0.38 0.029l3.924 2.33c0.143 0.079 0.344 0.079 0.475 0l15.302-8.832c0.143-0.081 0.234-0.246 0.234-0.414v-17.66c0-0.173-0.091-0.334-0.237-0.422l-15.297-8.825c-0.142-0.082-0.329-0.082-0.472 0l-15.293 8.828c-0.148 0.085-0.242 0.251-0.242 0.419v17.66c0 0.169 0.094 0.329 0.241 0.409l4.193 2.422c2.275 1.137 3.668-0.202 3.668-1.548v-17.436c0-0.246 0.198-0.441 0.444-0.441h1.941c0.242 0 0.442 0.195 0.442 0.441v17.436c0 3.035-1.653 4.776-4.531 4.776-0.885 0-1.581 0-3.525-0.958l-4.013-2.31c-0.992-0.573-1.604-1.644-1.604-2.792v-17.66c0-1.148 0.613-2.219 1.604-2.789l15.304-8.843c0.968-0.548 2.255-0.548 3.215 0l15.302 8.843c0.992 0.573 1.607 1.642 1.607 2.789v17.66c0 1.147-0.615 2.215-1.607 2.792l-15.289 8.836c-0.489 0.283-1.044 0.429-1.611 0.429zM23.956 29.593c-6.697 0-8.1-3.074-8.1-5.652 0-0.245 0.198-0.441 0.442-0.441h1.979c0.221 0 0.405 0.159 0.44 0.375 0.298 2.014 1.189 3.031 5.239 3.031 3.223 0 4.596-0.729 4.596-2.44 0-0.986-0.389-1.718-5.399-2.208-4.187-0.414-6.777-1.339-6.777-4.689 0-3.088 2.602-4.929 6.965-4.929 4.903 0 7.328 1.702 7.636 5.352 0.012 0.126-0.033 0.247-0.116 0.341-0.085 0.088-0.202 0.141-0.324 0.141h-1.987c-0.206 0-0.388-0.146-0.429-0.346-0.476-2.12-1.636-2.797-4.779-2.797-3.52 0-3.928 1.227-3.928 2.145 0 1.113 0.483 1.437 5.235 2.066 4.703 0.622 6.937 1.502 6.937 4.807 0 3.334-2.781 5.244-7.629 5.244z" fill="#000000"></path>
</svg>
