<?xml version="1.0" encoding="utf-8"?>
<!-- Generated by IcoMoon.io -->
<!DOCTYPE svg PUBLIC "-//W3C//DTD SVG 1.1//EN" "http://www.w3.org/Graphics/SVG/1.1/DTD/svg11.dtd">
<svg version="1.1" xmlns="http://www.w3.org/2000/svg" xmlns:xlink="http://www.w3.org/1999/xlink" width="40" height="48" viewBox="0 0 40 48">
<g id="icomoon-ignore">
	<line stroke-width="1" x1="" y1="" x2="" y2="" stroke="#449FDB" opacity=""></line>
</g>
	<path d="M3.795 0.090v-0h32.355c1.632 0 2.97 1.347 2.97 2.835v0.045c0 0.096-0.045 0.249-0.045 0.345l-3.165 29.040c0.049 1.151-0.579 2.247-1.635 2.775l-12.87 6.345c-0.432 0.191-0.858 0.285-1.29 0.285s-0.873-0.094-1.305-0.285l-12.9-6.345c-0.576-0.288-1.062-0.715-1.35-1.29-0.24-0.336-0.387-0.723-0.435-1.155l-3.255-29.28c0-0.096-0.15-0.234-0.15-0.33v-0.045c0-1.584 1.443-2.94 3.075-2.94zM31.080 9.6c-1.344 0-2.324 0.296-2.94 0.885-0.616 0.582-0.915 1.513-0.915 2.805v2.070c0 1.004-0.162 1.697-0.495 2.085s-0.94 0.585-1.815 0.585h-0.57v2.235h0.57c0.875 0 1.482 0.19 1.815 0.585 0.333 0.388 0.495 1.095 0.495 2.1v1.92c0 1.292 0.299 2.231 0.915 2.82s1.596 0.885 2.94 0.885h2.010v-2.25h-0.63c-0.869 0-1.445-0.155-1.71-0.45-0.259-0.287-0.39-0.902-0.39-1.86v-1.665c0-1.044-0.128-1.804-0.405-2.28-0.271-0.475-0.755-0.809-1.44-0.99 0.678-0.168 1.163-0.485 1.44-0.96s0.405-1.244 0.405-2.295v-1.665c0-0.95 0.131-1.572 0.39-1.86 0.265-0.295 0.841-0.435 1.71-0.435h0.63v-2.265h-2.010zM13.875 10.77c-1.109 0-2.189 0.219-3.225 0.675-1.030 0.455-1.939 1.105-2.715 1.935-0.777 0.837-1.366 1.805-1.785 2.91s-0.63 2.261-0.63 3.48c0 1.265 0.202 2.45 0.615 3.555 0.413 1.098 1.011 2.073 1.8 2.91s1.689 1.47 2.7 1.905c1.011 0.442 2.1 0.66 3.24 0.66 0.937 0 1.854-0.177 2.76-0.525 0.912-0.341 1.75-0.836 2.52-1.485l-0.99-1.62c-0.549 0.535-1.203 0.96-1.98 1.275s-1.563 0.465-2.34 0.465c-0.906 0-1.749-0.177-2.55-0.525-0.795-0.342-1.513-0.829-2.13-1.485-0.623-0.67-1.093-1.44-1.425-2.31-0.327-0.877-0.495-1.822-0.495-2.82 0-1.212 0.26-2.338 0.765-3.375 0.511-1.044 1.218-1.894 2.13-2.55 0.555-0.395 1.162-0.684 1.815-0.885 0.653-0.207 1.34-0.315 2.055-0.315 1.023 0 1.975 0.218 2.85 0.66 0.881 0.442 1.605 1.073 2.19 1.89 0.363 0.489 0.646 1.031 0.825 1.62 0.179 0.583 0.255 1.206 0.255 1.875-0 1.051-0.208 1.919-0.645 2.595-0.438 0.669-1.036 1.058-1.8 1.185v-6.96h-1.935v1.32c-0.185-0.475-0.487-0.842-0.9-1.11-0.407-0.268-0.892-0.405-1.44-0.405-1.054 0-1.915 0.423-2.58 1.26s-0.99 1.916-0.99 3.255c0 1.339 0.33 2.434 0.99 3.27 0.666 0.83 1.52 1.245 2.58 1.245 0.548 0 1.033-0.129 1.44-0.39 0.413-0.268 0.715-0.649 0.9-1.125v1.545h0.36c1.831 0 3.24-0.496 4.245-1.5s1.515-2.416 1.515-4.23c0-0.844-0.12-1.637-0.36-2.4-0.234-0.77-0.588-1.489-1.050-2.145-0.758-1.078-1.707-1.906-2.835-2.475-1.128-0.576-2.369-0.855-3.75-0.855zM13.74 17.174c0.555 0 0.993 0.245 1.32 0.72 0.333 0.469 0.495 1.11 0.495 1.92 0 0.817-0.153 1.468-0.48 1.95-0.326 0.475-0.771 0.705-1.32 0.705-0.554 0-0.993-0.229-1.32-0.705-0.321-0.475-0.48-1.127-0.48-1.95 0-0.81 0.159-1.451 0.48-1.92 0.327-0.475 0.763-0.72 1.305-0.72z" fill="#000000"></path>
</svg>
