<?xml version="1.0" encoding="utf-8"?>
<!-- Generated by IcoMoon.io -->
<!DOCTYPE svg PUBLIC "-//W3C//DTD SVG 1.1//EN" "http://www.w3.org/Graphics/SVG/1.1/DTD/svg11.dtd">
<svg version="1.1" xmlns="http://www.w3.org/2000/svg" xmlns:xlink="http://www.w3.org/1999/xlink" width="46" height="48" viewBox="0 0 46 48">
<g id="icomoon-ignore">
	<line stroke-width="1" x1="" y1="" x2="" y2="" stroke="#449FDB" opacity=""></line>
</g>
	<path d="M30.762 0.006l-0.003-0c0.963-0.028 1.774 0.028 2.743 0.426 1.020 0.347 1.673 1.101 2.374 1.787 0.744 0.962 1.172 2.276 1.673 3.387 0.348 0.934 0.727 1.553 1.362 2.179 0.408 0.402 0.95 1.058 1.323 1.6 1.080 2.416 2.166 4.215 4.048 6.265 1.005 0.958 1.206 1.435 1.206 2.706 0.286 1.958 0.265 3.425-0.253 5.413-0.062 0.145-0.421 0.665-0.798 1.157-0.555 0.727-0.717 0.9-0.875 0.97-0.128 0.056-0.241 0.088-0.331 0.068-0.207-0.046-0.473-0.3-0.545-0.528-0.090-0.286 0.033-0.679 0.389-1.226 0.6-0.882 0.919-1.905 0.72-2.928-0.154-0.74-0.092-1.504-0.214-2.247-0.199-0.802-0.489-1.243-0.798-1.243-0.336 0-0.592 0.513-1.012 1.94l-0.272 2.638c-0.022 2.158 0.045 3.842 0.175 4.306 0.131 0.467 0.132 1.93 0 2.553-0.122 0.576-0.087 0.822 0.175 1.362 0.265 0.546 0.351 0.917 0.311 1.549-0.034 0.544-0.106 0.779-0.35 1.311-0.273 0.593-0.32 0.823-0.37 1.736-0.026 0.475-0.093 0.987-0.136 1.14-0.248 0.885-0.211 1.094 0.272 2.4 0.304 0.821 0.485 1.594 0.409 1.702-0.029 0.441 0.109 0.889 0.039 1.328-0.562-0.1-1.54-0.275-3.19-0.511 0.017-0.035 0.020-0.066 0.039-0.102 0.317-0.598 0.377-0.744 0.467-1.345 0.093-0.624 0.203-0.983 0.681-2.213 0.326-0.838 0.338-0.907 0.37-1.43 0.054-0.895-0.008-2.225-0.136-2.689-0.168-0.611-0.214-1.087-0.214-2.281-0-0.811-0.017-1.2-0.078-1.481-0.115-0.531-0.489-1.4-0.934-2.179-0.468-0.821-0.614-1.116-0.817-1.77-0.334-0.919-0.869-1.743-1.031-2.706-0.142-0.981-0.434-1.447-0.914-1.447-0.358 0-0.555 0.215-0.973 0.97-0.731 1.126-1.262 2.161-1.401 3.472-0.167 1.093-0.24 2.164-0.233 3.268v1.549l-0.156 0.272c-0.094 0.151-0.37 0.47-0.623 0.698-0.315 0.284-0.522 0.514-0.661 0.749-0.372 0.626-0.612 0.961-1.070 1.498-0.511 0.599-0.955 1.304-1.050 1.702-0.078 0.326-0.018 0.664 0.175 0.919 0.073 0.096 0.309 0.302 0.525 0.46 0.641 0.468 0.856 0.775 1.012 1.566 0.068 0.345 0.070 0.481 0.019 0.783-0.073 0.439-0.199 0.748-0.389 0.953-0.515-0.038-1.031-0.073-1.556-0.102-0.14-0.125-0.283-0.283-0.428-0.477-0.3-0.399-0.524-0.615-0.72-0.63s-0.348 0.166-0.545 0.528c-0.108 0.198-0.239 0.352-0.389 0.477-1.299-0.038-2.594-0.046-3.871-0.034-0.015-0.049-0.012-0.095 0-0.153 0.055-0.256 0.328-0.457 1.050-0.766 0.525-0.224 0.707-0.332 0.973-0.562 0.518-0.448 0.877-1.129 0.875-1.668-0.088-0.738-0.792-1.302-1.284-1.872-0.463-0.542-1.231-1.194-1.906-1.617-0.697-0.437-1.355-0.931-1.576-1.192-0.099-0.118-0.227-0.353-0.292-0.528-0.108-0.293-0.117-0.394-0.117-1.379 0.001-1.226 0.013-1.291 0.486-2.026 0.371-0.577 0.516-0.991 0.584-1.719 0.031-0.332 0.122-0.831 0.195-1.106 0.162-0.614 0.141-0.895-0.058-1.123-0.212-0.243-0.52-0.325-1.206-0.323-0.163 0-0.307-0.011-0.428 0-0.363 0.034-0.555 0.14-0.778 0.34-0.396 0.357-0.583 0.874-0.642 1.872-0.051 0.856-0.095 1-0.623 1.94-0.388 0.692-0.48 1.006-0.681 2.060-0.101 0.531-0.127 0.736-0.117 1.736 0.011 1.1 0.008 1.173-0.117 1.549-0.071 0.215-0.281 0.674-0.467 1.021-0.408 0.764-0.475 0.983-0.545 1.736-0.030 0.321-0.102 0.834-0.175 1.14-0.080 0.339-0.147 0.831-0.175 1.26-0.028 0.439-0.138 1.061-0.272 1.651-1.067 0.065-1.814 0.098-2.295 0.136l-0.058-0.017c0.289-0.488 0.686-1.088 0.817-1.345 0.244-0.476 0.598-1.598 0.7-2.213 0.241-1.452 0.266-1.831 0.156-2.298-0.032-0.138-0.074-0.81-0.097-1.498-0.035-1.019-0.050-1.334-0.136-1.634-0.132-0.461-0.234-1.018-0.233-1.464 0-0.545-0.091-1.52-0.214-2.162-0.166-0.866-0.167-2.406 0-3.217 0.137-0.665 0.104-0.942-0.136-1.243-0.352-0.441-0.729-0.488-1.673-0.221-2.718 0.727-5.546-1.132-7.139-2.911-1.058-1.545-2.584-2.526-2.743-4.375-0.12-1.508-0.344-2.782-0.272-4.323-0.059-1.409 0.951-2.384 1.323-3.796-0.236-1.333-2.098-0.998-3.19-1.447-0.542-0.257-0.814-0.731-0.7-1.209 0.136-0.573 0.753-1.372 1.264-1.634 1.069-0.435 2.284-0.266 3.424-0.511 0.954-0.214 1.343-0.372 1.926-0.834 0.871-0.691 1.092-0.798 1.868-0.8 3.472 0.2 4.678 3.618 5 6.179 0.13 1.944-0.803 3.597-1.323 5.43-0.216 0.757 0.454 1.841 1.303 1.055 0.551-1.501 0.647-2.655 1.751-3.983 1.092-1.278 2-2.042 3.112-2.621 0.896-0.515 1.788-1.104 2.49-1.821 0.375-0.464 1.099-1.488 1.264-1.804 0.66-1.425 2.196-2.362 3.793-2.911 1.032-0.319 2.036-0.757 3.112-0.953 0.364-0.017 0.71-0.042 1.031-0.051zM29.689 23.615l0.001 0.001c-0.077-0.004-0.149 0.021-0.253 0.068-0.217 0.098-0.337 0.315-0.603 1.191-0.288 0.948-0.402 1.226-0.642 1.532-0.67 0.854-0.674 0.868-0.836 1.702-0.179 0.92-0.199 0.953-0.914 1.6-0.346 0.313-0.814 0.719-1.031 0.902-0.496 0.419-0.681 0.748-0.681 1.191 0 0.339 0.060 0.499 0.545 1.26 0.426 0.67 0.583 0.852 0.953 1.192 0.346 0.317 1.064 0.804 1.459 0.986 0.287 0.133 0.576 0.151 0.798 0.051 0.225-0.102 0.451-0.362 0.661-0.749 0.106-0.194 0.369-0.612 0.584-0.936 0.703-1.061 0.886-1.561 0.953-2.689 0.024-0.4 0.061-0.956 0.097-1.226 0.071-0.523 0.032-1.007-0.214-2.553-0.056-0.35-0.145-1.169-0.214-1.821-0.132-1.25-0.189-1.436-0.428-1.6-0.085-0.058-0.157-0.098-0.233-0.102z" fill="#000000"></path>
</svg>
