<?xml version="1.0" encoding="utf-8"?>
<!-- Generated by IcoMoon.io -->
<!DOCTYPE svg PUBLIC "-//W3C//DTD SVG 1.1//EN" "http://www.w3.org/Graphics/SVG/1.1/DTD/svg11.dtd">
<svg version="1.1" xmlns="http://www.w3.org/2000/svg" xmlns:xlink="http://www.w3.org/1999/xlink" width="51" height="48" viewBox="0 0 51 48">
<g id="icomoon-ignore">
	<line stroke-width="1" x1="" y1="" x2="" y2="" stroke="#449FDB" opacity=""></line>
</g>
	<path d="M24.381 7.926c6.011-0.132 12.145 0.759 17.614 3.311 4.838 2.087 9.953 6.982 8.255 12.787-2.401 6.687-9.931 9.408-16.386 10.728-9.874 1.661-21.104 0.814-29.201-5.475-3.848-2.81-5.405-8.729-2.266-12.67 5.092-6.492 14.065-8.326 21.984-8.682zM25.073 11.296v0.001c-4.054 0.067-8.021 0.628-11.875 1.957-3.984 1.466-9.437 4.17-9.079 9.182 1.311 5.168 7.23 7.243 11.831 8.55 9.247 2.088 19.825 1.649 27.914-3.811 3.017-1.869 4.622-6.274 1.898-9.109-5.245-5.559-13.425-6.694-20.689-6.769zM12.996 27.338l1.989-10.070h4.6c1.989 0.124 2.984 1.119 2.984 2.86 0 2.984-2.362 4.724-4.476 4.6h-2.238l-0.497 2.611zM16.353 22.862l1.492-0c1.119-0.124 2.114-0.497 2.238-2.611 0-0.746-0.622-1.119-1.492-1.119h-1.616zM21.824 24.727l1.989-10.070h2.362l-0.497 2.611h2.238c1.989 0.124 2.735 1.119 2.487 2.362l-0.87 5.097h-2.487l0.87-4.6c0.124-0.622 0.124-0.995-0.746-0.995h-1.865l-1.119 5.595zM29.656 27.338l1.989-10.070h4.6c1.989 0.124 2.984 1.119 2.984 2.86 0 2.984-2.362 4.724-4.476 4.6h-2.238l-0.497 2.611zM33.013 22.862l1.492-0c1.119-0.124 2.114-0.497 2.238-2.611 0-0.746-0.622-1.119-1.492-1.119h-1.616z" fill="#000000"></path>
</svg>
