<?xml version="1.0" encoding="utf-8"?>
<!-- Generated by IcoMoon.io -->
<!DOCTYPE svg PUBLIC "-//W3C//DTD SVG 1.1//EN" "http://www.w3.org/Graphics/SVG/1.1/DTD/svg11.dtd">
<svg version="1.1" xmlns="http://www.w3.org/2000/svg" xmlns:xlink="http://www.w3.org/1999/xlink" width="40" height="48" viewBox="0 0 40 48">
<g id="icomoon-ignore">
	<line stroke-width="1" x1="" y1="" x2="" y2="" stroke="#449FDB" opacity=""></line>
</g>
	<path d="M36.144 0.096v0c1.632 0 2.976 1.344 2.976 2.832v0.048c0 0.096-0.048 0.24-0.048 0.336l-3.168 29.040c0.048 1.152-0.576 2.256-1.632 2.784l-12.864 6.336c-0.432 0.192-0.864 0.288-1.296 0.288s-0.864-0.097-1.296-0.288l-12.912-6.336c-0.576-0.288-1.056-0.72-1.344-1.296-0.24-0.336-0.384-0.72-0.432-1.152l-3.264-29.28c0-0.096-0.144-0.24-0.144-0.336v-0.048c0-1.584 1.44-2.928 3.072-2.928h32.352zM6.272 24.443l2.526 0 0.532-2.791h2.393c2.26 0.133 4.785-1.728 4.785-4.918 0-1.861-1.063-2.924-3.19-3.057h-4.918zM9.861 19.658l0.665-3.988h1.728c0.93 0 1.595 0.399 1.595 1.196-0.133 2.26-1.196 2.658-2.393 2.791zM15.709 21.652l2.525 0 1.196-5.981h1.994c0.93 0 0.93 0.399 0.798 1.063l-0.93 4.918h2.658l0.93-5.45c0.266-1.329-0.532-2.393-2.658-2.525h-2.393l0.532-2.791h-2.525zM24.165 24.292l2.51 0 0.528-2.774h2.378c2.245 0.132 4.755-1.717 4.755-4.887 0-1.849-1.057-2.906-3.17-3.038h-4.887zM27.731 19.537l0.66-3.963h1.717c0.925 0 1.585 0.396 1.585 1.189-0.132 2.246-1.189 2.642-2.378 2.774z" fill="#000000"></path>
</svg>
