<?xml version="1.0" encoding="utf-8"?>
<!-- Generated by IcoMoon.io -->
<!DOCTYPE svg PUBLIC "-//W3C//DTD SVG 1.1//EN" "http://www.w3.org/Graphics/SVG/1.1/DTD/svg11.dtd">
<svg version="1.1" xmlns="http://www.w3.org/2000/svg" xmlns:xlink="http://www.w3.org/1999/xlink" width="42" height="48" viewBox="0 0 42 48">
<g id="icomoon-ignore">
	<line stroke-width="1" x1="" y1="" x2="" y2="" stroke="#449FDB" opacity=""></line>
</g>
	<path d="M20.613-0c10.632-0 9.81 5.572 9.81 5.572v9.207c0 5.568-5.41 5.477-5.41 5.477h-9.629c-5.774 0-5.592 5.952-5.592 5.952v4.99h-3.391s-5.682 0.382-5.682-10.371c0-10.753 6.51-9.979 6.51-9.979h13.564v-1.437h-9.708l-0.011-4.788s-0.636-4.621 9.538-4.621zM15.26 3.219c-0.966 0-1.747 0.818-1.747 1.83s0.781 1.83 1.747 1.83 1.747-0.818 1.747-1.83-0.781-1.83-1.747-1.83zM20.906 41.76c-10.632 0-9.81-5.571-9.81-5.571v-9.207c0-5.568 5.41-5.477 5.41-5.477h9.629c5.774 0 5.592-5.952 5.592-5.952v-4.99h3.391s5.682-0.382 5.682 10.371c0 10.753-6.51 9.979-6.51 9.979h-13.564v1.438h9.708l0.011 4.788s0.636 4.621-9.538 4.621zM26.258 38.54c0.966 0 1.747-0.818 1.747-1.83s-0.781-1.83-1.747-1.83-1.747 0.818-1.747 1.83 0.781 1.83 1.747 1.83z" fill="#000000"></path>
</svg>
