<?xml version="1.0" encoding="utf-8"?>
<!-- Generated by IcoMoon.io -->
<!DOCTYPE svg PUBLIC "-//W3C//DTD SVG 1.1//EN" "http://www.w3.org/Graphics/SVG/1.1/DTD/svg11.dtd">
<svg version="1.1" xmlns="http://www.w3.org/2000/svg" xmlns:xlink="http://www.w3.org/1999/xlink" width="43" height="48" viewBox="0 0 43 48">
<g id="icomoon-ignore">
	<line stroke-width="1" x1="" y1="" x2="" y2="" stroke="#449FDB" opacity=""></line>
</g>
	<path d="M11.41 40.55l0.018 0.036 0.006-0.039 0.16-0.020-0.001 0.016 27.143 1.076-36.922 0.141zM30.457 25.685l11.116 15.032-28.71-1.139zM42.692 40.525l-11.463-15.502 9.897-18.526zM0.752 36.92l1.313-12.597 2.281 1.954-3.625 11.323zM5.040 27.882l5.726 11.386-9.626 1.215zM10.695 36.603l-5.262-10.479 7.401-4.706zM29.469 24.741l-17.795 14.054 2.373-17.285zM22.48 11.134l6.615 12.53-14.935-3.308zM23.688 11.12l15.698-4.201-9.014 16.85zM23.151 9.994l2.174-5.63 12.286 1.994zM40.971 5.791l-13.125-2.303 10.485-3.408zM34.203 0l-9.908 3.221-1.793-0.482zM21.694 9.999l-8.912 9.941-7.956 4.969-2.251-1.928 3.19-5.941 7.536-8.412 7.196-5.026 3.328 0.895z" fill="#000000"></path>
</svg>
