<?xml version="1.0" encoding="utf-8"?>
<!-- Generated by IcoMoon.io -->
<!DOCTYPE svg PUBLIC "-//W3C//DTD SVG 1.1//EN" "http://www.w3.org/Graphics/SVG/1.1/DTD/svg11.dtd">
<svg version="1.1" xmlns="http://www.w3.org/2000/svg" xmlns:xlink="http://www.w3.org/1999/xlink" width="32" height="48" viewBox="0 0 32 48">
<g id="icomoon-ignore">
	<line stroke-width="1" x1="" y1="" x2="" y2="" stroke="#449FDB" opacity=""></line>
</g>
	<path d="M31.328 0l-0.115 9.823c-2.099 3.376-22.085 4.827-30.417 5.57v-9.823c8.663-0.945 28.28-2.954 30.532-5.57zM31.315 13.241l-0.117 9.823c-2.097 3.375-22.082 4.827-30.415 5.57v-9.823c8.663-0.945 28.278-2.954 30.532-5.57zM31.343 26.367l-0.117 9.823c-2.097 3.375-22.083 4.827-30.415 5.57v-9.823c8.663-0.945 28.28-2.953 30.532-5.57zM26.783 10.975l0.001-0c0.914-0.012 2.195 0.255 3.754 1.244 0.254 0.161 0.425 0.344 0.529 0.489s0.156 0.293 0.156 0.293l0.024 0.069-0.006 0.074-0.15 8.924-0.012 0.649-0.709-0.17c-9.961-2.4-18.732-6.5-29.597-7.020l-0.054-1 24.724-3.281c0.075-0.037 0.109-0.063 0.264-0.112 0.253-0.079 0.618-0.154 1.075-0.16zM26.803 11.98c-0.327 0.004-0.566 0.055-0.715 0.101s-0.18 0.069-0.18 0.069l-0.102 0.064-0.126 0.016-20.412 2.712c8.894 1.192 16.504 4.39 24.701 6.445l0.138-8.147c-0.035-0.050-0.104-0.123-0.228-0.202-1.402-0.889-2.423-1.067-3.076-1.058zM26.724 24.148l-0.002 0.001c0.915-0.012 2.199 0.263 3.754 1.266 0.507 0.327 0.679 0.782 0.679 0.782l0.024 0.074v0.074l-0.156 9.035-0.012 0.654-0.709-0.175c-9.934-2.433-18.682-6.584-29.512-7.11l-0.054-1 24.666-3.335c0.077-0.037 0.105-0.060 0.252-0.106 0.254-0.080 0.612-0.153 1.069-0.16zM26.74 25.159l-0.001 0c-0.324 0.004-0.555 0.054-0.703 0.101s-0.174 0.069-0.174 0.069l-0.108 0.064-0.132 0.016-20.375 2.749c8.877 1.204 16.47 4.454 24.647 6.536l0.144-8.243c-0.002-0.013-0.007-0.077-0.234-0.223-1.397-0.901-2.416-1.078-3.064-1.069z" fill="#000000"></path>
</svg>
