<?xml version="1.0" encoding="utf-8"?>
<!-- Generated by IcoMoon.io -->
<!DOCTYPE svg PUBLIC "-//W3C//DTD SVG 1.1//EN" "http://www.w3.org/Graphics/SVG/1.1/DTD/svg11.dtd">
<svg version="1.1" xmlns="http://www.w3.org/2000/svg" xmlns:xlink="http://www.w3.org/1999/xlink" width="48" height="48" viewBox="0 0 48 48">
<g id="icomoon-ignore">
	<line stroke-width="1" x1="" y1="" x2="" y2="" stroke="#449FDB" opacity=""></line>
</g>
	<path d="M0.72 1.145h48v40.615h-48v-40.615zM45.028 38.068l-0-29.539h-40.615v29.539h40.616zM22.056 12.966l-1.357 5.34h2.899l1.342-5.34h3.199l-1.385 5.34h2.756v3.070h-3.513l-1.057 4.184h2.927v3.070h-3.684l-1.342 5.326h-3.156l1.342-5.326h-2.927l-1.342 5.326h-3.156l1.342-5.326h-2.956v-3.070h3.713l1.057-4.184h-3.127v-3.070h3.913l1.342-5.34h3.17zM22.841 21.376h-2.927l-1.057 4.184h2.927l1.057-4.184zM31.847 29.916h3.813v4.041h-3.813v-4.041zM31.847 12.637h3.813v9.353l-0.471 5.098h-2.842l-0.5-5.098v-9.353z" fill="#000000"></path>
</svg>
