<?xml version="1.0" encoding="utf-8"?>
<!-- Generated by IcoMoon.io -->
<!DOCTYPE svg PUBLIC "-//W3C//DTD SVG 1.1//EN" "http://www.w3.org/Graphics/SVG/1.1/DTD/svg11.dtd">
<svg version="1.1" xmlns="http://www.w3.org/2000/svg" xmlns:xlink="http://www.w3.org/1999/xlink" width="40" height="48" viewBox="0 0 40 48">
<g id="icomoon-ignore">
	<line stroke-width="1" x1="" y1="" x2="" y2="" stroke="#449FDB" opacity=""></line>
</g>
	<path d="M3.795 0.090v-0h32.355c1.632 0 2.97 1.347 2.97 2.835v0.045c0 0.096-0.045 0.249-0.045 0.345l-3.165 29.040c0.049 1.151-0.579 2.247-1.635 2.775l-12.87 6.345c-0.432 0.191-0.858 0.285-1.29 0.285s-0.873-0.094-1.305-0.285l-12.9-6.345c-0.576-0.288-1.062-0.715-1.35-1.29-0.24-0.336-0.387-0.723-0.435-1.155l-3.255-29.28c0-0.096-0.15-0.234-0.15-0.33v-0.045c0-1.584 1.443-2.94 3.075-2.94zM28.38 9.6v7.365l0.705 5.385h3.57l0.705-5.385v-7.365h-4.98zM13.11 9.9l-1.335 4.95h-4.665v2.73h3.915l-0.975 3.525h-4.53v2.775h3.855l-1.32 4.92h3.075l1.32-4.92h3.66l-1.335 4.92h3.060l1.32-4.92h4.65v-2.775h-3.93l0.96-3.525h4.56v-2.73h-3.825l1.335-4.95h-3.060l-1.335 4.95h-3.645l1.32-4.95h-3.075zM14.1 17.58h3.645l-0.96 3.525h-3.645zM28.38 24.225v4.575h4.98v-4.575h-4.98z" fill="#000000"></path>
</svg>
