<?xml version="1.0" encoding="utf-8"?>
<!-- Generator: Adobe Illustrator 16.0.0, SVG Export Plug-In . SVG Version: 6.00 Build 0)  -->
<!DOCTYPE svg PUBLIC "-//W3C//DTD SVG 1.1//EN" "http://www.w3.org/Graphics/SVG/1.1/DTD/svg11.dtd">
<svg version="1.1" id="Layer_1" xmlns="http://www.w3.org/2000/svg" xmlns:xlink="http://www.w3.org/1999/xlink" x="0px" y="0px"
	 width="48px" height="48px" viewBox="0 0 48 48" enable-background="new 0 0 48 48" xml:space="preserve">
<path fill-rule="evenodd" clip-rule="evenodd" fill="#0A0A0A" d="M23.995,11.012v7.487l-12.93,7.553c0,0,0.004,8.344,0.004,10.877
	c0.854-0.487,12.916-7.44,12.916-7.44v7.445L4.633,48.008L4.596,22.11L23.995,11.012"/>
<polygon fill-rule="evenodd" clip-rule="evenodd" fill="#0A0A0A" points="43.404,-0.008 43.404,22.126 36.99,18.443 36.972,11.146 
	30.456,14.724 23.995,11.012 "/>
<polygon fill-rule="evenodd" clip-rule="evenodd" fill="#8C8C8C" points="23.985,36.934 23.985,29.488 36.942,36.851 36.942,26.008 
	23.995,18.498 23.995,11.012 43.404,22.126 43.404,47.99 "/>
<path fill-rule="evenodd" clip-rule="evenodd" fill="#8C8C8C" d="M17.495,14.704l-6.428-3.677v7.414l-6.471,3.67L4.618-0.005
	c0,0,13.205,7.468,19.377,11.017L17.495,14.704z"/>
<polygon fill-rule="evenodd" clip-rule="evenodd" fill="#8C8C8C" points="14.505,24.035 23.985,29.488 17.514,33.216 11.07,29.519 
	11.065,26.052 "/>
<path fill-rule="evenodd" clip-rule="evenodd" fill="#0A0A0A" d="M23.985,29.531l9.549-5.498l3.408,1.974c0,0,0.003,2.475,0,3.543
	c-2.146,1.226-6.394,3.678-6.394,3.678L23.985,29.531z"/>
</svg>
