<?xml version="1.0" encoding="utf-8"?>
<!-- Generated by IcoMoon.io -->
<!DOCTYPE svg PUBLIC "-//W3C//DTD SVG 1.1//EN" "http://www.w3.org/Graphics/SVG/1.1/DTD/svg11.dtd">
<svg version="1.1" xmlns="http://www.w3.org/2000/svg" xmlns:xlink="http://www.w3.org/1999/xlink" width="48" height="48" viewBox="0 0 48 48">
<g id="icomoon-ignore">
	<line stroke-width="1" x1="" y1="" x2="" y2="" stroke="#449FDB" opacity=""></line>
</g>
	<path d="M9.281 12.891q-0.563 0-0.938 0.305t-0.422 1.055v6.375h-6.563q-0.703 0.047-1.031 0.422t-0.328 0.938v0.984q0 0.563 0.305 0.938t1.055 0.422h6.563v6.328q0.047 0.422 0.328 0.727t0.703 0.305h5.016q0.141 0 0.352-0.141t0.211-0.469v-2.297h-2.531q-0.563 0-0.773-0.305t-0.164-0.867v-10.641q-0.047-0.609 0.164-0.891t0.773-0.281h2.531v-2.344q0-0.281-0.211-0.422t-0.352-0.141h-4.688zM32.906 12.891q-0.141 0-0.352 0.141t-0.211 0.422v2.344h2.531q0.563 0 0.773 0.281t0.164 0.891v10.641q0.047 0.563-0.164 0.867t-0.773 0.305h-2.531v2.297q0 0.328 0.211 0.469t0.352 0.141h5.016q0.422 0 0.703-0.305t0.328-0.727v-6.328h6.563q0.75-0.047 1.055-0.422t0.305-0.938v-0.984q0-0.563-0.328-0.938t-1.031-0.422h-6.563v-6.375q-0.047-0.75-0.422-1.055t-0.938-0.305h-4.688zM13.125 17.344q-0.469 0.047-0.516 0.563v8.953q0.047 0.516 0.516 0.563h10.313v-2.531l-2.531-2.531 2.531-2.484v-2.531h-10.313zM24.984 17.344v2.531l-2.531 2.484 2.531 2.531v2.531h8.766q0.469-0.047 0.516-0.563v-8.953q-0.047-0.516-0.516-0.563h-8.766zM17.906 20.625q0.703 0.047 1.172 0.492t0.469 1.148-0.469 1.172-1.172 0.469-1.172-0.469-0.469-1.172 0.469-1.148 1.172-0.492zM28.969 20.625q0.703 0.047 1.172 0.492t0.469 1.148-0.469 1.172-1.172 0.469-1.172-0.469-0.469-1.172 0.469-1.148 1.172-0.492z" fill="#000000"></path>
</svg>
