<?xml version="1.0" encoding="utf-8"?>
<!-- Generated by IcoMoon.io -->
<!DOCTYPE svg PUBLIC "-//W3C//DTD SVG 1.1//EN" "http://www.w3.org/Graphics/SVG/1.1/DTD/svg11.dtd">
<svg version="1.1" xmlns="http://www.w3.org/2000/svg" xmlns:xlink="http://www.w3.org/1999/xlink" width="48" height="48" viewBox="0 0 48 48">
<g id="icomoon-ignore">
	<line stroke-width="1" x1="" y1="" x2="" y2="" stroke="#449FDB" opacity=""></line>
</g>
	<path d="M24.379 0.089l0.001 0c0.226-0.003 0.447-0.003 0.672 0 1.078 0.012 2.141 0.084 3.141 0.227 5.233 0.749 9.718 3.021 13.558 6.864 1.579 1.58 2.88 3.237 3.901 4.978 0.77 1.313 1.949 4.045 2.129 4.921 0.050 0.242 0.151 0.64 0.219 0.882 0.249 0.897 0.578 3.101 0.672 4.508 0.2 2.986-0.197 6.435-1.036 9.090-0.453 1.433-1.494 3.703-2.121 4.614-0.194 0.282-0.626 0.928-0.963 1.441-0.724 1.101-1.709 2.273-2.873 3.416-3.946 3.873-8.452 6.105-13.712 6.792-1.436 0.187-4.23 0.24-5.65 0.105-6.598-0.626-12.114-3.685-16.504-9.146-0.722-0.898-1.211-1.586-1.635-2.299-0.186-0.313-0.506-0.838-0.704-1.166s-0.452-0.822-0.567-1.093c-0.115-0.271-0.295-0.669-0.397-0.89-0.232-0.508-0.652-1.778-0.882-2.655-0.528-2.014-0.909-4.682-0.907-6.37 0.002-1.488 0.138-3.174 0.364-4.436 0.213-1.191 0.272-1.412 0.68-2.8 0.497-1.692 0.719-2.279 1.392-3.642 0.765-1.55 1.728-3.019 2.922-4.46 0.671-0.81 2.793-2.926 3.553-3.545 3.144-2.56 6.388-4.117 10.126-4.865 1.45-0.29 3.043-0.449 4.621-0.469zM13.865 13.776l0-0c-2.354 0.007-3.516 0.023-3.537 0.040-0.071 0.059-0.064 0.223 0.057 1.109 0.186 1.364 0.497 2.334 1.157 3.65 0.772 1.539 1.662 2.689 3.035 3.918 0.723 0.647 1.214 1.025 1.991 1.514 0.793 0.498 1.966 1.060 2.865 1.376 0.322 0.113 0.41 0.16 0.858 0.502 0.796 0.608 1.598 1.908 1.829 2.954 0.23 1.043 0.172 2.699-0.138 3.861-0.522 1.963-0.678 2.379-1.578 4.16-0.369 0.73-0.672 1.386-0.672 1.457 0 0.185 0.224 0.489 0.502 0.68 0.473 0.326 1.751 0.697 2.809 0.817 0.271 0.031 0.562 0.063 0.648 0.073 0.4 0.047 1.47 0.027 2.104-0.040 1.732-0.184 3.086-0.659 3.456-1.214 0.167-0.25 0.148-0.388-0.113-0.834-0.127-0.216-0.268-0.485-0.316-0.599s-0.197-0.417-0.324-0.672c-0.725-1.459-1.501-3.688-1.643-4.711-0.020-0.141-0.034-0.749-0.032-1.352 0.002-0.887 0.024-1.19 0.105-1.562 0.112-0.513 0.459-1.368 0.639-1.57 0.065-0.072 0.203-0.256 0.308-0.413 0.389-0.583 1.285-1.439 1.603-1.53 0.637-0.182 1.806-0.716 2.671-1.222 1.843-1.079 3.7-2.866 4.743-4.557 0.553-0.898 0.765-1.295 0.898-1.692 0.070-0.207 0.209-0.582 0.308-0.826 0.325-0.807 0.666-2.456 0.631-3.043l-0.016-0.267-14.157-0.008c-4.788-0.004-8.338-0.007-10.693 0zM5.367 19.669l0.001 0.001 0.032 0.372c0.079 0.989 0.375 1.943 0.89 2.841 0.592 1.032 0.851 1.329 1.983 2.299 0.851 0.729 1.828 1.299 2.606 1.53 0.903 0.268 1.062 0.396 1.488 1.189 0.283 0.526 0.379 0.966 0.38 1.765 0.001 1.19-0.296 2.229-1.068 3.772-0.274 0.547-0.494 1.048-0.494 1.117 0 0.152 0.289 0.423 0.591 0.55 0.376 0.159 0.919 0.267 1.87 0.38 0.358 0.043 0.76 0.032 1.344-0.040 0.662-0.082 1.2-0.217 1.554-0.389 0.263-0.128 0.542-0.398 0.542-0.518 0-0.048-0.213-0.519-0.478-1.044-0.524-1.040-0.699-1.508-0.89-2.396-0.195-0.905-0.237-1.388-0.178-1.91s0.321-1.322 0.558-1.692c0.294-0.458 0.445-0.562 1.068-0.737 0.513-0.143 1.319-0.525 1.319-0.623 0-0.020-0.282-0.129-0.631-0.251-0.995-0.349-2.204-1.031-3.351-1.886-0.717-0.535-1.984-1.787-2.42-2.396-0.201-0.28-0.521-0.731-0.712-0.996s-0.391-0.586-0.445-0.712l-0.105-0.227h-5.455zM38.254 19.694l-0.186 0.34c-0.529 0.964-1.123 1.706-2.242 2.809s-1.653 1.512-3.051 2.315c-0.651 0.374-0.989 0.525-1.594 0.728-0.242 0.081-0.444 0.168-0.453 0.194-0.023 0.068 0.643 0.449 0.979 0.558 0.694 0.226 1.119 0.408 1.279 0.559 0.238 0.224 0.653 1.078 0.761 1.562 0.068 0.307 0.085 0.546 0.065 1.028-0.050 1.18-0.362 2.226-1.085 3.65-0.28 0.551-0.51 1.031-0.51 1.068 0 0.132 0.277 0.397 0.567 0.542 0.832 0.417 2.383 0.562 3.659 0.34 0.605-0.105 0.9-0.197 1.222-0.372 0.286-0.156 0.461-0.337 0.461-0.486 0-0.053-0.197-0.48-0.437-0.947-1.040-2.028-1.404-4.266-0.882-5.407 0.181-0.396 0.672-1.137 0.801-1.206 0.061-0.033 0.349-0.132 0.639-0.219 1.243-0.372 2.404-1.139 3.626-2.396 0.492-0.506 0.71-0.818 1.238-1.74 0.285-0.498 0.371-0.694 0.51-1.238 0.251-0.986 0.308-1.297 0.291-1.497l-0.016-0.186h-5.642z" fill="#000000"></path>
</svg>
