<?xml version="1.0" encoding="utf-8"?>
<!-- Generated by IcoMoon.io -->
<!DOCTYPE svg PUBLIC "-//W3C//DTD SVG 1.1//EN" "http://www.w3.org/Graphics/SVG/1.1/DTD/svg11.dtd">
<svg version="1.1" xmlns="http://www.w3.org/2000/svg" xmlns:xlink="http://www.w3.org/1999/xlink" width="48" height="48" viewBox="0 0 48 48">
<g id="icomoon-ignore">
	<line stroke-width="1" x1="" y1="" x2="" y2="" stroke="#449FDB" opacity=""></line>
</g>
	<path d="M26.157 41.676c-0.79 0.084-2.117 0.111-2.616 0.052-0.106-0.012-0.469-0.053-0.806-0.092-1.316-0.149-2.917-0.615-3.506-1.021-0.346-0.238-0.622-0.611-0.622-0.841 0-0.088 0.376-0.903 0.835-1.811 1.121-2.219 1.32-2.743 1.97-5.187 0.385-1.447 0.459-3.511 0.173-4.81-0.287-1.303-1.289-2.915-2.281-3.672-0.557-0.425-0.663-0.488-1.064-0.628-1.12-0.393-2.581-1.096-3.568-1.716-0.968-0.608-1.584-1.075-2.485-1.88-1.71-1.53-2.818-2.959-3.779-4.875-0.822-1.639-1.205-2.849-1.437-4.548-0.151-1.104-0.162-1.313-0.073-1.386 0.054-0.045 5.792-0.061 17.714-0.050l17.635 0.016 0.019 0.328c0.043 0.731-0.387 2.788-0.792 3.793-0.122 0.303-0.294 0.763-0.381 1.021-0.167 0.494-0.434 0.997-1.123 2.115-1.299 2.106-3.612 4.326-5.907 5.67-1.077 0.631-2.532 1.298-3.325 1.525-0.395 0.113-1.507 1.174-1.991 1.9-0.13 0.195-0.302 0.428-0.383 0.518-0.225 0.251-0.662 1.319-0.802 1.958-0.102 0.464-0.126 0.835-0.129 1.939-0.002 0.751 0.017 1.509 0.041 1.684 0.177 1.273 1.149 4.053 2.052 5.869 0.158 0.318 0.335 0.694 0.395 0.836s0.237 0.478 0.394 0.747c0.325 0.555 0.348 0.722 0.141 1.033-0.461 0.691-2.144 1.283-4.301 1.512zM12.706 36.192c-0.727 0.091-1.234 0.107-1.679 0.054-1.184-0.141-1.86-0.279-2.329-0.478-0.376-0.159-0.735-0.492-0.735-0.68 0-0.085 0.279-0.713 0.62-1.394 0.962-1.921 1.327-3.216 1.325-4.698-0.001-0.994-0.117-1.535-0.469-2.189-0.532-0.989-0.734-1.149-1.859-1.483-0.968-0.287-2.179-1-3.238-1.907-1.41-1.207-1.733-1.582-2.47-2.866-0.642-1.119-1.016-2.302-1.114-3.534l-0.037-0.468h6.796l0.123 0.287c0.068 0.158 0.318 0.557 0.556 0.887s0.638 0.886 0.888 1.235c0.543 0.758 2.121 2.321 3.014 2.987 1.428 1.065 2.931 1.909 4.17 2.343 0.435 0.153 0.79 0.297 0.79 0.321 0 0.123-1.004 0.596-1.643 0.774-0.777 0.217-0.967 0.348-1.333 0.919-0.295 0.46-0.627 1.457-0.7 2.107s-0.017 1.249 0.227 2.376c0.238 1.106 0.455 1.688 1.108 2.983 0.33 0.654 0.6 1.239 0.6 1.299 0 0.15-0.356 0.485-0.684 0.644-0.441 0.213-1.103 0.379-1.927 0.481zM39.409 36.125c-1.588 0.276-3.519 0.097-4.555-0.423-0.36-0.181-0.702-0.508-0.702-0.671 0-0.047 0.285-0.647 0.633-1.333 0.9-1.773 1.287-3.075 1.35-4.545 0.026-0.6 0.008-0.897-0.077-1.279-0.134-0.603-0.653-1.667-0.95-1.947-0.199-0.187-0.728-0.42-1.592-0.701-0.418-0.136-1.248-0.604-1.22-0.688 0.011-0.033 0.266-0.143 0.567-0.244 0.754-0.254 1.168-0.443 1.979-0.909 1.741-0.999 2.414-1.509 3.808-2.882s2.132-2.3 2.79-3.501l0.23-0.419h7.028l0.019 0.229c0.021 0.25-0.056 0.639-0.368 1.868-0.172 0.677-0.273 0.924-0.628 1.544-0.658 1.148-0.937 1.539-1.55 2.17-1.522 1.565-2.967 2.52-4.515 2.983-0.361 0.108-0.719 0.229-0.795 0.27-0.161 0.086-0.774 1.004-0.999 1.497-0.65 1.421-0.193 4.212 1.102 6.737 0.298 0.582 0.542 1.111 0.542 1.176 0 0.185-0.216 0.415-0.572 0.609-0.401 0.218-0.77 0.33-1.524 0.461z" fill="#000000"></path>
</svg>
