<?xml version="1.0" encoding="utf-8"?>
<!-- Generator: Adobe Illustrator 16.0.0, SVG Export Plug-In . SVG Version: 6.00 Build 0)  -->
<!DOCTYPE svg PUBLIC "-//W3C//DTD SVG 1.1//EN" "http://www.w3.org/Graphics/SVG/1.1/DTD/svg11.dtd">
<svg version="1.1" id="Layer_1" xmlns="http://www.w3.org/2000/svg" xmlns:xlink="http://www.w3.org/1999/xlink" x="0px" y="0px"
	 width="48px" height="48px" viewBox="0 0 48 48" enable-background="new 0 0 48 48" xml:space="preserve">
<path fill="#200D0B" d="M46.343,24.294c-0.298-0.335-4.421-5.496-5.147-6.371c-0.726-0.876-1.08-0.717-1.527-0.652
	c-0.446,0.065-5.662,0.941-6.268,1.043c-0.605,0.102-0.987,0.344-0.615,0.866c0.332,0.464,3.761,5.325,4.516,6.396l-13.631,3.266
	L12.828,10.717c-0.432-0.64-0.521-0.863-1.503-0.819c-0.982,0.045-8.504,0.67-9.04,0.714c-0.536,0.045-1.124,0.283-0.588,1.548
	s9.079,19.675,9.317,20.21c0.238,0.535,0.857,1.404,2.307,1.057c1.485-0.357,6.636-1.701,9.45-2.438
	c1.487,2.692,4.519,8.155,5.081,8.938c0.748,1.045,1.264,0.872,2.413,0.524c0.897-0.272,14.044-5,14.636-5.244
	s0.958-0.418,0.558-1.01c-0.294-0.436-3.763-5.081-5.579-7.512c1.244-0.331,5.668-1.509,6.14-1.637
	C46.566,24.9,46.641,24.629,46.343,24.294z M21.561,29.361c-0.163,0.035-7.798,1.862-8.206,1.955
	c-0.407,0.094-0.407,0.047-0.454-0.093c-0.046-0.14-9.078-18.762-9.203-18.995s-0.119-0.417,0-0.417c0.119,0,7.21-0.634,7.461-0.647
	s0.225,0.04,0.317,0.198c0,0,10.003,17.267,10.178,17.568C21.828,29.233,21.724,29.326,21.561,29.361z M43.088,33.396
	c0.121,0.191,0.244,0.312-0.14,0.453c-0.384,0.139-12.922,4.371-13.166,4.475c-0.243,0.105-0.435,0.14-0.749-0.312
	c-0.312-0.453-4.393-7.514-4.393-7.514l13.292-3.459c0.331-0.104,0.436-0.174,0.645,0.157S42.966,33.205,43.088,33.396z
	 M43.939,23.959c-0.298,0.065-5.179,1.276-5.179,1.276l-3.991-5.477c-0.111-0.158-0.205-0.316,0.074-0.354
	c0.279-0.038,4.815-0.857,5.021-0.904c0.204-0.046,0.382-0.102,0.634,0.242c0.251,0.345,3.702,4.713,3.833,4.88
	C44.461,23.792,44.238,23.894,43.939,23.959z"/>
</svg>
