<?xml version="1.0" encoding="utf-8"?>
<!-- Generator: Adobe Illustrator 16.0.0, SVG Export Plug-In . SVG Version: 6.00 Build 0)  -->
<!DOCTYPE svg PUBLIC "-//W3C//DTD SVG 1.1//EN" "http://www.w3.org/Graphics/SVG/1.1/DTD/svg11.dtd">
<svg version="1.1" id="Layer_1" xmlns="http://www.w3.org/2000/svg" xmlns:xlink="http://www.w3.org/1999/xlink" x="0px" y="0px"
	 width="48px" height="48px" viewBox="0 0 48 48" enable-background="new 0 0 48 48" xml:space="preserve">
<g>
	<g>
		<g>
			<path fill="#010101" d="M29.957,38.688c0.367,0.531,0.592,0.49,0.877,0.367c0.285-0.121,14.975-5.078,15.422-5.242
				c0.449-0.164,0.307-0.307,0.164-0.531s-5.039-6.873-5.285-7.262c-0.244-0.387-0.365-0.305-0.754-0.184l-15.57,4.051
				C24.811,29.887,29.59,38.158,29.957,38.688z"/>
			<path fill="#010101" d="M47.5,31.916v-7.784c-1.752,0.466-3.967,1.056-4.842,1.288C43.977,27.188,46.041,29.949,47.5,31.916z"/>
			<path fill="#010101" d="M42.643,15.834c-0.238,0.055-5.553,1.014-5.879,1.058c-0.328,0.043-0.219,0.229-0.088,0.415l4.676,6.416
				c0,0,5.717-1.418,6.066-1.494c0.027-0.007,0.055-0.013,0.082-0.021v-0.849c-1.039-1.318-3.871-4.905-4.115-5.241
				C43.09,15.714,42.883,15.779,42.643,15.834z"/>
			<path fill="#010101" d="M9.212,5.757c1.15-0.052,1.256,0.209,1.761,0.959l12.7,21.231l15.968-3.825
				c-0.885-1.254-4.9-6.949-5.289-7.492c-0.436-0.611,0.012-0.895,0.719-1.015c0.711-0.12,6.82-1.146,7.344-1.222
				c0.523-0.076,0.939-0.262,1.791,0.764c0.434,0.525,1.91,2.363,3.295,4.086V9.312c0-2.428-0.861-4.503-2.584-6.227
				C43.191,1.361,41.115,0.5,38.688,0.5H9.312c-2.428,0-4.503,0.862-6.227,2.586C2.097,4.074,1.393,5.179,0.971,6.399
				C3.85,6.163,8.407,5.793,9.212,5.757z"/>
			<path fill="#010101" d="M31.398,41.545c-1.348,0.408-1.953,0.611-2.828-0.613c-0.658-0.916-4.209-7.314-5.952-10.469
				c-3.296,0.863-9.329,2.438-11.069,2.855c-1.698,0.408-2.423-0.611-2.702-1.236C8.652,31.641,3.674,20.908,0.5,14.021v24.666
				c0,2.428,0.862,4.504,2.586,6.229C4.809,46.639,6.884,47.5,9.312,47.5h29.375c2.428,0,4.504-0.861,6.229-2.584
				c1.723-1.725,2.584-3.801,2.584-6.229v-2.896C43.895,37.109,32.305,41.27,31.398,41.545z"/>
			<path fill="#010101" d="M11.591,30.846c0.478-0.109,9.421-2.25,9.612-2.289c0.191-0.043,0.313-0.152,0.109-0.506
				C21.107,27.697,9.39,7.471,9.39,7.471C9.282,7.286,9.313,7.224,9.02,7.239C8.757,7.253,2.127,7.845,0.592,7.974
				C0.547,8.292,0.52,8.619,0.508,8.952c1.558,3.189,10.501,21.634,10.551,21.784C11.114,30.9,11.114,30.955,11.591,30.846z"/>
		</g>
	</g>
</g>
</svg>
