<?xml version="1.0" encoding="utf-8"?>
<!-- Generator: Adobe Illustrator 16.0.0, SVG Export Plug-In . SVG Version: 6.00 Build 0)  -->
<!DOCTYPE svg PUBLIC "-//W3C//DTD SVG 1.1//EN" "http://www.w3.org/Graphics/SVG/1.1/DTD/svg11.dtd">
<svg version="1.1" id="Layer_1" xmlns="http://www.w3.org/2000/svg" xmlns:xlink="http://www.w3.org/1999/xlink" x="0px" y="0px"
	 width="48px" height="48px" viewBox="0 0 48 48" enable-background="new 0 0 48 48" xml:space="preserve">
<g id="g3107" transform="matrix(1.0000613,0,0,0.99989632,-1.8182688e-7,0.01324191)">
	<path id="path3101" inkscape:connector-curvature="0" fill="#030303" d="M24.725,2.158c-0.364,0.017-0.579,0.085-0.821,0.17
		c-1.515,0.537-2.176,1.704-2.175,3.849c0,0.607,0.177,6.674,0.394,13.475c0.218,6.801,0.469,14.68,0.555,17.505
		c0.113,3.718,0.198,5.33,0.309,5.853c0.272,1.284,1.115,2.239,2.312,2.622c0.314,0.101,0.874,0.189,1.249,0.192
		c0.739,0.007,16.012-2.571,16.865-2.847c0.713-0.23,1.554-1.063,1.94-1.907c0.598-1.31,0.6-1.283,0.191-7.314
		c-0.555-8.199-1.337-20.253-1.514-23.315c-0.175-3.033-0.281-3.581-0.896-4.488c-0.436-0.646-1.384-1.349-2.078-1.556
		c-0.284-0.085-2.047-0.38-3.913-0.65C28.289,2.463,25.818,2.109,24.725,2.158z M27.262,10.047c0.957-0.03,2.79,0.093,7.046,0.416
		c5.171,0.393,5.796,0.458,6.172,0.65c0.634,0.322,1.167,0.87,1.462,1.471c0.258,0.527,0.27,0.634,0.501,4.595
		c0.129,2.235,0.401,6.666,0.596,9.84c0.328,5.337,0.343,5.808,0.203,6.29c-0.27,0.93-1.184,1.738-2.303,2.036
		c-0.219,0.058-3.025,0.372-6.236,0.703c-3.213,0.331-6.07,0.601-6.343,0.598c-0.898-0.009-1.76-0.439-2.229-1.12
		c-0.547-0.795-0.627-1.209-0.725-3.913c-0.048-1.371-0.225-6.266-0.395-10.884c-0.284-7.736-0.291-8.436-0.149-8.924
		c0.202-0.69,0.67-1.253,1.301-1.546C26.43,10.137,26.688,10.066,27.262,10.047z"/>
	<path id="path3097" inkscape:connector-curvature="0" fill="#333333" d="M15.599,6.369c-0.252,0.008-0.418,0.047-0.65,0.107
		c-0.843,0.217-1.268,0.489-1.621,1.045c-0.605,0.954-0.575-0.468-0.277,15.821c0.269,14.721,0.292,15.622,0.576,16.258
		c0.407,0.914,1.111,1.474,2.132,1.695c0.346,0.076,0.719,0.135,0.831,0.141c0.282,0.01,5.553-0.672,5.608-0.726
		c0.043-0.042-0.167-6.777-0.213-6.824c-0.013-0.012-0.921,0.071-2.015,0.182c-2.063,0.206-2.581,0.179-3.209-0.149
		c-0.572-0.298-1.033-0.978-1.205-1.77c-0.052-0.238-0.182-4.343-0.277-9.125c-0.197-9.803-0.221-9.237,0.565-9.946
		c0.616-0.556,0.95-0.6,3.135-0.459c1.042,0.067,2.002,0.14,2.132,0.17l0.245,0.064l-0.064-2.185
		c-0.034-1.201-0.086-2.543-0.117-2.985L21.111,6.87l-2.761-0.277C16.683,6.423,16.019,6.356,15.599,6.369z M27.464,10.57
		c-0.858,0.011-1.148,0.164-1.534,0.533c-0.414,0.394-0.607,0.9-0.608,1.589c-0.001,0.484-0.123,0.438,2.1,0.628
		c1.408,0.121,1.974,0.35,2.505,0.992c0.553,0.668,0.558,0.789,0.917,9.03c0.364,8.355,0.377,8.152-0.17,8.869
		c-0.146,0.193-0.537,0.474-0.895,0.65c-0.553,0.272-0.834,0.335-2.176,0.47c-0.846,0.086-1.546,0.174-1.567,0.191
		c-0.02,0.018,0.02,0.264,0.086,0.555c0.253,1.1,0.877,1.786,1.802,1.972c0.242,0.05,0.596,0.075,0.789,0.054
		c0.191-0.022,1.274-0.142,2.398-0.256c1.125-0.114,2.077-0.23,2.111-0.268c0.034-0.036-0.193-5.613-0.501-12.387l-0.564-12.313
		l-2.39-0.192C28.708,10.606,27.98,10.563,27.464,10.57z"/>
	<path id="path3093" inkscape:connector-curvature="0" fill="#676767" d="M7.998,11.38c-1.135,0.013-1.92,0.584-2.1,1.525
		c-0.039,0.2-0.015,3.412,0.053,7.143c0.203,11.125,0.288,14.077,0.426,14.542c0.169,0.563,0.755,1.127,1.354,1.311
		c0.636,0.195,0.961,0.188,3.017-0.042c0.961-0.107,1.808-0.201,1.876-0.202c0.097-0.002,0.103-0.523,0.054-2.421
		c-0.035-1.329-0.065-2.428-0.075-2.441c-0.01-0.014-0.66,0.025-1.439,0.084c-1.747,0.136-2.199,0.078-2.676-0.34
		c-0.665-0.584-0.643-0.38-0.8-7.313L7.54,16.924l0.213-0.416c0.16-0.312,0.33-0.467,0.672-0.618
		c0.424-0.188,0.578-0.196,2.207-0.128l1.748,0.074l-0.064-2.025c-0.037-1.115-0.118-2.057-0.171-2.09
		C12.002,11.633,8.812,11.371,7.998,11.38z M17.401,13.15c-0.327,0.009-0.587,0.029-0.693,0.064
		c-0.762,0.251-1.128,1.062-1.013,2.207l0.064,0.661l1.109,0.053c1.328,0.059,1.813,0.252,2.239,0.896l0.277,0.416v5.96v5.959
		l-0.299,0.32c-0.453,0.482-1.052,0.705-2.089,0.777l-0.906,0.063l-0.032,0.544c-0.072,1.198,0.327,2.045,1.13,2.41
		c0.221,0.1,0.605,0.172,0.852,0.17c0.674-0.006,2.869-0.235,2.942-0.31c0.09-0.09,0.072-2.247-0.096-9.754
		c-0.217-9.725-0.245-10.049-0.65-10.267C20.007,13.198,18.381,13.123,17.401,13.15z"/>
	<path id="path3089" inkscape:connector-curvature="0" fill="#B4B4B4" d="M4.352,17.211c-0.237-0.005-0.499,0.001-0.735,0.011
		c-0.829,0.034-0.882,0.049-1.163,0.362l-0.288,0.32v4.211c0,2.317,0.028,4.862,0.064,5.65c0.06,1.306,0.085,1.451,0.299,1.705
		c0.128,0.153,0.402,0.327,0.607,0.384c0.206,0.058,0.533,0.088,0.725,0.063c0.192-0.022,0.651-0.041,1.023-0.042h0.682
		l-0.032-1.279l-0.021-1.269l-0.928-0.053c-1.466-0.079-1.361,0.193-1.396-3.849c-0.033-3.775-0.043-3.728,0.683-3.923
		c0.234-0.063,0.638-0.082,0.949-0.043l0.543,0.064v-1.098v-1.109l-0.448-0.064C4.795,17.236,4.589,17.218,4.352,17.211z
		 M8.158,17.382v1.055v1.067h0.309c0.405,0,0.961,0.267,1.109,0.533c0.172,0.31,0.238,6.248,0.075,6.642
		c-0.131,0.316-0.62,0.597-1.034,0.597H8.35v0.885c0,0.486,0.03,1.033,0.064,1.204c0.061,0.306,0.08,0.31,0.629,0.31
		c0.643,0,1.146-0.218,1.439-0.619c0.193-0.263,0.195-0.35,0.075-5.383c-0.105-4.418-0.144-5.163-0.288-5.459
		c-0.266-0.545-0.622-0.744-1.418-0.789L8.158,17.382z"/>
</g>
</svg>
