<?xml version="1.0" encoding="utf-8"?>
<!-- Generated by IcoMoon.io -->
<!DOCTYPE svg PUBLIC "-//W3C//DTD SVG 1.1//EN" "http://www.w3.org/Graphics/SVG/1.1/DTD/svg11.dtd">
<svg version="1.1" xmlns="http://www.w3.org/2000/svg" xmlns:xlink="http://www.w3.org/1999/xlink" width="32" height="48" viewBox="0 0 32 48">
<g id="icomoon-ignore">
	<line stroke-width="1" x1="" y1="" x2="" y2="" stroke="#449FDB" opacity=""></line>
</g>
	<path d="M16.216 0v0c4.073 0 7.775 0.743 10.571 2.030 1.398 0.644 2.577 1.425 3.458 2.384 0.744 0.81 1.188 1.805 1.336 2.869 0.072 0.151 0.131 0.409 0.131 0.576v26.041c0 1.295-0.585 2.486-1.467 3.445s-2.059 1.741-3.458 2.384c-2.798 1.287-6.498 2.030-10.571 2.030s-7.773-0.743-10.571-2.030c-1.399-0.644-2.576-1.425-3.458-2.384s-1.467-2.151-1.467-3.445v-26.041c0-1.295 0.585-2.486 1.467-3.445s2.059-1.74 3.458-2.384c2.798-1.287 6.498-2.030 10.571-2.030zM3.405 11.685l-0-0v22.216c0 0.503 0.208 1.025 0.76 1.624s1.444 1.22 2.607 1.755c2.326 1.070 5.706 1.781 9.444 1.781s7.118-0.711 9.444-1.781c1.163-0.535 2.055-1.156 2.607-1.755s0.76-1.122 0.76-1.624v-22.203c-0.734 0.631-1.642 1.182-2.659 1.65-2.748 1.264-6.43 1.952-10.152 1.952s-7.391-0.688-10.139-1.952c-1.024-0.471-1.933-1.028-2.672-1.664zM15.417 17.186l-0-0c2.734 0 4.813 0.498 6.262 1.493 1.466 0.996 2.201 2.545 2.201 4.663 0 1.104-0.191 2.059-0.589 2.856-0.38 0.778-0.948 1.419-1.69 1.926-0.742 0.489-1.643 0.852-2.712 1.087s-2.292 0.354-3.668 0.354h-1.703v6.628h-3.432v-18.548c0.796-0.181 1.674-0.299 2.633-0.354 0.978-0.072 1.884-0.105 2.698-0.105zM15.653 20.146c-0.869-0-1.574 0.024-2.135 0.078v6.406h1.65c1.647 0 2.912-0.229 3.799-0.681 0.887-0.471 1.336-1.348 1.336-2.633 0-0.615-0.118-1.129-0.354-1.546s-0.566-0.734-0.982-0.969c-0.416-0.235-0.914-0.407-1.493-0.498-0.561-0.109-1.169-0.157-1.821-0.157z" fill="#000000"></path>
</svg>
