<?xml version="1.0" encoding="utf-8"?>
<!-- Generated by IcoMoon.io -->
<!DOCTYPE svg PUBLIC "-//W3C//DTD SVG 1.1//EN" "http://www.w3.org/Graphics/SVG/1.1/DTD/svg11.dtd">
<svg version="1.1" xmlns="http://www.w3.org/2000/svg" xmlns:xlink="http://www.w3.org/1999/xlink" width="38" height="48" viewBox="0 0 38 48">
<g id="icomoon-ignore">
	<line stroke-width="1" x1="" y1="" x2="" y2="" stroke="#449FDB" opacity=""></line>
</g>
	<path d="M15.098 15.84l1.174-5.15-2.949 0.045-1.174 5.15c-0.35 1.534-0.609 2.93-0.778 4.189-0.165 1.24-0.301 2.48-0.407 3.719l1.71-0.026c0.46-1.244 0.89-2.489 1.291-3.732 0.405-1.262 0.782-2.66 1.132-4.194zM12.784 28.188c0.112-0.493 0.033-0.92-0.237-1.28s-0.711-0.535-1.32-0.526c-0.609 0.009-1.133 0.199-1.57 0.57s-0.712 0.803-0.824 1.296c-0.112 0.493-0.033 0.92 0.237 1.28s0.711 0.535 1.32 0.526c0.609-0.009 1.133-0.199 1.57-0.57s0.712-0.803 0.824-1.296zM10.761-0.015c0.037-0.001 0.096-0.001 0.133-0-0.073-0.002 0.404 0.050 0.332 0.036s0.401 0.121 0.332 0.095c-0.069-0.026 0.374 0.18 0.31 0.143-0.054-0.031 0.186 0.12 0.244 0.155 0.011 0.007 0.054 0.043 0.044 0.036 8.030 6.076 16.059 12.154 24.089 18.23 0.007 0.005 0.015 0.007 0.022 0.012 0.007 0.010 0.241 0.218 0.199 0.179-0.046-0.043 0.239 0.264 0.199 0.214s0.2 0.293 0.166 0.238 0.171 0.321 0.144 0.262c-0.027-0.059 0.131 0.348 0.111 0.286s0.090 0.35 0.077 0.286c-0.012-0.064 0.038 0.375 0.033 0.31s0.008 0.363 0.011 0.298c0.003-0.066-0.044 0.362-0.033 0.298s-0.085 0.36-0.066 0.298c0.018-0.063-0.136 0.345-0.111 0.286s-0.165 0.317-0.133 0.262c0.032-0.056-0.205 0.301-0.166 0.25s-0.233 0.271-0.188 0.226c0.044-0.045-0.271 0.229-0.221 0.191s-0.286 0.186-0.233 0.155c-0.003 0.003-0.008 0.009-0.011 0.012-10.691 6.244-21.381 12.487-32.071 18.73 0.060-0.035-0.352 0.156-0.288 0.131s-0.366 0.11-0.299 0.095c0.067-0.015-0.389 0.053-0.321 0.048 0.069-0.006-0.378-0.006-0.31-0s-0.388-0.064-0.321-0.048c0.067 0.016-0.363-0.133-0.299-0.107s-0.348-0.179-0.288-0.143c0.060 0.036-0.32-0.223-0.266-0.179s-0.28-0.279-0.232-0.226c0.048 0.053-0.251-0.321-0.21-0.262s-0.198-0.351-0.166-0.286c0.032 0.065-0.156-0.391-0.133-0.322s-0.091-0.394-0.078-0.321-0.048-0.419-0.044-0.345c0.004 0.073 0.006-0.407 0-0.333s0.071-0.405 0.055-0.333l3.786-17.682 4.118-19.302c-0.001 0.006 0.011-0.023 0.011-0.024 0.005-0.005 0.099-0.361 0.077-0.298-0.024 0.069 0.166-0.374 0.133-0.31s0.207-0.345 0.166-0.286c-0.041 0.059 0.259-0.314 0.21-0.262s0.298-0.27 0.244-0.226c-0.055 0.044 0.326-0.214 0.266-0.179s0.352-0.168 0.288-0.143c-0.055 0.022 0.205-0.064 0.255-0.083 0.009-0.003 0.054-0.014 0.044-0.012 0.037 0.002 0.473-0.052 0.387-0.048z" fill="#000000"></path>
</svg>
