<?xml version="1.0" encoding="utf-8"?>
<!-- Generated by IcoMoon.io -->
<!DOCTYPE svg PUBLIC "-//W3C//DTD SVG 1.1//EN" "http://www.w3.org/Graphics/SVG/1.1/DTD/svg11.dtd">
<svg version="1.1" xmlns="http://www.w3.org/2000/svg" xmlns:xlink="http://www.w3.org/1999/xlink" width="39" height="48" viewBox="0 0 39 48">
<g id="icomoon-ignore">
	<line stroke-width="1" x1="" y1="" x2="" y2="" stroke="#449FDB" opacity=""></line>
</g>
	<path d="M4.718 36.418l2.304-0c1.821 0 3.399 0.271 3.399 2.361-0.119 2.278-1.695 2.304-1.695 2.304l2.19 2.19h-2.761l-1.637-1.637v1.837h-1.799v-7.054zM6.603 38.331v1.257h1.552v-1.257h-1.552zM14.391 36.447c0.141 0.001 0.27-0 0.39-0 0.96 0 2.751 0.063 2.751 1.676v5.141h-1.856v-1.171h-1.79v1.2h-1.847v-4.903c0-1.856 1.366-1.948 2.351-1.942zM13.915 38.218v1.933h1.733v-1.933h-1.733zM19.382 36.451h1.911v6.748h-1.911v-6.748zM23.294 36.541l1.881-0.030v4.987h2.717v1.792h-4.598v-6.748zM33.984 36.481v1.821h-3.076v0.657h1.314c0.687 0 2.12-0.030 2.12 2.12s-0.985 2.269-2.986 2.269h-2.419v-1.642h2.777c0.836 0 0.882-0.272 0.882-0.509s-0.427-0.347-1.297-0.347-2.482-0.427-2.482-2.099 0.836-2.299 2.508-2.299 2.657 0.030 2.657 0.030zM6.394 34.421l-0 0s-0.418-2.628 0.597-7.644c1.015-5.017 2.508-8.361 5.076-13.139s6.688-8.719 12.66-9.257c5.972-0.537 10.69 4.24 10.69 4.24l-0.717 1.075s-1.791-2.030-5.076-1.672c-3.285 0.359-9.077 3.703-9.973 11.048s2.628 15.348 2.628 15.348h-15.886zM3.228 26.418l3.105 0.239-0.538 3.105-2.926-0.358zM8.125 19.849l-2.807-0.896 0.896-2.508 2.747 1.075zM12.007 11.847l-2.15-1.433 1.672-1.851 2.090 1.374zM16.247 4.441l1.971-1.015 1.433 1.612-1.971 1.135zM23.234 2.471l2.568 0.119 0.239 1.553-2.449 0.060zM31.535 4.322l1.971 1.433-0.358 0.537-1.672-0.896zM31.177 8.92l1.612 0.358v0.717l-1.612-0.179v-0.896zM26.041 9.697l1.672-0.418 0.239 0.956-1.135 0.896zM23.593 11.548l1.194 1.792-0.717 1.254-1.732-1.911zM21.204 16.505l1.732 1.314-0.478 1.971-2.030-1.732zM20.368 21.939l2.269 1.194 0.119 1.971-2.508-1.075zM21.084 29.345l2.628 0 1.135 2.329-3.165-0.179zM9.492 0l0-0h28.41l-0 0.45v32.295c0 5.293 0.422 9.003-0.615 11.565-0.519 1.281-1.455 2.241-2.91 2.835s-3.417 0.855-6.12 0.855c-10.696 0-27-0.105-27-0.105h-0.465l0.015-0.465s0.060-11.364 0.060-22.92c0-11.181-0.495-17.151 0.33-20.535 0.413-1.692 1.253-2.774 2.61-3.33s3.161-0.645 5.685-0.645zM9.493 0.915l-0 0c-2.498 0-4.225 0.113-5.34 0.57s-1.699 1.192-2.070 2.715c-0.743 3.047-0.3 9.104-0.3 20.31 0 11.326-0.072 22.023-0.075 22.47 0.528 0.003 16.037 0.105 26.55 0.105 2.644 0 4.505-0.261 5.775-0.78s1.974-1.251 2.415-2.34c0.882-2.178 0.54-5.883 0.54-11.22v-31.83h-27.495z" fill="#000000"></path>
</svg>
