<?xml version="1.0" encoding="utf-8"?>
<!-- Generated by IcoMoon.io -->
<!DOCTYPE svg PUBLIC "-//W3C//DTD SVG 1.1//EN" "http://www.w3.org/Graphics/SVG/1.1/DTD/svg11.dtd">
<svg version="1.1" xmlns="http://www.w3.org/2000/svg" xmlns:xlink="http://www.w3.org/1999/xlink" width="39" height="48" viewBox="0 0 39 48">
<g id="icomoon-ignore">
	<line stroke-width="1" x1="" y1="" x2="" y2="" stroke="#449FDB" opacity=""></line>
</g>
	<path d="M6.874 38.852c0 0-0.42-2.64 0.6-7.68s2.52-8.401 5.101-13.201c2.58-4.8 6.721-8.761 12.721-9.301s10.741 4.26 10.741 4.26l-0.72 1.080s-1.8-2.040-5.101-1.68c-3.3 0.36-9.121 3.72-10.021 11.101s2.64 15.421 2.64 15.421h-15.961zM3.692 30.812l3.12 0.24-0.54 3.12-2.94-0.36zM8.612 24.212l-2.82-0.9 0.9-2.52 2.76 1.080zM12.514 16.167l-2.16-1.44 1.68-1.86 2.1 1.38zM16.772 8.727l1.98-1.020 1.44 1.62-1.98 1.14zM23.794 6.75l2.58 0.12 0.24 1.56-2.46 0.060zM32.137 8.607l1.98 1.44-0.36 0.54-1.68-0.9zM31.777 13.23l1.62 0.36v0.72l-1.62-0.18v-0.9zM26.617 14.007l1.68-0.42 0.24 0.96-1.14 0.9zM24.154 15.87l1.2 1.8-0.72 1.26-1.74-1.92zM21.754 20.852l1.74 1.32-0.48 1.98-2.040-1.74zM20.914 26.31l2.28 1.2 0.12 1.98-2.52-1.080zM21.634 33.75l2.64 0 1.14 2.34-3.18-0.18zM9.635 0.009l-0 0h28.918v31.093c0 5.023 0.432 8.549-0.63 10.994-0.531 1.223-1.481 2.138-2.955 2.7s-3.46 0.81-6.21 0.81c-10.891 0-27.508-0.105-27.508-0.105h-0.45v-0.45s0.075-10.793 0.075-21.764c0-10.613-0.514-16.271 0.33-19.499 0.422-1.614 1.283-2.656 2.655-3.18s3.206-0.6 5.775-0.6zM9.635 0.894l0-0c-2.546 0-4.3 0.118-5.445 0.555s-1.739 1.126-2.115 2.565c-0.752 2.877-0.3 8.634-0.3 19.274 0 10.748-0.072 20.881-0.075 21.314 0.512 0.003 16.345 0.105 27.059 0.105 2.695 0 4.595-0.255 5.895-0.75s1.999-1.193 2.445-2.22c0.892-2.053 0.555-5.566 0.555-10.634v-30.208h-28.019z" fill="#000000"></path>
</svg>
