<?xml version="1.0" encoding="utf-8"?>
<!-- Generated by IcoMoon.io -->
<!DOCTYPE svg PUBLIC "-//W3C//DTD SVG 1.1//EN" "http://www.w3.org/Graphics/SVG/1.1/DTD/svg11.dtd">
<svg version="1.1" xmlns="http://www.w3.org/2000/svg" xmlns:xlink="http://www.w3.org/1999/xlink" width="48" height="48" viewBox="0 0 48 48">
<g id="icomoon-ignore">
	<line stroke-width="1" x1="" y1="" x2="" y2="" stroke="#449FDB" opacity=""></line>
</g>
	<path d="M23.438 3.422q-8.25 0.188-13.711 5.648t-5.648 13.711q0.094 6.328 3.516 11.156t9.047 6.984l4.453-11.906q-1.922-0.75-3.094-2.414t-1.219-3.82q0.094-2.813 1.969-4.711t4.688-1.945q2.813 0.047 4.711 1.945t1.945 4.711q-0.047 2.156-1.219 3.82t-3.094 2.414l4.453 11.906q5.625-2.156 9.047-6.984t3.516-11.156q-0.188-8.25-5.648-13.711t-13.711-5.648zM45.141 35.391l-1.078 4.313h0.703l0.563-2.344v-0.234l0.094 0.234 1.359 2.531 1.219-2.203 0.141-0.281 0.047-0.281 0.094 0.563 0.516 2.016h0.703l-1.125-4.313-1.406 2.719q-0.141 0.281-0.188 0.469l-0.141-0.375zM40.406 35.578v0.563h1.266v3.563h0.75v-3.563h1.219v-0.563h-3.234z" fill="#000000"></path>
</svg>
