<?xml version="1.0" encoding="utf-8"?>
<!-- Generator: Adobe Illustrator 18.0.0, SVG Export Plug-In . SVG Version: 6.00 Build 0)  -->
<!DOCTYPE svg PUBLIC "-//W3C//DTD SVG 1.1//EN" "http://www.w3.org/Graphics/SVG/1.1/DTD/svg11.dtd">
<svg version="1.1" id="Layer_1" xmlns="http://www.w3.org/2000/svg" xmlns:xlink="http://www.w3.org/1999/xlink" x="0px" y="0px"
	 viewBox="0 0 48 48" enable-background="new 0 0 48 48" xml:space="preserve">
<path d="M24,2C11.8,2,2,11.8,2,24s9.8,22,22,22s22-9.8,22-22S36.2,2,24,2z M33.9,29c0.9,0.8,1.6,1.7,1.6,1.9s-1,1.4-2.2,2.6
	l-2.2,2.2l-3.9-3.9l-3.9-3.9l2.5-2.6c4.5-4.7,4.9-5.2,4.7-5.9c-0.5-1.4-1.7-0.5-6.8,4.7c-2.8,2.9-5.7,5.6-6.3,5.8
	c-2.6,1.1-6.5,0.3-8.2-1.6c-1.7-1.9-2.2-5.4-1.2-7.5c0.5-1.1,7.7-8.6,8.1-8.6c0.1,0,1.1,0.9,2.1,2l2,2l-3.6,3.7
	c-3.5,3.6-4.1,4.8-2.5,4.8c0.3,0,3.1-2.5,6.1-5.6c5.2-5.3,5.6-5.6,7.4-6c2.6-0.5,5.1,0.2,6.7,2c1.4,1.6,1.8,2.7,1.8,4.7
	c0,2.1-0.7,3.7-2.5,5.7c-0.8,0.9-1.5,1.7-1.5,1.8C32.3,27.4,33,28.2,33.9,29z"/>
</svg>
