<?xml version="1.0" encoding="utf-8"?>
<!-- Generator: Adobe Illustrator 16.0.0, SVG Export Plug-In . SVG Version: 6.00 Build 0)  -->
<!DOCTYPE svg PUBLIC "-//W3C//DTD SVG 1.1//EN" "http://www.w3.org/Graphics/SVG/1.1/DTD/svg11.dtd">
<svg version="1.1" id="Layer_1" xmlns="http://www.w3.org/2000/svg" xmlns:xlink="http://www.w3.org/1999/xlink" x="0px" y="0px"
	 width="48px" height="48px" viewBox="0 0 48 48" enable-background="new 0 0 48 48" xml:space="preserve">
<g>
	<path fill="#005A8F" d="M33.904,11.242c-0.034-0.022-0.069-0.042-0.104-0.064c-1.91-1.168-3.726-1.725-5.532-2.777
		c-0.223-0.129-0.444-0.266-0.667-0.413c-1.277-0.865-3.049-2.925-4.532-4.696c0,0.002,0,0.003,0,0.006
		c-0.089,0.874-0.232,1.587-0.417,2.181c-0.379,1.217-0.932,1.93-1.545,2.478c-0.059,0.054-0.119,0.104-0.179,0.155
		c-2.101,1.647-3.419,2.142-5.232,3.131c-0.155,0.08-0.382,0.204-0.662,0.371c-1.094,0.657-3.017,1.998-4.819,4.123
		C7.956,18.398,5.89,22.289,5.89,27.598c0,2.64,0.552,5.105,1.532,7.323c0.007,0.015,0.014,0.029,0.021,0.044
		c0.155,0.347,0.32,0.688,0.495,1.022c0.021,0.039,0.042,0.076,0.063,0.115c0.162,0.304,0.332,0.603,0.51,0.896
		c0.048,0.079,0.1,0.156,0.15,0.235c0.165,0.261,0.333,0.52,0.51,0.771c0.057,0.08,0.117,0.158,0.175,0.238
		c0.178,0.244,0.359,0.486,0.548,0.721c0.065,0.082,0.135,0.159,0.203,0.24c0.189,0.227,0.38,0.451,0.579,0.668
		c0.077,0.084,0.158,0.163,0.236,0.245c0.198,0.207,0.396,0.413,0.603,0.611c0.09,0.086,0.186,0.168,0.278,0.252
		c0.202,0.187,0.404,0.372,0.613,0.549c0.11,0.093,0.226,0.179,0.337,0.269c0.2,0.161,0.398,0.324,0.604,0.477
		c0.144,0.106,0.293,0.204,0.439,0.306c0.183,0.128,0.362,0.259,0.549,0.38c0.337,0.219,0.681,0.427,1.032,0.624
		c0.018,0.009,0.035,0.02,0.053,0.028c0.054,0.03,0.107,0.061,0.161,0.09c0.047,0.025,0.094,0.05,0.141,0.075
		c0.052,0.028,0.104,0.056,0.155,0.082c0.053,0.028,0.105,0.056,0.158,0.082c0.027,0.014,0.054,0.027,0.081,0.042
		c0.073,0.036,0.147,0.073,0.221,0.109c0.006,0.003,0.012,0.007,0.018,0.009c2.573,1.257,5.444,1.953,8.403,1.953
		c9.929,0,18.539-7.21,18.539-18.127C43.298,17.01,35.224,12.066,33.904,11.242z M12.761,18.818
		c-2.431,1.195-3.584,1.113-3.914,0.536c-0.192-0.337-0.118-0.913,0.281-1.669c0.284-0.54,0.732-1.171,1.367-1.874
		c0.135-0.15,0.297-0.306,0.479-0.466c0.007-0.006,0.014-0.013,0.021-0.02c0.054-0.06,0.109-0.119,0.164-0.178
		c0.309-0.332,0.633-0.649,0.963-0.948c1.449-1.312,3.025-2.299,4.022-2.857c0.307-0.172,0.56-0.304,0.736-0.392
		c0.368-0.185,1.856-0.896,3.491-2.044c0.194-0.137,0.39-0.279,0.587-0.428c1.071-0.833,1.874-1.627,2.263-4.108
		c0.015-0.098,0.03-0.197,0.044-0.299c0.001,0.003,0.002,0.007,0.003,0.01c0.031,0.104,0.06,0.206,0.087,0.305
		c0.478,1.509,0.404,2.3,0.404,2.65c0,0.371-0.206,1.359-0.865,1.854c-0.288,0.206-0.371,0.371-0.371,0.412
		c0,0.165,0.371,0.288,0.371,0.659c0,0.453-0.206,1.36-2.389,3.543C18.323,15.687,15.192,17.624,12.761,18.818z M34.143,42.177
		c-0.206,0.207-2.102,1.524-4.326,1.731c-2.225,0.205-5.232,0.329-7.044-1.319c-0.288-0.288-0.206-0.7,0-0.865
		c0.206-0.165,0.371-0.288,0.618-0.288c0.248,0,0.207,0,0.33,0.083c0.824,0.658,2.061,1.194,4.696,1.194
		c2.637,0,4.49-0.741,5.314-1.359c0.371-0.289,0.535-0.042,0.577,0.123C34.349,41.642,34.431,41.889,34.143,42.177z M26.933,38.429
		c0.454-0.412,1.195-1.071,1.896-1.36c0.7-0.288,1.07-0.247,1.73-0.247c0.659,0,1.359,0.041,1.854,0.371s0.783,1.071,0.948,1.483
		c0.164,0.411,0,0.658-0.33,0.823c-0.288,0.165-0.329,0.083-0.618-0.452c-0.288-0.536-0.535-1.072-1.978-1.072
		c-1.441,0-1.896,0.495-2.595,1.072c-0.7,0.576-0.947,0.782-1.194,0.452C26.397,39.17,26.479,38.84,26.933,38.429z M37.851,38.758
		c-1.482-0.123-4.45-4.737-6.344-4.819c-2.39-0.083-7.581,4.984-11.66,4.984c-2.472,0-3.213-0.37-4.038-0.906
		c-1.236-0.865-1.854-2.184-1.812-3.996c0.041-3.214,3.048-6.221,6.838-6.263c4.82-0.041,8.158,4.779,10.588,4.738
		c2.06-0.042,6.015-4.079,7.951-4.079c2.06,0,2.636,2.143,2.636,3.419c0,1.277-0.411,3.585-1.399,5.026
		C39.622,38.305,39.005,38.84,37.851,38.758z"/>
</g>
</svg>
