<?xml version="1.0" encoding="utf-8"?>
<!-- Generator: Adobe Illustrator 16.0.0, SVG Export Plug-In . SVG Version: 6.00 Build 0)  -->
<!DOCTYPE svg PUBLIC "-//W3C//DTD SVG 1.1//EN" "http://www.w3.org/Graphics/SVG/1.1/DTD/svg11.dtd">
<svg version="1.1" id="Layer_1" xmlns="http://www.w3.org/2000/svg" xmlns:xlink="http://www.w3.org/1999/xlink" x="0px" y="0px"
	 width="48px" height="48px" viewBox="0 0 48 48" enable-background="new 0 0 48 48" xml:space="preserve">
<g id="layer1" inkscape:groupmode="layer" inkscape:label="Ebene 1">
	<g id="g6048" transform="matrix(0.8931921,0,0,0.8931921,-114.13316,-144.04442)">
		<path id="path174" fill="#87BE40" d="M138.504,188.372l-0.988-0.986c-3.063-3.064-4.011-7.44-2.851-11.321
			c-3.062-0.692-5.349-3.43-5.349-6.702c0.001-3.794,3.076-6.871,6.87-6.871c3.416,0.002,6.248,2.493,6.78,5.758
			c3.706-0.869,7.763,0.142,10.654,3.032l0.394,0.395l-5.07,5.068l-0.394-0.395c-1.644-1.644-4.312-1.644-5.958,0.002
			c-1.652,1.651-1.648,4.327-0.009,5.966l0.991,0.989l5.071,5.065l5.363,5.361l-5.065,5.069l-5.369-5.362L138.504,188.372"/>
		<path id="path176" fill="#E4B645" d="M144.175,182.705l5.367-5.364l5.071-5.065l0.989-0.987c3.052-3.051,7.401-4.011,11.266-2.877
			c0.462-3.345,3.334-5.922,6.807-5.922c3.794,0,6.872,3.075,6.871,6.871c0,3.487-2.599,6.369-5.966,6.812
			c1.106,3.851,0.143,8.169-2.889,11.203l-0.396,0.397l-5.067-5.071l0.391-0.393c1.648-1.645,1.648-4.314,0.002-5.959
			c-1.64-1.638-4.301-1.642-5.953,0.009l-0.988,0.988l-5.071,5.068l-5.364,5.359L144.175,182.705"/>
		<path id="path184" fill="#C33934" d="M167.005,208.285c-3.899,1.2-8.315,0.256-11.402-2.83l-0.388-0.387l5.066-5.071l0.388,0.389
			c1.647,1.647,4.316,1.647,5.961,0.002c1.639-1.642,1.642-4.301-0.01-5.954l-0.989-0.991l-5.068-5.073l-5.354-5.358l5.071-5.066
			l5.35,5.355l5.064,5.069l0.996,0.999c2.915,2.913,3.921,7.013,3.014,10.743c3.338,0.47,5.905,3.337,5.905,6.803
			c0,3.796-3.078,6.871-6.871,6.871C170.414,213.787,167.639,211.425,167.005,208.285"/>
		<path id="path186" fill="#748EC4" d="M165.029,194.043l-5.349,5.357l-5.067,5.069l-0.994,0.995
			c-2.927,2.926-7.055,3.923-10.801,2.994c-0.7,3.053-3.433,5.327-6.697,5.329c-3.796,0-6.872-3.077-6.871-6.871
			c0-3.247,2.255-5.972,5.285-6.687c-0.959-3.763,0.034-7.922,2.981-10.87l0.388-0.385l5.071,5.067l-0.391,0.389
			c-1.645,1.647-1.645,4.31,0.002,5.959c1.651,1.651,4.326,1.647,5.965,0.007l0.992-0.995l5.067-5.069l5.355-5.358L165.029,194.043"
			/>
	</g>
</g>
</svg>
