<?xml version="1.0" encoding="utf-8"?>
<!-- Generator: Adobe Illustrator 18.0.0, SVG Export Plug-In . SVG Version: 6.00 Build 0)  -->
<!DOCTYPE svg PUBLIC "-//W3C//DTD SVG 1.1//EN" "http://www.w3.org/Graphics/SVG/1.1/DTD/svg11.dtd">
<svg version="1.1" id="Layer_1" xmlns="http://www.w3.org/2000/svg" xmlns:xlink="http://www.w3.org/1999/xlink" x="0px" y="0px"
	 viewBox="0 0 48 48" enable-background="new 0 0 48 48" xml:space="preserve">
<path fill="#DB6B26" d="M40.9,23.2C40.2,11.9,27.7,2.1,22.6,2C17.4,1.9,7.8,13.9,7.4,26.1C7,37.5,16.9,45.3,21.2,46.3
	c0.1-5.4,0.6-25.2,0.6-27.5c0.2-4.7,0.4-12.1,1.2-12.3c0.5-0.1,1.1,4,1,6.4c0,0.5,0,2,0,4.1c0.9-0.9,1.8-1.8,2.3-2.3
	c1.5-1.5,2.2-1.3,1.4,0c-0.4,0.8-2.3,3.5-3.7,5.4c0,3.9,0,8.8,0,13.3c2-2.3,4.4-5,5.7-6.2c2.7-2.6,3-2.2,1.7,0.4
	c-0.8,1.6-4.6,6-7.3,9.5c0,4,0,7.4,0,9C31.5,44.6,41.6,34.4,40.9,23.2"/>
</svg>
