<?xml version="1.0" encoding="utf-8"?>
<!-- Generator: Adobe Illustrator 16.0.0, SVG Export Plug-In . SVG Version: 6.00 Build 0)  -->
<!DOCTYPE svg PUBLIC "-//W3C//DTD SVG 1.1//EN" "http://www.w3.org/Graphics/SVG/1.1/DTD/svg11.dtd">
<svg version="1.1" id="Layer_1" xmlns="http://www.w3.org/2000/svg" xmlns:xlink="http://www.w3.org/1999/xlink" x="0px" y="0px"
	 width="48px" height="48px" viewBox="0 0 48 48" enable-background="new 0 0 48 48" xml:space="preserve">
<g id="Layer_2">
	<g>
		<g>
			<path fill="#474443" d="M5.117,24c0,7.475,4.343,13.934,10.642,16.995L6.752,16.315C5.704,18.663,5.117,21.262,5.117,24z"/>
			<path fill="#474443" d="M36.747,23.047c0-2.334-0.838-3.95-1.557-5.208c-0.957-1.555-1.854-2.873-1.854-4.428
				c0-1.736,1.316-3.352,3.171-3.352c0.083,0,0.163,0.011,0.244,0.015C33.392,6.997,28.916,5.118,24,5.118
				c-6.597,0-12.4,3.385-15.777,8.511c0.443,0.014,0.861,0.023,1.215,0.023c1.976,0,5.033-0.24,5.033-0.24
				c1.018-0.061,1.138,1.435,0.122,1.555c0,0-1.023,0.12-2.162,0.18L19.307,35.6l4.132-12.392l-2.942-8.061
				c-1.017-0.061-1.98-0.18-1.98-0.18c-1.018-0.06-0.898-1.616,0.119-1.556c0,0,3.119,0.24,4.974,0.24
				c1.974,0,5.032-0.24,5.032-0.24c1.019-0.06,1.138,1.435,0.121,1.556c0,0-1.025,0.12-2.162,0.18l6.824,20.298l1.884-6.295
				C36.126,26.539,36.747,24.664,36.747,23.047z"/>
			<path fill="#474443" d="M24.332,25.651l-5.666,16.462c1.692,0.498,3.48,0.77,5.334,0.77c2.2,0,4.308-0.381,6.271-1.07
				c-0.051-0.08-0.097-0.166-0.135-0.26L24.332,25.651z"/>
			<path fill="#474443" d="M40.568,14.94c0.082,0.601,0.128,1.247,0.128,1.941c0,1.916-0.358,4.07-1.436,6.764l-5.769,16.677
				c5.613-3.273,9.39-9.355,9.39-16.322C42.882,20.717,42.044,17.63,40.568,14.94z"/>
			<path fill="#474443" d="M24,1.989C11.863,1.989,1.988,11.863,1.988,24c0,12.139,9.875,22.012,22.011,22.012
				c12.137,0,22.013-9.873,22.013-22.012C46.011,11.863,36.137,1.989,24,1.989z M24,45.002C12.42,45.002,2.998,35.58,2.998,24
				c0-11.58,9.421-21.001,21.002-21.001S45.001,12.419,45.001,24C45.001,35.58,35.58,45.002,24,45.002z"/>
		</g>
	</g>
</g>
</svg>
