<?xml version="1.0" encoding="utf-8"?>
<!-- Generated by IcoMoon.io -->
<!DOCTYPE svg PUBLIC "-//W3C//DTD SVG 1.1//EN" "http://www.w3.org/Graphics/SVG/1.1/DTD/svg11.dtd">
<svg version="1.1" xmlns="http://www.w3.org/2000/svg" xmlns:xlink="http://www.w3.org/1999/xlink" width="41" height="48" viewBox="0 0 41 48">
<g id="icomoon-ignore">
	<line stroke-width="1" x1="" y1="" x2="" y2="" stroke="#449FDB" opacity=""></line>
</g>
	<path d="M0 36.864v-25.728q0-3.168 2.256-5.424t5.472-2.304h25.68q3.216 0 5.472 2.304t2.256 5.424v25.728q0 3.168-2.256 5.424t-5.472 2.304h-25.68q-3.216 0-5.472-2.304t-2.256-5.424zM6.864 35.28q0 1.248 0.528 2.112t1.44 1.392 1.92 0.672 2.208 0.192q6 0 6-4.992 0-1.824-1.296-2.688t-3.408-1.2q-0.72-0.144-1.344-0.576t-0.672-1.056q0-1.152 1.296-1.392 2.064-0.384 3.264-1.872t1.248-3.6q0-0.624-0.288-1.392 1.008-0.24 1.296-0.336v-3.36q-2.064 0.768-3.6 0.768-1.344-0.768-2.928-0.768-2.304 0-3.888 1.536t-1.584 3.84q0 1.344 0.768 2.736t1.968 1.776v0.096q-1.008 0.432-1.008 2.256 0 1.44 1.104 2.064v0.096q-3.024 1.008-3.024 3.696zM10.224 35.136q0-1.728 2.64-1.728 2.736 0 2.736 1.632 0 1.776-2.496 1.776-2.88 0-2.88-1.68zM10.56 22.56q0-2.4 2.064-2.4 1.008 0 1.488 0.672t0.528 1.728q0 2.256-2.016 2.256-2.064 0-2.064-2.256zM20.208 12.432q0 0.96 0.672 1.68t1.632 0.72 1.584-0.72 0.672-1.68q0-0.96-0.672-1.728t-1.584-0.72-1.632 0.72-0.672 1.728zM20.64 31.776h3.696q-0.048-0.72-0.048-2.208v-10.368q0-1.248 0.048-1.824h-3.696q0.096 0.576 0.096 1.872v10.512q0 1.344-0.096 2.016zM25.872 20.496q0.96-0.096 1.008-0.096t0.288 0 0.336 0.048v0.048h-0.096v5.808q0 1.008 0.096 1.728t0.288 1.488 0.672 1.296 1.152 0.864 1.776 0.288q1.728 0 2.88-0.624v-3.264q-0.768 0.576-1.824 0.576-1.392 0-1.392-2.208v-6h1.392q0.24 0 0.72 0t0.672 0.048v-3.12h-2.784q0-2.208 0.048-2.736h-3.744q0.144 0.624 0.144 1.44v1.296h-1.632v3.12z" fill="#000000"></path>
</svg>
