<?xml version="1.0" encoding="utf-8"?>
<!-- Generated by IcoMoon.io -->
<!DOCTYPE svg PUBLIC "-//W3C//DTD SVG 1.1//EN" "http://www.w3.org/Graphics/SVG/1.1/DTD/svg11.dtd">
<svg version="1.1" xmlns="http://www.w3.org/2000/svg" xmlns:xlink="http://www.w3.org/1999/xlink" width="50" height="48" viewBox="0 0 50 48">
<g id="icomoon-ignore">
	<line stroke-width="1" x1="" y1="" x2="" y2="" stroke="#449FDB" opacity=""></line>
</g>
	<path d="M25.881 15.046c7.363-0.076 13.237 2.566 13.559 6.33 0.356 4.153-6.182 8.105-14.6 8.828s-15.533-2.065-15.889-6.217c-0.356-4.153 6.182-8.105 14.6-8.828 0.789-0.068 1.568-0.105 2.329-0.113zM23.799 15.648c-3.211-0.052-6.971 1.225-9.767 2.419-0.291 0.839-0.444 1.726-0.444 2.65 0 4.926 4.443 8.923 9.93 8.923s9.936-3.997 9.936-8.923c0-1.559-0.444-3.023-1.227-4.298-2.237-0.348-5.313-0.72-8.428-0.771zM22.984 15.638c0.368-0.001 0.591 0.011 0.591 0.011s4.429-0.232 6.718 1.463c-0.027 0.124-0.057 0.249-0.090 0.371 0.005 0.004 0.011 0.007 0.017 0.011-0.118 0.55-0.307 1.083-0.551 1.587-0.058-0.014-0.118-0.023-0.18-0.023-0.321 0-0.594 0.193-0.72 0.467 0.016 0.202 0.126 0.537 0.231 0.664-0.044 0.056-0.089 0.106-0.135 0.158 0.003 0.004 0.008 0.007 0.011 0.011-0.482 0.617-1.062 1.153-1.716 1.57-0.212-1.251-1.299-2.205-2.611-2.205-1.464 0-2.65 1.186-2.65 2.65 0 0.046 0.003 0.090 0.006 0.135-0.894-0.334-1.699-0.879-2.369-1.564-0.062-0.051-0.123-0.101-0.186-0.158 0.198-0.527 0.599-1.369 0.928-1.812 0.097 0.037 0.205 0.056 0.315 0.056 0.485 0 0.799-0.117 0.799-0.602 0-0.010-0.004-0.027-0.006-0.039-0.002-0.010-0.004-0.019-0.006-0.028-0.012-0.057-0.028-0.111-0.051-0.163 0.002-0.002 0.004-0.004 0.006-0.006-0.039-0.115-0.088-0.229-0.113-0.287 0.889-0.718 2.035-1.252 3.224-1.497-1.324 0.060-2.576 0.53-3.601 1.311-0.1-0.040-0.212-0.062-0.326-0.062-0.358 0-0.667 0.211-0.805 0.518 0.007 0.122 0.079 0.404 0.113 0.495-0.045 0.057-0.090 0.106-0.135 0.158 0.002 0.005 0.004 0.011 0.006 0.017-0.32 0.405-0.592 0.85-0.81 1.333-0.661-0.904-1.114-1.968-1.283-3.089 0.059 1.247 0.499 2.48 1.153 3.438-0.035 0.105-0.077 0.184-0.118 0.264 0.002 0.003 0.003 0.008 0.006 0.011-0.057 0.173-0.108 0.349-0.152 0.529-0.105 0.7-0.077 1.556 0 2.177-0.046 0.022-0.093 0.044-0.135 0.067 0.001 0.011 0.004 0.023 0.006 0.034-0.328 0.168-0.518 0.432-0.591 0.72-0.090 0.591 0.549 1.091 1.165 1.091 0.060 0 0.123-0.008 0.18-0.017 0.275 0.527 0.564 1.337 0.962 1.834 0.044 0.047 0.089 0.095 0.135 0.141-0.001 0.003 0.001 0.008 0 0.011-0.001 0.006-0.004 0.012-0.006 0.017-0.001 0.003 0.001 0.008 0 0.011-0.175-0.079-0.344-0.165-0.512-0.259-0.002-0.001-0.003-0.004-0.006-0.006-0.083-0.044-0.161-0.093-0.242-0.141-0.001-0.001-0.004 0.001-0.006 0-2.389-1.396-3.995-3.987-3.995-6.954 0-0.288 0.032-0.556 0.096-0.805 0.152-1.242 0.985-2.061 2.059-2.599-0.001 0.049-0.006 0.097-0.006 0.146 0 0.067 0.003 0.135 0.006 0.203 0.039-0.019 0.078-0.038 0.118-0.056-0.020-0.107-0.047-0.213-0.062-0.321 1.789-0.872 4.22-0.987 5.322-0.99zM24.779 16.020c-0.090 0-0.181 0.007-0.27 0.011 0.4 0.010 0.889 0.032 1.429 0.090-0.389-0.069-0.777-0.103-1.159-0.101zM30.428 17.218c0.721 0.582 1.198 1.376 1.198 2.459 0 0.426-0.050 0.872-0.129 1.322-0.125 1.069-0.46 2.077-0.962 2.976-0.111-0.092-0.221-0.181-0.338-0.264-0.109-0.078-0.224-0.154-0.338-0.225-0.008-0.005-0.015-0.012-0.023-0.017-0.021-0.013-0.041-0.027-0.062-0.039-0.102-0.062-0.204-0.118-0.309-0.174-0.632-0.337-1.318-0.564-2.031-0.675 0.009-0.006 0.019-0.011 0.028-0.017-0.057-0.011-0.112-0.024-0.169-0.034 0.772-0.5 1.642-1.497 2.138-2.273 0.043 0.007 0.085 0.017 0.129 0.017 0.358 0 0.71-0.235 0.715-0.529 0-0.013-0.004-0.026-0.006-0.039-0.002-0.009 0.002-0.019 0-0.028-0.011-0.047-0.031-0.097-0.051-0.141-0.002-0.004-0.004-0.008-0.006-0.011-0.014-0.030-0.033-0.057-0.051-0.084-0.018-0.028-0.040-0.055-0.062-0.084-0.003-0.003-0.003-0.008-0.006-0.011-0.020-0.026-0.049-0.052-0.073-0.079-0.037-0.041-0.075-0.085-0.124-0.129 0.13-0.38 0.325-0.908 0.439-1.39 0.004-0.049 0.014-0.097 0.017-0.146 0.004 0.003 0.007 0.008 0.011 0.011 0.029-0.139 0.054-0.271 0.062-0.394zM19.271 21.123c0.768 0.844 1.761 1.482 2.881 1.823 0.084 0.216 0.282 0.671 0.416 0.855-0.115 0.093-0.228 0.191-0.343 0.287-0.050 0.044-0.103 0.084-0.152 0.129-0.752 0.699-1.32 1.567-1.665 2.521-0.296-0.388-0.547-0.805-0.754-1.243 0.004-0.004 0.007-0.008 0.011-0.011-0.030-0.061-0.058-0.116-0.090-0.186 0.159-0.147 0.349-0.427 0.45-0.698-0.022-0.544-0.424-0.989-0.945-1.086-0.072-0.634-0.044-1.287 0.101-1.935 0.003-0.013 0.008-0.026 0.011-0.039 0.002-0.011 0.004-0.022 0.006-0.034 0.017-0.102 0.034-0.208 0.056-0.309 0.006-0.025 0.011-0.049 0.017-0.073zM27.12 22.867c1.145 0.105 2.269 0.734 3.224 1.395-0.036 0.055-0.075 0.109-0.113 0.163 0.008 0.005 0.015 0.012 0.023 0.017-1.436 2.207-3.923 3.668-6.752 3.668-0.703 0-1.387-0.090-2.037-0.259-0.046-0.039-0.090-0.083-0.135-0.124-0.001-0.001-0.005 0.001-0.006 0-0.062-0.053-0.111-0.106-0.163-0.158-0.039-0.037-0.075-0.075-0.112-0.112-0.065-0.065-0.134-0.124-0.197-0.191 0.002-0.005 0.003-0.011 0.006-0.017-0.025-0.028-0.046-0.055-0.073-0.084 0.428-1.102 1.271-2.371 2.2-3.094 0.451 0.354 1.019 0.568 1.637 0.568 1.155 0 2.135-0.741 2.498-1.772zM36.087 12.761l0.001 0s-0.167 0.297-0.416 0.698c0.018-0.021 0.107-0.124 0.107-0.124s-1.047 1.82-1.93 2.802c0.696-0.051 2.087-1.288 2.087-1.288s-0.309 0.385-0.591 0.81c0.161-0.132 0.281-0.231 0.281-0.231s-0.365 0.454-0.664 0.923c-0.001 0.002-0.004 0.003-0.006 0.006-0.091 0.229-0.098 0.399 0.062 0.428 0.815 0.663 3.82-3.409 3.82-3.409s-0.117 0.225-0.309 0.574c0 0-0.063 0.115-0.084 0.158-0.025 0.044-0.041 0.077-0.068 0.124-0.287 0.549-1.105 2.040-2.301 3.477 1.528 0.386 4.906-3.978 4.906-3.978s-0.039 0.499-0.574 1.373c-0.254 0.545-0.759 1.354-1.744 2.357 1.866-0.627 4.051-3.831 4.051-3.831s-0.276 0.808-0.872 1.857c-0.016 0.031-0.034 0.064-0.051 0.096-0.004 0.008-0.007 0.015-0.011 0.023-0.397 0.767-0.994 1.738-1.823 2.633 1.902-0.66 4.591-4.81 4.591-4.81s-0.297 0.811-0.889 1.862c-0.003 0.006-0.008 0.011-0.011 0.017-0.485 0.953-1.272 2.255-2.374 3.314 2.629 0.255 6.178-3.41 6.178-3.41s-0.149 0.271-0.394 0.658l0.084-0.084s-1.168 2.169-2.785 3.471c2.145 0.368 4.827-2.723 4.827-2.723s-0.49 0.751-1.378 1.632c0.644-0.565 1.069-1.052 1.069-1.052s-3.008 4.637-7.798 4.433c-1.572-0.067-6.328-4.769-16.513-4.383-13.455 0.51-16.305 6.215-23.491 10.088 0.324-0.324 0.638-0.635 0.956-0.94-0.213 0.122-0.426 0.247-0.647 0.366 7.593-7.593 13.654-9.94 19.157-11.011 0.137-0.027 0.256-0.105 0.354-0.214 0.002-0.002 0.004-0.004 0.006-0.006 0.158-0.456 0.197-0.934 0.197-0.934s0.022 0.203 0.079 0.45c0.185-0.481 0.231-1.030 0.231-1.030s0.103 1.175 0.613 1.328c0.158 0.047 0.332-0.114 0.495-0.354 0.001-0.002 0.005-0.003 0.006-0.006 0.211-0.454 0.36-0.9 0.36-0.9s-0.079 0.234-0.152 0.535c0.264-0.514 0.461-1.108 0.461-1.108s-0.611 1.783 0 1.885l1.733-1.733s-0.457 1.58-0.152 1.682c0.306 0.102 1.834-2.296 1.834-2.296s-0.917 1.58-0.051 1.733c0.866 0.153 2.132-1.075 2.132-1.075s-0.391 0.437-0.574 0.805c0.158-0.133 0.264-0.231 0.264-0.231s-0.174 0.199-0.343 0.439c-0.031 0.127-0.009 0.226 0.101 0.264 1.886 0.663 3.41-1.784 3.41-1.784s-0.178 0.536-0.602 1.26c-0.006 0.013-0.016 0.027-0.023 0.039-0.135 0.273-0.319 0.603-0.557 0.962 1.695 0.349 3.004-1.818 3.308-2.374l-1.407 2.864c0.764 0.408 3.82-3.106 3.82-3.106zM40.824 21.331c1.148-0.029 2.701 1.243 2.701 1.243s-0.726-0.298-1.333-0.473c0.799 0.37 1.491 0.934 1.491 0.934s-1.471-0.618-1.975-0.602c0.828 0.604 2.965 1.598 2.965 1.598s-0.814-0.259-1.558-0.399c0.845 0.45 1.71 0.855 1.71 0.855s-2.405-0.753-2.723-0.383c0.742 0.968 3.488 3.134 3.488 3.134s-1.24-0.94-2.391-1.699c1.081 1.002 2.543 2.161 2.543 2.161s-3.945-3.007-4.276-2.599c-0.010 0.013-0.022 0.024-0.028 0.039 0.43 0.638 1.553 1.564 1.553 1.564s-0.363-0.219-0.872-0.489c0.478 0.491 1.024 0.951 1.024 0.951s-3.334-2.066-4.507-1.457c-0.043 0.022-0.073 0.051-0.090 0.084 0.413 0.556 1.478 1.372 2.312 1.969-0.453-0.29-0.97-0.589-1.423-0.765 0.485 0.422 1.067 0.857 1.575 1.221-0.864-0.553-1.985-1.156-2.374-0.827-0.073 0.062-0.087 0.177-0.062 0.326 0.661 1.472 3.066 4.366 3.066 4.366s-0.529-0.579-1.227-1.305c0.722 0.963 1.378 1.761 1.378 1.761s-4.327-4.685-4.76-4.456c-0.063 0.033-0.080 0.109-0.068 0.214 0.001 0.001-0.001 0.004 0 0.006 0.342 0.737 1.108 1.789 1.108 1.789s-0.204-0.216-0.489-0.501c0.321 0.514 0.641 0.962 0.641 0.962s-2.137-2.343-2.723-1.935c-0.083 0.058-0.081 0.232-0.017 0.484 0.682 1.811 2.92 5.553 2.92 5.553s-0.296-0.468-0.754-1.12c0.506 0.895 0.906 1.581 0.906 1.581s-3.888-6.145-5.542-5.221c0.478 1.079 0.824 1.97 1.063 2.701 0.025 0.077 0.056 0.163 0.079 0.236 1.018 2.992 0.428 3.505 0.428 3.505s-0.013-0.247-0.062-0.625c-0.045 0.123-0.090 0.169-0.090 0.169s-0.078-1.264-0.484-2.588c-0.008-0.022-0.014-0.045-0.023-0.068-0.498-1.318-1.363-2.541-2.858-2.47-0.68 0.032-0.642 0.807-0.377 1.688 0.003 0.007 0.003 0.015 0.006 0.023 0.392 1.061 0.979 2.116 0.979 2.116s-0.168-0.3-0.433-0.715c0.303 0.658 0.591 1.17 0.591 1.17s-2.105-3.696-3.556-3.758c0.539 1.070 0.913 1.991 1.165 2.785 0 0.002-0 0.004 0 0.006 1.072 3.041 0.478 4.332 0.478 4.332s0.045-0.444-0.011-1.12c-0.045 0.449-0.141 0.658-0.141 0.658s0.129-1.264-0.326-2.807c-0.003-0.008-0.008-0.015-0.011-0.023-0.416-1.133-1.166-2.354-2.509-3.308 0.017 0.058 0.033 0.117 0.045 0.18 0.839 1.649-1.097 6.42-1.097 6.42s0.199-0.817 0.36-1.879c-0.273 0.832-0.512 1.418-0.512 1.418s0.889-3.69 0.422-5.621c-0.285-0.625-0.809-0.908-1.722-0.495-0.541 0.244-0.039 4.057-0.039 4.057s-0.089-0.544-0.242-1.227c0.046 0.446 0.090 0.765 0.090 0.765s-0.203-1.295-0.557-2.436c-0.003-0.009-0.008-0.019-0.011-0.028-0.272-0.732-0.615-1.29-1.001-1.204-0.602 0.133-3.82 6.037-3.82 6.037s0.461-1.123 0.94-2.402c-0.616 1.075-1.091 1.947-1.091 1.947s1.738-4.208 1.964-5.649c-0.59 0.252-1.66 2.819-1.66 2.819s0.122-0.592 0.191-1.227c-0.203 0.434-0.343 0.765-0.343 0.765s0.298-1.454 0.225-2.251c-0.021-0.018-0.047-0.032-0.073-0.039-0.535-0.153-3.516 2.751-3.516 2.751s0.862-1.011 1.418-1.902c-0.817 0.71-1.57 1.44-1.57 1.44s1.682-1.968 1.862-2.83c-0.551-0.653-1.193-0.669-1.941-0.377-1.172 0.457-2.751 2.599-2.751 2.599s0.751-1.033 1.125-1.941c-0.706 0.714-1.277 1.48-1.277 1.48s1.278-1.758 1.328-2.701c-0.848-0.676-4.844 2.701-4.844 2.701s1.086-1.015 1.716-1.896c-1.006 0.712-1.868 1.44-1.868 1.44s1.88-1.773 2.127-2.661c-0.787-0.461-3.883-0.307-4.878-0.309-3.058-0.009-4.119-0.728-5.047-1.463 0.693 0.347 1.375 0.562 2.054 0.692-1.045-0.279-1.651-0.714-2.205-1.153 4.013 2.013 7.68-0.302 12.305 1.001 3.516 0.991 7.8 2.208 13.61 1.367s10.779-3.361 13.149-7.871c0.208-0.566 0.592-0.776 1.041-0.788zM40.858 27.762c0.607 0.389 1.092 0.754 1.092 0.754s-0.49-0.323-1.092-0.754zM41.010 28.218c0.607 0.389 1.091 0.754 1.091 0.754s-0.489-0.323-1.091-0.754z" fill="#000000"></path>
</svg>
