<?xml version="1.0" encoding="utf-8"?>
<!-- Generated by IcoMoon.io -->
<!DOCTYPE svg PUBLIC "-//W3C//DTD SVG 1.1//EN" "http://www.w3.org/Graphics/SVG/1.1/DTD/svg11.dtd">
<svg version="1.1" xmlns="http://www.w3.org/2000/svg" xmlns:xlink="http://www.w3.org/1999/xlink" width="38" height="48" viewBox="0 0 38 48">
<g id="icomoon-ignore">
	<line stroke-width="1" x1="" y1="" x2="" y2="" stroke="#449FDB" opacity=""></line>
</g>
	<path d="M18.99 0c8.798 0 18.27 2.653 18.27 8.482v24.795c0 5.827-9.47 8.483-18.27 8.483-8.801 0-18.27-2.656-18.27-8.483v-24.795c0-5.829 9.469-8.482 18.27-8.482zM34.65 33.277v-4.875c-2.696 2.778-9.2 4.223-15.66 4.223s-12.964-1.445-15.66-4.223v4.875c0 3.242 7.010 5.873 15.66 5.873 8.648 0 15.66-2.631 15.66-5.873zM34.65 25.447v-4.875c-2.696 2.778-9.2 4.223-15.66 4.223s-12.964-1.445-15.66-4.223v4.875h0.005c0 0.013-0.005 0.027-0.005 0.040 0 3.222 7.012 5.832 15.66 5.832s15.66-2.61 15.66-5.832c0-0.013-0.005-0.027-0.005-0.040h0.005zM34.65 17.617v-4.484c-3.42 2.606-9.69 3.831-15.66 3.831s-12.24-1.225-15.66-3.831v4.484h0.005c0 0.013-0.005 0.027-0.005 0.040 0 3.222 7.012 5.832 15.66 5.832s15.66-2.61 15.66-5.832c0-0.013-0.005-0.027-0.005-0.040h0.005zM18.99 14.355c8.648 0 15.66-2.631 15.66-5.872 0-3.244-7.012-5.873-15.66-5.873-8.65 0-15.66 2.628-15.66 5.873 0 3.242 7.010 5.872 15.66 5.872zM29.43 33.93c0-0.87 0.435-1.305 1.305-1.305s1.305 0.435 1.305 1.305-0.435 1.305-1.305 1.305-1.305-0.435-1.305-1.305zM29.43 26.1c0-0.87 0.435-1.305 1.305-1.305s1.305 0.435 1.305 1.305-0.435 1.305-1.305 1.305-1.305-0.435-1.305-1.305zM29.43 18.27c0-0.87 0.435-1.305 1.305-1.305s1.305 0.435 1.305 1.305-0.435 1.305-1.305 1.305-1.305-0.435-1.305-1.305z" fill="#000000"></path>
</svg>
