<?xml version="1.0" encoding="utf-8"?>
<!-- Generated by IcoMoon.io -->
<!DOCTYPE svg PUBLIC "-//W3C//DTD SVG 1.1//EN" "http://www.w3.org/Graphics/SVG/1.1/DTD/svg11.dtd">
<svg version="1.1" xmlns="http://www.w3.org/2000/svg" xmlns:xlink="http://www.w3.org/1999/xlink" width="48" height="48" viewBox="0 0 48 48">
<g id="icomoon-ignore">
	<line stroke-width="1" x1="" y1="" x2="" y2="" stroke="#449FDB" opacity=""></line>
</g>
	<path d="M25.030 2.345h0.001c0.013-0.002 0.033-0.004 0.046-0.004 0.168 0 0.304 0.136 0.304 0.304 0 0.125-0.097 0.256-0.217 0.292-1.962 0.925-2.591 1.512-3.526 3.393-0.047 0.090-0.168 0.164-0.27 0.164-0.168 0-0.304-0.136-0.304-0.304 0-0.023 0.005-0.059 0.011-0.081 0.164-0.57 0.324-1.007 0.503-1.407-0.009 0.001-0.024 0.002-0.033 0.002-0.168 0-0.304-0.136-0.304-0.304 0-0.023 0.005-0.060 0.011-0.083 0.174-0.569 0.33-0.961 0.637-1.244s0.71-0.409 1.289-0.548c0.019-0.004 0.050-0.008 0.069-0.008 0.145 0 0.28 0.116 0.301 0.26 0.405-0.157 0.858-0.28 1.407-0.415 0.020-0.007 0.053-0.013 0.074-0.015zM31.446 2.73l-0-0.001c1.686 0.106 3.269 0.806 4.933 2.178 1.093 0.901 2.008 1.829 3.155 2.548 0.6 0.375 1.072 0.669 1.556 1.244 0.511 0.608 0.929 1.253 1.259 2.015 0.342-0.139 0.703-0.266 0.963-0.489 0.421-0.36 0.723-1.042 1.244-1.57 0.216-0.219 0.505-0.317 0.785-0.326s0.567 0.059 0.83 0.163c0.524 0.208 0.982 0.531 1.2 0.948 1.109 2.123 1.52 5.835 1.289 8.118-0.283 2.796-1.433 5.483-3.955 6.829-1.648 0.879-3.775 0.974-5.644 0.667-0.099 0.322-0.199 0.643-0.296 0.963-0.416 1.368-1.924 2.393-3.318 2.459-0.652 0.031-1.18-0.137-1.63-0.4s-0.822-0.614-1.215-0.993c-0.27-0.26-0.543-0.523-0.815-0.785-0.006 0.039-0.008 0.080-0.015 0.118 0.302 0.624 0.472 1.173 0.726 1.778 0.31 0.737 0.482 1.261 0.504 2.074 0.018 0.68 0.041 1.363 0.059 2.044 0.258 0.482 0.324 0.77 0.281 1.363-0.051 0.714-0.302 1.213-0.741 1.467s-0.967 0.285-1.585 0.281c-0.398-0.003-1.894-0.012-2.341-0.044-0.388-0.028-0.732-0.050-1.022-0.119-0.184-0.044-0.338-0.124-0.489-0.222-0.325 0.265-0.712 0.571-1.067 0.859-0.207 0.168-0.39 0.322-0.548 0.444-0.125 0.097-0.21 0.152-0.296 0.207-0.174 0.268-0.289 0.508-0.444 0.741-0.166 0.247-0.386 0.482-0.756 0.681-1.051 0.569-1.975 0.539-2.711 0.089s-1.291-1.253-1.881-2.163c-0.281-0.433-0.745-1.144-0.978-1.881-0.116-0.369-0.177-0.759-0.104-1.126s0.316-0.701 0.711-0.904c0.065-0.033 0.101-0.057 0.163-0.089-0.787 0.032-1.581 0.010-2.385-0.089 0.004 0.037 0.011 0.084 0.015 0.119 0.045 0.379 0.087 0.648 0.044 0.933s-0.168 0.537-0.385 0.859c-0.297 0.441-0.388 0.553-0.726 1.304 0.050 0.603 0.029 1.030-0.148 1.689-0.128 0.474-0.48 0.805-0.889 0.963s-0.883 0.177-1.363 0.148c-0.96-0.059-1.971-0.348-2.548-0.504-0.688-0.186-1.559-0.361-2.207-0.77-0.324-0.204-0.604-0.48-0.726-0.859s-0.078-0.837 0.148-1.333c0.106-0.233 0.174-0.46 0.252-0.696-0.565 0.059-1.142-0.103-1.674-0.356-0.722-0.342-1.378-0.844-1.807-1.274-0.816-0.818-1.252-1.796-1.407-2.726-0.065-0.385-0.079-0.644 0.044-0.889s0.307-0.383 0.563-0.637c0.469-0.464 0.939-0.929 1.407-1.393 0.178-0.483 0.357-0.959 0.533-1.437-0.070-0.372-0.13-0.747-0.163-1.126-0.124-1.438-0.078-2.508 0.089-3.496-0.339 0.067-0.679 0.089-1.007 0-0.482-0.131-0.932-0.466-1.185-0.993-0.176-0.366-0.264-0.737-0.385-1.23-0.008-0.009-0.007-0.021-0.015-0.030-0.431-0.485-0.622-1.032-0.533-1.555 0.097-0.573 0.429-1.103 0.844-1.555s0.922-0.834 1.393-1.126 0.886-0.488 1.23-0.548c0.015-0.003 0.039-0.005 0.054-0.005 0.168 0 0.304 0.136 0.304 0.304 0 0.029-0.008 0.074-0.017 0.101-0.101 0.286-0.2 0.533-0.296 0.785 0.287 0.258 0.477 0.592 0.519 0.948 0.052 0.446-0.025 0.891-0.104 1.244-0.027 0.135-0.161 0.244-0.298 0.244-0.079 0-0.185-0.050-0.235-0.111-0.122-0.153-0.206-0.286-0.281-0.4-0.017 0.217-0.011 0.433-0.059 0.652-0.070 0.32-0.233 0.616-0.474 0.874 0.002 0.005 0.013 0.010 0.015 0.015 0.049-0.017 0.103-0.025 0.193-0.059 0.613-0.236 1.123-0.8 1.659-1.393 0.585-1.119 1.319-2.131 2.341-3.037 2.517-2.232 4.958-2.995 8.711-3.6 0.488-0.506 0.985-0.989 1.526-1.467 0.745-0.657 1.355-0.849 2.044-0.904 1.155-1.537 2.14-2.706 4.089-3.526 2.053-0.864 3.811-1.336 5.496-1.23zM31.356 4.048l-0.001 0.005c-1.462-0.063-3.060 0.394-5.051 1.259-1.313 0.571-1.91 1.193-2.637 2.089 0.789-0.026 1.577-0.043 2.385-0.119l0.006-0c0.168 0 0.304 0.136 0.304 0.304 0 0.12-0.092 0.249-0.206 0.288-1.090 0.253-2.141 0.46-3.215 0.622-0.596 0.090-0.973 0.132-1.274 0.237s-0.565 0.281-0.993 0.696c-1.612 1.568-2.965 3.363-4.474 4.992-0.831 0.897-1.239 1.793-1.748 2.859-0.244 0.512-0.325 0.807-0.296 1.067s0.175 0.548 0.504 0.993c0.543 0.736 0.902 1.21 1.2 1.807 0.719-1.025 1.519-1.935 2.37-2.963 0.050-0.054 0.15-0.097 0.223-0.097 0.168 0 0.304 0.136 0.304 0.304 0 0.044-0.017 0.11-0.039 0.148-0.791 1.266-1.499 2.454-2.148 3.733-0.385 0.759-0.526 1.119-0.533 1.867 0.696 0.794 1.106 1.184 1.704 1.348 0.712 0.196 1.348 0.174 1.97-0.148 1.641-0.85 3.255-1.963 5.185-2.178 0.857-1.63 0.627-3.723 0.281-5.674-0.301-1.7-0.226-3.22 0.178-4.918 0.016-0.151 0.152-0.273 0.303-0.273 0.168 0 0.305 0.137 0.305 0.305 0 0.007-0.001 0.019-0.001 0.027 0.1 1.615 0.217 3.099 0.533 4.667 0.475 2.351 0.573 4.453-0.429 6.918-0.042 0.106-0.168 0.192-0.282 0.192-1.999 0.048-3.685 1.221-5.585 2.192-0.905 0.462-1.796 0.517-2.785 0.281-1.070-0.254-1.835-1.047-2.83-2.133-0.042-0.048-0.076-0.138-0.076-0.201 0-0.010 0.001-0.026 0.002-0.036 0.091-0.764 0.202-1.316 0.459-1.896-0.332-0.952-0.722-1.415-1.511-2.474-0.481-0.646-0.764-1.144-0.8-1.704s0.173-1.106 0.533-1.837c0.512-1.039 0.988-2.025 1.822-3.007 0.595-0.701 1.147-1.356 1.704-2-2.539 0.469-4.282 1.19-6.133 2.815-1.51 1.325-2.458 2.975-3.141 4.904-0.422 1.194-0.544 2.372-0.34 4.37 0.257 2.522 1.631 5.445 3.096 7.555 0.027 0.042 0.049 0.116 0.049 0.166 0 0.016-0.002 0.041-0.005 0.056-0.184 1.349-0.417 2.367-0.8 3.348-0.079 0.202-0.052 0.303 0.015 0.415s0.208 0.248 0.415 0.355c0.413 0.215 1.015 0.344 1.437 0.459 0.331 0.091 1.118 0.305 1.822 0.385 0.352 0.040 0.68 0.046 0.904 0s0.288-0.109 0.311-0.193c0.138-0.495 0.126-0.807 0.089-1.363 0.001-0.044 0.021-0.11 0.044-0.148 0.454-0.903 0.595-1.046 0.904-1.555 0.326-0.537 0.324-0.636 0.326-1.289 0.003-0.847-0.023-2.353 0.015-2.948-0.001-0.007-0.001-0.019-0.001-0.027 0-0.168 0.137-0.305 0.305-0.305 0.151 0 0.287 0.122 0.303 0.273 0.103 0.437 0.221 1.046 0.326 1.63 1.617 0.265 3.211 0.236 4.829-0.074 0.022-0.071 0.037-0.146 0.059-0.222 0.133-0.465 0.369-0.892 0.474-1.259 0.038-0.115 0.168-0.209 0.289-0.209 0.168 0 0.304 0.136 0.304 0.304 0 0.006-0 0.017-0.001 0.023-0.032 0.406-0.056 0.816-0.089 1.23-0.033 0.412-0.035 0.712 0.015 1.111 0.029 0.23 0.060 0.462 0.089 0.695 0.003 0.015 0.005 0.040 0.005 0.055 0 0.168-0.136 0.304-0.304 0.304-0.097 0-0.215-0.068-0.264-0.152-0.059-0.096-0.175-0.251-0.281-0.385-0.627 0.413-1.070 0.729-1.763 1.096-0.119 0.063-0.148 0.124-0.163 0.267s0.024 0.362 0.104 0.593c0.159 0.46 0.454 0.963 0.622 1.23 0.373 0.593 0.783 1.223 1.215 1.585s0.81 0.494 1.407 0.178c0.326-0.172 0.601-0.669 0.933-1.111 0.019-0.030 0.059-0.070 0.089-0.089 0.058-0.034 0.27-0.194 0.533-0.4s0.586-0.47 0.904-0.726 0.643-0.506 0.904-0.711c0.26-0.205 0.436-0.348 0.578-0.43-0.002 0.001 0.078-0.053 0.163-0.148s0.183-0.232 0.296-0.385c0.227-0.307 0.497-0.698 0.756-1.111s0.498-0.85 0.696-1.215 0.346-0.675 0.385-0.8c0.475-1.533 0.99-2.696 1.17-4.192-0.986-0.461-1.6-1.011-2.341-1.881-0.047-0.049-0.085-0.143-0.085-0.211 0-0.168 0.136-0.304 0.304-0.304 0.061 0 0.148 0.032 0.195 0.071 1.095 0.81 2.015 1.241 3.2 1.615 0.038 0.013 0.091 0.045 0.119 0.073 0.438 0.387 0.885 0.773 1.348 1.185 0.362 0.322 0.687 0.604 1.037 0.815-0.051-0.052-0.123-0.089-0.163-0.148-0.177-0.265-0.23-0.567-0.237-0.874-0.014-0.613 0.172-1.262 0.311-1.733 0.154-0.52 0.111-1.106-0.015-1.674-0.003-0.015-0.005-0.040-0.005-0.055 0-0.031 0.009-0.079 0.020-0.108-0.026 0.017-0.089 0.046-0.104 0.059-0.046 0.041-0.086 0.099-0.163 0.267-0.151 0.331-0.325 0.751-0.459 1.111-0.046 0.095-0.169 0.171-0.274 0.171-0.168 0-0.304-0.136-0.304-0.304l0-0.015c0.052-0.329 0.129-0.725 0.178-1.037 0.055-0.347 0.091-0.618 0.281-0.844s0.477-0.308 0.844-0.37c0.238-0.040 0.698-0.145 0.978-0.193 0.009-0.001 0.025-0.002 0.034-0.002 0.168 0 0.304 0.136 0.304 0.304 0 0.094-0.065 0.211-0.146 0.26-0.251 0.137-0.608 0.284-0.844 0.4 0.035 0.005 0.088 0.025 0.118 0.044 0.494 0.311 0.858 0.571 1.363 0.741 2.574 0.867 5.533 1.688 8 0.311 1.915-1.069 3.016-3.492 3.259-5.733 0.216-1.991-0.178-5.214-0.993-7.185-0.028-0.068-0.146-0.159-0.222-0.252-0.372 1.083-1.043 2.023-2.267 2.459-0.368 0.131-0.708 0.135-1.007 0.074-0.197-0.040-0.388-0.101-0.578-0.163-0.009 0.077-0.054 0.106-0.030 0.237 0.174 0.933 0.237 1.984 0.030 2.889-0.182 0.792-0.338 1.938-0.859 2.607-0.050 0.064-0.158 0.116-0.239 0.116-0.168 0-0.304-0.136-0.304-0.304 0-0.022 0.005-0.057 0.010-0.078 0.113-0.414 0.344-1.626 0.4-2.4 0.024-0.327-0.034-0.761-0.089-1.185-0.029 0.001-0.24 0.083-0.415 0.222s-0.334 0.325-0.37 0.4c-0.385 0.785-0.397 1.582-0.904 2.459-0.046 0.093-0.169 0.169-0.273 0.169-0.168 0-0.305-0.137-0.305-0.305 0-0.038 0.013-0.097 0.030-0.131 0.167-0.402 0.201-0.795 0.237-1.23s0.080-0.91 0.267-1.437c0.014-0.039 0.043-0.067 0.059-0.104-0.243 0.134-0.432 0.304-0.578 0.548-0.217 0.363-0.397 0.867-0.815 1.378-0.050 0.067-0.159 0.122-0.243 0.122-0.168 0-0.304-0.136-0.304-0.304 0-0.047 0.020-0.118 0.044-0.158 0.344-0.632 0.415-1.161 0.637-1.659s0.652-0.915 1.511-1.111c0.21-0.048 0.41-0.065 0.607-0.074-0.4-0.001-0.796 0.008-1.23 0.074-0.010 0.001-0.025 0.002-0.035 0.002-0.168 0-0.304-0.136-0.304-0.304 0-0.108 0.079-0.231 0.177-0.276 0.060-0.026 0.118-0.049 0.178-0.074-0.091-0.213-0.157-0.437-0.133-0.681 0.002-0.021 0.012-0.038 0.015-0.059h-0.015c-0.165-0.006-0.319-0.026-0.459-0.074-0.102-0.044-0.184-0.169-0.184-0.28 0-0.137 0.109-0.271 0.243-0.298 0.27-0.044 0.768-0.212 1.067-0.356 0.006-0.003 0.009-0.011 0.015-0.015 0.003-0.001 0.012 0.001 0.015 0 0.011-0.005 0.030-0.011 0.044-0.015 0.004-0.001 0.010 0.001 0.015 0 0.238-0.126 0.512-0.205 0.8-0.178 0.060 0.006 0.129 0.032 0.193 0.044-0.212-0.372-0.408-0.75-0.667-1.111-0.369-0.514-0.613-0.647-1.2-0.993-0.107-0.063-0.219-0.14-0.326-0.207-0.418-0.075-0.853-0.137-1.185-0.074-0.015 0.003-0.039 0.005-0.054 0.005-0.168 0-0.304-0.136-0.304-0.304 0-0.109 0.081-0.234 0.181-0.278 0.13-0.051 0.237-0.055 0.356-0.089-0.638-0.5-1.237-1.014-1.881-1.555-1.545-1.298-2.909-1.878-4.37-1.941zM32.2 8.971c0.013-0.002 0.033-0.004 0.046-0.004 0.168 0 0.304 0.136 0.304 0.304 0 0.125-0.097 0.256-0.217 0.292-1.576 0.757-1.931 1.641-2.163 2.667-0.033 0.126-0.165 0.228-0.295 0.228-0.137 0-0.27-0.109-0.298-0.242-0.149-0.747-0.126-1.438 0.281-2s1.139-0.947 2.267-1.23c0.020-0.007 0.053-0.013 0.074-0.015zM25.697 9.089c0.006-0 0.017-0.001 0.023-0.001 0.168 0 0.304 0.136 0.304 0.304 0 0.121-0.094 0.251-0.209 0.289-0.76 0.297-1.454 0.521-2.192 0.711-0.651 0.851-1.008 1.271-1.156 2.4-0.031 0.129-0.163 0.235-0.296 0.235s-0.266-0.105-0.296-0.235c-0.087-0.558-0.127-0.907-0.104-1.259-0.236 0.36-0.486 0.807-0.726 1.318-0.381 0.814-0.718 1.656-0.918 2.118-0.038 0.115-0.168 0.208-0.289 0.208-0.168 0-0.305-0.136-0.305-0.305 0-0.027 0.007-0.070 0.016-0.096 0.127-0.557 0.381-1.501 0.711-2.429s0.71-1.827 1.2-2.311c0.273-0.27 0.463-0.426 0.711-0.519s0.491-0.098 0.859-0.133c0.882-0.084 1.767-0.181 2.652-0.281 0.004-0.004 0.011-0.011 0.015-0.015zM45.562 9.652c-0.055 0.002-0.105 0.003-0.163 0.059-0.452 0.44-0.822 1.13-1.437 1.615-0.225 0.178-0.478 0.297-0.711 0.385 0.091-0.024 0.17-0.004 0.281-0.059 0.166-0.082 0.278-0.227 0.43-0.326 0.663-0.432 1.21-0.992 1.6-1.674zM35.014 11.638l-0 0.001 0.007-0c0.168 0 0.304 0.136 0.304 0.304 0 0.076-0.046 0.179-0.104 0.229-0.153 0.139-0.342 0.23-0.519 0.341 0.22 0.163 0.422 0.357 0.548 0.622 0.041 0.086 0.048 0.178 0.074 0.267 0.395-0.101 0.783-0.198 1.126-0.193 0.011-0.001 0.029-0.003 0.040-0.003 0.169 0 0.307 0.137 0.307 0.307 0 0.144-0.115 0.28-0.257 0.303-1.357 0.381-2.841 1.278-3.837 2.459-0.050 0.058-0.153 0.105-0.23 0.105-0.168 0-0.304-0.136-0.304-0.304 0-0.027 0.007-0.071 0.016-0.097 0.094-0.258 0.244-0.465 0.385-0.681-0.219-0.164-0.421-0.357-0.548-0.622-0.042-0.088-0.032-0.189-0.059-0.281-0.263 0.191-0.522 0.399-0.83 0.518-0.026 0.008-0.068 0.015-0.095 0.015-0.168 0-0.304-0.136-0.304-0.304 0-0.069 0.040-0.165 0.088-0.215 0.236-0.21 0.563-0.622 0.889-1.023s0.638-0.793 0.978-1.022c0.365-0.247 0.777-0.34 1.155-0.415s0.729-0.139 1.037-0.281c0.034-0.016 0.093-0.030 0.131-0.030h0.002zM3.653 12.927c0.163 0.005 0.296 0.141 0.296 0.304 0 0.069-0.040 0.165-0.088 0.214-1.488 1.576-1.845 2.366-2.030 4.459-0.031 0.129-0.163 0.235-0.296 0.235s-0.266-0.105-0.296-0.235c-0.056-0.591-0.065-1.058-0.044-1.496-0.037 0.019-0.1 0.035-0.142 0.035-0.151 0-0.287-0.122-0.303-0.272-0.045-0.592-0.059-1.014 0.118-1.393s0.503-0.651 0.993-0.993c0.044-0.031 0.123-0.056 0.177-0.056 0.1 0 0.22 0.072 0.268 0.16 0.318-0.293 0.695-0.579 1.156-0.904 0.044-0.033 0.125-0.060 0.181-0.060zM40.673 13.090c0.118 0.005 0.236 0.003 0.356 0.015 0.009 0.044 0.020 0.089 0.030 0.133-0.127-0.059-0.252-0.133-0.385-0.148zM4.956 15.253v0c-0.267 0.239-0.525 0.515-0.711 0.8s-0.3 0.573-0.311 0.83c-0.011 0.256 0.066 0.502 0.311 0.755 0.011-0.013 0.031-0.033 0.044-0.044 0.392-0.314 0.477-0.602 0.519-1.007 0.037-0.364 0.034-0.836 0.148-1.334zM6.29 18.749c-0.101 0.054-0.171 0.134-0.281 0.178-0.264 0.106-0.48 0.178-0.681 0.193s-0.404-0.057-0.548-0.178c-0.050-0.042-0.065-0.101-0.104-0.148 0.013 0.030 0.015 0.073 0.030 0.104 0.131 0.274 0.296 0.35 0.593 0.355 0.258 0.005 0.588-0.107 0.889-0.222 0.003-0.011 0.012-0.019 0.015-0.030 0.028-0.087 0.060-0.166 0.089-0.252zM37.355 26.215c-0.147 0.159-0.339 0.288-0.548 0.386 0.013 0.027 0.026 0.073 0.029 0.103 0.202-0.146 0.375-0.304 0.519-0.489zM6.601 27.090c-0.006 0.015-0.009 0.030-0.015 0.044-0.011 0.032-0.037 0.078-0.059 0.104-0.459 0.464-0.92 0.929-1.378 1.393-0.176 0.178-0.255 0.272-0.267 0.296s-0.032 0.067 0 0.296c0.082 0.581 0.454 1.258 1.007 1.822 0.24 0.245 0.833 0.725 1.407 1.007 0.287 0.141 0.57 0.233 0.785 0.237s0.349-0.040 0.474-0.207c0.101-0.135 0.151-0.334 0.207-0.548-0.865-1.328-1.617-2.857-2.163-4.444zM31.237 28.453c-0.192 0.57-0.384 1.122-0.578 1.733-0.161 0.508-0.597 1.372-1.111 2.222-0.387 0.639-0.799 1.201-1.2 1.63 0.144 0.032 0.184 0.064 0.474 0.089 0.159 0.014 0.638 0.023 1.111 0.030s0.945-0.003 1.141 0c0.41 0.007 0.643-0.016 0.726-0.074s0.168-0.206 0.207-0.652c0.040-0.451 0.038-0.382-0.193-0.785-0.021-0.034-0.041-0.094-0.044-0.133-0.021-0.731-0.039-1.463-0.059-2.192-0.018-0.656-0.131-0.991-0.4-1.63-0.036-0.086-0.045-0.154-0.074-0.237z" fill="#000000"></path>
</svg>
