<?xml version="1.0" encoding="utf-8"?>
<!-- Generated by IcoMoon.io -->
<!DOCTYPE svg PUBLIC "-//W3C//DTD SVG 1.1//EN" "http://www.w3.org/Graphics/SVG/1.1/DTD/svg11.dtd">
<svg version="1.1" xmlns="http://www.w3.org/2000/svg" xmlns:xlink="http://www.w3.org/1999/xlink" width="48" height="48" viewBox="0 0 48 48">
<g id="icomoon-ignore">
	<line stroke-width="1" x1="" y1="" x2="" y2="" stroke="#449FDB" opacity=""></line>
</g>
	<path d="M47.669 6.531c0.675-0.022 1.040 0.374 1.050 1.083 0.032 2.204-0.949 3.145-2.017 4.108s-2.295 1.55-3.408 3.258c-0.74 1.135-0.964 3.938-1.575 6.166-0.569 2.075-1.126 4.588-1.692 6.158-0.597 1.658-0.11 5.424 1.658 5.925-2.015 1.468-5.264 1.035-6.458-0.8-2.143 0.564-2.403 3.167-4.15 4.183-1.422 0.827-2.783 1.201-4.667 1.667-1.047 0.199-1.963 0.162-1.658-0.167 0.985-1.455 2.212-2.665 2.825-4.492-4.132-0.596-8.239-1.376-11.808-0.9-2.758 0.368-4.171 1.906-5.942 2.975-3.802 2.296-7.985 1.711-8.342 0.85-0.339-0.818 1.39-1.285 1.683-1.842-1.418 0.189-1.731-0.014-2.45-0.742 2.233-2.624 7.16-0.936 8.816-2.65 1.549-1.603 1.584-2.73 3.067-4.008 1.91-1.646 4.217-2.997 6.325-3.658 3.207-1.005 6.772-1.169 10.308-3.167 4.73-2.671 5.78-10.126 10.983-12.308 1.743-0.731 3.715-0.61 5.333-1.008 1.603-0.394 1.375-0.61 2.117-0.633zM47.461 6.939c-0.136 0.007-0.161 0.057-0.225 0.083-0.046 0.033-0.086 0.054-0.117 0.075-0.039 0.031-0.086 0.067-0.117 0.092-0.139 0.090-0.305 0.195-0.45 0.283-0.053 0.079 0.018 0.175 0.050 0.242 0.027 0.055 0.058 0.103 0.083 0.158 0.038 0.066 0.095 0.12 0.142 0.175 0.054 0.036 0.079 0.055 0.108 0.075 0.13 0.088 0.302 0.107 0.442 0.133 0.020 0.002 0.118 0.021 0.225 0.033 0.115 0.011 0.266 0.016 0.383 0.025 0.059 0.004 0.091-0.029 0.133-0.033 0.037-0.023 0.071-0.070 0.1-0.1 0.024-0.026 0.012-0.042 0.033-0.067 0.014-0.090 0.025-0.183 0.033-0.267v-0.092c0.006-0.179-0.029-0.326-0.067-0.483-0.011-0.035-0.037-0.089-0.058-0.117-0.057-0.089-0.157-0.129-0.233-0.183-0.037-0.014-0.077-0.020-0.125-0.025-0.057-0.006-0.118-0.008-0.175-0.008s-0.108-0.007-0.167 0zM45.919 8.231c-0.036-0.001-0.096 0.028-0.183 0.108-0.525 0.538-1.565 1.75-1.942 2.875-0.097 0.307 0.1 0.223 0.167 0.025 0.374-1.155 1.554-2.425 1.917-2.808 0.089-0.103 0.102-0.198 0.042-0.2zM46.078 8.497c-0.036 0.004-0.092 0.041-0.167 0.133-0.444 0.607-1.301 1.524-1.517 2.692-0.053 0.317 0.129 0.205 0.167 0 0.208-1.197 1.203-2.194 1.508-2.625 0.073-0.114 0.068-0.206 0.008-0.2zM46.269 8.731c-0.035 0.007-0.083 0.052-0.15 0.15-0.392 0.642-0.909 1.377-1.025 2.558-0.026 0.321 0.139 0.199 0.158-0.008 0.107-1.21 0.757-2.045 1.025-2.5 0.064-0.12 0.051-0.211-0.008-0.2zM46.486 8.914c-0.035 0.010-0.083 0.055-0.142 0.158-0.334 0.674-0.655 1.188-0.667 2.375 0.003 0.321 0.165 0.183 0.167-0.025 0-1.214 0.431-1.831 0.658-2.308 0.053-0.125 0.041-0.216-0.017-0.2zM42.403 9.489c-1.040 0.026-1.657 0.484-1.858 1.35 0.855 0.742 2.646 0.144 2.325-1.333-0.166-0.014-0.318-0.021-0.467-0.017zM38.844 29.147c-0.7 0.741-2.062 1.821-2.325 3 0.512 0.817 2.5 1.282 3.658 1-0.591-0.556-1.261-2.846-1.333-4z" fill="#000000"></path>
</svg>
