<?xml version="1.0" encoding="utf-8"?>
<!-- Generated by IcoMoon.io -->
<!DOCTYPE svg PUBLIC "-//W3C//DTD SVG 1.1//EN" "http://www.w3.org/Graphics/SVG/1.1/DTD/svg11.dtd">
<svg version="1.1" xmlns="http://www.w3.org/2000/svg" xmlns:xlink="http://www.w3.org/1999/xlink" width="47" height="48" viewBox="0 0 47 48">
<g id="icomoon-ignore">
	<line stroke-width="1" x1="" y1="" x2="" y2="" stroke="#449FDB" opacity=""></line>
</g>
	<path d="M3.433-0.015l-0.001-0.001c1.808 0.032 4.007 1.333 5.115 2.085 0.445 0.302 0.936 0.927 1.41 1.14 0.778 0.050 1.563 0.099 2.34 0.15 1.449 0.369 2.807 0.65 3.945 1.365 5.351 3.361 8.806 6.784 12.015 12.45 0.668 1.181 1.024 2.479 1.56 3.795 0.786 1.93 1.663 3.925 2.55 5.76 0.423 0.876 0.726 1.828 1.275 2.58 0.232 0.318 0.848 0.424 1.2 0.615 1.045 0.567 2.254 0.996 3.24 1.665 1.779 1.206 3.503 2.648 5.085 4.095 0.605 0.553 1.005 1.369 1.56 1.98v0.3c-0.495 0.151-0.99 0.298-1.485 0.45-1.097 0.304-2.042 0.234-3.105 0.54-0.633 0.182-1.445 0.442-2.13 0.525 0.024 0.025 0.051 0.050 0.075 0.075 0.403 1.208 2.573 2.225 3.54 2.97 1.212 0.934 2.357 2.049 3.255 3.33l0.9 0.99c0.209 0.324 0.283 0.754 0.51 1.065v0.075c-0.252-0.096-3.017-0.317-6.18-1.335-2.311-0.744-6.671-2.186-6.81-2.295-11.387-4.109-10.491-4.532-12.105-5.55-0.913-0.602-1.531-1.385-2.265-1.98-1.416-1.148-3.079-2.841-4.020-4.47-0.424-0.911-0.851-1.834-1.275-2.745v-0.075c-0.177 0.254-0.12 0.536-0.21 0.915-0.4 1.67-0.088 3.559-1.485 4.17-1.597 0.699-2.762-1.115-3.255-1.965-1.607-2.768-2.019-7.42-0.915-11.16 0.245-0.831 0.269-1.849 0.705-2.505-0.071-0.589-0.52-0.759-0.78-1.14-0.425-0.622-0.789-1.345-1.125-2.040-0.665-1.374-1.106-2.998-1.62-4.485-0.209-0.604-0.251-1.17-0.495-1.74-0.371-0.868-1.041-1.733-1.56-2.505-0.74-1.1-2.809-3.229-1.98-5.4 0.492-1.29 1.435-1.714 2.52-1.695zM11.307 5.234l0-0c-0.073 0.002-0.158 0.008-0.24 0.030-1.063-0.196-2.189 0.907-1.17 1.575 0.91 0.917 1.324 2.178 1.845 3.375 1.466-0.832 2.152-3.008 0.81-4.245-0.416-0.314-0.735-0.746-1.245-0.735z" fill="#000000"></path>
</svg>
