<?xml version="1.0" encoding="utf-8"?>
<!-- Generated by IcoMoon.io -->
<!DOCTYPE svg PUBLIC "-//W3C//DTD SVG 1.1//EN" "http://www.w3.org/Graphics/SVG/1.1/DTD/svg11.dtd">
<svg version="1.1" xmlns="http://www.w3.org/2000/svg" xmlns:xlink="http://www.w3.org/1999/xlink" width="47" height="48" viewBox="0 0 47 48">
<g id="icomoon-ignore">
	<line stroke-width="1" x1="" y1="" x2="" y2="" stroke="#449FDB" opacity=""></line>
</g>
	<path d="M42.672 37.149l-0.001 0.001c-0.077-0.686-1.618-1.518-2.119-1.897-1.003-0.759-2.039-1.584-3.109-2.277-0.56-0.362-1.529-0.642-2.12-0.91-0.843-0.383-2.699-0.752-3.18-1.442-0.914-1.311-1.544-2.902-2.191-4.477-0.648-1.579-1.468-3.241-2.119-4.856-0.323-0.801-0.481-1.522-0.848-2.277-2.278-4.69-5.608-8.621-9.68-11.383-1.337-0.907-2.809-1.741-4.451-2.277-0.929-0.303-2.044-0.134-3.038-0.379h-0.636c-0.557-0.176-1.023-0.81-1.484-1.138-0.96-0.683-1.905-1.164-3.039-1.67-0.427-0.191-1.568-0.643-1.978-0.303-0.24 0.085-0.348 0.194-0.424 0.455-0.24 0.387-0.020 0.99 0.141 1.366 0.454 1.060 1.11 1.705 1.696 2.58 0.529 0.791 1.174 1.691 1.554 2.58 0.797 1.86 1.151 3.927 1.908 5.767 0.291 0.707 0.71 1.513 1.131 2.125 0.34 0.495 0.947 0.87 1.13 1.518 0.385 0.649-0.567 2.864-0.777 3.567-0.814 2.717-0.642 6.518 0.283 8.879 0.365 0.933 0.711 2.021 1.695 2.276 0.073-0.061 0.018-0.028 0.142-0.076 0.209-1.818 0.282-3.571 0.848-5.009 0.353-0.899 1.027-1.515 1.484-2.277 0.335 0.208 0.333 0.813 0.494 1.214 0.417 1.039 0.848 2.166 1.343 3.187 1.037 2.139 2.175 4.194 3.462 6.071 0.457 0.667 1.072 1.391 1.625 1.973 0.235 0.248 0.523 0.375 0.706 0.683h0.071v0.076c-0.949-0.348-1.527-1.378-2.261-1.973-1.416-1.148-3.086-2.85-4.027-4.478-0.424-0.91-0.848-1.821-1.272-2.732v-0.076c-0.177 0.254-0.122 0.532-0.212 0.911-0.399 1.67-0.088 3.563-1.484 4.174-1.596 0.699-2.757-1.123-3.25-1.973-1.606-2.768-2.023-7.416-0.919-11.156 0.245-0.831 0.27-1.849 0.706-2.504-0.071-0.589-0.517-0.757-0.777-1.138-0.425-0.622-0.795-1.354-1.131-2.049-0.665-1.374-1.111-2.991-1.625-4.477-0.209-0.604-0.251-1.175-0.495-1.746-0.371-0.868-1.035-1.733-1.554-2.504-0.739-1.099-2.807-3.217-1.978-5.388 1.313-3.439 5.858-0.823 7.631 0.379 0.445 0.302 0.939 0.925 1.413 1.138 0.777 0.051 1.555 0.101 2.332 0.152 1.448 0.369 2.819 0.651 3.957 1.366 5.35 3.361 8.803 6.78 12.012 12.446 0.668 1.181 1.018 2.478 1.554 3.795 0.786 1.93 1.657 3.933 2.544 5.766 0.423 0.876 0.722 1.828 1.271 2.58 0.232 0.318 0.85 0.417 1.202 0.607 1.045 0.567 2.264 1.001 3.25 1.67 1.778 1.206 3.505 2.651 5.087 4.098 0.605 0.553 1 1.362 1.555 1.973v0.304c-0.495 0.151-0.989 0.304-1.484 0.455-1.097 0.304-2.046 0.225-3.109 0.531-0.632 0.182-1.435 0.448-2.12 0.531l0.071 0.076c0.403 1.208 2.566 2.214 3.533 2.959 1.212 0.934 2.352 2.059 3.25 3.339l0.919 0.987c0.209 0.325 0.267 0.752 0.495 1.063v0.076c-0.433-0.164-0.656-0.572-0.989-0.835-0.673-0.531-1.359-1.123-2.049-1.593-1.171-0.798-2.529-1.253-3.745-2.049-0.684-0.448-1.341-1.001-1.979-1.518-0.584-0.473-1.238-1.376-1.625-2.049-0.201-0.351-0.241-0.777-0.494-1.062 0.075-0.621 0.811-0.626 1.272-0.835 1.623-0.735 3.521-0.983 6.006-0.911zM9.952 8.699v0c0.252 0.262 0.638 0.439 0.838 0.75 0.15 0.234 0.176 0.479 0.349 0.675 0.002 0.799-0.196 1.323-0.628 1.65-0.023 0.025-0.047 0.050-0.070 0.075-0.233-0.525-0.466-1.050-0.698-1.575-0.302-0.464-0.733-0.811-0.978-1.35h-0.070v-0.075c0.383-0.090 0.745-0.16 1.257-0.15z" fill="#000000"></path>
</svg>
