<?xml version="1.0" encoding="utf-8"?>
<!-- Generated by IcoMoon.io -->
<!DOCTYPE svg PUBLIC "-//W3C//DTD SVG 1.1//EN" "http://www.w3.org/Graphics/SVG/1.1/DTD/svg11.dtd">
<svg version="1.1" xmlns="http://www.w3.org/2000/svg" xmlns:xlink="http://www.w3.org/1999/xlink" width="47" height="48" viewBox="0 0 47 48">
<g id="icomoon-ignore">
	<line stroke-width="1" x1="" y1="" x2="" y2="" stroke="#449FDB" opacity=""></line>
</g>
	<path d="M33.433 0.001l0.001-0.001c3.435 0.038 7.867 1.069 11.024 4.82 1.010 1.2 1.153 2.596 1.126 4.165-0.026 1.568-0.329 3.359-0.87 5.305-0.915 3.295-2.525 7.018-4.763 10.524 0.569-0.010 1.312-0.074 2.339-0.271 0.778-0.149 1.501-0.457 2.653 0.357 0.576 0.407 0.913 1.278 0.856 1.84s-0.277 0.897-0.471 1.169c-0.776 1.088-1.842 1.702-3.251 2.31-1.591 0.687-3.492 0.916-5.248 0.841h-0.086l-0.285-0.028c-0.038 0.182-0.069 0.385-0.1 0.613-0.122 4.23-0.75 6.837-2.125 8.656-1.389 1.839-3.476 2.425-5.12 2.752-2.333 0.465-4.388-0.232-5.433-1.355s-1.314-2.393-1.412-2.638c-0.602-1.511-0.647-3.241-0.727-5.105-0.025-0.59-0.049-1.172-0.071-1.768-0.574 0.238-1.15 0.412-1.697 0.499-1.604 0.255-2.965 0.001-3.765-0.185-0.445-0.103-0.884-0.246-1.326-0.471-0.351-0.179-0.723-0.372-1.084-0.813-0.741 0.567-1.604 0.947-2.553 0.984-1.354 0.053-2.504-0.573-3.337-1.326-1.667-1.506-2.733-3.724-3.708-6.189s-1.754-5.179-2.31-7.487c-0.556-2.307-0.882-4.084-0.941-5.177-0.213-3.961 0.795-6.875 2.71-8.756s4.507-2.547 6.874-2.667c3.404-0.172 6.626 0.695 8.186 1.198 1.578-0.86 3.551-1.375 5.832-1.34 1.2 0.018 2.287 0.133 3.309 0.299 0.043-0.013 0.065-0.029 0.114-0.043 0.331-0.092 0.789-0.204 1.34-0.314 1.103-0.219 2.603-0.418 4.321-0.399zM33.020 1.141l0.001-0c-1.624 0.014-3.031 0.244-4.007 0.456-0.488 0.106-0.868 0.212-1.112 0.285-0.122 0.036-0.209 0.063-0.271 0.086-0.016 0.006-0.038 0.007-0.057 0.014-0.009 0.004-0.010 0.006-0.029 0.014-1.009-0.234-2.089-0.381-3.266-0.399-2.314-0.035-4.153 0.545-5.59 1.455-0.704-0.253-3.47-1.199-6.703-1.341-0.531-0.023-1.071-0.015-1.611 0.014-2.162 0.115-4.385 0.716-6.004 2.31s-2.555 4.123-2.353 7.872c0.047 0.881 0.366 2.709 0.913 4.977s1.308 4.924 2.253 7.316c0.945 2.391 2.047 4.502 3.408 5.733 0.681 0.615 1.481 1.033 2.367 0.998s1.723-0.521 2.481-1.369c1.809-2.024 3.302-3.481 3.594-3.765 0.782 0.391 1.648 0.621 2.567 0.642 0.002 0.024 0.012 0.047 0.014 0.071-0.536 0.584-0.798 0.936-1.055 1.127-0.298 0.221-0.777 0.404-2.168 0.67-0.766 0.147-1.27 0.308-1.654 0.599-0.192 0.146-0.366 0.35-0.428 0.599s0.009 0.502 0.114 0.684c0.211 0.364 0.53 0.547 0.856 0.713s0.667 0.279 0.998 0.357c0.711 0.165 1.904 0.383 3.237 0.171 0.981-0.156 2.049-0.563 2.995-1.355-0.014 1.618 0.009 3.173 0.071 4.521 0.046 0.989 0.111 1.865 0.2 2.581s0.178 1.253 0.356 1.668c0.259 0.601 0.696 1.585 1.64 2.324s2.412 1.17 4.421 0.77c1.624-0.324 2.825-0.829 3.679-1.654s1.297-1.922 1.554-3.308c0.304-1.638 0.81-5.377 1.041-7.387 0.004 0.001 0.010-0.001 0.014 0 0.552 0.16 1.207 0.221 1.911 0.214 1.408-0.014 2.986-0.264 4.093-0.742 1.248-0.539 2.232-1.192 2.724-1.882 0.123-0.173 0.231-0.363 0.257-0.613s-0.112-0.597-0.356-0.77c-0.489-0.346-0.969-0.252-1.611-0.128-2.554 0.49-3.832 0.301-4.392 0.086-0.14-0.054-0.233-0.109-0.299-0.157 2.687-3.803 4.594-8.041 5.604-11.68 0.521-1.876 0.803-3.588 0.827-5.020s-0.171-2.598-0.841-3.394c-2.98-3.54-7.133-4.392-10.382-4.364zM33.036 2.353l-0-0c3.002-0.026 6.658 0.706 9.341 3.894 0.33 0.392 0.592 1.342 0.57 2.638s-0.283 2.929-0.784 4.735c-0.931 3.353-2.694 7.282-5.12 10.838-0.071-0.081-0.141-0.159-0.214-0.242 0.921-1.42 1.082-2.863 1.013-4.178-0.074-1.399-0.366-2.688-0.328-3.779 0.051-1.5 0.468-2.565 0.414-4.136 0.004-0.013 0.011-0.031 0.014-0.043 0.031-0.12 0.018-0.187 0.014-0.257-0.008-0.14-0.031-0.272-0.071-0.428-0.082-0.312-0.229-0.706-0.442-1.184-0.427-0.954-1.125-2.209-2.182-3.465-1.283-1.525-3.102-3.071-5.519-4.064 0.872-0.168 2.013-0.317 3.294-0.328zM24.265 2.81l-0.001-0c4.867 0.074 8.008 2.379 9.955 4.692 0.973 1.156 1.64 2.306 2.025 3.166 0.114 0.254 0.147 0.408 0.214 0.599-2.296-0.216-3.819 0.169-4.692 1.098-0.985 1.048-0.927 2.53-0.542 3.964s1.13 2.906 1.811 4.121c0.34 0.608 0.655 1.153 0.913 1.583s0.457 0.775 0.499 0.87c0.393 0.887 0.904 1.52 1.298 1.982 0.203 0.239 0.359 0.435 0.471 0.585-0.143 0.039-0.317 0.081-0.499 0.157-0.369 0.155-0.794 0.443-1.070 0.913-0.264 0.45-0.389 1.037-0.356 1.797l-0 0.014 0 0.014c0.001 0.025-0.002 0.046 0 0.071-0.096 1.114-0.794 6.472-1.141 8.342-0.234 1.263-0.6 2.089-1.212 2.681s-1.521 1.001-3.009 1.298c-1.716 0.342-2.654-0.001-3.308-0.513s-1.022-1.264-1.269-1.84c-0.074-0.173-0.188-0.682-0.271-1.355s-0.155-1.526-0.2-2.496c-0.089-1.938-0.1-4.34-0.029-6.731l0-0.008c0-0.050-0.013-0.129-0.029-0.177-0.002-0.014-0.012-0.029-0.014-0.043l0-0.014-0-0.014c-0.029-0.166-0.067-0.332-0.128-0.485-0.244-0.613-0.707-1.142-1.369-1.398-0.217-0.083-0.576-0.237-1.041-0.2-0.084 0.007-0.171 0.037-0.257 0.057 0.132-0.514 0.364-1.13 0.642-1.825 0-0.001-0-0.013 0-0.014 0.659-1.646 2.447-3.823 1.084-9.683-0.284-1.221-1.061-2.026-2.011-2.367-0.475-0.171-0.981-0.242-1.483-0.242s-0.997 0.067-1.483 0.171c-0.972 0.208-1.889 0.569-2.581 0.927-0.010 0.005-0.018 0.009-0.028 0.014 0.093-1.093 0.337-2.721 0.998-4.349 0.566-1.396 1.425-2.756 2.709-3.751 0.1-0.077 0.209-0.155 0.314-0.228 1.247-0.867 2.871-1.417 5.091-1.383zM11.472 2.909l-0-0c2.408 0.048 4.744 0.655 6.018 1.041-1.206 1.102-2.009 2.455-2.552 3.793-1.234 3.039-1.156 6.049-1.155 6.089 0 0-0.001-0.018 0 0.014s0.007 0.083 0.014 0.114c0.008 0.403 0.064 1.007 0.086 1.911 0.024 0.984 0 2.236-0.2 3.565-0.343 2.283 0.633 4.38 2.267 5.676-0.442 0.432-1.79 1.758-3.508 3.679-0.617 0.69-1.121 0.91-1.54 0.927s-0.884-0.165-1.412-0.642c-1.056-0.954-2.164-2.973-3.080-5.291s-1.673-4.944-2.21-7.173c-0.537-2.229-0.848-4.108-0.884-4.777-0.19-3.537 0.673-5.67 1.996-6.973s3.178-1.835 5.134-1.939c0.344-0.018 0.683-0.021 1.027-0.014zM34.931 12.42c0.165-0.007 0.342-0.003 0.528 0 0.347 0.006 0.745 0.037 1.169 0.086-0.024 1.192-0.361 2.168-0.414 3.708-0.046 1.311 0.261 2.614 0.328 3.879 0.054 1.025-0.029 2.008-0.542 3.009-0.12-0.199-0.234-0.411-0.342-0.656-0.116-0.26-0.312-0.567-0.57-0.998s-0.569-0.966-0.898-1.554c-0.659-1.176-1.358-2.586-1.697-3.85s-0.292-2.297 0.257-2.881c0.36-0.383 1.027-0.69 2.182-0.742zM19.245 12.62c0.377 0 0.722 0.053 1.013 0.157 0.58 0.208 0.999 0.582 1.212 1.497 1.304 5.608-0.24 7.043-1.027 9.013-0.27 0.677-0.535 1.321-0.699 1.954-2.823-0.004-5.226-2.555-4.763-5.633 0.213-1.417 0.239-2.738 0.214-3.765-0.023-0.937-0.090-1.561-0.1-1.825 0.018-0.015 0.018-0.024 0.043-0.043 0.141-0.107 0.389-0.261 0.684-0.414 0.591-0.306 1.405-0.623 2.225-0.799 0.41-0.088 0.821-0.143 1.198-0.143zM34.675 12.991c-0.128-0.003-0.271 0.010-0.414 0.028-0.285 0.037-0.541 0.103-0.727 0.2-0.093 0.048-0.158 0.108-0.214 0.171s-0.098 0.144-0.086 0.228c0.012 0.080 0.050 0.154 0.114 0.228s0.154 0.149 0.257 0.214c0.206 0.13 0.493 0.225 0.799 0.185s0.559-0.207 0.742-0.385c0.091-0.089 0.164-0.182 0.214-0.271 0.047-0.085 0.080-0.159 0.071-0.242-0-0.004 0.001-0.010 0-0.014-0.013-0.084-0.070-0.153-0.143-0.2s-0.167-0.077-0.271-0.1c-0.104-0.023-0.215-0.040-0.342-0.043zM19.331 13.29c-0.134 0.003-0.258 0.018-0.371 0.043s-0.211 0.057-0.299 0.114c-0.037 0.024-0.083 0.064-0.114 0.1h-0.057l-0.029 0.171c-0.019 0.126 0.030 0.215 0.086 0.314s0.13 0.204 0.228 0.299c0.196 0.191 0.474 0.37 0.813 0.414s0.646-0.059 0.87-0.2c0.112-0.070 0.199-0.159 0.271-0.242s0.126-0.159 0.143-0.271c0.018-0.119-0.031-0.222-0.1-0.299s-0.156-0.147-0.257-0.2c-0.202-0.105-0.459-0.176-0.756-0.214-0.148-0.019-0.294-0.032-0.428-0.029zM36.971 26.524c0.172 0.13 0.372 0.253 0.642 0.356 0.933 0.359 2.467 0.488 5.162-0.029-0.398 0.334-1.057 0.78-1.825 1.112-0.808 0.349-2.33 0.615-3.565 0.627-0.618 0.006-1.179-0.061-1.512-0.157-0.159-0.046-0.251-0.089-0.285-0.114-0.030-0.624 0.078-0.991 0.2-1.198 0.125-0.214 0.274-0.303 0.471-0.385s0.428-0.12 0.713-0.214zM21.384 26.68l0.001 0c0.103-0.008 0.223 0.035 0.427 0.114 0.21 0.081 0.508 0.363 0.642 0.699s0.119 0.659-0.043 0.87c-0.944 1.229-2.046 1.699-3.109 1.868s-2.088 0.002-2.71-0.143c-0.218-0.051-0.489-0.15-0.699-0.257-0.086-0.044-0.073-0.044-0.128-0.086 0.174-0.076 0.427-0.169 0.884-0.257 1.443-0.276 2.167-0.5 2.724-0.913s0.794-0.853 1.469-1.554c0.287-0.298 0.439-0.334 0.542-0.342z" fill="#000000"></path>
</svg>
