<?xml version="1.0" encoding="utf-8"?>
<!-- Generated by IcoMoon.io -->
<!DOCTYPE svg PUBLIC "-//W3C//DTD SVG 1.1//EN" "http://www.w3.org/Graphics/SVG/1.1/DTD/svg11.dtd">
<svg version="1.1" xmlns="http://www.w3.org/2000/svg" xmlns:xlink="http://www.w3.org/1999/xlink" width="41" height="48" viewBox="0 0 41 48">
<g id="icomoon-ignore">
	<line stroke-width="1" x1="" y1="" x2="" y2="" stroke="#449FDB" opacity=""></line>
</g>
	<path d="M16.722 0l-0.001-0.001c0.067 0.008 0.080 0.036 0.201 0.474 0.204 0.737 0.572 1.752 0.955 2.635 0.495 1.14 1.346 2.824 2.118 4.185l0.14 0.251c1.412 0.22 3.143 0.514 3.934 0.671 4.197 0.835 7.519 1.948 10.078 3.381 1.864 1.044 3.386 2.313 4.643 3.868 0.43 0.532 0.787 1.035 1.31 1.849l0.093 0.144-0.599 0.090c-3.85 0.59-9.659 2.006-14.914 3.568 0.004 0.048 0.013 0.11 0.025 0.176 0.166 0.939 0.266 1.895 0.327 3.069 0.037 0.721 0.020 2.845-0.029 3.482-0.173 2.272-0.437 4.188-0.779 5.625-0.565 2.373-1.614 5.152-3.066 8.116-0.426 0.871-0.795 1.57-0.847 1.605-0.029 0.019-0.666 0.018-1.145 0-2.361-0.091-6.648-0.7-8.866-1.26-1.331-0.336-3.108-0.93-4.16-1.393-2.062-0.907-3.833-2.239-4.724-3.55-0.697-1.026-0.875-2.136-0.513-3.234 0.201-0.61 0.669-1.403 1.267-2.147 0.402-0.5 1.187-1.28 1.716-1.701 0.026-0.021 0.056-0.047 0.083-0.068l-0.054 0.018c4.429-3.641 7.297-6.913 8.658-9.882 0.759-1.656 1.072-3.081 1.030-4.702-0.065-2.526-0.766-4.358-2.376-6.217-0.356-0.411-3.263-3.245-3.263-3.245-0.277-0.267-0.526-0.519-0.61-0.729-0.036-0.091-0.053-0.175-0.057-0.248l-0.011-0.011c0-0.054 0.007-0.106 0.018-0.154 0.005-0.026 0.011-0.048 0.018-0.068 0.001-0.002 0.003-0.005 0.004-0.007 0.017-0.050 0.036-0.079 0.036-0.079 0.001 0.004 0.003 0.007 0.004 0.011 0.136-0.208 0.521-0.583 0.836-0.804 0.968-0.68 2.54-1.469 4.562-2.29 1.492-0.606 3.815-1.442 3.959-1.425zM16.61 0.333l-0-0c-0.179 0.032-2.637 1.055-3.539 1.475-0.704 0.327-2.292 1.161-2.265 1.188 0.005 0.005 0.298 0.049 0.646 0.097 2.163 0.3 5.151 0.812 5.819 0.998 0.287 0.080 0.284 0.123 0.043-0.596-0.32-0.954-0.524-1.843-0.635-2.757-0.027-0.217-0.053-0.4-0.057-0.406-0.001-0.001-0.005-0.001-0.011 0zM10.306 3.262l-0.001 0 0.337 0.319c0.348 0.326 1.252 1.188 2.406 2.304l0.621 0.603c0.213 0.037 0.427 0.075 0.639 0.111 0.067-0.029 0.217-0.114 0.384-0.219 0.707-0.442 1.728-1.010 2.656-1.475 0.23-0.115 0.415-0.214 0.409-0.219s-0.185-0.021-0.402-0.039c-1.924-0.16-5.406-0.827-6.795-1.299zM10.050 3.467l0 0-0.086 0.057c-0.944 0.666-1.499 1.318-1.504 1.759v0.072c0.069 0.026 0.141 0.054 0.204 0.079 0.051 0.017 0.101 0.037 0.154 0.054 0.014 0.004 0.026 0.006 0.039 0.011 0.087 0.028 0.176 0.053 0.266 0.079 0.002 0.001 0.005 0.003 0.007 0.004 0.156 0.045 0.314 0.090 0.467 0.129 0.093 0.024 0.195 0.048 0.309 0.075 0.101 0.024 0.19 0.045 0.276 0.065 0.029 0.007 0.049 0.011 0.079 0.018 0.043 0.010 0.096 0.021 0.133 0.029 0.538 0.116 1.235 0.242 1.888 0.355-0.006-0.017-0.082-0.118-0.187-0.244-0.113-0.135-0.621-0.761-1.127-1.393zM17.882 5.032c-0.009-0.001-0.022 0.005-0.032 0.014-0.026 0.022-0.165 0.138-0.312 0.262-0.616 0.519-1.31 1-1.996 1.382-0.078 0.043-0.138 0.082-0.144 0.093 1.109 0.184 2.317 0.38 3.737 0.603-0.002-0.010-0.015-0.026-0.029-0.047-0.168-0.256-0.865-1.582-1.088-2.071-0.082-0.179-0.109-0.235-0.136-0.237zM9.041 6.141c0 0.005 0.141 0.125 0.316 0.262 1.399 1.1 2.61 2.465 3.374 3.808 0.082 0.144 0.155 0.257 0.162 0.251s-0.058-0.262-0.144-0.571c-0.225-0.809-0.886-2.916-0.93-2.965-0.004-0.005-0.328-0.093-0.721-0.194-0.308-0.079-0.601-0.156-0.865-0.23-0.377-0.105-0.699-0.204-0.944-0.287-0.133-0.045-0.244-0.079-0.248-0.075zM12.261 7.031c-0.005 0-0.007 0.002-0.007 0.004 0 0.012 0.058 0.146 0.129 0.298 0.44 0.946 0.933 2.291 1.17 3.202 0.035 0.136 0.070 0.248 0.075 0.248s0.164-0.155 0.355-0.345c0.475-0.473 1.127-0.993 1.852-1.479 0.291-0.195 1.16-0.714 1.375-0.822 0.097-0.049 0.176-0.1 0.176-0.111s-0.174-0.050-0.388-0.086c-1.28-0.215-3.272-0.601-4.386-0.847-0.173-0.038-0.318-0.063-0.352-0.061zM17.929 8.108l0.001-0c-0.063-0.021-1.852 1.369-2.516 1.956-0.348 0.307-1.156 1.119-1.156 1.159 0 0.014 0.454 0.148 1.009 0.302 0.975 0.27 2.114 0.606 2.81 0.829l0.337 0.108 0.022-0.068c0.011-0.037 0.029-0.29 0.039-0.564 0.037-0.983-0.077-2.047-0.316-2.994-0.125-0.494-0.192-0.716-0.23-0.729zM18.379 8.173c-0.005 0.005 0.034 0.105 0.083 0.219 0.455 1.059 0.703 2.312 0.704 3.554 0 0.229 0.005 0.416 0.011 0.416s0.282-0.185 0.617-0.409c1.274-0.852 2.556-1.546 4.286-2.326 0.437-0.197 0.573-0.275 0.535-0.291-0.079-0.033-1.398-0.307-2.308-0.481-1.221-0.234-3.907-0.701-3.927-0.682zM25.328 9.547c-0.025-0.025-1.46 0.776-2.351 1.31-1.114 0.668-3.216 2.059-3.173 2.1 0.011 0.011 0.239 0.107 0.503 0.215 0.945 0.39 1.806 0.812 2.567 1.256 0.202 0.118 0.377 0.209 0.391 0.205s0.136-0.202 0.273-0.442c0.777-1.359 1.41-2.806 1.648-3.78 0.076-0.313 0.164-0.844 0.144-0.865zM25.823 9.626c-0.016-0-0.036 0.099-0.047 0.219-0.117 1.32-0.57 2.872-1.267 4.354-0.086 0.182-0.145 0.334-0.133 0.334s0.177-0.065 0.37-0.144c2.32-0.942 4.731-1.688 7.542-2.333l0.334-0.079-0.477-0.215c-1.149-0.522-2.92-1.167-4.455-1.626-0.616-0.184-1.806-0.51-1.867-0.51zM13.979 12.347c-0.007 0.006 0.010 0.162 0.036 0.344 0.207 1.436 0.239 2.846 0.090 3.945-0.007 0.050-0.002 0.093 0.011 0.093s0.263-0.23 0.556-0.513c0.988-0.955 1.812-1.704 2.667-2.419 0.213-0.178 0.388-0.33 0.388-0.337-0.001-0.041-1.582-0.57-2.326-0.779-0.495-0.139-1.402-0.353-1.421-0.334zM33.078 12.365c-0.012-0.012-0.859 0.233-1.655 0.477-1.509 0.463-3.525 1.18-5 1.78-0.848 0.345-1.957 0.822-1.956 0.84 0 0.008 0.060 0.057 0.133 0.111s0.291 0.233 0.485 0.395c1.040 0.865 1.911 1.828 2.645 2.926 0.096 0.143 0.18 0.262 0.187 0.262s0.225-0.27 0.485-0.599c0.26-0.33 1.031-1.304 1.716-2.165 1.303-1.638 1.874-2.382 2.269-2.947 0.27-0.387 0.706-1.067 0.693-1.080zM33.577 12.498c-0.006 0.017-0.142 0.296-0.302 0.617-1.069 2.159-1.975 3.366-3.966 5.28-0.321 0.308-0.573 0.564-0.56 0.564s0.211-0.049 0.442-0.104c3.39-0.815 6.912-1.401 9.667-1.608 0.357-0.027 0.65-0.048 0.653-0.050 0.013-0.007-0.84-0.893-1.188-1.235-1.225-1.203-2.783-2.374-4.372-3.284-0.19-0.109-0.349-0.184-0.373-0.179zM19.021 13.991c-0.021-0.005-0.051 0.061-0.075 0.172-0.272 1.251-0.743 2.532-1.328 3.604-0.175 0.321-0.185 0.345-0.158 0.345 0.008 0 0.272-0.157 0.585-0.348 1.099-0.671 2.149-1.252 3.378-1.867 0.388-0.194 0.702-0.357 0.696-0.363-0.044-0.042-0.932-0.514-1.518-0.808-0.641-0.321-1.488-0.715-1.579-0.736zM18.167 14.142c-0.016-0.016-1.315 1.022-1.931 1.544-0.861 0.728-1.979 1.744-1.978 1.798 0 0.012 0.142 0.093 0.316 0.183 0.443 0.228 0.791 0.488 1.217 0.901l0.37 0.352 0.162-0.262c0.089-0.146 0.242-0.415 0.345-0.599 0.435-0.784 0.888-1.827 1.156-2.656 0.14-0.432 0.362-1.242 0.345-1.26zM23.365 16.281l-0.23 0.345c-1.14 1.704-2.666 3.454-4.394 5.043-0.674 0.62-0.637 0.589-0.599 0.589 0.018 0 0.275-0.091 0.574-0.201 2.701-0.992 5.016-1.735 8.012-2.567l0.531-0.147-0.083-0.083c-0.148-0.156-0.865-0.801-1.235-1.109-0.661-0.55-1.526-1.191-2.258-1.666zM21.997 16.622c-0.016-0.016-1.282 0.627-2.107 1.070-1.201 0.644-3.107 1.733-3.231 1.845-0.031 0.028-0.006 0.099 0.144 0.402 0.354 0.716 0.555 1.563 0.556 2.355 0 0.15 0.012 0.246 0.029 0.24 0.015-0.005 0.293-0.327 0.621-0.714 0.785-0.928 1.926-2.353 2.567-3.205 0.535-0.713 1.437-1.977 1.421-1.992zM13.739 18.645c-0.016-0-0.080 0.148-0.14 0.33-0.144 0.439-0.344 0.943-0.546 1.368-0.227 0.478-0.444 0.854-0.876 1.515-0.065 0.099-0.046 0.085 0.531-0.373 0.547-0.435 1.491-1.15 2.111-1.597 0.222-0.16 0.393-0.298 0.38-0.309-0.331-0.276-0.706-0.53-1.124-0.761-0.17-0.094-0.321-0.172-0.337-0.172zM15.94 20.372c-0.004 0.001-0.010 0.001-0.014 0.004-0.016 0.010-0.137 0.157-0.273 0.323-1.272 1.556-2.96 3.112-4.918 4.534-0.247 0.179-0.449 0.33-0.449 0.337s0.26-0.119 0.581-0.28 0.816-0.396 1.095-0.524c0.998-0.457 2.473-1.072 4.078-1.694l0.894-0.348-0.014-0.129c-0.074-0.605-0.359-1.349-0.732-1.906-0.177-0.264-0.218-0.32-0.248-0.316zM14.924 20.623c-0.026-0.026-2.241 1.477-3.209 2.175-0.359 0.259-0.404 0.302-0.65 0.621-0.372 0.484-0.702 0.872-1.131 1.339-0.68 0.741-0.735 0.804-0.693 0.779 0.023-0.014 0.201-0.125 0.395-0.248 1.549-0.983 2.798-1.99 4.060-3.277 0.504-0.514 1.254-1.363 1.228-1.389zM23.693 21.405c-1.266 0.386-2.489 0.781-3.633 1.17 0.219 0.168 1.432 0.976 2.078 1.382 0.749 0.47 1.808 1.091 1.859 1.091 0.016 0 0.019-0.175 0.007-0.445-0.048-1.126-0.219-2.822-0.312-3.198zM19.368 22.813c-0.059 0.021-0.121 0.040-0.179 0.061-0.008 0.085-0.009 0.247-0.011 0.571-0.007 1.32-0.255 2.967-0.696 4.598-0.053 0.198-0.090 0.359-0.079 0.359s0.279-0.114 0.596-0.255c1.82-0.809 3.305-1.606 4.498-2.416 0.559-0.38 0.53-0.339 0.287-0.445-0.783-0.342-2.613-1.358-3.963-2.204-0.227-0.142-0.363-0.225-0.452-0.269zM18.355 23.172c-0.225 0.082-0.456 0.167-0.671 0.248-1.010 0.38-1.974 0.754-2.9 1.131 0.043 0.145 0.23 0.593 0.355 0.84 0.293 0.577 0.694 1.162 1.203 1.752 0.297 0.345 1.191 1.215 1.217 1.184 0.011-0.012 0.079-0.219 0.151-0.459 0.299-1.006 0.485-1.89 0.599-2.846 0.043-0.361 0.071-1.587 0.047-1.849zM14.101 24.835c-0.090 0.037-0.18 0.074-0.269 0.111-0.007 0.016-0.015 0.035-0.022 0.057-0.019 0.064-0.128 0.351-0.241 0.639-0.651 1.659-1.813 4.005-2.581 5.205-0.172 0.269-0.192 0.305-0.133 0.284 0.019-0.007 0.516-0.168 1.106-0.359 1.546-0.5 2.895-0.97 4.132-1.439 1.067-0.405 1.054-0.398 1.012-0.434-0.021-0.018-0.167-0.143-0.323-0.276-0.485-0.416-1.063-1.042-1.508-1.63-0.407-0.538-0.876-1.376-1.084-1.942-0.037-0.1-0.071-0.183-0.090-0.215zM12.741 25.413c-1.31 0.569-2.541 1.142-3.712 1.726-0.039 0.060-0.062 0.157-0.108 0.377-0.115 0.55-0.131 1.437-0.036 1.949 0.096 0.518 0.281 1.074 0.503 1.515 0.101 0.202 0.114 0.216 0.147 0.169 0.020-0.029 0.167-0.261 0.327-0.517 0.926-1.483 1.625-2.7 2.258-3.934 0.272-0.53 0.546-1.099 0.621-1.285zM24.044 25.804l-0.097 0.082c-0.133 0.117-0.731 0.551-1.131 0.818-1.067 0.713-2.294 1.43-3.579 2.096-0.324 0.168-0.592 0.312-0.599 0.319-0.026 0.026 0.893 0.592 1.529 0.94 0.96 0.526 2.026 0.98 3.008 1.285 0.222 0.069 0.407 0.125 0.409 0.122s0.036-0.214 0.075-0.47c0.226-1.458 0.383-3.458 0.384-4.918v-0.276zM7.834 27.749c-0.319 0.168-0.637 0.336-0.948 0.506-0.533 0.292-0.921 0.507-1.249 0.696-0.696 0.427-1.176 0.819-1.752 1.414-1.023 1.057-1.753 2.318-1.902 3.277-0.017 0.111-0.015 0.122 0.032 0.108 0.029-0.009 0.383-0.109 0.786-0.219 1.36-0.372 5.685-1.637 5.732-1.676 0.005-0.005-0.098-0.23-0.23-0.499-0.475-0.966-0.631-1.671-0.578-2.628 0.012-0.218 0.043-0.532 0.072-0.7 0.031-0.181 0.043-0.255 0.036-0.28zM18.024 29.564c-0.004 0.005-0.040 0.116-0.082 0.248-0.42 1.293-1.24 3.155-2.060 4.688-0.148 0.276-0.269 0.51-0.269 0.517s0.069-0.018 0.151-0.050c0.081-0.032 0.496-0.188 0.922-0.348 2.921-1.096 5.779-2.286 6.648-2.768l0.208-0.115-0.151-0.036c-1.662-0.38-3.614-1.138-5.011-1.946-0.192-0.111-0.351-0.195-0.355-0.19zM16.983 29.906c-0.004-0.005-0.215 0.080-0.47 0.19-1.799 0.775-3.606 1.4-5.74 1.985l-0.599 0.165 0.115 0.144c0.806 1.017 2.034 2.062 3.421 2.911 0.233 0.143 0.43 0.258 0.438 0.258s0.214-0.349 0.456-0.779c0.952-1.689 1.699-3.194 2.269-4.573 0.067-0.162 0.116-0.297 0.111-0.302zM23.448 32.16c-0.021-0.004-0.117 0.042-0.244 0.118-1.055 0.634-4.14 2.114-7.118 3.414-0.492 0.215-0.888 0.398-0.876 0.409 0.035 0.034 0.696 0.326 1.152 0.51 1.631 0.655 3.369 1.145 5.312 1.497 0.039 0.007 0.078 0.016 0.086 0.018s0.143-0.405 0.302-0.905c0.359-1.132 0.552-1.775 0.783-2.592 0.275-0.974 0.607-2.317 0.607-2.462 0-0.003-0.001-0.006-0.004-0.007zM8.529 32.669c-0.004-0.003-0.316 0.071-0.693 0.162s-1.43 0.338-2.34 0.549c-1.638 0.38-3.383 0.79-3.478 0.818-0.066 0.020-0.066 0.179 0.004 0.492 0.15 0.677 0.533 1.414 1.095 2.114 0.273 0.34 0.873 0.95 1.217 1.238l0.294 0.248 0.273-0.424c0.151-0.234 0.416-0.63 0.592-0.879s0.651-0.913 1.055-1.479c1.163-1.628 1.997-2.824 1.981-2.839zM9.366 32.993l0.001 0-1.153 1.389c-1.685 2.029-2.456 3.007-3.069 3.895l-0.19 0.269 0.122 0.086c0.066 0.047 0.125 0.085 0.129 0.086s0.86-0.294 1.902-0.657c1.847-0.644 5.842-2.063 5.89-2.093 0.013-0.008-0.145-0.114-0.352-0.233-1.169-0.676-2.127-1.459-3.069-2.509zM14.59 36.722c-0.005 0.006-0.185 0.278-0.398 0.603-0.781 1.189-1.715 2.446-2.656 3.572-0.191 0.228-0.348 0.428-0.348 0.442 0 0.029 0.221 0.085 0.284 0.072 0.023-0.005 0.468-0.131 0.987-0.28 2.8-0.806 6.235-1.818 7.358-2.172 0.708-0.223 1.668-0.546 1.712-0.574 0.023-0.015-0.051-0.031-0.197-0.043-0.951-0.080-2.554-0.357-3.665-0.635-0.905-0.226-1.575-0.435-2.426-0.754-0.353-0.132-0.645-0.236-0.65-0.23zM13.434 36.754c-0.004-0.004-0.168 0.044-0.363 0.104-1.040 0.324-2.625 0.773-5.492 1.554-1.078 0.294-1.974 0.537-1.989 0.542-0.052 0.016 0.611 0.433 1.131 0.714 0.416 0.225 0.98 0.485 1.522 0.7 0.437 0.173 2.088 0.758 2.322 0.822l0.101 0.025 0.19-0.334c0.105-0.184 0.3-0.506 0.434-0.718s0.524-0.829 0.869-1.371c0.816-1.285 1.283-2.030 1.274-2.039zM21.575 38.664l0.001 0.001c-0.043 0.009-0.216 0.081-0.42 0.176-1.287 0.599-2.561 1.092-3.848 1.486-1.021 0.312-2.026 0.565-4.121 1.037l-0.98 0.219 0.161 0.036c0.689 0.157 3.42 0.635 5.049 0.882 0.931 0.141 2.471 0.354 2.581 0.359 0.045 0.002 0.075-0.046 0.162-0.255 0.388-0.932 1.452-3.873 1.425-3.941-0.001-0.001-0.005-0.001-0.011 0z" fill="#000000"></path>
</svg>
