<?xml version="1.0" encoding="utf-8"?>
<!-- Generator: Adobe Illustrator 18.0.0, SVG Export Plug-In . SVG Version: 6.00 Build 0)  -->
<!DOCTYPE svg PUBLIC "-//W3C//DTD SVG 1.1//EN" "http://www.w3.org/Graphics/SVG/1.1/DTD/svg11.dtd">
<svg version="1.1" id="Layer_1" xmlns="http://www.w3.org/2000/svg" xmlns:xlink="http://www.w3.org/1999/xlink" x="0px" y="0px"
	 viewBox="0 0 288 288" enable-background="new 0 0 288 288" xml:space="preserve">
<g>
	<path id="path3962" fill="#003366" d="M51.2,81.2c0,0-1.4,37.1,54.2,91.4c55.7,54.2,61.4,77.1,58.5,91.4h40
		c0,0,4.3-62.8-58.5-107.1c0,0-42.8-38.5-50-68.5c0,0-21.4,0-35.7-11.4C59.8,76.9,51.2,72.6,51.2,81.2"/>
	<path id="path3966" fill="#003366" d="M136.9,168.3c11.4,8.6,20,17.1,27.1,25.7c5.7-5.7,11.4-11.4,18.6-18.6
		c55.7-54.2,54.2-92.8,54.2-92.8c0-8.6-8.6-4.3-8.6-4.3c-14.3,11.4-35.7,12.8-35.7,12.8c-7.1,30-50,70-50,70
		c-2.9,1.4-5.7,4.3-8.6,5.7C135.4,166.8,136.9,168.3,136.9,168.3"/>
	<path id="path3970" fill="#003366" d="M136.9,226.8c-7.1-8.6-17.1-20-30-32.8c-25.7,37.1-24.3,74.2-24.3,74.2h40
		C122.6,258.2,124,246.8,136.9,226.8"/>
	<path id="path3974" fill="#003366" d="M124,92.6h40c0,0,5.7-1.4,4.3,5.7c-1.4,10-22.8,30-22.8,30s-15.7-14.3-22.8-28.6
		C121.2,99.7,118.3,92.6,124,92.6"/>
	<path id="path3978" fill="#003366" d="M214,51.2c0,10-7.1,17.1-17.1,17.1s-17.1-7.1-17.1-17.1s7.1-17.1,17.1-17.1
		C206.8,32.6,214,41.2,214,51.2"/>
	<path id="path3982" fill="#003366" d="M111.2,51.2c0,10-7.1,17.1-17.1,17.1s-17.1-7.1-17.1-17.1S84,34.1,94,34.1
		S111.2,41.2,111.2,51.2"/>
	<path id="path3986" fill="#003366" d="M164,36.9c0,10-7.1,17.1-17.1,17.1s-17.1-7.1-17.1-17.1s7.1-17.1,17.1-17.1
		C155.4,19.8,164,26.9,164,36.9"/>
</g>
</svg>
