<?xml version="1.0" encoding="utf-8"?>
<!-- Generator: Adobe Illustrator 18.0.0, SVG Export Plug-In . SVG Version: 6.00 Build 0)  -->
<!DOCTYPE svg PUBLIC "-//W3C//DTD SVG 1.1//EN" "http://www.w3.org/Graphics/SVG/1.1/DTD/svg11.dtd">
<svg version="1.1" id="Layer_1" xmlns="http://www.w3.org/2000/svg" xmlns:xlink="http://www.w3.org/1999/xlink" x="0px" y="0px"
	 viewBox="0 0 48 48" enable-background="new 0 0 48 48" xml:space="preserve">
<g id="layer1" transform="translate(0,-952.36218)">
	<g id="g4088" transform="translate(-2.627806,4.004985)">
		<path id="path3938" fill="#003366" d="M26.8,980.5h-2.7v-12.9h2.7V980.5z"/>
		<path id="path3950" fill="#003366" d="M31.3,970.1h3.2c0.8,0,1.2,0.4,1.2,1.2v1.2c0,0.7-0.4,1.6-1.2,1.6h-3.2V970.1L31.3,970.1z
			 M36.6,980.5h3l-3.1-4.4c1-0.4,1.7-1.5,1.7-2.7v-3.3c0-1.5-1-2.5-2.5-2.5h-4.2h-2.8v12.9h2.7v-4.2h2.6L36.6,980.5z"/>
		<path id="path3954" fill="#003366" d="M49.7,980.5l-3.8-12.9h-1h-1.7h-1l-3.8,12.9H41l3-10l1.5,5.1H44l-1,2.3h3.2l0.8,2.6H49.7z"
			/>
		<path id="path3958" fill="#003366" d="M22.1,977.8v-10.1h-2.6v9.5c0,1.5-0.7,1.6-0.9,1.7c-0.3,0.1-0.9,0.2-0.9,0.2l0.6,2.3
			C22.6,981.2,22.1,977.8,22.1,977.8"/>
		<path id="path3962" fill="#003366" d="M3.6,967.7c0,0-0.1,2.6,3.8,6.4c3.9,3.8,4.3,5.4,4.1,6.4h2.8c0,0,0.3-4.4-4.1-7.5
			c0,0-3-2.7-3.5-4.8c0,0-1.5,0-2.5-0.8C4.2,967.4,3.6,967.1,3.6,967.7"/>
		<path id="path3966" fill="#003366" d="M9.6,973.8c0.8,0.6,1.4,1.2,1.9,1.8c0.4-0.4,0.8-0.8,1.3-1.3c3.9-3.8,3.8-6.5,3.8-6.5
			c0-0.6-0.6-0.3-0.6-0.3c-1,0.8-2.5,0.9-2.5,0.9c-0.5,2.1-3.5,4.9-3.5,4.9c-0.2,0.1-0.4,0.3-0.6,0.4C9.5,973.7,9.6,973.8,9.6,973.8
			"/>
		<path id="path3970" fill="#003366" d="M9.6,977.9c-0.5-0.6-1.2-1.4-2.1-2.3c-1.8,2.6-1.7,5.2-1.7,5.2h2.8
			C8.6,980.1,8.7,979.3,9.6,977.9"/>
		<path id="path3974" fill="#003366" d="M8.7,968.5h2.8c0,0,0.4-0.1,0.3,0.4c-0.1,0.7-1.6,2.1-1.6,2.1s-1.1-1-1.6-2
			C8.5,969,8.3,968.5,8.7,968.5"/>
		<path id="path3978" fill="#003366" d="M15,965.6c0,0.7-0.5,1.2-1.2,1.2c-0.7,0-1.2-0.5-1.2-1.2c0-0.7,0.5-1.2,1.2-1.2
			C14.5,964.3,15,964.9,15,965.6"/>
		<path id="path3982" fill="#003366" d="M7.8,965.6c0,0.7-0.5,1.2-1.2,1.2s-1.2-0.5-1.2-1.2c0-0.7,0.5-1.2,1.2-1.2
			S7.8,964.9,7.8,965.6"/>
		<path id="path3986" fill="#003366" d="M11.5,964.6c0,0.7-0.5,1.2-1.2,1.2c-0.7,0-1.2-0.5-1.2-1.2c0-0.7,0.5-1.2,1.2-1.2
			C10.9,963.4,11.5,963.9,11.5,964.6"/>
	</g>
</g>
</svg>
