<?xml version="1.0" encoding="utf-8"?>
<!-- Generator: Adobe Illustrator 16.0.0, SVG Export Plug-In . SVG Version: 6.00 Build 0)  -->
<!DOCTYPE svg PUBLIC "-//W3C//DTD SVG 1.1//EN" "http://www.w3.org/Graphics/SVG/1.1/DTD/svg11.dtd">
<svg version="1.1" id="Layer_1" xmlns="http://www.w3.org/2000/svg" xmlns:xlink="http://www.w3.org/1999/xlink" x="0px" y="0px"
	 width="48px" height="48px" viewBox="0 0 48 48" enable-background="new 0 0 48 48" xml:space="preserve">
<g>
	<path d="M0.139,0v48h47.998V0H0.139z M22.216,33.979l-2.074-6.493h-7.275l-1.972,6.493H6.577l7.343-22.914h5.337l7.445,22.914
		H22.216z M42.241,26.873H31.158c0.103,2.992,2.448,4.284,5.1,4.284c1.938,0,3.332-0.272,4.59-0.748l0.611,2.89
		c-1.428,0.578-3.399,1.02-5.779,1.02c-5.371,0-8.533-3.298-8.533-8.363c0-4.589,2.788-8.907,8.092-8.907
		c5.371,0,7.139,4.419,7.139,8.057C42.377,25.888,42.31,26.499,42.241,26.873z"/>
	<path d="M16.47,14.396h-0.068c-0.34,1.326-0.68,2.924-1.088,4.283l-1.768,5.644h5.881l-1.802-5.644
		C17.184,17.286,16.81,15.722,16.47,14.396z"/>
	<path d="M35,19.904c-2.584,0-3.672,2.346-3.842,4.045h7.275C38.468,22.42,37.788,19.904,35,19.904z"/>
</g>
</svg>
