<?xml version="1.0" encoding="utf-8"?>
<!DOCTYPE svg PUBLIC "-//W3C//DTD SVG 1.1//EN" "http://www.w3.org/Graphics/SVG/1.1/DTD/svg11.dtd">
<svg version="1.1" id="Layer_1" xmlns="http://www.w3.org/2000/svg" xmlns:xlink="http://www.w3.org/1999/xlink" x="0px" y="0px"
	 width="48px" height="48px" viewBox="0 0 48 48" enable-background="new 0 0 48 48" xml:space="preserve">
<g>
	<path d="M21.976,17.116c0-2.142-1.632-3.128-4.284-3.128c-1.224,0-1.938,0.068-2.379,0.17v6.255h2.142
		C20.344,20.414,21.976,19.054,21.976,17.116z"/>
	<path d="M17.387,23.474h-2.074v7.479c0.544,0.067,1.258,0.102,2.209,0.102c2.686,0,5.065-1.02,5.065-3.842
		C22.588,24.562,20.276,23.474,17.387,23.474z"/>
	<path d="M0,0v48h47.999V0H0z M24.799,32.074c-1.633,1.429-4.318,2.143-8.5,2.143c-2.312,0-4.08-0.17-5.134-0.307v-22.54
		c1.326-0.272,3.74-0.476,6.085-0.476c3.094,0,4.998,0.374,6.562,1.461c1.428,0.85,2.379,2.346,2.379,4.284
		c0,2.108-1.326,4.045-3.807,4.963v0.068c2.415,0.611,4.624,2.516,4.624,5.678C27.008,29.389,26.123,30.986,24.799,32.074z
		 M39.248,21.094c-0.34-0.068-0.715-0.136-1.225-0.136c-2.006,0-3.365,1.292-3.738,3.161c-0.068,0.374-0.137,0.816-0.137,1.292
		v8.567h-4.182V22.76c0-2.244-0.033-3.842-0.137-5.337h3.639l0.137,3.162h0.135c0.816-2.346,2.754-3.536,4.521-3.536
		c0.408,0,0.646,0.034,0.986,0.102V21.094z"/>
</g>
</svg>
