<?xml version="1.0" encoding="utf-8"?>
<!-- Generator: Adobe Illustrator 16.0.0, SVG Export Plug-In . SVG Version: 6.00 Build 0)  -->
<!DOCTYPE svg PUBLIC "-//W3C//DTD SVG 1.1//EN" "http://www.w3.org/Graphics/SVG/1.1/DTD/svg11.dtd">
<svg version="1.1" id="Layer_1" xmlns="http://www.w3.org/2000/svg" xmlns:xlink="http://www.w3.org/1999/xlink" x="0px" y="0px"
	 width="48px" height="48px" viewBox="0 0 48 48" enable-background="new 0 0 48 48" xml:space="preserve">
<g>
	<path d="M0,0v48h48V0H0z M20.46,31.374c-1.705,1.791-4.43,2.703-7.766,2.703c-1.833,0-3.208-0.118-4.227-0.265V14.333
		c1.376-0.265,3.132-0.411,4.99-0.411c3.208,0,5.424,0.763,7.002,2.292c1.654,1.557,2.673,3.907,2.673,7.286
		C23.133,27.024,22.088,29.67,20.46,31.374z M37.875,33.87h-2.902l-1.477-5.815c-0.383-1.499-0.663-2.852-0.942-4.584h-0.051
		c-0.256,1.763-0.586,3.174-0.943,4.584l-1.578,5.815h-2.927l-3.667-14.307h3.208l1.299,6.494c0.281,1.526,0.561,3.084,0.789,4.642
		h0.051c0.256-1.558,0.663-3.145,1.019-4.613l1.605-6.522h2.544l1.555,6.345c0.381,1.675,0.713,3.232,0.992,4.79H36.5
		c0.203-1.558,0.484-3.115,0.814-4.79l1.375-6.345h3.08L37.875,33.87z"/>
	<path d="M13.739,16.743c-0.992,0-1.706,0.088-2.139,0.206v14.161c0.433,0.087,1.095,0.087,1.731,0.087
		c4.074,0.029,6.492-2.556,6.492-7.578C19.849,19.24,17.66,16.743,13.739,16.743z"/>
</g>
</svg>
