<?xml version="1.0" encoding="utf-8"?>
<!-- Generator: Adobe Illustrator 16.0.0, SVG Export Plug-In . SVG Version: 6.00 Build 0)  -->
<!DOCTYPE svg PUBLIC "-//W3C//DTD SVG 1.1//EN" "http://www.w3.org/Graphics/SVG/1.1/DTD/svg11.dtd">
<svg version="1.1" id="Layer_1" xmlns="http://www.w3.org/2000/svg" xmlns:xlink="http://www.w3.org/1999/xlink" x="0px" y="0px"
	 width="48px" height="48px" viewBox="0 0 48 48" enable-background="new 0 0 48 48" xml:space="preserve">
<path d="M0,0v48h48V0H0z M19.445,17.029h-6.81v5.326h6.349v2.892h-6.349v8.189H9.487V14.137h9.958V17.029z M34.598,33.436H31.68
	l-1.484-5.67c-0.385-1.46-0.666-2.777-0.947-4.467h-0.051c-0.256,1.719-0.59,3.093-0.947,4.467l-1.588,5.67h-2.944l-3.686-13.945
	h3.226l0,0l1.305,6.328c0.283,1.49,0.564,3.008,0.795,4.524h0.051c0.256-1.517,0.666-3.063,1.023-4.495l1.613-6.357h2.559
	l1.562,6.185c0.383,1.633,0.717,3.15,0.998,4.667h0.051c0.205-1.517,0.486-3.034,0.818-4.667l1.383-6.185h3.098L34.598,33.436z"/>
</svg>
