<?xml version="1.0" encoding="utf-8"?>
<!-- Generator: Adobe Illustrator 16.0.0, SVG Export Plug-In . SVG Version: 6.00 Build 0)  -->
<!DOCTYPE svg PUBLIC "-//W3C//DTD SVG 1.1//EN" "http://www.w3.org/Graphics/SVG/1.1/DTD/svg11.dtd">
<svg version="1.1" id="Layer_1" xmlns="http://www.w3.org/2000/svg" xmlns:xlink="http://www.w3.org/1999/xlink" x="0px" y="0px"
	 width="48px" height="48px" viewBox="0 0 48 48" enable-background="new 0 0 48 48" xml:space="preserve">
<g>
	<path d="M19.672,16.927h-0.067c-0.334,1.303-0.668,2.873-1.069,4.209L16.8,26.68h5.778l-1.77-5.544
		C20.374,19.766,20.006,18.229,19.672,16.927z"/>
	<path d="M0,0v48h48V0H0z M25.317,36.166l-2.038-6.38h-7.148l-1.938,6.38H9.953l7.214-22.513h5.244l7.315,22.513H25.317z
		 M36.009,36.166h-4.143V19.899h4.143V36.166z M33.904,17.562c-1.37,0-2.271-0.969-2.271-2.205c0-1.27,0.936-2.238,2.305-2.238
		c1.403,0,2.271,0.968,2.305,2.238C36.242,16.593,35.341,17.562,33.904,17.562z"/>
</g>
</svg>
