<?xml version="1.0" encoding="utf-8"?>
<!-- Generator: Adobe Illustrator 16.0.0, SVG Export Plug-In . SVG Version: 6.00 Build 0)  -->
<!DOCTYPE svg PUBLIC "-//W3C//DTD SVG 1.1//EN" "http://www.w3.org/Graphics/SVG/1.1/DTD/svg11.dtd">
<svg version="1.1" id="Layer_1" xmlns="http://www.w3.org/2000/svg" xmlns:xlink="http://www.w3.org/1999/xlink" x="0px" y="0px"
	 width="48px" height="48px" viewBox="0 0 48 48" enable-background="new 0 0 48 48" xml:space="preserve">
<g>
	<path d="M20.259,15.241h-0.074c-0.367,1.433-0.734,3.16-1.175,4.63l-1.911,6.1h6.357l-1.947-6.1
		C21.031,18.364,20.626,16.674,20.259,15.241z"/>
	<path d="M0,0.022v48h48v-48H0z M26.469,36.404l-2.241-7.016h-7.864l-2.131,7.016H9.566l7.937-24.765h5.769l8.047,24.765H26.469z
		 M37.675,36.404h-4.556V18.511h4.556V36.404z M35.361,15.938c-1.507,0-2.5-1.065-2.5-2.425c0-1.396,1.029-2.462,2.536-2.462
		c1.544,0,2.499,1.065,2.536,2.462C37.934,14.873,36.941,15.938,35.361,15.938z"/>
</g>
</svg>
