<?xml version="1.0" encoding="utf-8"?>
<!-- Generator: Adobe Illustrator 16.0.0, SVG Export Plug-In . SVG Version: 6.00 Build 0)  -->
<!DOCTYPE svg PUBLIC "-//W3C//DTD SVG 1.1//EN" "http://www.w3.org/Graphics/SVG/1.1/DTD/svg11.dtd">
<svg version="1.1" id="Layer_1" xmlns="http://www.w3.org/2000/svg" xmlns:xlink="http://www.w3.org/1999/xlink" x="0px" y="0px"
	 width="48px" height="48px" viewBox="0 0 48 48" enable-background="new 0 0 48 48" xml:space="preserve">
<g>
	<path d="M27.168,21.598c-2.504,0-3.897,2.217-3.897,5.102c0,2.819,1.393,4.88,3.866,4.88c1.586,0,2.979-1.078,3.359-2.757
		c0.096-0.349,0.127-0.729,0.127-1.142v-2.312c0-0.318-0.033-0.698-0.096-1.016C30.178,22.833,28.943,21.598,27.168,21.598z"/>
	<path d="M0,0v48h48V0H0z M17.25,34.366h-3.897V13.011h3.897V34.366z M31.16,34.366l-0.158-2.438h-0.062
		c-0.92,1.71-2.789,2.788-5.039,2.788c-3.675,0-6.59-3.137-6.59-7.891c-0.032-5.164,3.201-8.238,6.909-8.238
		c2.123,0,3.643,0.887,4.34,2.028h0.064V11.87h3.896v18.156c0,1.585,0.064,3.296,0.127,4.341H31.16z"/>
</g>
</svg>
