<?xml version="1.0" encoding="utf-8"?>
<!-- Generator: Adobe Illustrator 16.0.0, SVG Export Plug-In . SVG Version: 6.00 Build 0)  -->
<!DOCTYPE svg PUBLIC "-//W3C//DTD SVG 1.1//EN" "http://www.w3.org/Graphics/SVG/1.1/DTD/svg11.dtd">
<svg version="1.1" id="Layer_1" xmlns="http://www.w3.org/2000/svg" xmlns:xlink="http://www.w3.org/1999/xlink" x="0px" y="0px"
	 width="48px" height="48px" viewBox="0 0 48 48" enable-background="new 0 0 48 48" xml:space="preserve">
<path d="M0,0v48h47.999V0H0z M26.381,33.979H12.782V11.065h4.182v19.412h9.417V33.979z M38.043,21.094
	c-0.34-0.068-0.715-0.136-1.225-0.136c-2.006,0-3.365,1.292-3.738,3.161c-0.068,0.374-0.137,0.816-0.137,1.292v8.567h-4.182V22.76
	c0-2.244-0.033-3.842-0.137-5.337h3.639l0.137,3.162h0.135c0.816-2.346,2.754-3.536,4.521-3.536c0.408,0,0.646,0.034,0.986,0.102
	V21.094z"/>
</svg>
