<?xml version="1.0" encoding="utf-8"?>
<!-- Generator: Adobe Illustrator 18.0.0, SVG Export Plug-In . SVG Version: 6.00 Build 0)  -->
<!DOCTYPE svg PUBLIC "-//W3C//DTD SVG 1.1//EN" "http://www.w3.org/Graphics/SVG/1.1/DTD/svg11.dtd">
<svg version="1.1" id="Layer_1" xmlns="http://www.w3.org/2000/svg" xmlns:xlink="http://www.w3.org/1999/xlink" x="0px" y="0px"
	 viewBox="0 0 48 48" enable-background="new 0 0 48 48" xml:space="preserve">
<linearGradient id="path19_1_" gradientUnits="userSpaceOnUse" x1="4.0187" y1="-237.7131" x2="4.0187" y2="-217.7523" gradientTransform="matrix(1 0 0 1 19.7117 246.8911)">
	<stop  offset="0.1497" style="stop-color:#2A4F84"/>
	<stop  offset="0.3884" style="stop-color:#294E82"/>
	<stop  offset="1" style="stop-color:#172E4E"/>
</linearGradient>
<path id="path19" fill="url(#path19_1_)" d="M41.2,25.3c0,2.1-1.5,3.8-3.4,3.8H9.6c-1.9,0-3.4-1.7-3.4-3.8V22l-1.6-2.8L6.2,17v-4
	c0.7-1.8,1.5-3.8,3.4-3.8h28.3c1.9,0,3.4,1.7,3.4,3.8v4.3l1.6,1.9l-1.6,1.7V25.3z"/>
<path id="path21" fill="#F6F6F6" d="M37,18.9c1.7,0.6,2.5,1.6,2.5,3c0,0.9-0.4,1.7-1.1,2.2c-0.7,0.6-1.7,0.9-3,0.9
	c-1.3,0-2.5-0.4-3.6-1c0-0.3,0.1-0.7,0.3-1.1c0.2-0.4,0.3-0.7,0.6-0.9c1,0.5,1.9,0.8,2.7,0.8c0.4,0,0.6-0.1,0.8-0.2
	c0.2-0.1,0.3-0.3,0.3-0.5c0-0.4-0.3-0.7-0.9-0.9L34.5,21c-1.6-0.6-2.4-1.5-2.4-2.8c0-1,0.3-1.7,1-2.3c0.7-0.6,1.6-1,2.7-1
	c0.6,0,1.2,0.1,1.8,0.2c0.7,0.2,1.2,0.5,1.7,0.8c0,0.4,0,0.7-0.2,1.2c-0.2,0.4-0.4,0.7-0.6,0.9c-1.1-0.5-2-0.7-2.7-0.7
	c-0.3,0-0.4,0.1-0.6,0.2c-0.1,0.1-0.2,0.3-0.2,0.4c0,0.3,0.2,0.5,0.7,0.7L37,18.9L37,18.9z"/>
<path id="path23" fill="#F6F6F6" d="M28.5,18.9c1.7,0.6,2.5,1.6,2.5,3c0,0.9-0.4,1.7-1,2.2c-0.7,0.6-1.7,0.9-3,0.9
	c-1.3,0-2.5-0.4-3.6-1c0-0.3,0.1-0.7,0.3-1.1c0.2-0.4,0.3-0.7,0.6-0.9c1,0.5,1.9,0.8,2.7,0.8c0.4,0,0.6-0.1,0.8-0.2
	c0.2-0.1,0.3-0.3,0.3-0.5c0-0.4-0.3-0.7-0.9-0.9l-1-0.4c-1.6-0.6-2.4-1.5-2.4-2.8c0-1,0.3-1.7,1-2.3c0.7-0.6,1.6-1,2.7-1
	c0.6,0,1.2,0.1,1.8,0.2c0.7,0.2,1.2,0.5,1.7,0.8c0,0.4,0,0.7-0.2,1.2c-0.2,0.4-0.4,0.7-0.6,0.9c-1.1-0.5-2-0.7-2.7-0.7
	c-0.3,0-0.4,0.1-0.6,0.2c-0.1,0.1-0.2,0.3-0.2,0.4c0,0.3,0.2,0.5,0.7,0.7L28.5,18.9L28.5,18.9z"/>
<path id="path25" fill="#F6F6F6" d="M22.4,19c0-0.6-0.1-1.1-0.3-1.6c-0.2-0.5-0.4-0.9-0.8-1.3c-0.3-0.4-0.8-0.6-1.2-0.8
	c-0.5-0.2-1-0.5-1.6-0.5c-0.7,0-1.4,0.3-1.9,0.6c-0.5,0.3-1,0.6-1.3,1c-0.4,0.4-0.6,1-0.8,1.6c-0.2,0.6-0.3,1.2-0.3,2
	c0,0.7,0.1,1.4,0.2,2c0.1,0.6,0.4,1.2,0.7,1.6c0.3,0.5,0.8,0.8,1.3,1.1c0.5,0.3,1.2,0.4,2,0.4c1.5,0,2.7-0.4,3.7-1.1
	c-0.1-0.7-0.4-1.3-0.8-1.7c-0.5,0.2-1,0.3-1.4,0.4c-0.4,0.1-0.8,0.1-1.1,0.1c-0.6,0-1-0.2-1.3-0.5c-0.3-0.3-0.4-0.7-0.4-1.2h5
	C22.3,20.5,22.4,19.8,22.4,19z M17.2,19.2c0-0.6,0.2-1.3,0.4-1.6c0.2-0.3,0.5-0.4,0.9-0.4c0.4,0,0.7,0.2,0.9,0.5
	c0.2,0.3,0.3,0.9,0.3,1.4l0,0.2H17.2L17.2,19.2L17.2,19.2z"/>
<g>
	<path fill="#404040" d="M40.2,29.6l-1.1,0v-2.5l0.4-0.1c0.4-0.1,0.6-0.2,0.7-0.4c0.3-0.3,0.5-0.8,0.5-1.3v-2.7c0-1,0.1-1.8,0.5-2.4
		c0.3-0.4,0.7-0.8,1.3-1.1c-0.7-0.5-1.2-1-1.5-1.7c-0.3-0.6-0.3-1.3-0.3-2.1v-2.4c0-0.6-0.2-1.1-0.4-1.3c-0.1-0.1-0.3-0.3-0.8-0.4
		L39,11.1V8.7l1.1,0l0.8,0c0.9,0,1.5,0.4,2,0.8c0.6,0.5,1,1.1,1.3,1.9c0.1,0.5,0.2,0.9,0.2,1.3v2.8c0,0.8,0.2,1.5,0.6,1.9
		c0.2,0.2,0.5,0.4,1.2,0.7l0.3,0.1v2l-0.4,0.1c-0.5,0.1-0.8,0.3-1.1,0.6c-0.5,0.4-0.7,1-0.7,1.7v3.3c0,1.3-0.4,2.2-1.3,2.9
		C42.3,29.3,41.3,29.6,40.2,29.6L40.2,29.6z M40,28.6L40,28.6c1,0,1.8-0.3,2.5-0.8c0.6-0.5,0.9-1.1,0.9-2.1v-3.3c0-1,0.4-1.8,1-2.4
		c0.3-0.3,0.7-0.5,1.1-0.7v-0.6c-0.5-0.2-0.9-0.5-1.2-0.8c-0.6-0.6-0.9-1.5-0.9-2.6v-2.8c0-0.4,0-0.7-0.1-1c-0.2-0.6-0.5-1-0.9-1.4
		C42,10,41.5,9.7,41.1,9.7l-0.9,0l-0.1,0v0.7c0.4,0.1,0.7,0.3,0.9,0.5c0.5,0.5,0.7,1.2,0.7,2v2.4c0,0.7,0,1.3,0.2,1.7
		c0.3,0.7,0.9,1.2,1.9,1.6l1.1,0.5l-1.1,0.4c-0.9,0.3-1.4,0.7-1.7,1.2c-0.3,0.4-0.3,1-0.3,1.9v2.7c0,0.8-0.3,1.6-0.8,2.1
		c-0.2,0.2-0.4,0.4-0.8,0.5V28.6z"/>
</g>
<g>
	<path fill="#404040" d="M7.1,29.6L7.1,29.6c-1.1,0-2.1-0.4-3-1C3.1,27.8,3,26.6,3,25.8v-3.3c0-0.8-0.4-1.4-0.8-1.7
		c-0.1-0.1-0.5-0.3-1.3-0.6l-0.4-0.1v-2L0.8,18c0.9-0.3,1.3-0.5,1.4-0.7C2.6,17,3,16.4,3,15.5l0-3c0-0.3,0-0.7,0.1-1.1
		c0.1-0.7,0.6-1.4,1.3-1.9c0.5-0.4,1.2-0.8,1.9-0.8l0.2,0l2.3,0v2.6l-1.1,0c-0.4,0.1-0.6,0.2-0.6,0.3c-0.2,0.2-0.4,0.7-0.4,1.3v2.4
		c0,0.9-0.1,1.6-0.3,2.1c-0.3,0.6-0.8,1.2-1.5,1.7c0.6,0.3,1,0.7,1.3,1.1c0.4,0.6,0.6,1.3,0.6,2.4v2.7c0,0.4,0.1,1,0.4,1.3
		C7.2,26.7,7.5,26.9,8,27l0.4,0.1v2.5L7.1,29.6z M1.5,19.4c0.6,0.2,1.1,0.4,1.4,0.7C3.6,20.7,4,21.5,4,22.5v3.3c0,1,0.2,1.7,0.8,2.1
		c0.7,0.5,1.4,0.8,2.4,0.8l0.2,0v-0.8c-0.4-0.1-0.6-0.3-0.9-0.5c-0.3-0.3-0.8-0.9-0.8-2v-2.7c0-0.8-0.1-1.4-0.4-1.9
		c-0.3-0.4-0.8-0.8-1.7-1.2l-1.1-0.4l1.1-0.5c0.9-0.4,1.6-1,1.9-1.7c0.2-0.4,0.2-0.9,0.2-1.7v-2.4c0-0.9,0.2-1.6,0.7-2
		c0.2-0.2,0.6-0.4,1.1-0.6l0.1,0l0.3,0V9.7l-1.5,0c-0.6,0-1,0.3-1.4,0.6c-0.5,0.4-0.8,0.8-0.9,1.3c-0.1,0.3-0.1,0.6-0.1,0.9l0,3
		c0,1.3-0.6,2.1-1,2.6c-0.3,0.3-0.7,0.5-1.4,0.8V19.4z"/>
</g>
<path id="path31" fill="#F6F6F6" d="M13.2,22.6h-0.5c-0.6,0-0.8-0.3-0.8-0.9V10.8c0-0.7-0.2-1.1-0.4-1.4c-0.2-0.3-0.7-0.3-1.3-0.3H9
	l-0.1,0v0l0,1.6v11.4c0,0.9,0.2,1.6,0.6,2c0.4,0.4,1,0.6,1.8,0.6c0.6,0,1.3-0.1,2-0.2c0-0.1,0.1-0.4,0.1-0.8
	C13.4,23.4,13.3,23,13.2,22.6L13.2,22.6z"/>
</svg>
