<?xml version="1.0" encoding="utf-8"?>
<!-- Generator: Adobe Illustrator 18.0.0, SVG Export Plug-In . SVG Version: 6.00 Build 0)  -->
<!DOCTYPE svg PUBLIC "-//W3C//DTD SVG 1.1//EN" "http://www.w3.org/Graphics/SVG/1.1/DTD/svg11.dtd">
<svg version="1.1" id="Layer_1" xmlns="http://www.w3.org/2000/svg" xmlns:xlink="http://www.w3.org/1999/xlink" x="0px" y="0px"
	 viewBox="0 0 288 288" enable-background="new 0 0 288 288" xml:space="preserve">
<path id="path21" fill="#404040" d="M222,113.4c10.2,3.6,15,9.6,15,18c0,5.4-2.4,10.2-6.6,13.2c-4.2,3.6-10.2,5.4-18,5.4
	s-15-2.4-21.6-6c0-1.8,0.6-4.2,1.8-6.6c1.2-2.4,1.8-4.2,3.6-5.4c6,3,11.4,4.8,16.2,4.8c2.4,0,3.6-0.6,4.8-1.2c1.2-0.6,1.8-1.8,1.8-3
	c0-2.4-1.8-4.2-5.4-5.4L207,126c-9.6-3.6-14.4-9-14.4-16.8c0-6,1.8-10.2,6-13.8s9.6-6,16.2-6c3.6,0,7.2,0.6,10.8,1.2
	c4.2,1.2,7.2,3,10.2,4.8c0,2.4,0,4.2-1.2,7.2c-1.2,2.4-2.4,4.2-3.6,5.4c-6.6-3-12-4.2-16.2-4.2c-1.8,0-2.4,0.6-3.6,1.2
	c-0.6,0.6-1.2,1.8-1.2,2.4c0,1.8,1.2,3,4.2,4.2L222,113.4L222,113.4z"/>
<path id="path23" fill="#404040" d="M171,113.4c10.2,3.6,15,9.6,15,18c0,5.4-2.4,10.2-6,13.2c-4.2,3.6-10.2,5.4-18,5.4
	s-15-2.4-21.6-6c0-1.8,0.6-4.2,1.8-6.6s1.8-4.2,3.6-5.4c6,3,11.4,4.8,16.2,4.8c2.4,0,3.6-0.6,4.8-1.2c1.2-0.6,1.8-1.8,1.8-3
	c0-2.4-1.8-4.2-5.4-5.4l-6-2.4c-9.6-3.6-14.4-9-14.4-16.8c0-6,1.8-10.2,6-13.8c4.2-3.6,9.6-6,16.2-6c3.6,0,7.2,0.6,10.8,1.2
	c4.2,1.2,7.2,3,10.2,4.8c0,2.4,0,4.2-1.2,7.2c-1.2,2.4-2.4,4.2-3.6,5.4c-6.6-3-12-4.2-16.2-4.2c-1.8,0-2.4,0.6-3.6,1.2
	c-0.6,0.6-1.2,1.8-1.2,2.4c0,1.8,1.2,3,4.2,4.2L171,113.4L171,113.4z"/>
<path id="path25" fill="#404040" d="M134.4,114c0-3.6-0.6-6.6-1.8-9.6c-1.2-3-2.4-5.4-4.8-7.8c-1.8-2.4-4.8-3.6-7.2-4.8
	c-3-1.2-6-3-9.6-3c-4.2,0-8.4,1.8-11.4,3.6c-3,1.8-6,3.6-7.8,6c-2.4,2.4-3.6,6-4.8,9.6c-1.2,3.6-1.8,7.2-1.8,12
	c0,4.2,0.6,8.4,1.2,12c0.6,3.6,2.4,7.2,4.2,9.6c1.8,3,4.8,4.8,7.8,6.6s7.2,2.4,12,2.4c9,0,16.2-2.4,22.2-6.6
	c-0.6-4.2-2.4-7.8-4.8-10.2c-3,1.2-6,1.8-8.4,2.4c-2.4,0.6-4.8,0.6-6.6,0.6c-3.6,0-6-1.2-7.8-3c-1.8-1.8-2.4-4.2-2.4-7.2h30
	C133.8,123,134.4,118.8,134.4,114z M103.2,115.2c0-3.6,1.2-7.8,2.4-9.6s3-2.4,5.4-2.4s4.2,1.2,5.4,3c1.2,1.8,1.8,5.4,1.8,8.4v1.2
	h-15V115.2L103.2,115.2z"/>
<path fill="#404040" d="M277.7,108.6c-3.1-1.8-4.4-3-5.3-4.2c-1.8-2.4-2.7-6.6-2.7-11.4V76.2c0-2.4-0.4-4.8-0.9-7.8
	c-1.3-4.8-3.1-8.4-5.8-11.4c-2.2-2.4-4.9-4.8-8.9-4.8h-3.6h-4.9v14.4l2.2,0.6c2.2,0.6,3.1,1.8,3.6,2.4c0.9,1.2,1.8,4.2,1.8,7.8v14.4
	c0,4.8,0,9,1.3,12.6c1.3,4.2,3.6,7.2,6.7,10.2c-2.7,1.8-4.4,4.2-5.8,6.6c-1.8,3.6-2.2,8.4-2.2,14.4v16.2c0,3-0.9,6-2.2,7.8
	c-0.4,1.2-1.3,1.8-3.1,2.4l-1.8,0.6v15h4.9c4.9,0,9.3-1.8,12.4-4.8c4-4.2,5.8-9.6,5.8-17.4v-19.8c0-4.2,0.9-7.8,3.1-10.2
	c1.3-1.8,2.7-3,4.9-3.6l1.8-0.6v-12L277.7,108.6z"/>
<path fill="#423F3F" d="M31.1,177.6L31.1,177.6c-4.7,0-9-2.4-12.8-6c-4.3-4.8-4.7-12-4.7-16.8V135c0-4.8-1.7-8.4-3.4-10.2
	c-0.4-0.6-2.1-1.8-5.5-3.6L3,120.6v-12l1.3-0.6c3.8-1.8,5.5-3,6-4.2c1.7-1.8,3.4-5.4,3.4-10.8V75c0-1.8,0-4.2,0.4-6.6
	c0.4-4.2,2.6-8.4,5.5-11.4c2.1-2.4,5.1-4.8,8.1-4.8h0.9h9.8v15.6h-4.7c-1.7,0.6-2.6,1.2-2.6,1.8c-0.9,1.2-1.7,4.2-1.7,7.8v14.4
	c0,5.4-0.4,9.6-1.3,12.6c-1.3,3.6-3.4,7.2-6.4,10.2c2.6,1.8,4.3,4.2,5.5,6.6c1.7,3.6,2.6,7.8,2.6,14.4v16.2c0,2.4,0.4,6,1.7,7.8
	c0,0.6,1.3,1.8,3.4,2.4l1.7,0.6v15H31.1z"/>
<path id="path31" fill="#404040" d="M79.2,135.6h-3c-3.6,0-4.8-1.8-4.8-5.4V64.8c0-4.2-1.2-6.6-2.4-8.4c-1.2-1.8-4.2-1.8-7.8-1.8H54
	h-0.6l0,0v9.6v68.4c0,5.4,1.2,9.6,3.6,12c2.4,2.4,6,3.6,10.8,3.6c3.6,0,7.8-0.6,12-1.2c0-0.6,0.6-2.4,0.6-4.8
	C80.4,140.4,79.8,138,79.2,135.6L79.2,135.6z"/>
</svg>


