<?xml version="1.0" encoding="utf-8"?>
<!-- Generator: Adobe Illustrator 16.0.0, SVG Export Plug-In . SVG Version: 6.00 Build 0)  -->
<!DOCTYPE svg PUBLIC "-//W3C//DTD SVG 1.1//EN" "http://www.w3.org/Graphics/SVG/1.1/DTD/svg11.dtd">
<svg version="1.1" id="Layer_1" xmlns="http://www.w3.org/2000/svg" xmlns:xlink="http://www.w3.org/1999/xlink" x="0px" y="0px"
	 width="48px" height="48px" viewBox="0 0 48 48" enable-background="new 0 0 48 48" xml:space="preserve">
<path fill="#0F110B" d="M11.613,30.886c-0.782,0.489-1.96,1.282-2.872,2.144c-1.497,1.413-1.81,3.374-1.021,3.832
	c0.731,0.423,2.436-0.081,3.656-1.411c1.281-1.398,1.809-3.17,1.264-5.18c-0.064,0.038-0.127,0.076-0.189,0.111l0.001,0.003
	l-0.083,0.047C12.051,30.622,11.791,30.778,11.613,30.886z M33.592,30.251c-0.442,0.964-0.466,1.273-0.331,1.37
	c0.644-0.231,1.707-0.789,1.716-2.28c0.001-0.223-0.048-0.462-0.128-0.713C34.162,29.236,33.766,29.874,33.592,30.251z
	 M40.49,27.341c-0.325-0.038-0.636-0.061-0.934-0.068c-1.28-0.034-2.32,0.19-3.164,0.542c0.191,0.501,0.341,1.023,0.36,1.549
	c0.049,1.154-0.746,2.009-1.573,2.618c-0.483,0.356-0.999,0.594-1.43,0.736c-0.347,0.146-0.805,0.296-1.131,0.23
	c-0.718-0.147-1.1-0.784-0.611-2.192c0.264-0.761,1.024-1.921,2.254-2.919c-0.279-0.576-0.593-1.165-0.751-1.704
	c-0.314-1.064-0.408-1.707-0.408-1.707s-1.013,2.1-2.32,4.009c-0.075,0.112-0.151,0.221-0.226,0.329
	c0.257,0.597,0.459,1.227,0.486,1.863c0.048,1.153-0.452,2.026-1.281,2.635c-0.448,0.332-0.928,0.561-1.339,0.706
	c-0.263,0.114-0.796,0.303-1.557,0.354c-0.416,0.028-0.815,0.002-1.039-0.166c-0.307-0.232-0.344-0.519-0.185-0.91
	c0.135-0.332,1.142-1.481,1.985-2.487c0.233-0.278,0.455-0.562,0.653-0.824l-0.005-0.013c0,0,0.152-0.196,0.401-0.541
	c-0.309-0.664-0.7-1.355-0.883-1.982c-0.314-1.064-0.408-1.708-0.408-1.708s-1.027,2.633-2.097,4.733
	c-0.828,1.627-1.381,2.613-1.63,3.046l-0.002,0.018c0,0-0.038,0.063-0.102,0.162l-0.048,0.08l-0.001-0.008
	c-0.278,0.41-0.901,1.214-1.52,1.214c-1.7,0-1.076-3.454-1.076-3.454s-0.497,1.279-1.057,2.377
	c-0.457,0.895-0.873,1.653-1.782,1.653c-0.261,0-0.676-0.008-1.02-0.335c-0.781-0.741-1.378-2.626-1.261-4.085
	c0.1-1.241,0.292-2.1,0.553-2.816c-0.466,0.254-1.005,0.555-1.554,0.878l-0.844,0.496l0.027,0.051
	c0.698,1.35,0.884,4.309-0.638,6.58c-1.522,2.273-4.356,3.655-7.118,2.889c-0.891-0.249-2.237-2.092-1.076-4.661
	c1.023-2.266,5.116-4.407,6.194-4.941l0.296-0.163c-2.15-1.882-7.52-4.42-8.272-8.318c-0.212-1.098,0.302-3.722,3.525-6.739
	c2.71-2.537,6.481-4.48,9.964-5.719c5.852-2.08,12.035-0.853,12.986,2.878c0.936,3.669-2.249,8.058-6.325,9.635
	c-3.64,1.409-6.648,1.186-7.885,0.78c-1.405-0.462-2.229-1.39-2.431-1.913c-0.079-0.205-0.215-0.549,0-0.668
	c0.132-0.073,0.185-0.055,0.538,0.335c0.335,0.37,1.685,1.364,4.249,1.076c6.727-0.754,10.78-5.985,9.5-8.8
	c-0.896-1.97-6.082-2.859-12.561,0.372c-7.909,3.943-8.338,7.193-8.406,8.428c-0.185,3.396,4.189,5.182,6.555,7.708l0.091,0.1
	c0.442-0.244,0.911-0.503,1.369-0.754c1.193-0.656,2.318-1.271,2.843-1.557c0.833-1.211,2.523-2.547,3.743-2.547
	c1.951,0,1.281,2.803,1.281,2.803s0.039-0.127,0.093-0.129c0.055-0.002,0.27-0.369,0.872-0.149c0.62,0.228,0.479,0.662,0.483,0.706
	c0.007,0.086-0.732,2.579-1.04,4.177c-0.146,0.764-0.062,1.319-0.019,1.319c0.061,0,0.184-0.193,0.299-0.402l-0.002-0.007
	c0,0,0.086-0.157,0.23-0.441l0.029-0.059l0.001,0.002c0.17-0.333,0.41-0.823,0.686-1.431c0.542-1.194,2.608-5.802,2.784-6.312
	c0.175-0.51,0.266-1.038,0.353-1.263c0.086-0.227,0.815-0.397,1.669-0.391c0.854,0.006,0.94,0.371,0.946,0.446
	c0.007,0.075-0.406,1.086-0.5,1.801c-0.095,0.715-0.005,1.072,0.074,1.672c0.05,0.392,0.295,0.89,0.585,1.454
	c0.884-1.444,2.438-4.207,2.588-4.981c0.103-0.53,0.266-1.038,0.353-1.263c0.087-0.226,0.815-0.396,1.669-0.39
	c0.854,0.006,0.94,0.371,0.946,0.445c0.006,0.076-0.407,1.086-0.501,1.801c-0.093,0.714-0.004,1.072,0.074,1.672
	c0.067,0.514,0.464,1.204,0.857,1.988c0.876-0.432,1.879-0.747,3.021-0.854c0.26-0.024,0.525-0.037,0.8-0.038
	c0.284-0.002,0.59,0.01,0.874,0.036c0.167,0.014,0.704,0.11,1.216,0.208c0.487,0.095,2.128,0.777,2.786,1.386
	c0.717,0.663,0.763,0.778,1.138,1.454c0.121,0.22,0.232,0.516,0.319,0.898c0.082,0.354,0.091,0.755,0.04,1.104
	c-0.05,0.351-0.084,0.542-0.181,0.728c-0.144,0.274-0.183,0.354-0.43,0.641c-0.148,0.172-0.183,0.212-0.457,0.404
	c-0.126,0.087-0.41,0.252-0.642,0.396c-0.104,0.064-0.287,0.165-0.396,0.16c-0.156-0.006-0.24-0.007-0.235-0.171
	c0.014-0.395,0.58-0.499,0.906-0.844c0.254-0.269,0.388-0.57,0.508-0.954c0.111-0.356,0.09-0.681,0.088-0.894
	c-0.003-0.231-0.212-0.684-0.428-1.022c-0.202-0.317-0.481-0.587-0.641-0.702c-0.501-0.36-0.952-0.692-1.526-0.899
	c-0.694-0.252-1.719-0.399-1.749-0.404C40.793,27.378,40.64,27.358,40.49,27.341L40.49,27.341z M19.762,26.174
	c-0.413,0.463-1.118,1.657-1.447,2.655c-0.655,1.984-0.372,3.999,0.092,4.121c0.542,0.142,1.43-2.51,1.855-3.547
	c0.267-0.649,1.303-3.531,1.076-3.917C21.162,25.185,20.428,25.429,19.762,26.174L19.762,26.174z M27.258,32.859
	c0,0-0.131,0.124-0.073,0.159c0.076,0.045,0.241-0.015,0.421-0.107c0.51-0.321,1.653-1.121,1.656-2.305
	c0-0.035-0.002-0.068-0.004-0.104c-0.266,0.348-0.51,0.657-0.72,0.92C28.177,31.871,27.258,32.859,27.258,32.859L27.258,32.859z"/>
</svg>
